M48
; DRILL file KiCad 10.0.2 date 2026-05-21T23:56:25
; FORMAT={-:-/ absolute / metric / decimal}
; #@! TF.CreationDate,2026-05-21T23:56:25-07:00
; #@! TF.GenerationSoftware,Kicad,Pcbnew,10.0.2
; #@! TF.FileFunction,Plated,1,2,PTH
FMAT,2
METRIC
; #@! TA.AperFunction,Plated,PTH,ViaDrill
T1C0.300
; #@! TA.AperFunction,Plated,PTH,ComponentDrill
T2C0.650
; #@! TA.AperFunction,Plated,PTH,ComponentDrill
T3C0.750
; #@! TA.AperFunction,Plated,PTH,ComponentDrill
T4C0.800
; #@! TA.AperFunction,Plated,PTH,ComponentDrill
T5C0.900
; #@! TA.AperFunction,Plated,PTH,ViaDrill
T6C1.000
; #@! TA.AperFunction,Plated,PTH,ComponentDrill
T7C1.000
; #@! TA.AperFunction,Plated,PTH,ComponentDrill
T8C1.100
; #@! TA.AperFunction,Plated,PTH,ComponentDrill
T9C1.200
; #@! TA.AperFunction,Plated,PTH,ComponentDrill
T10C2.700
%
G90
G05
T1
X28.237Y-69.566
X28.332Y-64.898
X50.753Y-37.5
X50.816Y-43.126
X50.967Y-69.5
X50.978Y-66.716
X51.971Y-41.26
X52.372Y-46.015
X53.617Y-75.847
X61.111Y-78.904
X62.113Y-80.166
X62.528Y-65.504
X62.529Y-80.891
X63.077Y-74.841
X63.408Y-76.954
X63.463Y-66.057
X63.635Y-81.998
X63.647Y-72.082
X64.821Y-76.25
X64.843Y-64.898
X65.187Y-68.883
X65.199Y-32.983
X65.776Y-65.843
X65.98Y-69.59
X67.408Y-46.842
X67.419Y-54.293
X67.855Y-80.814
X68.239Y-38.798
X68.903Y-73.352
X69.426Y-65.989
X70.038Y-83.966
X70.316Y-33.834
X70.745Y-84.623
X70.919Y-41.218
X71.079Y-69.057
X71.145Y-71.413
X73.578Y-85.226
X73.829Y-72.258
X74.001Y-74.414
X75.294Y-71.421
X75.567Y-73.113
X76.096Y-71.367
X86.367Y-74.484
X88.466Y-76.814
X88.492Y-77.748
X89.247Y-58.628
X89.401Y-63.225
X92.425Y-64.74
X92.537Y-71.675
X92.81Y-73.625
X93.814Y-67.421
X93.814Y-69.725
X93.858Y-74.925
X94.301Y-60.681
X94.449Y-69.226
X94.487Y-72.886
X95.087Y-72.277
X95.089Y-71.025
X96.788Y-49.129
X98.112Y-71.025
X99.171Y-41.203
X99.19Y-36.285
X99.913Y-57.156
X100.269Y-36.134
X100.526Y-56.555
X101.118Y-82.321
X102.423Y-40.964
X102.453Y-35.933
X102.845Y-42.813
X120.59Y-39.153
X122.178Y-67.573
X122.768Y-69.797
X123.212Y-45.266
X126.136Y-43.141
X126.232Y-79.157
X127.15Y-36.048
X129.995Y-43.988
X129.995Y-54.5
X137.73Y-39.652
X156.731Y-64.021
X159.258Y-68.312
T3
X23.0Y-64.53
X24.27Y-64.53
X25.54Y-64.53
T4
X18.0Y-59.5
X25.62Y-59.5
T5
X28.523Y-37.5
X30.682Y-37.5
X32.841Y-37.5
X35.0Y-37.5
X58.5Y-37.5
X60.659Y-37.5
X62.818Y-37.5
X64.977Y-37.5
X89.023Y-37.5
X91.182Y-37.5
X93.341Y-37.5
X95.5Y-37.5
X118.523Y-37.5
X120.682Y-37.5
X122.841Y-37.5
X125.0Y-37.5
X148.523Y-37.5
X150.682Y-37.5
X152.841Y-37.5
X155.0Y-37.5
T6
X49.251Y-35.0
T7
X18.72Y-63.57
X18.72Y-66.11
X20.44Y-72.5
X22.98Y-72.5
X25.52Y-72.5
X28.06Y-72.5
T8
X31.02Y-54.5
X33.56Y-54.5
X36.1Y-54.5
X60.44Y-54.5
X62.98Y-54.5
X65.52Y-54.5
X90.44Y-54.5
X92.98Y-54.5
X95.52Y-54.5
X120.52Y-54.5
X123.06Y-54.5
X125.6Y-54.5
X149.94Y-54.5
X152.48Y-54.5
X155.02Y-54.5
X157.77Y-75.75
X157.77Y-80.25
X164.27Y-75.75
X164.27Y-80.25
T9
X22.02Y-87.06
X22.02Y-115.0
X32.02Y-87.06
X32.02Y-115.0
X42.02Y-87.115
X42.02Y-115.055
X52.02Y-87.145
X52.02Y-115.085
X62.02Y-87.115
X62.02Y-115.055
X72.02Y-87.085
X72.02Y-115.025
X82.02Y-87.055
X82.02Y-114.995
X92.02Y-87.085
X92.02Y-115.025
X102.02Y-87.055
X102.02Y-114.995
X112.02Y-87.115
X112.02Y-115.055
X122.02Y-87.115
X122.02Y-115.055
X132.02Y-87.115
X132.02Y-115.055
X142.02Y-87.145
X142.02Y-115.085
X152.02Y-87.145
X152.02Y-115.085
X162.02Y-87.115
X162.02Y-115.055
T10
X29.421Y-22.0
X36.621Y-22.0
X59.463Y-22.039
X66.663Y-22.039
X89.421Y-22.0
X96.621Y-22.0
X119.421Y-22.0
X126.621Y-22.0
X149.421Y-22.0
X156.621Y-22.0
T2
G00X26.271Y-15.475
M15
G01X26.271Y-16.525
M16
G05
G00X39.771Y-15.475
M15
G01X39.771Y-16.525
M16
G05
G00X56.313Y-15.514
M15
G01X56.313Y-16.564
M16
G05
G00X69.813Y-15.514
M15
G01X69.813Y-16.564
M16
G05
G00X86.271Y-15.475
M15
G01X86.271Y-16.525
M16
G05
G00X99.771Y-15.475
M15
G01X99.771Y-16.525
M16
G05
G00X116.271Y-15.475
M15
G01X116.271Y-16.525
M16
G05
G00X129.771Y-15.475
M15
G01X129.771Y-16.525
M16
G05
G00X146.271Y-15.475
M15
G01X146.271Y-16.525
M16
G05
G00X158.365Y-62.18
M15
G01X159.415Y-62.18
M16
G05
G00X158.365Y-70.82
M15
G01X159.415Y-70.82
M16
G05
G00X159.771Y-15.475
M15
G01X159.771Y-16.525
M16
G05
G00X162.795Y-62.18
M15
G01X163.345Y-62.18
M16
G05
G00X162.795Y-70.82
M15
G01X163.345Y-70.82
M16
G05
M30
