%TF.GenerationSoftware,KiCad,Pcbnew,10.0.2*%
%TF.CreationDate,2026-05-21T23:56:23-07:00*%
%TF.ProjectId,Lipo Discharger,4c69706f-2044-4697-9363-686172676572,rev?*%
%TF.SameCoordinates,Original*%
%TF.FileFunction,Copper,L1,Top*%
%TF.FilePolarity,Positive*%
%FSLAX46Y46*%
G04 Gerber Fmt 4.6, Leading zero omitted, Abs format (unit mm)*
G04 Created by KiCad (PCBNEW 10.0.2) date 2026-05-21 23:56:23*
%MOMM*%
%LPD*%
G01*
G04 APERTURE LIST*
G04 Aperture macros list*
%AMRoundRect*
0 Rectangle with rounded corners*
0 $1 Rounding radius*
0 $2 $3 $4 $5 $6 $7 $8 $9 X,Y pos of 4 corners*
0 Add a 4 corners polygon primitive as box body*
4,1,4,$2,$3,$4,$5,$6,$7,$8,$9,$2,$3,0*
0 Add four circle primitives for the rounded corners*
1,1,$1+$1,$2,$3*
1,1,$1+$1,$4,$5*
1,1,$1+$1,$6,$7*
1,1,$1+$1,$8,$9*
0 Add four rect primitives between the rounded corners*
20,1,$1+$1,$2,$3,$4,$5,0*
20,1,$1+$1,$4,$5,$6,$7,0*
20,1,$1+$1,$6,$7,$8,$9,0*
20,1,$1+$1,$8,$9,$2,$3,0*%
G04 Aperture macros list end*
%TA.AperFunction,ComponentPad*%
%ADD10C,2.400000*%
%TD*%
%TA.AperFunction,ComponentPad*%
%ADD11R,1.800000X1.800000*%
%TD*%
%TA.AperFunction,ComponentPad*%
%ADD12C,1.800000*%
%TD*%
%TA.AperFunction,SMDPad,CuDef*%
%ADD13RoundRect,0.250000X-0.337500X-0.475000X0.337500X-0.475000X0.337500X0.475000X-0.337500X0.475000X0*%
%TD*%
%TA.AperFunction,SMDPad,CuDef*%
%ADD14RoundRect,0.250000X-0.350000X-0.450000X0.350000X-0.450000X0.350000X0.450000X-0.350000X0.450000X0*%
%TD*%
%TA.AperFunction,SMDPad,CuDef*%
%ADD15RoundRect,0.150000X0.575000X-0.150000X0.575000X0.150000X-0.575000X0.150000X-0.575000X-0.150000X0*%
%TD*%
%TA.AperFunction,SMDPad,CuDef*%
%ADD16RoundRect,0.075000X0.650000X-0.075000X0.650000X0.075000X-0.650000X0.075000X-0.650000X-0.075000X0*%
%TD*%
%TA.AperFunction,ComponentPad*%
%ADD17O,2.100000X1.000000*%
%TD*%
%TA.AperFunction,ComponentPad*%
%ADD18O,1.600000X1.000000*%
%TD*%
%TA.AperFunction,SMDPad,CuDef*%
%ADD19RoundRect,0.250000X0.475000X-0.337500X0.475000X0.337500X-0.475000X0.337500X-0.475000X-0.337500X0*%
%TD*%
%TA.AperFunction,ComponentPad*%
%ADD20R,0.900000X2.000000*%
%TD*%
%TA.AperFunction,ComponentPad*%
%ADD21RoundRect,1.025000X-1.025000X-1.025000X1.025000X-1.025000X1.025000X1.025000X-1.025000X1.025000X0*%
%TD*%
%TA.AperFunction,ComponentPad*%
%ADD22C,4.100000*%
%TD*%
%TA.AperFunction,SMDPad,CuDef*%
%ADD23RoundRect,0.250000X-1.500000X-0.900000X1.500000X-0.900000X1.500000X0.900000X-1.500000X0.900000X0*%
%TD*%
%TA.AperFunction,SMDPad,CuDef*%
%ADD24RoundRect,0.250000X-1.000000X-0.650000X1.000000X-0.650000X1.000000X0.650000X-1.000000X0.650000X0*%
%TD*%
%TA.AperFunction,SMDPad,CuDef*%
%ADD25RoundRect,0.375000X-0.625000X-0.375000X0.625000X-0.375000X0.625000X0.375000X-0.625000X0.375000X0*%
%TD*%
%TA.AperFunction,SMDPad,CuDef*%
%ADD26RoundRect,0.500000X-0.500000X-1.400000X0.500000X-1.400000X0.500000X1.400000X-0.500000X1.400000X0*%
%TD*%
%TA.AperFunction,SMDPad,CuDef*%
%ADD27RoundRect,0.250000X0.900000X-1.500000X0.900000X1.500000X-0.900000X1.500000X-0.900000X-1.500000X0*%
%TD*%
%TA.AperFunction,ComponentPad*%
%ADD28R,1.905000X2.000000*%
%TD*%
%TA.AperFunction,ComponentPad*%
%ADD29O,1.905000X2.000000*%
%TD*%
%TA.AperFunction,ComponentPad*%
%ADD30C,2.000000*%
%TD*%
%TA.AperFunction,ComponentPad*%
%ADD31R,1.050000X1.500000*%
%TD*%
%TA.AperFunction,ComponentPad*%
%ADD32O,1.050000X1.500000*%
%TD*%
%TA.AperFunction,SMDPad,CuDef*%
%ADD33RoundRect,0.250000X-0.800000X-0.650000X0.800000X-0.650000X0.800000X0.650000X-0.800000X0.650000X0*%
%TD*%
%TA.AperFunction,SMDPad,CuDef*%
%ADD34RoundRect,0.250000X0.350000X0.450000X-0.350000X0.450000X-0.350000X-0.450000X0.350000X-0.450000X0*%
%TD*%
%TA.AperFunction,ComponentPad*%
%ADD35R,1.700000X1.700000*%
%TD*%
%TA.AperFunction,ComponentPad*%
%ADD36C,1.700000*%
%TD*%
%TA.AperFunction,SMDPad,CuDef*%
%ADD37RoundRect,0.075000X-0.662500X-0.075000X0.662500X-0.075000X0.662500X0.075000X-0.662500X0.075000X0*%
%TD*%
%TA.AperFunction,SMDPad,CuDef*%
%ADD38RoundRect,0.075000X-0.075000X-0.662500X0.075000X-0.662500X0.075000X0.662500X-0.075000X0.662500X0*%
%TD*%
%TA.AperFunction,SMDPad,CuDef*%
%ADD39RoundRect,0.250001X-0.462499X-0.624999X0.462499X-0.624999X0.462499X0.624999X-0.462499X0.624999X0*%
%TD*%
%TA.AperFunction,SMDPad,CuDef*%
%ADD40R,2.900000X5.400000*%
%TD*%
%TA.AperFunction,SMDPad,CuDef*%
%ADD41RoundRect,0.162500X0.162500X-0.837500X0.162500X0.837500X-0.162500X0.837500X-0.162500X-0.837500X0*%
%TD*%
%TA.AperFunction,SMDPad,CuDef*%
%ADD42RoundRect,0.100000X-0.637500X-0.100000X0.637500X-0.100000X0.637500X0.100000X-0.637500X0.100000X0*%
%TD*%
%TA.AperFunction,ComponentPad*%
%ADD43RoundRect,0.250000X-0.550000X-0.550000X0.550000X-0.550000X0.550000X0.550000X-0.550000X0.550000X0*%
%TD*%
%TA.AperFunction,ComponentPad*%
%ADD44C,1.600000*%
%TD*%
%TA.AperFunction,ViaPad*%
%ADD45C,2.000000*%
%TD*%
%TA.AperFunction,ViaPad*%
%ADD46C,0.600000*%
%TD*%
%TA.AperFunction,Conductor*%
%ADD47C,0.200000*%
%TD*%
%TA.AperFunction,Conductor*%
%ADD48C,2.000000*%
%TD*%
%TA.AperFunction,Conductor*%
%ADD49C,1.201800*%
%TD*%
G04 APERTURE END LIST*
D10*
%TO.P,R37,2*%
%TO.N,Net-(Q5-D)*%
X42020000Y-87115000D03*
%TO.P,R37,1*%
%TO.N,Net-(R36-Pad2)*%
X42020000Y-115055000D03*
%TD*%
D11*
%TO.P,D4,1,K_1*%
%TO.N,-BATT*%
X155000000Y-37500000D03*
D12*
%TO.P,D4,2,RA_2*%
%TO.N,Net-(D4-RA)*%
X152841000Y-37500000D03*
%TO.P,D4,3,GA_3*%
%TO.N,Net-(D4-GA)*%
X150682000Y-37500000D03*
%TO.P,D4,4,BA_4*%
%TO.N,Net-(D4-BA)*%
X148523000Y-37500000D03*
%TD*%
D13*
%TO.P,C22,2*%
%TO.N,-BATT*%
X24557500Y-40000000D03*
%TO.P,C22,1*%
%TO.N,ADC_P5*%
X22482500Y-40000000D03*
%TD*%
D14*
%TO.P,R33,2*%
%TO.N,-BATT*%
X24520000Y-37500000D03*
%TO.P,R33,1*%
%TO.N,ADC_P5*%
X22520000Y-37500000D03*
%TD*%
%TO.P,R32,2*%
%TO.N,ADC_P5*%
X24520000Y-35000000D03*
%TO.P,R32,1*%
%TO.N,VBAT_P5*%
X22520000Y-35000000D03*
%TD*%
D11*
%TO.P,D12,1,K_1*%
%TO.N,-BATT*%
X35000000Y-37500000D03*
D12*
%TO.P,D12,2,RA_2*%
%TO.N,Net-(D12-RA)*%
X32841000Y-37500000D03*
%TO.P,D12,3,GA_3*%
%TO.N,Net-(D12-GA)*%
X30682000Y-37500000D03*
%TO.P,D12,4,BA_4*%
%TO.N,Net-(D12-BA)*%
X28523000Y-37500000D03*
%TD*%
D11*
%TO.P,D10,1,K_1*%
%TO.N,-BATT*%
X64977000Y-37500000D03*
D12*
%TO.P,D10,2,RA_2*%
%TO.N,Net-(D10-RA)*%
X62818000Y-37500000D03*
%TO.P,D10,3,GA_3*%
%TO.N,Net-(D10-GA)*%
X60659000Y-37500000D03*
%TO.P,D10,4,BA_4*%
%TO.N,Net-(D10-BA)*%
X58500000Y-37500000D03*
%TD*%
D11*
%TO.P,D8,1,K_1*%
%TO.N,-BATT*%
X95500000Y-37500000D03*
D12*
%TO.P,D8,2,RA_2*%
%TO.N,Net-(D8-RA)*%
X93341000Y-37500000D03*
%TO.P,D8,3,GA_3*%
%TO.N,Net-(D8-GA)*%
X91182000Y-37500000D03*
%TO.P,D8,4,BA_4*%
%TO.N,Net-(D8-BA)*%
X89023000Y-37500000D03*
%TD*%
D11*
%TO.P,D6,1,K_1*%
%TO.N,-BATT*%
X125000000Y-37500000D03*
D12*
%TO.P,D6,2,RA_2*%
%TO.N,Net-(D6-RA)*%
X122841000Y-37500000D03*
%TO.P,D6,3,GA_3*%
%TO.N,Net-(D6-GA)*%
X120682000Y-37500000D03*
%TO.P,D6,4,BA_4*%
%TO.N,Net-(D6-BA)*%
X118523000Y-37500000D03*
%TD*%
D15*
%TO.P,J2,A1,GND_A1*%
%TO.N,-BATT*%
X157975000Y-69750000D03*
%TO.P,J2,A4,VBUS_A4*%
%TO.N,Net-(F1-Pad2)*%
X157975000Y-68950000D03*
D16*
%TO.P,J2,A5,CC1_A5*%
%TO.N,Net-(J2-CC1)*%
X157975000Y-67750000D03*
%TO.P,J2,A6,D+_A6*%
%TO.N,USB_DP*%
X157975000Y-66750000D03*
%TO.P,J2,A7,D-_A7*%
%TO.N,USB_DM*%
X157975000Y-66250000D03*
%TO.P,J2,A8,SBU1_A8*%
%TO.N,unconnected-(J2-SBU1-PadA8)*%
X157975000Y-65250000D03*
D15*
%TO.P,J2,A9,VBUS_A9*%
%TO.N,Net-(F1-Pad2)*%
X157975000Y-64050000D03*
%TO.P,J2,A12,GND_A12*%
%TO.N,-BATT*%
X157975000Y-63250000D03*
%TO.P,J2,B1,GND_B1*%
X157975000Y-63250000D03*
%TO.P,J2,B4,VBUS_B4*%
%TO.N,Net-(F1-Pad2)*%
X157975000Y-64050000D03*
D16*
%TO.P,J2,B5,CC2_B5*%
%TO.N,Net-(J2-CC2)*%
X157975000Y-64750000D03*
%TO.P,J2,B6,D+_B6*%
%TO.N,USB_DP*%
X157975000Y-65750000D03*
%TO.P,J2,B7,D-_B7*%
%TO.N,USB_DM*%
X157975000Y-67250000D03*
%TO.P,J2,B8,SBU2_B8*%
%TO.N,unconnected-(J2-SBU2-PadB8)*%
X157975000Y-68250000D03*
D15*
%TO.P,J2,B9,VBUS_B9*%
%TO.N,Net-(F1-Pad2)*%
X157975000Y-68950000D03*
%TO.P,J2,B12,GND_B12*%
%TO.N,-BATT*%
X157975000Y-69750000D03*
D17*
%TO.P,J2,SH,SHIELD_SH*%
X158890000Y-70820000D03*
D18*
X163070000Y-70820000D03*
D17*
X158890000Y-62180000D03*
D18*
X163070000Y-62180000D03*
%TD*%
D19*
%TO.P,C15,1*%
%TO.N,-BATT*%
X55520000Y-79037500D03*
%TO.P,C15,2*%
%TO.N,Net-(U3-NRST)*%
X55520000Y-76962500D03*
%TD*%
D20*
%TO.P,J8,*%
%TO.N,*%
X26271000Y-16000000D03*
X39771000Y-16000000D03*
D21*
%TO.P,J8,1,Pin_1_1*%
%TO.N,VBAT_P5*%
X29421000Y-22000000D03*
D22*
%TO.P,J8,2,Pin_2_2*%
%TO.N,-BATT*%
X36621000Y-22000000D03*
%TD*%
D10*
%TO.P,R36,1*%
%TO.N,Net-(R36-Pad1)*%
X32020000Y-115000000D03*
%TO.P,R36,2*%
%TO.N,Net-(R36-Pad2)*%
X32020000Y-87060000D03*
%TD*%
D14*
%TO.P,R49,1*%
%TO.N,Net-(D10-GA)*%
X69020000Y-37500000D03*
%TO.P,R49,2*%
%TO.N,LED_P4_G*%
X71020000Y-37500000D03*
%TD*%
%TO.P,R44,1*%
%TO.N,Net-(D8-RA)*%
X99520000Y-35000000D03*
%TO.P,R44,2*%
%TO.N,LED_P3_R*%
X101520000Y-35000000D03*
%TD*%
D10*
%TO.P,R24,1*%
%TO.N,Net-(R24-Pad1)*%
X92020000Y-115025000D03*
%TO.P,R24,2*%
%TO.N,Net-(R24-Pad2)*%
X92020000Y-87085000D03*
%TD*%
D14*
%TO.P,R1,1*%
%TO.N,+5V*%
X135982500Y-72500000D03*
%TO.P,R1,2*%
%TO.N,Net-(U1-FB)*%
X137982500Y-72500000D03*
%TD*%
D19*
%TO.P,C17,1*%
%TO.N,Net-(U3-PD1)*%
X53020000Y-79037500D03*
%TO.P,C17,2*%
%TO.N,-BATT*%
X53020000Y-76962500D03*
%TD*%
D23*
%TO.P,D5,1,A1_1*%
%TO.N,-BATT*%
X115320000Y-46000000D03*
%TO.P,D5,2,A2_2*%
%TO.N,VBAT_P2*%
X120720000Y-46000000D03*
%TD*%
D24*
%TO.P,D18,1,K_1*%
%TO.N,+BATT*%
X35520000Y-45500000D03*
%TO.P,D18,2,A_2*%
%TO.N,VBAT_P5*%
X39520000Y-45500000D03*
%TD*%
%TO.P,D16,1,K_1*%
%TO.N,+BATT*%
X95320000Y-45500000D03*
%TO.P,D16,2,A_2*%
%TO.N,VBAT_P3*%
X99320000Y-45500000D03*
%TD*%
D19*
%TO.P,C12,1*%
%TO.N,-BATT*%
X31067500Y-82537500D03*
%TO.P,C12,2*%
%TO.N,+3.3V*%
X31067500Y-80462500D03*
%TD*%
D13*
%TO.P,C3,1*%
%TO.N,+5V*%
X130945000Y-81500000D03*
%TO.P,C3,2*%
%TO.N,-BATT*%
X133020000Y-81500000D03*
%TD*%
D14*
%TO.P,R10,1*%
%TO.N,Net-(Q1-G)*%
X131500000Y-61500000D03*
%TO.P,R10,2*%
%TO.N,GATE_P1*%
X133500000Y-61500000D03*
%TD*%
D25*
%TO.P,U2,1,GND_1*%
%TO.N,-BATT*%
X140370000Y-74700000D03*
%TO.P,U2,2,VO_2*%
%TO.N,+3.3V*%
X140370000Y-77000000D03*
D26*
X146670000Y-77000000D03*
D25*
%TO.P,U2,3,VI_3*%
%TO.N,+5V*%
X140370000Y-79300000D03*
%TD*%
D19*
%TO.P,C16,1*%
%TO.N,Net-(U3-PD0)*%
X58020000Y-79037500D03*
%TO.P,C16,2*%
%TO.N,-BATT*%
X58020000Y-76962500D03*
%TD*%
D13*
%TO.P,C2,1*%
%TO.N,Net-(U1-BST)*%
X112520000Y-68000000D03*
%TO.P,C2,2*%
%TO.N,Net-(D2-A)*%
X114595000Y-68000000D03*
%TD*%
%TO.P,C7,1*%
%TO.N,+5V*%
X135945000Y-78500000D03*
%TO.P,C7,2*%
%TO.N,-BATT*%
X138020000Y-78500000D03*
%TD*%
D14*
%TO.P,R9,1*%
%TO.N,ADC_P1*%
X142520000Y-37500000D03*
%TO.P,R9,2*%
%TO.N,-BATT*%
X144520000Y-37500000D03*
%TD*%
%TO.P,R48,1*%
%TO.N,Net-(U4-~{OE})*%
X113020000Y-80500000D03*
%TO.P,R48,2*%
%TO.N,-BATT*%
X115020000Y-80500000D03*
%TD*%
D27*
%TO.P,D2,1,K_1*%
%TO.N,-BATT*%
X113520000Y-76700000D03*
%TO.P,D2,2,A_2*%
%TO.N,Net-(D2-A)*%
X113520000Y-71300000D03*
%TD*%
D14*
%TO.P,R46,1*%
%TO.N,Net-(D8-BA)*%
X99520000Y-40000000D03*
%TO.P,R46,2*%
%TO.N,LED_P3_B*%
X101520000Y-40000000D03*
%TD*%
%TO.P,R51,1*%
%TO.N,Net-(D12-RA)*%
X39020000Y-35000000D03*
%TO.P,R51,2*%
%TO.N,LED_P5_R*%
X41020000Y-35000000D03*
%TD*%
D10*
%TO.P,R31,1*%
%TO.N,Net-(R30-Pad2)*%
X72020000Y-115025000D03*
%TO.P,R31,2*%
%TO.N,Net-(Q4-D)*%
X72020000Y-87085000D03*
%TD*%
D28*
%TO.P,Q5,1,G_1*%
%TO.N,Net-(Q5-G)*%
X36100000Y-54500000D03*
D29*
%TO.P,Q5,2,S_2*%
%TO.N,-BATT*%
X33560000Y-54500000D03*
%TO.P,Q5,3,D_3*%
%TO.N,Net-(Q5-D)*%
X31020000Y-54500000D03*
%TD*%
D13*
%TO.P,C21,1*%
%TO.N,ADC_P4*%
X52482500Y-40000000D03*
%TO.P,C21,2*%
%TO.N,-BATT*%
X54557500Y-40000000D03*
%TD*%
D14*
%TO.P,R14,1*%
%TO.N,VBAT_P2*%
X112520000Y-35000000D03*
%TO.P,R14,2*%
%TO.N,ADC_P2*%
X114520000Y-35000000D03*
%TD*%
D30*
%TO.P,SW1,1,1_1*%
%TO.N,Net-(U3-BOOT0)*%
X157770000Y-75750000D03*
X164270000Y-75750000D03*
%TO.P,SW1,2,2_2*%
%TO.N,+3.3V*%
X157770000Y-80250000D03*
X164270000Y-80250000D03*
%TD*%
D14*
%TO.P,R40,1*%
%TO.N,Net-(D4-BA)*%
X159020000Y-40000000D03*
%TO.P,R40,2*%
%TO.N,LED_P1_B*%
X161020000Y-40000000D03*
%TD*%
D13*
%TO.P,C4,1*%
%TO.N,+5V*%
X135945000Y-75500000D03*
%TO.P,C4,2*%
%TO.N,-BATT*%
X138020000Y-75500000D03*
%TD*%
D10*
%TO.P,R13,1*%
%TO.N,Net-(R12-Pad2)*%
X162020000Y-115055000D03*
%TO.P,R13,2*%
%TO.N,Net-(Q1-D)*%
X162020000Y-87115000D03*
%TD*%
D14*
%TO.P,R50,1*%
%TO.N,Net-(D10-BA)*%
X69020000Y-40000000D03*
%TO.P,R50,2*%
%TO.N,LED_P4_B*%
X71020000Y-40000000D03*
%TD*%
D31*
%TO.P,Q6,1,B_1*%
%TO.N,Net-(Q6-B)*%
X23000000Y-64530000D03*
D32*
%TO.P,Q6,2,C_2*%
%TO.N,Net-(D13-K)*%
X24270000Y-64530000D03*
%TO.P,Q6,3,E_3*%
%TO.N,-BATT*%
X25540000Y-64530000D03*
%TD*%
D14*
%TO.P,R6,1*%
%TO.N,Net-(J2-CC1)*%
X162020000Y-56500000D03*
%TO.P,R6,2*%
%TO.N,-BATT*%
X164020000Y-56500000D03*
%TD*%
D33*
%TO.P,Y1,1,1_1*%
%TO.N,Net-(U3-PD1)*%
X55070000Y-74650000D03*
%TO.P,Y1,2,2_2*%
%TO.N,Net-(U3-PD0)*%
X57970000Y-74650000D03*
%TO.P,Y1,3*%
%TO.N,N/C*%
X57970000Y-72350000D03*
%TO.P,Y1,4*%
X55070000Y-72350000D03*
%TD*%
D14*
%TO.P,R52,1*%
%TO.N,Net-(D12-GA)*%
X39020000Y-37500000D03*
%TO.P,R52,2*%
%TO.N,LED_P5_G*%
X41020000Y-37500000D03*
%TD*%
D10*
%TO.P,R58,1*%
%TO.N,VBAT_P4*%
X52020000Y-115085000D03*
%TO.P,R58,2*%
%TO.N,Net-(R30-Pad1)*%
X52020000Y-87145000D03*
%TD*%
D14*
%TO.P,R17,1*%
%TO.N,Net-(Q2-G)*%
X66520000Y-67000000D03*
%TO.P,R17,2*%
%TO.N,GATE_P2*%
X68520000Y-67000000D03*
%TD*%
D19*
%TO.P,C9,1*%
%TO.N,-BATT*%
X22037500Y-82537500D03*
%TO.P,C9,2*%
%TO.N,+3.3V*%
X22037500Y-80462500D03*
%TD*%
D13*
%TO.P,C23,1*%
%TO.N,+3.3V*%
X22000000Y-78000000D03*
%TO.P,C23,2*%
%TO.N,-BATT*%
X24075000Y-78000000D03*
%TD*%
%TO.P,C20,1*%
%TO.N,ADC_P3*%
X82982500Y-40000000D03*
%TO.P,C20,2*%
%TO.N,-BATT*%
X85057500Y-40000000D03*
%TD*%
D14*
%TO.P,R22,1*%
%TO.N,Net-(Q3-G)*%
X93020000Y-50000000D03*
%TO.P,R22,2*%
%TO.N,-BATT*%
X95020000Y-50000000D03*
%TD*%
D10*
%TO.P,R59,1*%
%TO.N,VBAT_P5*%
X22020000Y-115000000D03*
%TO.P,R59,2*%
%TO.N,Net-(R36-Pad1)*%
X22020000Y-87060000D03*
%TD*%
D24*
%TO.P,D17,1,K_1*%
%TO.N,+BATT*%
X65020000Y-45500000D03*
%TO.P,D17,2,A_2*%
%TO.N,VBAT_P4*%
X69020000Y-45500000D03*
%TD*%
D34*
%TO.P,R4,1*%
%TO.N,Net-(U3-BOOT0)*%
X64520000Y-67000000D03*
%TO.P,R4,2*%
%TO.N,-BATT*%
X62520000Y-67000000D03*
%TD*%
D10*
%TO.P,R55,1*%
%TO.N,VBAT_P1*%
X142020000Y-115085000D03*
%TO.P,R55,2*%
%TO.N,Net-(R12-Pad1)*%
X142020000Y-87145000D03*
%TD*%
D23*
%TO.P,D9,1,A1_1*%
%TO.N,-BATT*%
X54820000Y-46000000D03*
%TO.P,D9,2,A2_2*%
%TO.N,VBAT_P4*%
X60220000Y-46000000D03*
%TD*%
D28*
%TO.P,Q4,1,G_1*%
%TO.N,Net-(Q4-G)*%
X65520000Y-54500000D03*
D29*
%TO.P,Q4,2,S_2*%
%TO.N,-BATT*%
X62980000Y-54500000D03*
%TO.P,Q4,3,D_3*%
%TO.N,Net-(Q4-D)*%
X60440000Y-54500000D03*
%TD*%
D14*
%TO.P,R21,1*%
%TO.N,ADC_P3*%
X83020000Y-37500000D03*
%TO.P,R21,2*%
%TO.N,-BATT*%
X85020000Y-37500000D03*
%TD*%
D10*
%TO.P,R18,1*%
%TO.N,Net-(R18-Pad1)*%
X122020000Y-115055000D03*
%TO.P,R18,2*%
%TO.N,Net-(R18-Pad2)*%
X122020000Y-87115000D03*
%TD*%
D24*
%TO.P,D14,1,K_1*%
%TO.N,+BATT*%
X155020000Y-45500000D03*
%TO.P,D14,2,A_2*%
%TO.N,VBAT_P1*%
X159020000Y-45500000D03*
%TD*%
D14*
%TO.P,R43,1*%
%TO.N,Net-(D6-BA)*%
X129020000Y-40000000D03*
%TO.P,R43,2*%
%TO.N,LED_P2_B*%
X131020000Y-40000000D03*
%TD*%
D19*
%TO.P,C13,1*%
%TO.N,-BATT*%
X34077500Y-82537500D03*
%TO.P,C13,2*%
%TO.N,+3.3V*%
X34077500Y-80462500D03*
%TD*%
D14*
%TO.P,R8,1*%
%TO.N,VBAT_P1*%
X142520000Y-35000000D03*
%TO.P,R8,2*%
%TO.N,ADC_P1*%
X144520000Y-35000000D03*
%TD*%
%TO.P,R53,1*%
%TO.N,Net-(D12-BA)*%
X39020000Y-40000000D03*
%TO.P,R53,2*%
%TO.N,LED_P5_B*%
X41020000Y-40000000D03*
%TD*%
%TO.P,R38,1*%
%TO.N,Net-(D4-RA)*%
X159020000Y-35000000D03*
%TO.P,R38,2*%
%TO.N,LED_P1_R*%
X161020000Y-35000000D03*
%TD*%
D35*
%TO.P,J3,1,Pin_1_1*%
%TO.N,+3.3V*%
X28060000Y-72500000D03*
D36*
%TO.P,J3,2,Pin_2_2*%
%TO.N,Net-(J3-Pin_2)*%
X25520000Y-72500000D03*
%TO.P,J3,3,Pin_3_3*%
%TO.N,Net-(J3-Pin_3)*%
X22980000Y-72500000D03*
%TO.P,J3,4,Pin_4_4*%
%TO.N,-BATT*%
X20440000Y-72500000D03*
%TD*%
D19*
%TO.P,C11,1*%
%TO.N,-BATT*%
X28057500Y-82537500D03*
%TO.P,C11,2*%
%TO.N,+3.3V*%
X28057500Y-80462500D03*
%TD*%
D14*
%TO.P,R27,1*%
%TO.N,ADC_P4*%
X52520000Y-37500000D03*
%TO.P,R27,2*%
%TO.N,-BATT*%
X54520000Y-37500000D03*
%TD*%
%TO.P,R15,1*%
%TO.N,ADC_P2*%
X112520000Y-37500000D03*
%TO.P,R15,2*%
%TO.N,-BATT*%
X114520000Y-37500000D03*
%TD*%
%TO.P,R7,1*%
%TO.N,Net-(J2-CC2)*%
X162020000Y-59500000D03*
%TO.P,R7,2*%
%TO.N,-BATT*%
X164020000Y-59500000D03*
%TD*%
%TO.P,R26,1*%
%TO.N,VBAT_P4*%
X52520000Y-35000000D03*
%TO.P,R26,2*%
%TO.N,ADC_P4*%
X54520000Y-35000000D03*
%TD*%
%TO.P,R23,1*%
%TO.N,Net-(Q3-G)*%
X85500000Y-75500000D03*
%TO.P,R23,2*%
%TO.N,GATE_P3*%
X87500000Y-75500000D03*
%TD*%
D13*
%TO.P,C6,1*%
%TO.N,+3.3V*%
X28000000Y-78000000D03*
%TO.P,C6,2*%
%TO.N,-BATT*%
X30075000Y-78000000D03*
%TD*%
D24*
%TO.P,D15,1,K_1*%
%TO.N,+BATT*%
X125520000Y-45500000D03*
%TO.P,D15,2,A_2*%
%TO.N,VBAT_P2*%
X129520000Y-45500000D03*
%TD*%
D14*
%TO.P,R47,1*%
%TO.N,Net-(D10-RA)*%
X69020000Y-35000000D03*
%TO.P,R47,2*%
%TO.N,LED_P4_R*%
X71020000Y-35000000D03*
%TD*%
D20*
%TO.P,J7,*%
%TO.N,*%
X56313100Y-16038900D03*
X69813100Y-16038900D03*
D21*
%TO.P,J7,1,Pin_1_1*%
%TO.N,VBAT_P4*%
X59463100Y-22038900D03*
D22*
%TO.P,J7,2,Pin_2_2*%
%TO.N,-BATT*%
X66663100Y-22038900D03*
%TD*%
D14*
%TO.P,R45,1*%
%TO.N,Net-(D8-GA)*%
X99520000Y-37500000D03*
%TO.P,R45,2*%
%TO.N,LED_P3_G*%
X101520000Y-37500000D03*
%TD*%
%TO.P,R2,1*%
%TO.N,Net-(U1-FB)*%
X117020000Y-78000000D03*
%TO.P,R2,2*%
%TO.N,-BATT*%
X119020000Y-78000000D03*
%TD*%
%TO.P,R34,1*%
%TO.N,Net-(Q5-G)*%
X34020000Y-50000000D03*
%TO.P,R34,2*%
%TO.N,-BATT*%
X36020000Y-50000000D03*
%TD*%
%TO.P,R42,1*%
%TO.N,Net-(D6-GA)*%
X129020000Y-37500000D03*
%TO.P,R42,2*%
%TO.N,LED_P2_G*%
X131020000Y-37500000D03*
%TD*%
D13*
%TO.P,C5,1*%
%TO.N,+5V*%
X135945000Y-81500000D03*
%TO.P,C5,2*%
%TO.N,-BATT*%
X138020000Y-81500000D03*
%TD*%
D34*
%TO.P,R5,1*%
%TO.N,Net-(U3-PD0)*%
X56520000Y-83000000D03*
%TO.P,R5,2*%
%TO.N,Net-(U3-PD1)*%
X54520000Y-83000000D03*
%TD*%
D14*
%TO.P,R28,1*%
%TO.N,Net-(Q4-G)*%
X63020000Y-50000000D03*
%TO.P,R28,2*%
%TO.N,-BATT*%
X65020000Y-50000000D03*
%TD*%
D10*
%TO.P,R30,1*%
%TO.N,Net-(R30-Pad1)*%
X62020000Y-115055000D03*
%TO.P,R30,2*%
%TO.N,Net-(R30-Pad2)*%
X62020000Y-87115000D03*
%TD*%
D23*
%TO.P,D1,1,A1_1*%
%TO.N,+BATT*%
X135820000Y-54500000D03*
%TO.P,D1,2,A2_2*%
%TO.N,-BATT*%
X141220000Y-54500000D03*
%TD*%
D20*
%TO.P,J4,*%
%TO.N,*%
X146271000Y-16000000D03*
X159771000Y-16000000D03*
D21*
%TO.P,J4,1,Pin_1_1*%
%TO.N,VBAT_P1*%
X149421000Y-22000000D03*
D22*
%TO.P,J4,2,Pin_2_2*%
%TO.N,-BATT*%
X156621000Y-22000000D03*
%TD*%
D28*
%TO.P,Q2,1,G_1*%
%TO.N,Net-(Q2-G)*%
X125600000Y-54500000D03*
D29*
%TO.P,Q2,2,S_2*%
%TO.N,-BATT*%
X123060000Y-54500000D03*
%TO.P,Q2,3,D_3*%
%TO.N,Net-(Q2-D)*%
X120520000Y-54500000D03*
%TD*%
D37*
%TO.P,U3,1,VBAT_1*%
%TO.N,+3.3V*%
X61837500Y-72250000D03*
%TO.P,U3,2,PC13_2*%
%TO.N,unconnected-(U3-PC13-Pad2)*%
X61837500Y-72750000D03*
%TO.P,U3,3,PC14_3*%
%TO.N,unconnected-(U3-PC14-Pad3)*%
X61837500Y-73250000D03*
%TO.P,U3,4,PC15_4*%
%TO.N,unconnected-(U3-PC15-Pad4)*%
X61837500Y-73750000D03*
%TO.P,U3,5,PD0_5*%
%TO.N,Net-(U3-PD0)*%
X61837500Y-74250000D03*
%TO.P,U3,6,PD1_6*%
%TO.N,Net-(U3-PD1)*%
X61837500Y-74750000D03*
%TO.P,U3,7,NRST_7*%
%TO.N,Net-(U3-NRST)*%
X61837500Y-75250000D03*
%TO.P,U3,8,VSSA_8*%
%TO.N,-BATT*%
X61837500Y-75750000D03*
%TO.P,U3,9,VDDA_9*%
%TO.N,+3.3V*%
X61837500Y-76250000D03*
%TO.P,U3,10,PA0_10*%
%TO.N,ADC_P1*%
X61837500Y-76750000D03*
%TO.P,U3,11,PA1_11*%
%TO.N,ADC_P2*%
X61837500Y-77250000D03*
%TO.P,U3,12,PA2_12*%
%TO.N,ADC_P3*%
X61837500Y-77750000D03*
D38*
%TO.P,U3,13,PA3_13*%
%TO.N,ADC_P4*%
X63250000Y-79162500D03*
%TO.P,U3,14,PA4_14*%
%TO.N,ADC_P5*%
X63750000Y-79162500D03*
%TO.P,U3,15,PA5_15*%
%TO.N,unconnected-(U3-PA5-Pad15)*%
X64250000Y-79162500D03*
%TO.P,U3,16,PA6_16*%
%TO.N,unconnected-(U3-PA6-Pad16)*%
X64750000Y-79162500D03*
%TO.P,U3,17,PA7_17*%
%TO.N,unconnected-(U3-PA7-Pad17)*%
X65250000Y-79162500D03*
%TO.P,U3,18,PB0_18*%
%TO.N,GATE_P1*%
X65750000Y-79162500D03*
%TO.P,U3,19,PB1_19*%
%TO.N,GATE_P2*%
X66250000Y-79162500D03*
%TO.P,U3,20,PB2_20*%
%TO.N,GATE_P3*%
X66750000Y-79162500D03*
%TO.P,U3,21,PB10_21*%
%TO.N,unconnected-(U3-PB10-Pad21)*%
X67250000Y-79162500D03*
%TO.P,U3,22,PB11_22*%
%TO.N,unconnected-(U3-PB11-Pad22)*%
X67750000Y-79162500D03*
%TO.P,U3,23,VSS_23*%
%TO.N,-BATT*%
X68250000Y-79162500D03*
%TO.P,U3,24,VDD_24*%
%TO.N,+3.3V*%
X68750000Y-79162500D03*
D37*
%TO.P,U3,25,PB12_25*%
%TO.N,unconnected-(U3-PB12-Pad25)*%
X70162500Y-77750000D03*
%TO.P,U3,26,PB13_26*%
%TO.N,unconnected-(U3-PB13-Pad26)*%
X70162500Y-77250000D03*
%TO.P,U3,27,PB14_27*%
%TO.N,unconnected-(U3-PB14-Pad27)*%
X70162500Y-76750000D03*
%TO.P,U3,28,PB15_28*%
%TO.N,unconnected-(U3-PB15-Pad28)*%
X70162500Y-76250000D03*
%TO.P,U3,29,PA8_29*%
%TO.N,unconnected-(U3-PA8-Pad29)*%
X70162500Y-75750000D03*
%TO.P,U3,30,PA9_30*%
%TO.N,unconnected-(U3-PA9-Pad30)*%
X70162500Y-75250000D03*
%TO.P,U3,31,PA10_31*%
%TO.N,unconnected-(U3-PA10-Pad31)*%
X70162500Y-74750000D03*
%TO.P,U3,32,PA11_32*%
%TO.N,USB_DM*%
X70162500Y-74250000D03*
%TO.P,U3,33,PA12_33*%
%TO.N,USB_DP*%
X70162500Y-73750000D03*
%TO.P,U3,34,PA13_34*%
%TO.N,Net-(J3-Pin_2)*%
X70162500Y-73250000D03*
%TO.P,U3,35,VSS_35*%
%TO.N,-BATT*%
X70162500Y-72750000D03*
%TO.P,U3,36,VDD_36*%
%TO.N,+3.3V*%
X70162500Y-72250000D03*
D38*
%TO.P,U3,37,PA14_37*%
%TO.N,Net-(J3-Pin_3)*%
X68750000Y-70837500D03*
%TO.P,U3,38,PA15_38*%
%TO.N,unconnected-(U3-PA15-Pad38)*%
X68250000Y-70837500D03*
%TO.P,U3,39,PB3_39*%
%TO.N,GATE_P4*%
X67750000Y-70837500D03*
%TO.P,U3,40,PB4_40*%
%TO.N,GATE_P5*%
X67250000Y-70837500D03*
%TO.P,U3,41,PB5_41*%
%TO.N,unconnected-(U3-PB5-Pad41)*%
X66750000Y-70837500D03*
%TO.P,U3,42,PB6_42*%
%TO.N,I2C_SCL*%
X66250000Y-70837500D03*
%TO.P,U3,43,PB7_43*%
%TO.N,I2C_SDA*%
X65750000Y-70837500D03*
%TO.P,U3,44,BOOT0_44*%
%TO.N,Net-(U3-BOOT0)*%
X65250000Y-70837500D03*
%TO.P,U3,45,PB8_45*%
%TO.N,FAN_CTRL*%
X64750000Y-70837500D03*
%TO.P,U3,46,PB9_46*%
%TO.N,unconnected-(U3-PB9-Pad46)*%
X64250000Y-70837500D03*
%TO.P,U3,47,VSS_47*%
%TO.N,-BATT*%
X63750000Y-70837500D03*
%TO.P,U3,48,VDD_48*%
%TO.N,+3.3V*%
X63250000Y-70837500D03*
%TD*%
D39*
%TO.P,F1,1*%
%TO.N,+5V*%
X140532500Y-72000000D03*
%TO.P,F1,2*%
%TO.N,Net-(F1-Pad2)*%
X143507500Y-72000000D03*
%TD*%
D14*
%TO.P,R29,1*%
%TO.N,Net-(Q4-G)*%
X70500000Y-67000000D03*
%TO.P,R29,2*%
%TO.N,GATE_P4*%
X72500000Y-67000000D03*
%TD*%
D13*
%TO.P,C19,1*%
%TO.N,ADC_P2*%
X112482500Y-40000000D03*
%TO.P,C19,2*%
%TO.N,-BATT*%
X114557500Y-40000000D03*
%TD*%
%TO.P,C1,1*%
%TO.N,+BATT*%
X116982500Y-68500000D03*
%TO.P,C1,2*%
%TO.N,-BATT*%
X119057500Y-68500000D03*
%TD*%
D34*
%TO.P,R3,1*%
%TO.N,+3.3V*%
X57520000Y-69500000D03*
%TO.P,R3,2*%
%TO.N,Net-(U3-NRST)*%
X55520000Y-69500000D03*
%TD*%
D14*
%TO.P,R20,1*%
%TO.N,VBAT_P3*%
X83020000Y-35000000D03*
%TO.P,R20,2*%
%TO.N,ADC_P3*%
X85020000Y-35000000D03*
%TD*%
D10*
%TO.P,R57,1*%
%TO.N,VBAT_P3*%
X82020000Y-114995000D03*
%TO.P,R57,2*%
%TO.N,Net-(R24-Pad1)*%
X82020000Y-87055000D03*
%TD*%
D13*
%TO.P,C8,1*%
%TO.N,+3.3V*%
X58462500Y-67000000D03*
%TO.P,C8,2*%
%TO.N,-BATT*%
X60537500Y-67000000D03*
%TD*%
D20*
%TO.P,J6,*%
%TO.N,*%
X86271000Y-16000000D03*
X99771000Y-16000000D03*
D21*
%TO.P,J6,1,Pin_1_1*%
%TO.N,VBAT_P3*%
X89421000Y-22000000D03*
D22*
%TO.P,J6,2,Pin_2_2*%
%TO.N,-BATT*%
X96621000Y-22000000D03*
%TD*%
D28*
%TO.P,Q3,1,G_1*%
%TO.N,Net-(Q3-G)*%
X95520000Y-54500000D03*
D29*
%TO.P,Q3,2,S_2*%
%TO.N,-BATT*%
X92980000Y-54500000D03*
%TO.P,Q3,3,D_3*%
%TO.N,Net-(Q3-D)*%
X90440000Y-54500000D03*
%TD*%
D14*
%TO.P,R54,1*%
%TO.N,FAN_CTRL*%
X54500000Y-67000000D03*
%TO.P,R54,2*%
%TO.N,Net-(Q6-B)*%
X56500000Y-67000000D03*
%TD*%
D40*
%TO.P,L1,1,1_1*%
%TO.N,Net-(D2-A)*%
X122170000Y-73000000D03*
%TO.P,L1,2,2_2*%
%TO.N,+5V*%
X131870000Y-73000000D03*
%TD*%
D20*
%TO.P,J5,*%
%TO.N,*%
X116271000Y-16000000D03*
X129771000Y-16000000D03*
D21*
%TO.P,J5,1,Pin_1_1*%
%TO.N,VBAT_P2*%
X119421000Y-22000000D03*
D22*
%TO.P,J5,2,Pin_2_2*%
%TO.N,-BATT*%
X126621000Y-22000000D03*
%TD*%
D23*
%TO.P,D11,1,A1_1*%
%TO.N,-BATT*%
X25320000Y-46000000D03*
%TO.P,D11,2,A2_2*%
%TO.N,VBAT_P5*%
X30720000Y-46000000D03*
%TD*%
D41*
%TO.P,U1,1,BST_1*%
%TO.N,Net-(U1-BST)*%
X117070000Y-74710000D03*
%TO.P,U1,2,GND_2*%
%TO.N,-BATT*%
X118020000Y-74710000D03*
%TO.P,U1,3,FB_3*%
%TO.N,Net-(U1-FB)*%
X118970000Y-74710000D03*
%TO.P,U1,4,EN_4*%
%TO.N,+BATT*%
X118970000Y-71290000D03*
%TO.P,U1,5,IN_5*%
X118020000Y-71290000D03*
%TO.P,U1,6,SW_6*%
%TO.N,Net-(D2-A)*%
X117070000Y-71290000D03*
%TD*%
D14*
%TO.P,R11,1*%
%TO.N,Net-(Q1-G)*%
X153020000Y-50000000D03*
%TO.P,R11,2*%
%TO.N,-BATT*%
X155020000Y-50000000D03*
%TD*%
%TO.P,R16,1*%
%TO.N,Net-(Q2-G)*%
X123020000Y-50000000D03*
%TO.P,R16,2*%
%TO.N,-BATT*%
X125020000Y-50000000D03*
%TD*%
D23*
%TO.P,D7,1,A1_1*%
%TO.N,-BATT*%
X85120000Y-46000000D03*
%TO.P,D7,2,A2_2*%
%TO.N,VBAT_P3*%
X90520000Y-46000000D03*
%TD*%
D14*
%TO.P,R41,1*%
%TO.N,Net-(D6-RA)*%
X129020000Y-35000000D03*
%TO.P,R41,2*%
%TO.N,LED_P2_R*%
X131020000Y-35000000D03*
%TD*%
%TO.P,R35,1*%
%TO.N,Net-(Q5-G)*%
X37020000Y-61500000D03*
%TO.P,R35,2*%
%TO.N,GATE_P5*%
X39020000Y-61500000D03*
%TD*%
D13*
%TO.P,C18,1*%
%TO.N,ADC_P1*%
X142482500Y-40000000D03*
%TO.P,C18,2*%
%TO.N,-BATT*%
X144557500Y-40000000D03*
%TD*%
D42*
%TO.P,U4,1,A3_1*%
%TO.N,-BATT*%
X91137500Y-67775000D03*
%TO.P,U4,2,A4_2*%
X91137500Y-68425000D03*
%TO.P,U4,3,LED0_3*%
%TO.N,LED_P1_R*%
X91137500Y-69075000D03*
%TO.P,U4,4,LED1_4*%
%TO.N,LED_P1_G*%
X91137500Y-69725000D03*
%TO.P,U4,5,LED2_5*%
%TO.N,LED_P1_B*%
X91137500Y-70375000D03*
%TO.P,U4,6,LED3_6*%
%TO.N,LED_P2_R*%
X91137500Y-71025000D03*
%TO.P,U4,7,LED4_7*%
%TO.N,LED_P2_G*%
X91137500Y-71675000D03*
%TO.P,U4,8,LED5_8*%
%TO.N,LED_P2_B*%
X91137500Y-72325000D03*
%TO.P,U4,9,LED6_9*%
%TO.N,LED_P3_R*%
X91137500Y-72975000D03*
%TO.P,U4,10,LED7_10*%
%TO.N,LED_P3_G*%
X91137500Y-73625000D03*
%TO.P,U4,11,VSS_11*%
%TO.N,-BATT*%
X91137500Y-74275000D03*
%TO.P,U4,12,LED8_12*%
%TO.N,LED_P3_B*%
X91137500Y-74925000D03*
%TO.P,U4,13,LED9_13*%
%TO.N,LED_P4_R*%
X91137500Y-75575000D03*
%TO.P,U4,14,LED10_14*%
%TO.N,LED_P4_G*%
X91137500Y-76225000D03*
%TO.P,U4,15,LED11_15*%
%TO.N,LED_P4_B*%
X96862500Y-76225000D03*
%TO.P,U4,16,LED12_16*%
%TO.N,LED_P5_R*%
X96862500Y-75575000D03*
%TO.P,U4,17,LED13_17*%
%TO.N,LED_P5_G*%
X96862500Y-74925000D03*
%TO.P,U4,18,LED14_18*%
%TO.N,LED_P5_B*%
X96862500Y-74275000D03*
%TO.P,U4,19,LED15_19*%
%TO.N,unconnected-(U4-LED15-Pad19)*%
X96862500Y-73625000D03*
%TO.P,U4,20,~{OE}_20*%
%TO.N,Net-(U4-~{OE})*%
X96862500Y-72975000D03*
%TO.P,U4,21,A5_21*%
%TO.N,-BATT*%
X96862500Y-72325000D03*
%TO.P,U4,22,EXTCLK_22*%
%TO.N,unconnected-(U4-EXTCLK-Pad22)*%
X96862500Y-71675000D03*
%TO.P,U4,23,SCL_23*%
%TO.N,I2C_SCL*%
X96862500Y-71025000D03*
%TO.P,U4,24,SDA_24*%
%TO.N,I2C_SDA*%
X96862500Y-70375000D03*
%TO.P,U4,25,VDD_25*%
%TO.N,+3.3V*%
X96862500Y-69725000D03*
%TO.P,U4,26,A0_26*%
%TO.N,-BATT*%
X96862500Y-69075000D03*
%TO.P,U4,27,A1_27*%
X96862500Y-68425000D03*
%TO.P,U4,28,A2_28*%
X96862500Y-67775000D03*
%TD*%
D19*
%TO.P,C14,1*%
%TO.N,-BATT*%
X37087500Y-82537500D03*
%TO.P,C14,2*%
%TO.N,+3.3V*%
X37087500Y-80462500D03*
%TD*%
D43*
%TO.P,D13,1,K_1*%
%TO.N,Net-(D13-K)*%
X18000000Y-59500000D03*
D44*
%TO.P,D13,2,A_2*%
%TO.N,+5V*%
X25620000Y-59500000D03*
%TD*%
D10*
%TO.P,R56,1*%
%TO.N,VBAT_P2*%
X112020000Y-115055000D03*
%TO.P,R56,2*%
%TO.N,Net-(R18-Pad1)*%
X112020000Y-87115000D03*
%TD*%
%TO.P,R19,1*%
%TO.N,Net-(R18-Pad2)*%
X132020000Y-115055000D03*
%TO.P,R19,2*%
%TO.N,Net-(Q2-D)*%
X132020000Y-87115000D03*
%TD*%
D23*
%TO.P,D3,1,A1_1*%
%TO.N,-BATT*%
X145320000Y-46000000D03*
%TO.P,D3,2,A2_2*%
%TO.N,VBAT_P1*%
X150720000Y-46000000D03*
%TD*%
D28*
%TO.P,Q1,1,G_1*%
%TO.N,Net-(Q1-G)*%
X155020000Y-54500000D03*
D29*
%TO.P,Q1,2,S_2*%
%TO.N,-BATT*%
X152480000Y-54500000D03*
%TO.P,Q1,3,D_3*%
%TO.N,Net-(Q1-D)*%
X149940000Y-54500000D03*
%TD*%
D10*
%TO.P,R12,1*%
%TO.N,Net-(R12-Pad1)*%
X152020000Y-115085000D03*
%TO.P,R12,2*%
%TO.N,Net-(R12-Pad2)*%
X152020000Y-87145000D03*
%TD*%
%TO.P,R25,1*%
%TO.N,Net-(R24-Pad2)*%
X102020000Y-114995000D03*
%TO.P,R25,2*%
%TO.N,Net-(Q3-D)*%
X102020000Y-87055000D03*
%TD*%
D19*
%TO.P,C10,1*%
%TO.N,-BATT*%
X25047500Y-82537500D03*
%TO.P,C10,2*%
%TO.N,+3.3V*%
X25047500Y-80462500D03*
%TD*%
D14*
%TO.P,R39,1*%
%TO.N,Net-(D4-GA)*%
X159020000Y-37500000D03*
%TO.P,R39,2*%
%TO.N,LED_P1_G*%
X161020000Y-37500000D03*
%TD*%
D35*
%TO.P,J9,1,Pin_1_1*%
%TO.N,Net-(D13-K)*%
X18720000Y-63570000D03*
D36*
%TO.P,J9,2,Pin_2_2*%
%TO.N,+5V*%
X18720000Y-66110000D03*
%TD*%
D45*
%TO.N,VBAT_P4*%
X49250900Y-35000000D03*
D46*
%TO.N,LED_P1_G*%
X93813800Y-69725000D03*
X99912700Y-57156300D03*
%TO.N,LED_P2_R*%
X95088600Y-71025000D03*
X127149800Y-36048500D03*
%TO.N,I2C_SDA*%
X65979800Y-69589600D03*
X73829500Y-72257600D03*
%TO.N,I2C_SCL*%
X98111700Y-71025000D03*
X92425000Y-64740500D03*
%TO.N,LED_P2_G*%
X92536800Y-71675000D03*
X120589900Y-39153000D03*
%TO.N,LED_P3_G*%
X102422700Y-40964000D03*
X92809600Y-73625000D03*
%TO.N,LED_P4_R*%
X76096100Y-71367400D03*
X70316400Y-33833700D03*
%TO.N,Net-(J3-Pin_3)*%
X71079400Y-69057000D03*
X64843200Y-64897700D03*
X28332400Y-64897700D03*
%TO.N,Net-(J3-Pin_2)*%
X68902700Y-73351800D03*
X70744500Y-84623300D03*
%TO.N,LED_P1_R*%
X94448700Y-69225800D03*
X100526300Y-56554600D03*
%TO.N,LED_P5_B*%
X63634900Y-81997900D03*
X50816300Y-43126000D03*
%TO.N,LED_P2_B*%
X95086700Y-72277274D03*
X126136300Y-43141100D03*
%TO.N,ADC_P5*%
X62112600Y-80165600D03*
X52372300Y-46015300D03*
%TO.N,Net-(Q3-G)*%
X89247100Y-58627600D03*
X86366900Y-74483800D03*
%TO.N,ADC_P3*%
X63408500Y-76953800D03*
X67408100Y-46841600D03*
%TO.N,GATE_P2*%
X69425600Y-65989100D03*
X67854800Y-80814300D03*
%TO.N,Net-(Q2-G)*%
X67419000Y-54293500D03*
X65775600Y-65843000D03*
%TO.N,LED_P5_G*%
X50752600Y-37500000D03*
X62528800Y-80890500D03*
%TO.N,LED_P4_B*%
X70919200Y-41218100D03*
X88491600Y-77747800D03*
%TO.N,LED_P1_B*%
X93813800Y-67421500D03*
X94300900Y-60681500D03*
%TO.N,Net-(U3-BOOT0)*%
X65187000Y-68883300D03*
X70038200Y-83966300D03*
%TO.N,ADC_P2*%
X123211600Y-45266000D03*
X101118000Y-82321400D03*
%TO.N,ADC_P4*%
X51970600Y-41260200D03*
X61110800Y-78903700D03*
%TO.N,LED_P5_R*%
X75567100Y-73113200D03*
X65198800Y-32982800D03*
%TO.N,LED_P3_B*%
X102844700Y-42813500D03*
X93858000Y-74925000D03*
%TO.N,ADC_P1*%
X126231900Y-79157200D03*
X137730300Y-39652300D03*
%TO.N,Net-(D8-BA)*%
X99170800Y-41203000D03*
%TO.N,Net-(D8-GA)*%
X99190200Y-36284700D03*
%TO.N,GATE_P1*%
X88465600Y-76814100D03*
X89401500Y-63225000D03*
%TO.N,+3.3V*%
X28236900Y-69566000D03*
X74001100Y-74414000D03*
X71145415Y-71413115D03*
X73577900Y-85226000D03*
X64821200Y-76250000D03*
%TO.N,+BATT*%
X122768200Y-69797500D03*
X129995300Y-54500000D03*
X129994900Y-43988400D03*
%TO.N,LED_P3_R*%
X102453000Y-35933000D03*
X94486700Y-72885900D03*
%TO.N,Net-(D8-RA)*%
X100269500Y-36134400D03*
%TO.N,LED_P4_G*%
X75294300Y-71421200D03*
X68239200Y-38798500D03*
%TO.N,Net-(U3-NRST)*%
X50967100Y-69500000D03*
X53616600Y-75846900D03*
X50978000Y-66716100D03*
X62528400Y-65504000D03*
X63077400Y-74841300D03*
%TO.N,Net-(F1-Pad2)*%
X159258100Y-68312100D03*
X156730800Y-64021200D03*
%TO.N,-BATT*%
X96787700Y-49129200D03*
X122178100Y-67573500D03*
X63462600Y-66057400D03*
X63647100Y-72081700D03*
%TD*%
%TO.N,-BATT*%
D47*
X149793000Y-52500000D02*
X150445700Y-53152700D01*
X143220000Y-52500000D02*
X149793000Y-52500000D01*
X141220000Y-54500000D02*
X143220000Y-52500000D01*
X95799900Y-69473400D02*
X96198300Y-69075000D01*
X96198300Y-69075000D02*
X96862500Y-69075000D01*
X95799900Y-71934800D02*
X95799900Y-69473400D01*
X95686700Y-72258900D02*
X95686700Y-72048000D01*
X95686700Y-72048000D02*
X95799900Y-71934800D01*
X95686700Y-72806900D02*
X95686700Y-72258900D01*
X94218600Y-74275000D02*
X95686700Y-72806900D01*
X91137500Y-74275000D02*
X94218600Y-74275000D01*
X95752800Y-72325000D02*
X95686700Y-72258900D01*
X95927800Y-72325000D02*
X95752800Y-72325000D01*
%TO.N,LED_P2_B*%
X95086700Y-72277274D02*
X95079774Y-72284200D01*
X95079774Y-72284200D02*
X91178300Y-72284200D01*
X91178300Y-72284200D02*
X91137500Y-72325000D01*
%TO.N,+3.3V*%
X70999385Y-71413115D02*
X70162500Y-72250000D01*
X71145415Y-71413115D02*
X70999385Y-71413115D01*
%TO.N,VBAT_P3*%
D48*
X91122962Y-26039500D02*
X93460500Y-26039500D01*
X83020000Y-34142462D02*
X91122962Y-26039500D01*
X83020000Y-35000000D02*
X83020000Y-34142462D01*
X93460500Y-26039500D02*
X89421000Y-22000000D01*
%TO.N,ADC_P3*%
D47*
X83020000Y-37000000D02*
X83020000Y-37500000D01*
X85020000Y-35000000D02*
X83020000Y-37000000D01*
%TO.N,VBAT_P4*%
D48*
X52520000Y-35000000D02*
X49250900Y-35000000D01*
%TO.N,LED_P5_R*%
D47*
X45000000Y-32982800D02*
X43037200Y-32982800D01*
%TO.N,ADC_P4*%
X52520000Y-37000000D02*
X52520000Y-37500000D01*
X54520000Y-35000000D02*
X52520000Y-37000000D01*
%TO.N,LED_P1_G*%
X125919900Y-57156300D02*
X99912700Y-57156300D01*
X134076600Y-48999600D02*
X125919900Y-57156300D01*
X134076600Y-48927400D02*
X134076600Y-48999600D01*
X134801800Y-48202200D02*
X134076600Y-48927400D01*
X146872500Y-48202200D02*
X134801800Y-48202200D01*
X148042400Y-47032300D02*
X146872500Y-48202200D01*
X148042400Y-44889900D02*
X148042400Y-47032300D01*
X151918500Y-41013800D02*
X148042400Y-44889900D01*
X159652500Y-41013800D02*
X151918500Y-41013800D01*
X160020000Y-40646300D02*
X159652500Y-41013800D01*
X160020000Y-38500000D02*
X160020000Y-40646300D01*
X161020000Y-37500000D02*
X160020000Y-38500000D01*
X91137500Y-69725000D02*
X93813800Y-69725000D01*
%TO.N,LED_P2_R*%
X129971500Y-36048500D02*
X127149800Y-36048500D01*
X131020000Y-35000000D02*
X129971500Y-36048500D01*
X95088600Y-71025000D02*
X91137500Y-71025000D01*
%TO.N,Net-(D6-RA)*%
X125263400Y-35000000D02*
X129020000Y-35000000D01*
X122841000Y-37422400D02*
X125263400Y-35000000D01*
X122841000Y-37500000D02*
X122841000Y-37422400D01*
%TO.N,FAN_CTRL*%
X64750000Y-70065500D02*
X64750000Y-70837500D01*
X63446800Y-68762300D02*
X64750000Y-70065500D01*
X60647500Y-68762300D02*
X63446800Y-68762300D01*
X59500000Y-67614800D02*
X60647500Y-68762300D01*
X59500000Y-66429700D02*
X59500000Y-67614800D01*
X59005200Y-65934900D02*
X59500000Y-66429700D01*
X55565100Y-65934900D02*
X59005200Y-65934900D01*
X54500000Y-67000000D02*
X55565100Y-65934900D01*
%TO.N,I2C_SDA*%
X65750000Y-69819400D02*
X65979800Y-69589600D01*
X65750000Y-70837500D02*
X65750000Y-69819400D01*
X74116200Y-71970900D02*
X73829500Y-72257600D01*
X74116200Y-71127200D02*
X74116200Y-71970900D01*
X75552900Y-69690500D02*
X74116200Y-71127200D01*
X86189300Y-69690500D02*
X75552900Y-69690500D01*
X89480300Y-66399500D02*
X86189300Y-69690500D01*
X97525900Y-66399500D02*
X89480300Y-66399500D01*
X97725900Y-66599500D02*
X97525900Y-66399500D01*
X97725900Y-66691300D02*
X97725900Y-66599500D01*
X97834300Y-66799700D02*
X97725900Y-66691300D01*
X97963800Y-66799700D02*
X97834300Y-66799700D01*
X98406000Y-67241900D02*
X97963800Y-66799700D01*
X98406000Y-69515700D02*
X98406000Y-67241900D01*
X97546700Y-70375000D02*
X98406000Y-69515700D01*
X96862500Y-70375000D02*
X97546700Y-70375000D01*
%TO.N,I2C_SCL*%
X66250000Y-71688600D02*
X66250000Y-70837500D01*
X66499500Y-71938100D02*
X66250000Y-71688600D01*
X68962800Y-71938100D02*
X66499500Y-71938100D01*
X69263300Y-71637600D02*
X68962800Y-71938100D01*
X70072400Y-71637600D02*
X69263300Y-71637600D01*
X76969500Y-64740500D02*
X70072400Y-71637600D01*
X92425000Y-64740500D02*
X76969500Y-64740500D01*
X96862500Y-71025000D02*
X98111700Y-71025000D01*
%TO.N,GATE_P5*%
X62677000Y-61500000D02*
X39020000Y-61500000D01*
X67452500Y-66275500D02*
X62677000Y-61500000D01*
X67452500Y-67983100D02*
X67452500Y-66275500D01*
X67250000Y-68185600D02*
X67452500Y-67983100D01*
X67250000Y-70837500D02*
X67250000Y-68185600D01*
%TO.N,GATE_P4*%
X67750000Y-70028600D02*
X67750000Y-70837500D01*
X68101600Y-69677000D02*
X67750000Y-70028600D01*
X69607000Y-69677000D02*
X68101600Y-69677000D01*
X72284000Y-67000000D02*
X69607000Y-69677000D01*
X72500000Y-67000000D02*
X72284000Y-67000000D01*
%TO.N,LED_P2_G*%
X127626100Y-39153000D02*
X120589900Y-39153000D01*
X128029100Y-38750000D02*
X127626100Y-39153000D01*
X129770000Y-38750000D02*
X128029100Y-38750000D01*
X131020000Y-37500000D02*
X129770000Y-38750000D01*
X91137500Y-71675000D02*
X92536800Y-71675000D01*
%TO.N,Net-(D6-GA)*%
X121883700Y-38701700D02*
X120682000Y-37500000D01*
X127250400Y-38701700D02*
X121883700Y-38701700D01*
X128452100Y-37500000D02*
X127250400Y-38701700D01*
X129020000Y-37500000D02*
X128452100Y-37500000D01*
%TO.N,LED_P3_G*%
X102422700Y-38402700D02*
X102422700Y-40964000D01*
X101520000Y-37500000D02*
X102422700Y-38402700D01*
X91137500Y-73625000D02*
X92809600Y-73625000D01*
%TO.N,LED_P4_R*%
X71020000Y-34537300D02*
X71020000Y-35000000D01*
X70316400Y-33833700D02*
X71020000Y-34537300D01*
X86254800Y-71367400D02*
X76096100Y-71367400D01*
X90462400Y-75575000D02*
X86254800Y-71367400D01*
X91137500Y-75575000D02*
X90462400Y-75575000D01*
%TO.N,GATE_P3*%
X66750000Y-79969800D02*
X66750000Y-79162500D01*
X66992800Y-80212600D02*
X66750000Y-79969800D01*
X82787400Y-80212600D02*
X66992800Y-80212600D01*
X87500000Y-75500000D02*
X82787400Y-80212600D01*
%TO.N,Net-(D10-RA)*%
X62818000Y-37403700D02*
X62818000Y-37500000D01*
X65221700Y-35000000D02*
X62818000Y-37403700D01*
X69020000Y-35000000D02*
X65221700Y-35000000D01*
%TO.N,Net-(J3-Pin_3)*%
X69298900Y-70837500D02*
X71079400Y-69057000D01*
X68750000Y-70837500D02*
X69298900Y-70837500D01*
X64843200Y-64897700D02*
X28332400Y-64897700D01*
%TO.N,Net-(J3-Pin_2)*%
X69004500Y-73250000D02*
X68902700Y-73351800D01*
X70162500Y-73250000D02*
X69004500Y-73250000D01*
X26474800Y-71545200D02*
X25520000Y-72500000D01*
X26888200Y-71545200D02*
X26474800Y-71545200D01*
X26888200Y-71545100D02*
X26888200Y-71545200D01*
X27088300Y-71345000D02*
X26888200Y-71545100D01*
X31258000Y-71345000D02*
X27088300Y-71345000D01*
X44737300Y-84824300D02*
X31258000Y-71345000D01*
X70543500Y-84824300D02*
X44737300Y-84824300D01*
X70744500Y-84623300D02*
X70543500Y-84824300D01*
%TO.N,LED_P1_R*%
X159960000Y-33940000D02*
X161020000Y-35000000D01*
X150326300Y-33940000D02*
X159960000Y-33940000D01*
X147294100Y-36972200D02*
X150326300Y-33940000D01*
X147294100Y-44779000D02*
X147294100Y-36972200D01*
X147640700Y-45125600D02*
X147294100Y-44779000D01*
X147640700Y-46866000D02*
X147640700Y-45125600D01*
X146706200Y-47800500D02*
X147640700Y-46866000D01*
X134635500Y-47800500D02*
X146706200Y-47800500D01*
X133674900Y-48761100D02*
X134635500Y-47800500D01*
X133674900Y-48833300D02*
X133674900Y-48761100D01*
X125794900Y-56713300D02*
X133674900Y-48833300D01*
X100685000Y-56713300D02*
X125794900Y-56713300D01*
X100526300Y-56554600D02*
X100685000Y-56713300D01*
X94297900Y-69075000D02*
X94448700Y-69225800D01*
X91137500Y-69075000D02*
X94297900Y-69075000D01*
%TO.N,LED_P5_B*%
X44146000Y-43126000D02*
X41020000Y-40000000D01*
X50816300Y-43126000D02*
X44146000Y-43126000D01*
X63857800Y-82220800D02*
X63634900Y-81997900D01*
X69165900Y-82220800D02*
X63857800Y-82220800D01*
X69258700Y-82128000D02*
X69165900Y-82220800D01*
X92888300Y-82128000D02*
X69258700Y-82128000D01*
X98309300Y-76707000D02*
X92888300Y-82128000D01*
X98309300Y-75005700D02*
X98309300Y-76707000D01*
X97578600Y-74275000D02*
X98309300Y-75005700D01*
X96862500Y-74275000D02*
X97578600Y-74275000D01*
%TO.N,Net-(D12-BA)*%
X31023000Y-40000000D02*
X28523000Y-37500000D01*
X39020000Y-40000000D02*
X31023000Y-40000000D01*
%TO.N,LED_P2_B*%
X127878900Y-43141100D02*
X126136300Y-43141100D01*
X131020000Y-40000000D02*
X127878900Y-43141100D01*
%TO.N,Net-(D6-BA)*%
X120577000Y-40000000D02*
X129020000Y-40000000D01*
X118523000Y-37946000D02*
X120577000Y-40000000D01*
X118523000Y-37500000D02*
X118523000Y-37946000D01*
%TO.N,Net-(Q4-G)*%
X65520000Y-54500000D02*
X65520000Y-53198300D01*
X65520000Y-54500000D02*
X66774200Y-54500000D01*
X66011000Y-52707300D02*
X65520000Y-53198300D01*
X66011000Y-49350500D02*
X66011000Y-52707300D01*
X65634300Y-48973800D02*
X66011000Y-49350500D01*
X64046200Y-48973800D02*
X65634300Y-48973800D01*
X63020000Y-50000000D02*
X64046200Y-48973800D01*
X70500000Y-58225800D02*
X70500000Y-67000000D01*
X66774200Y-54500000D02*
X70500000Y-58225800D01*
%TO.N,VBAT_P1*%
D48*
X150944300Y-23523200D02*
X149421000Y-22000000D01*
X142520000Y-31947500D02*
X150944300Y-23523200D01*
X142520000Y-35000000D02*
X142520000Y-31947500D01*
X162863600Y-41656400D02*
X159020000Y-45500000D01*
X162863600Y-33936900D02*
X162863600Y-41656400D01*
X152449900Y-23523200D02*
X162863600Y-33936900D01*
X150944300Y-23523200D02*
X152449900Y-23523200D01*
X156861700Y-43341700D02*
X159020000Y-45500000D01*
X153378300Y-43341700D02*
X156861700Y-43341700D01*
X150720000Y-46000000D02*
X153378300Y-43341700D01*
%TO.N,ADC_P5*%
D47*
X22520000Y-37000000D02*
X22520000Y-37500000D01*
X24520000Y-35000000D02*
X22520000Y-37000000D01*
X22482500Y-37537500D02*
X22482500Y-40000000D01*
X22520000Y-37500000D02*
X22482500Y-37537500D01*
X23881400Y-41398900D02*
X22482500Y-40000000D01*
X39821100Y-41398900D02*
X23881400Y-41398900D01*
X44437500Y-46015300D02*
X39821100Y-41398900D01*
X52372300Y-46015300D02*
X44437500Y-46015300D01*
X62179200Y-80232200D02*
X62112600Y-80165600D01*
X63468200Y-80232200D02*
X62179200Y-80232200D01*
X63750000Y-79950400D02*
X63468200Y-80232200D01*
X63750000Y-79162500D02*
X63750000Y-79950400D01*
%TO.N,Net-(Q3-G)*%
X94265700Y-51245700D02*
X93020000Y-50000000D01*
X94265700Y-54500000D02*
X94265700Y-51245700D01*
X94265800Y-54500000D02*
X94265700Y-54500000D01*
X95520000Y-54500000D02*
X95018000Y-54500000D01*
X95018000Y-54500000D02*
X94265800Y-54500000D01*
X90890400Y-58627600D02*
X89247100Y-58627600D01*
X95018000Y-54500000D02*
X90890400Y-58627600D01*
X85500000Y-75350700D02*
X85500000Y-75500000D01*
X86366900Y-74483800D02*
X85500000Y-75350700D01*
%TO.N,ADC_P3*%
X83020000Y-39962500D02*
X83020000Y-37500000D01*
X82982500Y-40000000D02*
X83020000Y-39962500D01*
X62612300Y-77750000D02*
X63408500Y-76953800D01*
X61837500Y-77750000D02*
X62612300Y-77750000D01*
X76140900Y-46841600D02*
X67408100Y-46841600D01*
X82982500Y-40000000D02*
X76140900Y-46841600D01*
%TO.N,GATE_P2*%
X68520000Y-66894700D02*
X69425600Y-65989100D01*
X68520000Y-67000000D02*
X68520000Y-66894700D01*
X66987600Y-80814300D02*
X67854800Y-80814300D01*
X66250000Y-80076700D02*
X66987600Y-80814300D01*
X66250000Y-79162500D02*
X66250000Y-80076700D01*
%TO.N,Net-(Q2-G)*%
X125600000Y-52580000D02*
X123020000Y-50000000D01*
X125600000Y-54500000D02*
X125600000Y-52580000D01*
X65775600Y-66255600D02*
X66520000Y-67000000D01*
X65775600Y-65843000D02*
X65775600Y-66255600D01*
X125600000Y-54500000D02*
X124345800Y-54500000D01*
X72357800Y-59232300D02*
X67419000Y-54293500D01*
X90946400Y-59232300D02*
X72357800Y-59232300D01*
X94374000Y-55804700D02*
X90946400Y-59232300D01*
X123589800Y-55804700D02*
X94374000Y-55804700D01*
X124345800Y-55048700D02*
X123589800Y-55804700D01*
X124345800Y-54500000D02*
X124345800Y-55048700D01*
%TO.N,VBAT_P4*%
D48*
X62837200Y-43382800D02*
X60220000Y-46000000D01*
X66902800Y-43382800D02*
X62837200Y-43382800D01*
X69020000Y-45500000D02*
X66902800Y-43382800D01*
X60938500Y-22038900D02*
X59463100Y-22038900D01*
X72879500Y-33979900D02*
X60938500Y-22038900D01*
X72879500Y-41640500D02*
X72879500Y-33979900D01*
X69020000Y-45500000D02*
X72879500Y-41640500D01*
%TO.N,LED_P5_G*%
D47*
X41020000Y-37500000D02*
X50752600Y-37500000D01*
X63627900Y-80890500D02*
X62528800Y-80890500D01*
X64556500Y-81819100D02*
X63627900Y-80890500D01*
X68999600Y-81819100D02*
X64556500Y-81819100D01*
X69092400Y-81726300D02*
X68999600Y-81819100D01*
X91927100Y-81726300D02*
X69092400Y-81726300D01*
X96215200Y-77438200D02*
X91927100Y-81726300D01*
X97010100Y-77438200D02*
X96215200Y-77438200D01*
X97907600Y-76540700D02*
X97010100Y-77438200D01*
X97907600Y-75313900D02*
X97907600Y-76540700D01*
X97518700Y-74925000D02*
X97907600Y-75313900D01*
X96862500Y-74925000D02*
X97518700Y-74925000D01*
%TO.N,Net-(D12-GA)*%
X37366100Y-39153900D02*
X39020000Y-37500000D01*
X32335900Y-39153900D02*
X37366100Y-39153900D01*
X30682000Y-37500000D02*
X32335900Y-39153900D01*
%TO.N,Net-(D13-K)*%
X19963400Y-63478300D02*
X24270000Y-63478300D01*
X19871700Y-63570000D02*
X19963400Y-63478300D01*
X18720000Y-63570000D02*
X19871700Y-63570000D01*
X24270000Y-64530000D02*
X24270000Y-63478300D01*
%TO.N,Net-(Q6-B)*%
X23000000Y-64530000D02*
X23000000Y-65581700D01*
X55478100Y-68021900D02*
X56500000Y-67000000D01*
X25440200Y-68021900D02*
X55478100Y-68021900D01*
X23000000Y-65581700D02*
X25440200Y-68021900D01*
%TO.N,LED_P4_B*%
X71020000Y-41117300D02*
X70919200Y-41218100D01*
X71020000Y-40000000D02*
X71020000Y-41117300D01*
X93113200Y-77747800D02*
X88491600Y-77747800D01*
X94636000Y-76225000D02*
X93113200Y-77747800D01*
X96862500Y-76225000D02*
X94636000Y-76225000D01*
%TO.N,Net-(D10-BA)*%
X61000000Y-40000000D02*
X58500000Y-37500000D01*
X69020000Y-40000000D02*
X61000000Y-40000000D01*
%TO.N,LED_P1_B*%
X93649800Y-67257500D02*
X93813800Y-67421500D01*
X90348800Y-67257500D02*
X93649800Y-67257500D01*
X90097900Y-67508400D02*
X90348800Y-67257500D01*
X90097900Y-70018700D02*
X90097900Y-67508400D01*
X90454200Y-70375000D02*
X90097900Y-70018700D01*
X91137500Y-70375000D02*
X90454200Y-70375000D01*
X122962700Y-60681500D02*
X94300900Y-60681500D01*
X134693500Y-48950700D02*
X122962700Y-60681500D01*
X146692000Y-48950700D02*
X134693500Y-48950700D01*
X148444100Y-47198600D02*
X146692000Y-48950700D01*
X148444100Y-45092600D02*
X148444100Y-47198600D01*
X152021100Y-41515600D02*
X148444100Y-45092600D01*
X159788400Y-41515600D02*
X152021100Y-41515600D01*
X161020000Y-40284000D02*
X159788400Y-41515600D01*
X161020000Y-40000000D02*
X161020000Y-40284000D01*
%TO.N,Net-(U3-BOOT0)*%
X164270000Y-75750000D02*
X157770000Y-75750000D01*
X65250000Y-68946300D02*
X65187000Y-68883300D01*
X65250000Y-70837500D02*
X65250000Y-68946300D01*
X65187000Y-67667000D02*
X65187000Y-68883300D01*
X64520000Y-67000000D02*
X65187000Y-67667000D01*
X156790300Y-74770300D02*
X157770000Y-75750000D01*
X142266700Y-74770300D02*
X156790300Y-74770300D01*
X141187000Y-75850000D02*
X142266700Y-74770300D01*
X139493200Y-75850000D02*
X141187000Y-75850000D01*
X139025000Y-76318200D02*
X139493200Y-75850000D01*
X139025000Y-77679200D02*
X139025000Y-76318200D01*
X139495800Y-78150000D02*
X139025000Y-77679200D01*
X141213200Y-78150000D02*
X139495800Y-78150000D01*
X141686000Y-78622800D02*
X141213200Y-78150000D01*
X141686000Y-80066800D02*
X141686000Y-78622800D01*
X137786500Y-83966300D02*
X141686000Y-80066800D01*
X70038200Y-83966300D02*
X137786500Y-83966300D01*
%TO.N,ADC_P2*%
X112520000Y-39962500D02*
X112520000Y-37500000D01*
X112482500Y-40000000D02*
X112520000Y-39962500D01*
X112520000Y-37000000D02*
X114520000Y-35000000D01*
X112520000Y-37500000D02*
X112520000Y-37000000D01*
X118973300Y-41027700D02*
X123211600Y-45266000D01*
X113510200Y-41027700D02*
X118973300Y-41027700D01*
X112482500Y-40000000D02*
X113510200Y-41027700D01*
X61059000Y-77250000D02*
X61837500Y-77250000D01*
X60499200Y-77809800D02*
X61059000Y-77250000D01*
X60499200Y-79713000D02*
X60499200Y-77809800D01*
X63408700Y-82622500D02*
X60499200Y-79713000D01*
X69332200Y-82622500D02*
X63408700Y-82622500D01*
X69425000Y-82529700D02*
X69332200Y-82622500D01*
X100909700Y-82529700D02*
X69425000Y-82529700D01*
X101118000Y-82321400D02*
X100909700Y-82529700D01*
%TO.N,ADC_P4*%
X52520000Y-39962500D02*
X52520000Y-37500000D01*
X52482500Y-40000000D02*
X52520000Y-39962500D01*
X51970600Y-40511900D02*
X51970600Y-41260200D01*
X52482500Y-40000000D02*
X51970600Y-40511900D01*
X61369600Y-79162500D02*
X61110800Y-78903700D01*
X63250000Y-79162500D02*
X61369600Y-79162500D01*
%TO.N,Net-(Q5-G)*%
X32274200Y-51745800D02*
X34020000Y-50000000D01*
X32274200Y-55045800D02*
X32274200Y-51745800D01*
X33039600Y-55811200D02*
X32274200Y-55045800D01*
X36100000Y-55811200D02*
X33039600Y-55811200D01*
X36100000Y-54500000D02*
X36100000Y-55811200D01*
X36100000Y-60580000D02*
X37020000Y-61500000D01*
X36100000Y-55811200D02*
X36100000Y-60580000D01*
%TO.N,LED_P5_R*%
X43037200Y-32982800D02*
X41020000Y-35000000D01*
X65198800Y-32982800D02*
X45000000Y-32982800D01*
X86694700Y-73113200D02*
X75567100Y-73113200D01*
X90361500Y-76780000D02*
X86694700Y-73113200D01*
X93298300Y-76780000D02*
X90361500Y-76780000D01*
X94503300Y-75575000D02*
X93298300Y-76780000D01*
X96862500Y-75575000D02*
X94503300Y-75575000D01*
%TO.N,Net-(D12-RA)*%
X39020000Y-35706700D02*
X39020000Y-35000000D01*
X35974500Y-38752200D02*
X39020000Y-35706700D01*
X34014800Y-38752200D02*
X35974500Y-38752200D01*
X32841000Y-37578400D02*
X34014800Y-38752200D01*
X32841000Y-37500000D02*
X32841000Y-37578400D01*
%TO.N,LED_P3_B*%
X91137500Y-74925000D02*
X93858000Y-74925000D01*
X101520000Y-41488800D02*
X102844700Y-42813500D01*
X101520000Y-40000000D02*
X101520000Y-41488800D01*
%TO.N,Net-(U4-~{OE})*%
X105495000Y-72975000D02*
X96862500Y-72975000D01*
X113020000Y-80500000D02*
X105495000Y-72975000D01*
%TO.N,ADC_P1*%
X144520000Y-35500000D02*
X142520000Y-37500000D01*
X144520000Y-35000000D02*
X144520000Y-35500000D01*
X142482500Y-37537500D02*
X142520000Y-37500000D01*
X142482500Y-40000000D02*
X142482500Y-37537500D01*
X142134800Y-39652300D02*
X142482500Y-40000000D01*
X137730300Y-39652300D02*
X142134800Y-39652300D01*
X60924000Y-76750000D02*
X61837500Y-76750000D01*
X60045700Y-77628300D02*
X60924000Y-76750000D01*
X60045700Y-79880600D02*
X60045700Y-77628300D01*
X63189300Y-83024200D02*
X60045700Y-79880600D01*
X69498500Y-83024200D02*
X63189300Y-83024200D01*
X69591300Y-82931400D02*
X69498500Y-83024200D01*
X122457700Y-82931400D02*
X69591300Y-82931400D01*
X126231900Y-79157200D02*
X122457700Y-82931400D01*
%TO.N,Net-(D2-A)*%
X114585000Y-71300000D02*
X114595000Y-71290000D01*
X113520000Y-71300000D02*
X114585000Y-71300000D01*
X114595000Y-71290000D02*
X114595000Y-68000000D01*
X117070000Y-71290000D02*
X114595000Y-71290000D01*
X118025100Y-73000000D02*
X122170000Y-73000000D01*
X117070000Y-72044900D02*
X118025100Y-73000000D01*
X117070000Y-71290000D02*
X117070000Y-72044900D01*
%TO.N,Net-(U1-BST)*%
X112051700Y-68468300D02*
X112520000Y-68000000D01*
X112051700Y-73070600D02*
X112051700Y-68468300D01*
X112981000Y-73999900D02*
X112051700Y-73070600D01*
X116359900Y-73999900D02*
X112981000Y-73999900D01*
X117070000Y-74710000D02*
X116359900Y-73999900D01*
%TO.N,Net-(U3-PD0)*%
X56520000Y-80537500D02*
X56520000Y-83000000D01*
X58020000Y-79037500D02*
X56520000Y-80537500D01*
X57970000Y-74499700D02*
X57970000Y-74650000D01*
X58219700Y-74250000D02*
X61837500Y-74250000D01*
X57970000Y-74499700D02*
X58219700Y-74250000D01*
X57876200Y-74499700D02*
X57970000Y-74499700D01*
X56520000Y-73143500D02*
X57876200Y-74499700D01*
X56520000Y-71558400D02*
X56520000Y-73143500D01*
X56101600Y-71140000D02*
X56520000Y-71558400D01*
X53990000Y-71140000D02*
X56101600Y-71140000D01*
X51563600Y-73566400D02*
X53990000Y-71140000D01*
X51563600Y-81625100D02*
X51563600Y-73566400D01*
X53959400Y-84020900D02*
X51563600Y-81625100D01*
X55499100Y-84020900D02*
X53959400Y-84020900D01*
X56520000Y-83000000D02*
X55499100Y-84020900D01*
%TO.N,Net-(D8-BA)*%
X99520000Y-40853800D02*
X99170800Y-41203000D01*
X99520000Y-40000000D02*
X99520000Y-40853800D01*
%TO.N,Net-(D8-GA)*%
X99520000Y-36614500D02*
X99190200Y-36284700D01*
X99520000Y-37500000D02*
X99520000Y-36614500D01*
%TO.N,GATE_P1*%
X131775000Y-63225000D02*
X89401500Y-63225000D01*
X133500000Y-61500000D02*
X131775000Y-63225000D01*
X65750000Y-80217700D02*
X65750000Y-79162500D01*
X66949700Y-81417400D02*
X65750000Y-80217700D01*
X68833300Y-81417400D02*
X66949700Y-81417400D01*
X68926100Y-81324600D02*
X68833300Y-81417400D01*
X83955100Y-81324600D02*
X68926100Y-81324600D01*
X88465600Y-76814100D02*
X83955100Y-81324600D01*
%TO.N,Net-(Q1-G)*%
X153765800Y-50745800D02*
X153020000Y-50000000D01*
X153765800Y-54500000D02*
X153765800Y-50745800D01*
X155020000Y-54500000D02*
X154518000Y-54500000D01*
X154518000Y-54500000D02*
X153765800Y-54500000D01*
X133348200Y-59651800D02*
X131500000Y-61500000D01*
X149366200Y-59651800D02*
X133348200Y-59651800D01*
X154518000Y-54500000D02*
X149366200Y-59651800D01*
%TO.N,+3.3V*%
X63016800Y-71070700D02*
X61837500Y-71070700D01*
X63250000Y-70837500D02*
X63016800Y-71070700D01*
X164270000Y-80250000D02*
X157770000Y-80250000D01*
X31067500Y-77368500D02*
X31067500Y-80462500D01*
X30649100Y-76950100D02*
X31067500Y-77368500D01*
X28060000Y-76950100D02*
X30649100Y-76950100D01*
X28060000Y-72500000D02*
X28060000Y-76950100D01*
X28060000Y-77940000D02*
X28000000Y-78000000D01*
X28060000Y-76950100D02*
X28060000Y-77940000D01*
X22000000Y-80425000D02*
X22037500Y-80462500D01*
X22000000Y-78000000D02*
X22000000Y-80425000D01*
X25047500Y-80462500D02*
X22037500Y-80462500D01*
X37087500Y-80462500D02*
X34077500Y-80462500D01*
X28057500Y-80462500D02*
X31067500Y-80462500D01*
X34077500Y-80462500D02*
X31067500Y-80462500D01*
X25047500Y-80462500D02*
X28057500Y-80462500D01*
X146670000Y-77000000D02*
X140370000Y-77000000D01*
X60434900Y-71070700D02*
X61837500Y-71070700D01*
X58462500Y-69098300D02*
X60434900Y-71070700D01*
X58462500Y-67000000D02*
X58462500Y-69098300D01*
X58060800Y-69500000D02*
X57520000Y-69500000D01*
X58462500Y-69098300D02*
X58060800Y-69500000D01*
X61837500Y-71070700D02*
X61837500Y-72250000D01*
X56465400Y-70554600D02*
X57520000Y-69500000D01*
X40455600Y-70554600D02*
X56465400Y-70554600D01*
X39467000Y-69566000D02*
X40455600Y-70554600D01*
X28236900Y-69566000D02*
X39467000Y-69566000D01*
X149920000Y-80250000D02*
X146670000Y-77000000D01*
X157770000Y-80250000D02*
X149920000Y-80250000D01*
X74001100Y-75887800D02*
X74001100Y-74414000D01*
X70726400Y-79162500D02*
X74001100Y-75887800D01*
X68750000Y-79162500D02*
X70726400Y-79162500D01*
X74551600Y-73863500D02*
X74001100Y-74414000D01*
X74551600Y-71313100D02*
X74551600Y-73863500D01*
X75731200Y-70133500D02*
X74551600Y-71313100D01*
X86514500Y-70133500D02*
X75731200Y-70133500D01*
X89828200Y-66819800D02*
X86514500Y-70133500D01*
X97286500Y-66819800D02*
X89828200Y-66819800D01*
X97286500Y-66819900D02*
X97286500Y-66819800D01*
X97950000Y-67483400D02*
X97286500Y-66819900D01*
X97950000Y-69318800D02*
X97950000Y-67483400D01*
X97543800Y-69725000D02*
X97950000Y-69318800D01*
X96862500Y-69725000D02*
X97543800Y-69725000D01*
X41851000Y-85226000D02*
X37087500Y-80462500D01*
X73577900Y-85226000D02*
X41851000Y-85226000D01*
X61837500Y-76250000D02*
X64821200Y-76250000D01*
X138444000Y-85226000D02*
X146670000Y-77000000D01*
X73577900Y-85226000D02*
X138444000Y-85226000D01*
%TO.N,VBAT_P3*%
D48*
X93182700Y-43337300D02*
X90520000Y-46000000D01*
X97659500Y-43337300D02*
X93182700Y-43337300D01*
X97659500Y-30238500D02*
X93460500Y-26039500D01*
X97659500Y-43337300D02*
X97659500Y-30238500D01*
X97659500Y-43839500D02*
X97659500Y-43337300D01*
X99320000Y-45500000D02*
X97659500Y-43839500D01*
%TO.N,+BATT*%
D47*
X118020000Y-71290000D02*
X118970000Y-71290000D01*
X118020000Y-69797500D02*
X122768200Y-69797500D01*
X118020000Y-71290000D02*
X118020000Y-69797500D01*
X118020000Y-69537500D02*
X116982500Y-68500000D01*
X118020000Y-69797500D02*
X118020000Y-69537500D01*
X148602700Y-51917300D02*
X155020000Y-45500000D01*
X138402700Y-51917300D02*
X148602700Y-51917300D01*
X135820000Y-54500000D02*
X138402700Y-51917300D01*
X63050900Y-47469100D02*
X65020000Y-45500000D01*
X37489100Y-47469100D02*
X63050900Y-47469100D01*
X35520000Y-45500000D02*
X37489100Y-47469100D01*
X129995300Y-54500000D02*
X135820000Y-54500000D01*
X127031600Y-43988400D02*
X129994900Y-43988400D01*
X125520000Y-45500000D02*
X127031600Y-43988400D01*
X100955100Y-46838500D02*
X95320000Y-46838500D01*
X103246300Y-44547300D02*
X100955100Y-46838500D01*
X117049000Y-44547300D02*
X103246300Y-44547300D01*
X117439400Y-44937700D02*
X117049000Y-44547300D01*
X117439400Y-45905800D02*
X117439400Y-44937700D01*
X120484400Y-48950800D02*
X117439400Y-45905800D01*
X128506600Y-48950800D02*
X120484400Y-48950800D01*
X131109900Y-46347500D02*
X128506600Y-48950800D01*
X131109900Y-44637800D02*
X131109900Y-46347500D01*
X130460500Y-43988400D02*
X131109900Y-44637800D01*
X129994900Y-43988400D02*
X130460500Y-43988400D01*
X95320000Y-45500000D02*
X95320000Y-46838500D01*
X66987500Y-47467500D02*
X65020000Y-45500000D01*
X94691000Y-47467500D02*
X66987500Y-47467500D01*
X95320000Y-46838500D02*
X94691000Y-47467500D01*
%TO.N,VBAT_P2*%
D49*
X111921200Y-35598800D02*
X112520000Y-35000000D01*
X110862900Y-35598800D02*
X111921200Y-35598800D01*
D48*
X112520000Y-28901000D02*
X119421000Y-22000000D01*
X112520000Y-35000000D02*
X112520000Y-28901000D01*
X122322700Y-47602700D02*
X120720000Y-46000000D01*
X127417300Y-47602700D02*
X122322700Y-47602700D01*
X129520000Y-45500000D02*
X127417300Y-47602700D01*
X110668900Y-35792800D02*
X110862900Y-35598800D01*
X110668900Y-41092600D02*
X110668900Y-35792800D01*
X112821900Y-43245600D02*
X110668900Y-41092600D01*
X117965600Y-43245600D02*
X112821900Y-43245600D01*
X120720000Y-46000000D02*
X117965600Y-43245600D01*
%TO.N,Net-(U3-PD1)*%
D47*
X53020000Y-81500000D02*
X53020000Y-79037500D01*
X54520000Y-83000000D02*
X53020000Y-81500000D01*
X51991100Y-78008600D02*
X53020000Y-79037500D01*
X51991100Y-76336800D02*
X51991100Y-78008600D01*
X53677900Y-74650000D02*
X51991100Y-76336800D01*
X55070000Y-74650000D02*
X53677900Y-74650000D01*
X56272700Y-75852700D02*
X55070000Y-74650000D01*
X59047100Y-75852700D02*
X56272700Y-75852700D01*
X60149800Y-74750000D02*
X59047100Y-75852700D01*
X61837500Y-74750000D02*
X60149800Y-74750000D01*
%TO.N,Net-(U1-FB)*%
X118968000Y-76052000D02*
X118970000Y-76052000D01*
X117020000Y-78000000D02*
X118968000Y-76052000D01*
X118970000Y-76052000D02*
X118970000Y-74710000D01*
X135430600Y-69948100D02*
X137982500Y-72500000D01*
X129820800Y-69948100D02*
X135430600Y-69948100D01*
X123716900Y-76052000D02*
X129820800Y-69948100D01*
X118970000Y-76052000D02*
X123716900Y-76052000D01*
%TO.N,+5V*%
X131870000Y-73000000D02*
X133621700Y-73000000D01*
X133621700Y-73176700D02*
X133621700Y-73000000D01*
X135945000Y-75500000D02*
X133621700Y-73176700D01*
X135945000Y-78500000D02*
X135945000Y-75500000D01*
X135482500Y-73000000D02*
X135982500Y-72500000D01*
X133621700Y-73000000D02*
X135482500Y-73000000D01*
X138965200Y-73567300D02*
X140532500Y-72000000D01*
X137049800Y-73567300D02*
X138965200Y-73567300D01*
X135982500Y-72500000D02*
X137049800Y-73567300D01*
X135945000Y-80663800D02*
X135945000Y-81500000D01*
X137026900Y-79581900D02*
X135945000Y-80663800D01*
X137026900Y-79581900D02*
X135945000Y-78500000D01*
X140088100Y-79581900D02*
X138919500Y-79581900D01*
X140370000Y-79300000D02*
X140088100Y-79581900D01*
X138919500Y-79581900D02*
X137026900Y-79581900D01*
X132425700Y-82980700D02*
X130945000Y-81500000D01*
X138200500Y-82980700D02*
X132425700Y-82980700D01*
X138919500Y-82261700D02*
X138200500Y-82980700D01*
X138919500Y-79581900D02*
X138919500Y-82261700D01*
X23353300Y-70743300D02*
X18720000Y-66110000D01*
X40009100Y-70743300D02*
X23353300Y-70743300D01*
X53688400Y-84422600D02*
X40009100Y-70743300D01*
X68668100Y-84422600D02*
X53688400Y-84422600D01*
X69757600Y-83333100D02*
X68668100Y-84422600D01*
X129111900Y-83333100D02*
X69757600Y-83333100D01*
X130945000Y-81500000D02*
X129111900Y-83333100D01*
%TO.N,LED_P3_R*%
X101520000Y-35000000D02*
X102453000Y-35933000D01*
X91226600Y-72885900D02*
X94486700Y-72885900D01*
X91137500Y-72975000D02*
X91226600Y-72885900D01*
%TO.N,Net-(D8-RA)*%
X100269500Y-35749500D02*
X100269500Y-36134400D01*
X99520000Y-35000000D02*
X100269500Y-35749500D01*
%TO.N,LED_P4_G*%
X76068200Y-72195100D02*
X75294300Y-71421200D01*
X86416000Y-72195100D02*
X76068200Y-72195100D01*
X90445900Y-76225000D02*
X86416000Y-72195100D01*
X91137500Y-76225000D02*
X90445900Y-76225000D01*
X69721500Y-38798500D02*
X68239200Y-38798500D01*
X71020000Y-37500000D02*
X69721500Y-38798500D01*
%TO.N,Net-(D10-GA)*%
X61911100Y-38752100D02*
X60659000Y-37500000D01*
X67234400Y-38752100D02*
X61911100Y-38752100D01*
X68486500Y-37500000D02*
X67234400Y-38752100D01*
X69020000Y-37500000D02*
X68486500Y-37500000D01*
%TO.N,Net-(D4-BA)*%
X151023000Y-40000000D02*
X159020000Y-40000000D01*
X148523000Y-37500000D02*
X151023000Y-40000000D01*
%TO.N,Net-(D4-GA)*%
X151883700Y-38701700D02*
X150682000Y-37500000D01*
X157818300Y-38701700D02*
X151883700Y-38701700D01*
X159020000Y-37500000D02*
X157818300Y-38701700D01*
%TO.N,Net-(D4-RA)*%
X152841000Y-37432300D02*
X152841000Y-37500000D01*
X155273300Y-35000000D02*
X152841000Y-37432300D01*
X159020000Y-35000000D02*
X155273300Y-35000000D01*
%TO.N,VBAT_P5*%
D48*
X33376700Y-43343300D02*
X30720000Y-46000000D01*
X37363300Y-43343300D02*
X33376700Y-43343300D01*
X39520000Y-45500000D02*
X37363300Y-43343300D01*
D49*
X21921200Y-35598800D02*
X22520000Y-35000000D01*
X20862900Y-35598800D02*
X21921200Y-35598800D01*
D48*
X22520000Y-28901000D02*
X22520000Y-35000000D01*
X29421000Y-22000000D02*
X22520000Y-28901000D01*
X27997700Y-43277700D02*
X30720000Y-46000000D01*
X22878900Y-43277700D02*
X27997700Y-43277700D01*
X20678100Y-41076900D02*
X22878900Y-43277700D01*
X20678100Y-35783600D02*
X20678100Y-41076900D01*
X20862900Y-35598800D02*
X20678100Y-35783600D01*
%TO.N,Net-(U3-NRST)*%
D47*
X54732200Y-76962500D02*
X55520000Y-76962500D01*
X53616600Y-75846900D02*
X54732200Y-76962500D01*
X55520000Y-69500000D02*
X50967100Y-69500000D01*
X52190100Y-65504000D02*
X62528400Y-65504000D01*
X50978000Y-66716100D02*
X52190100Y-65504000D01*
X62668700Y-75250000D02*
X61837500Y-75250000D01*
X63077400Y-74841300D02*
X62668700Y-75250000D01*
%TO.N,Net-(J2-CC2)*%
X159528400Y-64750000D02*
X157975000Y-64750000D01*
X160690500Y-63587900D02*
X159528400Y-64750000D01*
X160690500Y-60829500D02*
X160690500Y-63587900D01*
X162020000Y-59500000D02*
X160690500Y-60829500D01*
%TO.N,USB_DM*%
X156906300Y-66968600D02*
X156906300Y-66550100D01*
X157187700Y-67250000D02*
X156906300Y-66968600D01*
X157975000Y-67250000D02*
X157187700Y-67250000D01*
X157206400Y-66250000D02*
X157975000Y-66250000D01*
X156906300Y-66550100D02*
X157206400Y-66250000D01*
X69374200Y-74250000D02*
X70162500Y-74250000D01*
X69114300Y-74509900D02*
X69374200Y-74250000D01*
X69114300Y-78042200D02*
X69114300Y-74509900D01*
X69314200Y-78242100D02*
X69114300Y-78042200D01*
X71011000Y-78242100D02*
X69314200Y-78242100D01*
X72760700Y-76492400D02*
X71011000Y-78242100D01*
X72760700Y-72463200D02*
X72760700Y-76492400D01*
X73673200Y-71550700D02*
X72760700Y-72463200D01*
X73673200Y-71002200D02*
X73673200Y-71550700D01*
X75386600Y-69288800D02*
X73673200Y-71002200D01*
X86023000Y-69288800D02*
X75386600Y-69288800D01*
X89314000Y-65997800D02*
X86023000Y-69288800D01*
X97692200Y-65997800D02*
X89314000Y-65997800D01*
X98092400Y-66398000D02*
X97692200Y-65997800D01*
X156754200Y-66398000D02*
X98092400Y-66398000D01*
X156906300Y-66550100D02*
X156754200Y-66398000D01*
%TO.N,USB_DP*%
X158754600Y-66750000D02*
X157975000Y-66750000D01*
X159058800Y-66445800D02*
X158754600Y-66750000D01*
X159058800Y-66024900D02*
X159058800Y-66445800D01*
X158783900Y-65750000D02*
X159058800Y-66024900D01*
X157975000Y-65750000D02*
X158783900Y-65750000D01*
X98012400Y-65750000D02*
X157975000Y-65750000D01*
X97858500Y-65596100D02*
X98012400Y-65750000D01*
X78511300Y-65596100D02*
X97858500Y-65596100D01*
X72259700Y-71847700D02*
X78511300Y-65596100D01*
X72259700Y-72466300D02*
X72259700Y-71847700D01*
X70976000Y-73750000D02*
X72259700Y-72466300D01*
X70162500Y-73750000D02*
X70976000Y-73750000D01*
%TO.N,Net-(J2-CC1)*%
X158735400Y-67750000D02*
X157975000Y-67750000D01*
X161250700Y-65234700D02*
X158735400Y-67750000D01*
X161250700Y-62009200D02*
X161250700Y-65234700D01*
X162954000Y-60305900D02*
X161250700Y-62009200D01*
X162954000Y-57434000D02*
X162954000Y-60305900D01*
X162020000Y-56500000D02*
X162954000Y-57434000D01*
%TO.N,Net-(F1-Pad2)*%
X146557500Y-68950000D02*
X157975000Y-68950000D01*
X143507500Y-72000000D02*
X146557500Y-68950000D01*
X157946200Y-64021200D02*
X157975000Y-64050000D01*
X156730800Y-64021200D02*
X157946200Y-64021200D01*
X158620200Y-68950000D02*
X159258100Y-68312100D01*
X157975000Y-68950000D02*
X158620200Y-68950000D01*
%TO.N,-BATT*%
X96862500Y-67775000D02*
X96862500Y-68425000D01*
X96862500Y-68425000D02*
X96862500Y-69075000D01*
X96862500Y-72325000D02*
X95927800Y-72325000D01*
X91137500Y-68425000D02*
X91137500Y-67775000D01*
X62520000Y-67000000D02*
X60537500Y-67000000D01*
X116774300Y-76700000D02*
X115020000Y-76700000D01*
X118020000Y-75454300D02*
X116774300Y-76700000D01*
X118020000Y-74710000D02*
X118020000Y-75454300D01*
X115020000Y-76700000D02*
X113520000Y-76700000D01*
X138820000Y-74700000D02*
X138020000Y-75500000D01*
X140370000Y-74700000D02*
X138820000Y-74700000D01*
X134059300Y-82539300D02*
X133020000Y-81500000D01*
X136980700Y-82539300D02*
X134059300Y-82539300D01*
X138020000Y-81500000D02*
X136980700Y-82539300D01*
X85020000Y-39962500D02*
X85020000Y-37500000D01*
X85057500Y-40000000D02*
X85020000Y-39962500D01*
X25108600Y-79033600D02*
X24075000Y-78000000D01*
X29041400Y-79033600D02*
X25108600Y-79033600D01*
X30075000Y-78000000D02*
X29041400Y-79033600D01*
X54557500Y-37537500D02*
X54520000Y-37500000D01*
X54557500Y-40000000D02*
X54557500Y-37537500D01*
X138020000Y-75500000D02*
X138020000Y-78500000D01*
X85120000Y-40062500D02*
X85057500Y-40000000D01*
X85120000Y-46000000D02*
X85120000Y-40062500D01*
X34825300Y-48805300D02*
X36020000Y-50000000D01*
X28125300Y-48805300D02*
X34825300Y-48805300D01*
X25320000Y-46000000D02*
X28125300Y-48805300D01*
X152480000Y-54500000D02*
X151225800Y-54500000D01*
X33560000Y-52460000D02*
X36020000Y-50000000D01*
X33560000Y-54500000D02*
X33560000Y-52460000D01*
X150445700Y-50992800D02*
X150445700Y-53152700D01*
X152494200Y-48944300D02*
X150445700Y-50992800D01*
X153964300Y-48944300D02*
X152494200Y-48944300D01*
X155020000Y-50000000D02*
X153964300Y-48944300D01*
X151225800Y-53932800D02*
X151225800Y-54500000D01*
X150445700Y-53152700D02*
X151225800Y-53932800D01*
X118011100Y-79008900D02*
X115020000Y-79008900D01*
X119020000Y-78000000D02*
X118011100Y-79008900D01*
X115020000Y-76700000D02*
X115020000Y-79008900D01*
X115020000Y-79008900D02*
X115020000Y-80500000D01*
X164171700Y-59651700D02*
X164171700Y-62180000D01*
X164020000Y-59500000D02*
X164171700Y-59651700D01*
X163070000Y-62180000D02*
X164171700Y-62180000D01*
X114520000Y-39962500D02*
X114557500Y-40000000D01*
X114520000Y-37500000D02*
X114520000Y-39962500D01*
X54557500Y-45737500D02*
X54557500Y-40000000D01*
X54820000Y-46000000D02*
X54557500Y-45737500D01*
X94283500Y-36283500D02*
X95500000Y-37500000D01*
X86236500Y-36283500D02*
X94283500Y-36283500D01*
X85020000Y-37500000D02*
X86236500Y-36283500D01*
X164020000Y-56500000D02*
X164020000Y-59500000D01*
X144520000Y-39962500D02*
X144557500Y-40000000D01*
X144520000Y-37500000D02*
X144520000Y-39962500D01*
X154244700Y-19623700D02*
X156621000Y-22000000D01*
X128997300Y-19623700D02*
X154244700Y-19623700D01*
X126621000Y-22000000D02*
X128997300Y-19623700D01*
X25047500Y-82537500D02*
X22037500Y-82537500D01*
X37087500Y-82537500D02*
X34077500Y-82537500D01*
X28057500Y-82537500D02*
X25047500Y-82537500D01*
X34077500Y-82537500D02*
X31067500Y-82537500D01*
X28057500Y-82537500D02*
X31067500Y-82537500D01*
X20440000Y-75188200D02*
X21816300Y-76564500D01*
X20440000Y-72500000D02*
X20440000Y-75188200D01*
X20992900Y-77387900D02*
X21816300Y-76564500D01*
X20992900Y-81492900D02*
X20992900Y-77387900D01*
X22037500Y-82537500D02*
X20992900Y-81492900D01*
X22639500Y-76564500D02*
X24075000Y-78000000D01*
X21816300Y-76564500D02*
X22639500Y-76564500D01*
X157538300Y-62813300D02*
X157975000Y-63250000D01*
X157538300Y-62180000D02*
X157538300Y-62813300D01*
X158890000Y-62180000D02*
X157538300Y-62180000D01*
X163070000Y-70820000D02*
X158890000Y-70820000D01*
X157975000Y-70653300D02*
X157975000Y-69750000D01*
X158141700Y-70820000D02*
X157975000Y-70653300D01*
X24557500Y-37537500D02*
X24557500Y-40000000D01*
X24520000Y-37500000D02*
X24557500Y-37537500D01*
X33775000Y-36275000D02*
X35000000Y-37500000D01*
X25745000Y-36275000D02*
X33775000Y-36275000D01*
X24520000Y-37500000D02*
X25745000Y-36275000D01*
X109370000Y-72325000D02*
X96862500Y-72325000D01*
X109370000Y-72550000D02*
X109370000Y-72325000D01*
X113520000Y-76700000D02*
X109370000Y-72550000D01*
X57595000Y-76962500D02*
X55520000Y-79037500D01*
X58020000Y-76962500D02*
X57595000Y-76962500D01*
X62980000Y-54500000D02*
X62980000Y-52040000D01*
X62980000Y-52040000D02*
X65020000Y-50000000D01*
X95890800Y-49129200D02*
X95020000Y-50000000D01*
X96787700Y-49129200D02*
X95890800Y-49129200D01*
X60940000Y-50000000D02*
X36020000Y-50000000D01*
X62980000Y-52040000D02*
X60940000Y-50000000D01*
X125000000Y-37500000D02*
X126201700Y-37500000D01*
X144557500Y-41073600D02*
X144557500Y-40000000D01*
X145320000Y-41836100D02*
X144557500Y-41073600D01*
X145320000Y-46000000D02*
X145320000Y-41836100D01*
X129520000Y-78000000D02*
X133020000Y-81500000D01*
X119020000Y-78000000D02*
X129520000Y-78000000D01*
X119984000Y-67573500D02*
X119057500Y-68500000D01*
X122178100Y-67573500D02*
X119984000Y-67573500D01*
X63462600Y-66057400D02*
X62520000Y-67000000D01*
X117527600Y-66970100D02*
X119057500Y-68500000D01*
X111897600Y-66970100D02*
X117527600Y-66970100D01*
X109370000Y-69497700D02*
X111897600Y-66970100D01*
X109370000Y-72325000D02*
X109370000Y-69497700D01*
X53445000Y-76962500D02*
X53020000Y-76962500D01*
X55520000Y-79037500D02*
X53445000Y-76962500D01*
X59800400Y-75750000D02*
X61837500Y-75750000D01*
X58587900Y-76962500D02*
X59800400Y-75750000D01*
X58020000Y-76962500D02*
X58587900Y-76962500D01*
X158890000Y-70820000D02*
X158240900Y-70820000D01*
X158240900Y-70820000D02*
X158141700Y-70820000D01*
X155836000Y-73224900D02*
X141548200Y-73224900D01*
X158240900Y-70820000D02*
X155836000Y-73224900D01*
X141548200Y-71146600D02*
X141548200Y-73224900D01*
X137975100Y-67573500D02*
X141548200Y-71146600D01*
X122178100Y-67573500D02*
X137975100Y-67573500D01*
X141548200Y-73521800D02*
X140370000Y-74700000D01*
X141548200Y-73224900D02*
X141548200Y-73521800D01*
X128709900Y-50000000D02*
X125020000Y-50000000D01*
X132709900Y-46000000D02*
X128709900Y-50000000D01*
X145320000Y-46000000D02*
X132709900Y-46000000D01*
X67380400Y-36298300D02*
X66178700Y-37500000D01*
X69368500Y-36298300D02*
X67380400Y-36298300D01*
X69957800Y-35709000D02*
X69368500Y-36298300D01*
X69957800Y-34354300D02*
X69957800Y-35709000D01*
X69590800Y-33987300D02*
X69957800Y-34354300D01*
X58032700Y-33987300D02*
X69590800Y-33987300D01*
X54520000Y-37500000D02*
X58032700Y-33987300D01*
X64977000Y-37500000D02*
X66178700Y-37500000D01*
X123060000Y-54500000D02*
X121805800Y-54500000D01*
X113301100Y-49129200D02*
X115150500Y-47279800D01*
X96787700Y-49129200D02*
X113301100Y-49129200D01*
X115320000Y-47110300D02*
X115320000Y-46000000D01*
X115150500Y-47279800D02*
X115320000Y-47110300D01*
X121805800Y-53935100D02*
X115150500Y-47279800D01*
X121805800Y-54500000D02*
X121805800Y-53935100D01*
X96862500Y-68425000D02*
X91137500Y-68425000D01*
X70162500Y-72750000D02*
X68250000Y-72750000D01*
X63927800Y-71801000D02*
X63647100Y-72081700D01*
X64876800Y-72750000D02*
X63927800Y-71801000D01*
X68250000Y-72750000D02*
X64876800Y-72750000D01*
X63750000Y-71623200D02*
X63750000Y-70837500D01*
X63927800Y-71801000D02*
X63750000Y-71623200D01*
X128274800Y-36496300D02*
X131959400Y-36496300D01*
X127271100Y-37500000D02*
X128274800Y-36496300D01*
X126201700Y-37500000D02*
X127271100Y-37500000D01*
X136536700Y-41073600D02*
X144557500Y-41073600D01*
X131959400Y-36496300D02*
X136536700Y-41073600D01*
X126621000Y-33997300D02*
X126621000Y-22000000D01*
X131599400Y-33997300D02*
X126621000Y-33997300D01*
X131959400Y-34357300D02*
X131599400Y-33997300D01*
X131959400Y-36496300D02*
X131959400Y-34357300D01*
X118022700Y-33997300D02*
X114520000Y-37500000D01*
X126621000Y-33997300D02*
X118022700Y-33997300D01*
X69105300Y-19596700D02*
X66663100Y-22038900D01*
X94217700Y-19596700D02*
X69105300Y-19596700D01*
X96621000Y-22000000D02*
X94217700Y-19596700D01*
X64394900Y-75750000D02*
X61837500Y-75750000D01*
X64572100Y-75572800D02*
X64394900Y-75750000D01*
X68250000Y-75572800D02*
X64572100Y-75572800D01*
X68250000Y-79162500D02*
X68250000Y-75572800D01*
X68250000Y-75572800D02*
X68250000Y-72750000D01*
%TD*%
M02*
