%TF.GenerationSoftware,KiCad,Pcbnew,10.0.2*%
%TF.CreationDate,2026-05-21T23:56:23-07:00*%
%TF.ProjectId,Lipo Discharger,4c69706f-2044-4697-9363-686172676572,rev?*%
%TF.SameCoordinates,Original*%
%TF.FileFunction,Paste,Top*%
%TF.FilePolarity,Positive*%
%FSLAX46Y46*%
G04 Gerber Fmt 4.6, Leading zero omitted, Abs format (unit mm)*
G04 Created by KiCad (PCBNEW 10.0.2) date 2026-05-21 23:56:23*
%MOMM*%
%LPD*%
G01*
G04 APERTURE LIST*
G04 Aperture macros list*
%AMRoundRect*
0 Rectangle with rounded corners*
0 $1 Rounding radius*
0 $2 $3 $4 $5 $6 $7 $8 $9 X,Y pos of 4 corners*
0 Add a 4 corners polygon primitive as box body*
4,1,4,$2,$3,$4,$5,$6,$7,$8,$9,$2,$3,0*
0 Add four circle primitives for the rounded corners*
1,1,$1+$1,$2,$3*
1,1,$1+$1,$4,$5*
1,1,$1+$1,$6,$7*
1,1,$1+$1,$8,$9*
0 Add four rect primitives between the rounded corners*
20,1,$1+$1,$2,$3,$4,$5,0*
20,1,$1+$1,$4,$5,$6,$7,0*
20,1,$1+$1,$6,$7,$8,$9,0*
20,1,$1+$1,$8,$9,$2,$3,0*%
G04 Aperture macros list end*
%ADD10RoundRect,0.250000X-0.337500X-0.475000X0.337500X-0.475000X0.337500X0.475000X-0.337500X0.475000X0*%
%ADD11RoundRect,0.250000X-0.350000X-0.450000X0.350000X-0.450000X0.350000X0.450000X-0.350000X0.450000X0*%
%ADD12RoundRect,0.150000X0.575000X-0.150000X0.575000X0.150000X-0.575000X0.150000X-0.575000X-0.150000X0*%
%ADD13RoundRect,0.075000X0.650000X-0.075000X0.650000X0.075000X-0.650000X0.075000X-0.650000X-0.075000X0*%
%ADD14RoundRect,0.250000X0.475000X-0.337500X0.475000X0.337500X-0.475000X0.337500X-0.475000X-0.337500X0*%
%ADD15RoundRect,0.250000X-1.500000X-0.900000X1.500000X-0.900000X1.500000X0.900000X-1.500000X0.900000X0*%
%ADD16RoundRect,0.250000X-1.000000X-0.650000X1.000000X-0.650000X1.000000X0.650000X-1.000000X0.650000X0*%
%ADD17RoundRect,0.375000X-0.625000X-0.375000X0.625000X-0.375000X0.625000X0.375000X-0.625000X0.375000X0*%
%ADD18RoundRect,0.500000X-0.500000X-1.400000X0.500000X-1.400000X0.500000X1.400000X-0.500000X1.400000X0*%
%ADD19RoundRect,0.250000X0.900000X-1.500000X0.900000X1.500000X-0.900000X1.500000X-0.900000X-1.500000X0*%
%ADD20RoundRect,0.250000X-0.800000X-0.650000X0.800000X-0.650000X0.800000X0.650000X-0.800000X0.650000X0*%
%ADD21RoundRect,0.250000X0.350000X0.450000X-0.350000X0.450000X-0.350000X-0.450000X0.350000X-0.450000X0*%
%ADD22RoundRect,0.075000X-0.662500X-0.075000X0.662500X-0.075000X0.662500X0.075000X-0.662500X0.075000X0*%
%ADD23RoundRect,0.075000X-0.075000X-0.662500X0.075000X-0.662500X0.075000X0.662500X-0.075000X0.662500X0*%
%ADD24RoundRect,0.250001X-0.462499X-0.624999X0.462499X-0.624999X0.462499X0.624999X-0.462499X0.624999X0*%
%ADD25R,2.900000X5.400000*%
%ADD26RoundRect,0.162500X0.162500X-0.837500X0.162500X0.837500X-0.162500X0.837500X-0.162500X-0.837500X0*%
%ADD27RoundRect,0.100000X-0.637500X-0.100000X0.637500X-0.100000X0.637500X0.100000X-0.637500X0.100000X0*%
G04 APERTURE END LIST*
D10*
%TO.C,C22*%
X24557500Y-40000000D03*
X22482500Y-40000000D03*
%TD*%
D11*
%TO.C,R33*%
X24520000Y-37500000D03*
X22520000Y-37500000D03*
%TD*%
%TO.C,R32*%
X24520000Y-35000000D03*
X22520000Y-35000000D03*
%TD*%
D12*
%TO.C,J2*%
X157975000Y-69750000D03*
X157975000Y-68950000D03*
D13*
X157975000Y-67750000D03*
X157975000Y-66750000D03*
X157975000Y-66250000D03*
X157975000Y-65250000D03*
D12*
X157975000Y-64050000D03*
X157975000Y-63250000D03*
X157975000Y-63250000D03*
X157975000Y-64050000D03*
D13*
X157975000Y-64750000D03*
X157975000Y-65750000D03*
X157975000Y-67250000D03*
X157975000Y-68250000D03*
D12*
X157975000Y-68950000D03*
X157975000Y-69750000D03*
%TD*%
D14*
%TO.C,C15*%
X55520000Y-79037500D03*
X55520000Y-76962500D03*
%TD*%
D11*
%TO.C,R49*%
X69020000Y-37500000D03*
X71020000Y-37500000D03*
%TD*%
%TO.C,R44*%
X99520000Y-35000000D03*
X101520000Y-35000000D03*
%TD*%
%TO.C,R1*%
X135982500Y-72500000D03*
X137982500Y-72500000D03*
%TD*%
D14*
%TO.C,C17*%
X53020000Y-79037500D03*
X53020000Y-76962500D03*
%TD*%
D15*
%TO.C,D5*%
X115320000Y-46000000D03*
X120720000Y-46000000D03*
%TD*%
D16*
%TO.C,D18*%
X35520000Y-45500000D03*
X39520000Y-45500000D03*
%TD*%
%TO.C,D16*%
X95320000Y-45500000D03*
X99320000Y-45500000D03*
%TD*%
D14*
%TO.C,C12*%
X31067500Y-82537500D03*
X31067500Y-80462500D03*
%TD*%
D10*
%TO.C,C3*%
X130945000Y-81500000D03*
X133020000Y-81500000D03*
%TD*%
D11*
%TO.C,R10*%
X131500000Y-61500000D03*
X133500000Y-61500000D03*
%TD*%
D17*
%TO.C,U2*%
X140370000Y-74700000D03*
X140370000Y-77000000D03*
D18*
X146670000Y-77000000D03*
D17*
X140370000Y-79300000D03*
%TD*%
D14*
%TO.C,C16*%
X58020000Y-79037500D03*
X58020000Y-76962500D03*
%TD*%
D10*
%TO.C,C2*%
X112520000Y-68000000D03*
X114595000Y-68000000D03*
%TD*%
%TO.C,C7*%
X135945000Y-78500000D03*
X138020000Y-78500000D03*
%TD*%
D11*
%TO.C,R9*%
X142520000Y-37500000D03*
X144520000Y-37500000D03*
%TD*%
%TO.C,R48*%
X113020000Y-80500000D03*
X115020000Y-80500000D03*
%TD*%
D19*
%TO.C,D2*%
X113520000Y-76700000D03*
X113520000Y-71300000D03*
%TD*%
D11*
%TO.C,R46*%
X99520000Y-40000000D03*
X101520000Y-40000000D03*
%TD*%
%TO.C,R51*%
X39020000Y-35000000D03*
X41020000Y-35000000D03*
%TD*%
D10*
%TO.C,C21*%
X52482500Y-40000000D03*
X54557500Y-40000000D03*
%TD*%
D11*
%TO.C,R14*%
X112520000Y-35000000D03*
X114520000Y-35000000D03*
%TD*%
%TO.C,R40*%
X159020000Y-40000000D03*
X161020000Y-40000000D03*
%TD*%
D10*
%TO.C,C4*%
X135945000Y-75500000D03*
X138020000Y-75500000D03*
%TD*%
D11*
%TO.C,R50*%
X69020000Y-40000000D03*
X71020000Y-40000000D03*
%TD*%
%TO.C,R6*%
X162020000Y-56500000D03*
X164020000Y-56500000D03*
%TD*%
D20*
%TO.C,Y1*%
X55070000Y-74650000D03*
X57970000Y-74650000D03*
X57970000Y-72350000D03*
X55070000Y-72350000D03*
%TD*%
D11*
%TO.C,R52*%
X39020000Y-37500000D03*
X41020000Y-37500000D03*
%TD*%
%TO.C,R17*%
X66520000Y-67000000D03*
X68520000Y-67000000D03*
%TD*%
D14*
%TO.C,C9*%
X22037500Y-82537500D03*
X22037500Y-80462500D03*
%TD*%
D10*
%TO.C,C23*%
X22000000Y-78000000D03*
X24075000Y-78000000D03*
%TD*%
%TO.C,C20*%
X82982500Y-40000000D03*
X85057500Y-40000000D03*
%TD*%
D11*
%TO.C,R22*%
X93020000Y-50000000D03*
X95020000Y-50000000D03*
%TD*%
D16*
%TO.C,D17*%
X65020000Y-45500000D03*
X69020000Y-45500000D03*
%TD*%
D21*
%TO.C,R4*%
X64520000Y-67000000D03*
X62520000Y-67000000D03*
%TD*%
D15*
%TO.C,D9*%
X54820000Y-46000000D03*
X60220000Y-46000000D03*
%TD*%
D11*
%TO.C,R21*%
X83020000Y-37500000D03*
X85020000Y-37500000D03*
%TD*%
D16*
%TO.C,D14*%
X155020000Y-45500000D03*
X159020000Y-45500000D03*
%TD*%
D11*
%TO.C,R43*%
X129020000Y-40000000D03*
X131020000Y-40000000D03*
%TD*%
D14*
%TO.C,C13*%
X34077500Y-82537500D03*
X34077500Y-80462500D03*
%TD*%
D11*
%TO.C,R8*%
X142520000Y-35000000D03*
X144520000Y-35000000D03*
%TD*%
%TO.C,R53*%
X39020000Y-40000000D03*
X41020000Y-40000000D03*
%TD*%
%TO.C,R38*%
X159020000Y-35000000D03*
X161020000Y-35000000D03*
%TD*%
D14*
%TO.C,C11*%
X28057500Y-82537500D03*
X28057500Y-80462500D03*
%TD*%
D11*
%TO.C,R27*%
X52520000Y-37500000D03*
X54520000Y-37500000D03*
%TD*%
%TO.C,R15*%
X112520000Y-37500000D03*
X114520000Y-37500000D03*
%TD*%
%TO.C,R7*%
X162020000Y-59500000D03*
X164020000Y-59500000D03*
%TD*%
%TO.C,R26*%
X52520000Y-35000000D03*
X54520000Y-35000000D03*
%TD*%
%TO.C,R23*%
X85500000Y-75500000D03*
X87500000Y-75500000D03*
%TD*%
D10*
%TO.C,C6*%
X28000000Y-78000000D03*
X30075000Y-78000000D03*
%TD*%
D16*
%TO.C,D15*%
X125520000Y-45500000D03*
X129520000Y-45500000D03*
%TD*%
D11*
%TO.C,R47*%
X69020000Y-35000000D03*
X71020000Y-35000000D03*
%TD*%
%TO.C,R45*%
X99520000Y-37500000D03*
X101520000Y-37500000D03*
%TD*%
%TO.C,R2*%
X117020000Y-78000000D03*
X119020000Y-78000000D03*
%TD*%
%TO.C,R34*%
X34020000Y-50000000D03*
X36020000Y-50000000D03*
%TD*%
%TO.C,R42*%
X129020000Y-37500000D03*
X131020000Y-37500000D03*
%TD*%
D10*
%TO.C,C5*%
X135945000Y-81500000D03*
X138020000Y-81500000D03*
%TD*%
D21*
%TO.C,R5*%
X56520000Y-83000000D03*
X54520000Y-83000000D03*
%TD*%
D11*
%TO.C,R28*%
X63020000Y-50000000D03*
X65020000Y-50000000D03*
%TD*%
D15*
%TO.C,D1*%
X135820000Y-54500000D03*
X141220000Y-54500000D03*
%TD*%
D22*
%TO.C,U3*%
X61837500Y-72250000D03*
X61837500Y-72750000D03*
X61837500Y-73250000D03*
X61837500Y-73750000D03*
X61837500Y-74250000D03*
X61837500Y-74750000D03*
X61837500Y-75250000D03*
X61837500Y-75750000D03*
X61837500Y-76250000D03*
X61837500Y-76750000D03*
X61837500Y-77250000D03*
X61837500Y-77750000D03*
D23*
X63250000Y-79162500D03*
X63750000Y-79162500D03*
X64250000Y-79162500D03*
X64750000Y-79162500D03*
X65250000Y-79162500D03*
X65750000Y-79162500D03*
X66250000Y-79162500D03*
X66750000Y-79162500D03*
X67250000Y-79162500D03*
X67750000Y-79162500D03*
X68250000Y-79162500D03*
X68750000Y-79162500D03*
D22*
X70162500Y-77750000D03*
X70162500Y-77250000D03*
X70162500Y-76750000D03*
X70162500Y-76250000D03*
X70162500Y-75750000D03*
X70162500Y-75250000D03*
X70162500Y-74750000D03*
X70162500Y-74250000D03*
X70162500Y-73750000D03*
X70162500Y-73250000D03*
X70162500Y-72750000D03*
X70162500Y-72250000D03*
D23*
X68750000Y-70837500D03*
X68250000Y-70837500D03*
X67750000Y-70837500D03*
X67250000Y-70837500D03*
X66750000Y-70837500D03*
X66250000Y-70837500D03*
X65750000Y-70837500D03*
X65250000Y-70837500D03*
X64750000Y-70837500D03*
X64250000Y-70837500D03*
X63750000Y-70837500D03*
X63250000Y-70837500D03*
%TD*%
D24*
%TO.C,F1*%
X140532500Y-72000000D03*
X143507500Y-72000000D03*
%TD*%
D11*
%TO.C,R29*%
X70500000Y-67000000D03*
X72500000Y-67000000D03*
%TD*%
D10*
%TO.C,C19*%
X112482500Y-40000000D03*
X114557500Y-40000000D03*
%TD*%
%TO.C,C1*%
X116982500Y-68500000D03*
X119057500Y-68500000D03*
%TD*%
D21*
%TO.C,R3*%
X57520000Y-69500000D03*
X55520000Y-69500000D03*
%TD*%
D11*
%TO.C,R20*%
X83020000Y-35000000D03*
X85020000Y-35000000D03*
%TD*%
D10*
%TO.C,C8*%
X58462500Y-67000000D03*
X60537500Y-67000000D03*
%TD*%
D11*
%TO.C,R54*%
X54500000Y-67000000D03*
X56500000Y-67000000D03*
%TD*%
D25*
%TO.C,L1*%
X122170000Y-73000000D03*
X131870000Y-73000000D03*
%TD*%
D15*
%TO.C,D11*%
X25320000Y-46000000D03*
X30720000Y-46000000D03*
%TD*%
D26*
%TO.C,U1*%
X117070000Y-74710000D03*
X118020000Y-74710000D03*
X118970000Y-74710000D03*
X118970000Y-71290000D03*
X118020000Y-71290000D03*
X117070000Y-71290000D03*
%TD*%
D11*
%TO.C,R11*%
X153020000Y-50000000D03*
X155020000Y-50000000D03*
%TD*%
%TO.C,R16*%
X123020000Y-50000000D03*
X125020000Y-50000000D03*
%TD*%
D15*
%TO.C,D7*%
X85120000Y-46000000D03*
X90520000Y-46000000D03*
%TD*%
D11*
%TO.C,R41*%
X129020000Y-35000000D03*
X131020000Y-35000000D03*
%TD*%
%TO.C,R35*%
X37020000Y-61500000D03*
X39020000Y-61500000D03*
%TD*%
D10*
%TO.C,C18*%
X142482500Y-40000000D03*
X144557500Y-40000000D03*
%TD*%
D27*
%TO.C,U4*%
X91137500Y-67775000D03*
X91137500Y-68425000D03*
X91137500Y-69075000D03*
X91137500Y-69725000D03*
X91137500Y-70375000D03*
X91137500Y-71025000D03*
X91137500Y-71675000D03*
X91137500Y-72325000D03*
X91137500Y-72975000D03*
X91137500Y-73625000D03*
X91137500Y-74275000D03*
X91137500Y-74925000D03*
X91137500Y-75575000D03*
X91137500Y-76225000D03*
X96862500Y-76225000D03*
X96862500Y-75575000D03*
X96862500Y-74925000D03*
X96862500Y-74275000D03*
X96862500Y-73625000D03*
X96862500Y-72975000D03*
X96862500Y-72325000D03*
X96862500Y-71675000D03*
X96862500Y-71025000D03*
X96862500Y-70375000D03*
X96862500Y-69725000D03*
X96862500Y-69075000D03*
X96862500Y-68425000D03*
X96862500Y-67775000D03*
%TD*%
D14*
%TO.C,C14*%
X37087500Y-82537500D03*
X37087500Y-80462500D03*
%TD*%
D15*
%TO.C,D3*%
X145320000Y-46000000D03*
X150720000Y-46000000D03*
%TD*%
D14*
%TO.C,C10*%
X25047500Y-82537500D03*
X25047500Y-80462500D03*
%TD*%
D11*
%TO.C,R39*%
X159020000Y-37500000D03*
X161020000Y-37500000D03*
%TD*%
M02*
