%TF.GenerationSoftware,KiCad,Pcbnew,10.0.2*%
%TF.CreationDate,2026-05-21T22:17:08-07:00*%
%TF.ProjectId,Lipo Discharger,4c69706f-2044-4697-9363-686172676572,rev?*%
%TF.SameCoordinates,Original*%
%TF.FileFunction,Soldermask,Bot*%
%TF.FilePolarity,Negative*%
%FSLAX46Y46*%
G04 Gerber Fmt 4.6, Leading zero omitted, Abs format (unit mm)*
G04 Created by KiCad (PCBNEW 10.0.2) date 2026-05-21 22:17:08*
%MOMM*%
%LPD*%
G01*
G04 APERTURE LIST*
G04 Aperture macros list*
%AMRoundRect*
0 Rectangle with rounded corners*
0 $1 Rounding radius*
0 $2 $3 $4 $5 $6 $7 $8 $9 X,Y pos of 4 corners*
0 Add a 4 corners polygon primitive as box body*
4,1,4,$2,$3,$4,$5,$6,$7,$8,$9,$2,$3,0*
0 Add four circle primitives for the rounded corners*
1,1,$1+$1,$2,$3*
1,1,$1+$1,$4,$5*
1,1,$1+$1,$6,$7*
1,1,$1+$1,$8,$9*
0 Add four rect primitives between the rounded corners*
20,1,$1+$1,$2,$3,$4,$5,0*
20,1,$1+$1,$4,$5,$6,$7,0*
20,1,$1+$1,$6,$7,$8,$9,0*
20,1,$1+$1,$8,$9,$2,$3,0*%
G04 Aperture macros list end*
%ADD10C,4.100000*%
%ADD11RoundRect,1.025000X-1.025000X-1.025000X1.025000X-1.025000X1.025000X1.025000X-1.025000X1.025000X0*%
%ADD12R,0.900000X2.000000*%
%ADD13C,0.650000*%
%ADD14O,2.100000X1.000000*%
%ADD15O,1.600000X1.000000*%
%ADD16C,2.400000*%
%ADD17R,1.070000X1.800000*%
%ADD18O,1.070000X1.800000*%
%ADD19R,1.905000X2.000000*%
%ADD20O,1.905000X2.000000*%
%ADD21C,2.000000*%
%ADD22R,1.050000X1.500000*%
%ADD23O,1.050000X1.500000*%
%ADD24R,1.700000X1.700000*%
%ADD25C,1.700000*%
%ADD26RoundRect,0.250000X-0.550000X-0.550000X0.550000X-0.550000X0.550000X0.550000X-0.550000X0.550000X0*%
%ADD27C,1.600000*%
G04 APERTURE END LIST*
D10*
%TO.C,J7*%
X142100000Y-60650000D03*
D11*
X134900000Y-60650000D03*
D12*
X145250000Y-54650000D03*
X131750000Y-54650000D03*
%TD*%
%TO.C,J8*%
X101750000Y-54150000D03*
X115250000Y-54150000D03*
D11*
X104900000Y-60150000D03*
D10*
X112100000Y-60150000D03*
%TD*%
D12*
%TO.C,J6*%
X161750000Y-54150000D03*
X175250000Y-54150000D03*
D11*
X164900000Y-60150000D03*
D10*
X172100000Y-60150000D03*
%TD*%
D12*
%TO.C,J5*%
X191750000Y-54650000D03*
X205250000Y-54650000D03*
D11*
X194900000Y-60650000D03*
D10*
X202100000Y-60650000D03*
%TD*%
D12*
%TO.C,J4*%
X221750000Y-54150000D03*
X235250000Y-54150000D03*
D11*
X224900000Y-60150000D03*
D10*
X232100000Y-60150000D03*
%TD*%
D13*
%TO.C,J2*%
X232899000Y-103507900D03*
X232899000Y-97727900D03*
D14*
X232369000Y-104937900D03*
D15*
X236549000Y-104937900D03*
D14*
X232369000Y-96297900D03*
D15*
X236549000Y-96297900D03*
%TD*%
D16*
%TO.C,R36*%
X107499000Y-150617900D03*
X107499000Y-122677900D03*
%TD*%
D17*
%TO.C,D4*%
X229499000Y-73117900D03*
D18*
X228229000Y-73117900D03*
X226959000Y-73117900D03*
X225689000Y-73117900D03*
%TD*%
D16*
%TO.C,R24*%
X167499000Y-150642900D03*
X167499000Y-122702900D03*
%TD*%
D17*
%TO.C,D8*%
X169499000Y-73117900D03*
D18*
X168229000Y-73117900D03*
X166959000Y-73117900D03*
X165689000Y-73117900D03*
%TD*%
D16*
%TO.C,R31*%
X147499000Y-150642900D03*
X147499000Y-122702900D03*
%TD*%
D19*
%TO.C,Q5*%
X111579000Y-89117900D03*
D20*
X109039000Y-89117900D03*
X106499000Y-89117900D03*
%TD*%
D21*
%TO.C,SW1*%
X231249000Y-109867900D03*
X237749000Y-109867900D03*
X231249000Y-114367900D03*
X237749000Y-114367900D03*
%TD*%
D16*
%TO.C,R13*%
X237499000Y-150672900D03*
X237499000Y-122732900D03*
%TD*%
D22*
%TO.C,Q6*%
X101689000Y-100147900D03*
D23*
X102959000Y-100147900D03*
X104229000Y-100147900D03*
%TD*%
D16*
%TO.C,R58*%
X127499000Y-150702900D03*
X127499000Y-122762900D03*
%TD*%
%TO.C,R59*%
X97499000Y-150617900D03*
X97499000Y-122677900D03*
%TD*%
%TO.C,R55*%
X217499000Y-150702900D03*
X217499000Y-122762900D03*
%TD*%
D19*
%TO.C,Q4*%
X140999000Y-89117900D03*
D20*
X138459000Y-89117900D03*
X135919000Y-89117900D03*
%TD*%
D16*
%TO.C,R18*%
X197499000Y-150672900D03*
X197499000Y-122732900D03*
%TD*%
D24*
%TO.C,J3*%
X103539000Y-107617900D03*
D25*
X100999000Y-107617900D03*
X98459000Y-107617900D03*
X95919000Y-107617900D03*
%TD*%
D17*
%TO.C,D10*%
X139499000Y-73117900D03*
D18*
X138229000Y-73117900D03*
X136959000Y-73117900D03*
X135689000Y-73117900D03*
%TD*%
D16*
%TO.C,R37*%
X117499000Y-150672900D03*
X117499000Y-122732900D03*
%TD*%
%TO.C,R30*%
X137499000Y-150672900D03*
X137499000Y-122732900D03*
%TD*%
D19*
%TO.C,Q2*%
X201079000Y-89117900D03*
D20*
X198539000Y-89117900D03*
X195999000Y-89117900D03*
%TD*%
D17*
%TO.C,D12*%
X109499000Y-73117900D03*
D18*
X108229000Y-73117900D03*
X106959000Y-73117900D03*
X105689000Y-73117900D03*
%TD*%
D16*
%TO.C,R57*%
X157499000Y-150612900D03*
X157499000Y-122672900D03*
%TD*%
D19*
%TO.C,Q3*%
X170999000Y-89117900D03*
D20*
X168459000Y-89117900D03*
X165919000Y-89117900D03*
%TD*%
D17*
%TO.C,D6*%
X199499000Y-73117900D03*
D18*
X198229000Y-73117900D03*
X196959000Y-73117900D03*
X195689000Y-73117900D03*
%TD*%
D26*
%TO.C,D13*%
X96689000Y-95117900D03*
D27*
X104309000Y-95117900D03*
%TD*%
D16*
%TO.C,R56*%
X187499000Y-150672900D03*
X187499000Y-122732900D03*
%TD*%
%TO.C,R19*%
X207499000Y-150672900D03*
X207499000Y-122732900D03*
%TD*%
D19*
%TO.C,Q1*%
X230499000Y-89117900D03*
D20*
X227959000Y-89117900D03*
X225419000Y-89117900D03*
%TD*%
D16*
%TO.C,R12*%
X227499000Y-150702900D03*
X227499000Y-122762900D03*
%TD*%
%TO.C,R25*%
X177499000Y-150612900D03*
X177499000Y-122672900D03*
%TD*%
D24*
%TO.C,J9*%
X97409000Y-99187900D03*
D25*
X97409000Y-101727900D03*
%TD*%
M02*
