M48
; DRILL file KiCad 10.0.2 date 2026-06-16T22:33:31
; FORMAT={-:-/ absolute / metric / decimal}
; #@! TF.CreationDate,2026-06-16T22:33:31-07:00
; #@! TF.GenerationSoftware,Kicad,Pcbnew,10.0.2
; #@! TF.FileFunction,Plated,1,2,PTH
FMAT,2
METRIC
; #@! TA.AperFunction,Plated,PTH,ViaDrill
T1C0.300
; #@! TA.AperFunction,Plated,PTH,ComponentDrill
T2C0.700
; #@! TA.AperFunction,Plated,PTH,ComponentDrill
T3C0.750
; #@! TA.AperFunction,Plated,PTH,ComponentDrill
T4C0.800
; #@! TA.AperFunction,Plated,PTH,ComponentDrill
T5C1.000
; #@! TA.AperFunction,Plated,PTH,ComponentDrill
T6C1.100
; #@! TA.AperFunction,Plated,PTH,ComponentDrill
T7C1.200
; #@! TA.AperFunction,Plated,PTH,ComponentDrill
T8C2.700
%
G90
G05
T1
X27.671Y-50.433
X29.154Y-113.978
X32.271Y-112.946
X33.189Y-120.374
X34.101Y-44.276
X34.198Y-116.25
X34.384Y-118.784
X34.642Y-117.863
X34.799Y-121.988
X35.143Y-45.136
X35.724Y-121.992
X37.102Y-122.085
X37.368Y-118.889
X37.579Y-122.946
X38.223Y-118.276
X38.254Y-116.771
X38.343Y-119.351
X38.448Y-114.023
X39.902Y-116.25
X39.915Y-118.181
X42.512Y-113.735
X43.211Y-116.9
X43.757Y-71.979
X43.909Y-106.86
X44.15Y-117.03
X44.306Y-123.949
X51.093Y-52.549
X54.426Y-50.732
X54.929Y-65.1
X56.714Y-62.429
X59.582Y-45.451
X60.322Y-42.685
X61.162Y-44.989
X63.605Y-109.769
X64.642Y-109.586
X73.212Y-116.468
X74.627Y-45.717
X87.181Y-45.021
X87.957Y-105.541
X90.673Y-109.18
X114.713Y-44.947
X115.789Y-89.176
X116.735Y-119.105
X121.829Y-124.623
X124.462Y-123.99
X125.01Y-107.355
X126.487Y-107.336
T3
X143.561Y-112.64
X144.962Y-112.64
X146.362Y-112.64
T4
X126.209Y-118.243
X128.209Y-118.243
X130.209Y-118.243
X132.209Y-118.243
X135.459Y-118.243
X137.459Y-118.243
X139.459Y-118.243
X139.492Y-108.5
X141.459Y-118.243
X144.709Y-118.243
X146.709Y-118.243
X147.112Y-108.5
X148.709Y-118.243
X150.709Y-118.243
T5
X149.992Y-110.96
X149.992Y-113.5
T6
X32.603Y-51.91
X35.143Y-51.91
X37.683Y-51.91
X58.622Y-51.91
X61.162Y-51.91
X63.702Y-51.91
X84.641Y-51.91
X87.181Y-51.91
X89.25Y-115.25
X89.25Y-121.75
X89.721Y-51.91
X93.75Y-115.25
X93.75Y-121.75
X110.659Y-51.91
X113.2Y-51.91
X115.739Y-51.91
X136.678Y-51.91
X139.218Y-51.91
X141.758Y-51.91
T7
X26.643Y-57.6
X26.643Y-103.32
X34.593Y-57.6
X34.593Y-103.32
X42.543Y-57.6
X42.543Y-103.32
X52.662Y-57.6
X52.662Y-103.32
X60.612Y-57.6
X60.612Y-103.32
X68.562Y-57.6
X68.562Y-103.32
X78.681Y-57.6
X78.681Y-103.32
X86.631Y-57.6
X86.631Y-103.32
X94.581Y-57.6
X94.581Y-103.32
X104.7Y-57.6
X104.7Y-103.32
X112.649Y-57.6
X112.649Y-103.32
X120.599Y-57.6
X120.599Y-103.32
X130.718Y-57.6
X130.718Y-103.32
X138.668Y-57.6
X138.668Y-103.32
X146.618Y-57.6
X146.618Y-103.32
T8
X31.043Y-33.65
X38.243Y-33.65
X57.062Y-33.65
X64.262Y-33.65
X83.081Y-33.65
X90.281Y-33.65
X109.099Y-33.65
X116.299Y-33.65
X135.118Y-33.65
X142.318Y-33.65
T2
G00X27.893Y-27.15
M15
G01X27.893Y-28.15
M16
G05
G00X41.393Y-27.15
M15
G01X41.393Y-28.15
M16
G05
G00X53.912Y-27.15
M15
G01X53.912Y-28.15
M16
G05
G00X67.412Y-27.15
M15
G01X67.412Y-28.15
M16
G05
G00X79.931Y-27.15
M15
G01X79.931Y-28.15
M16
G05
G00X93.431Y-27.15
M15
G01X93.431Y-28.15
M16
G05
G00X99.18Y-117.37
M15
G01X99.18Y-118.37
M16
G05
G00X99.18Y-121.8
M15
G01X99.18Y-122.3
M16
G05
G00X105.95Y-27.15
M15
G01X105.95Y-28.15
M16
G05
G00X107.82Y-117.37
M15
G01X107.82Y-118.37
M16
G05
G00X107.82Y-121.8
M15
G01X107.82Y-122.3
M16
G05
G00X119.45Y-27.15
M15
G01X119.45Y-28.15
M16
G05
G00X131.968Y-27.15
M15
G01X131.968Y-28.15
M16
G05
G00X145.468Y-27.15
M15
G01X145.468Y-28.15
M16
G05
M30
