%TF.GenerationSoftware,KiCad,Pcbnew,10.0.2*%
%TF.CreationDate,2026-06-16T22:33:29-07:00*%
%TF.ProjectId,Lipo Discharger,4c69706f-2044-4697-9363-686172676572,rev?*%
%TF.SameCoordinates,Original*%
%TF.FileFunction,Legend,Top*%
%TF.FilePolarity,Positive*%
%FSLAX46Y46*%
G04 Gerber Fmt 4.6, Leading zero omitted, Abs format (unit mm)*
G04 Created by KiCad (PCBNEW 10.0.2) date 2026-06-16 22:33:29*
%MOMM*%
%LPD*%
G01*
G04 APERTURE LIST*
%ADD10C,0.150000*%
%ADD11C,0.120000*%
G04 APERTURE END LIST*
D10*
X138384966Y-15604819D02*
X138384966Y-16319104D01*
X138384966Y-16319104D02*
X138337347Y-16461961D01*
X138337347Y-16461961D02*
X138242109Y-16557200D01*
X138242109Y-16557200D02*
X138099252Y-16604819D01*
X138099252Y-16604819D02*
X138004014Y-16604819D01*
X139004014Y-16033390D02*
X138908776Y-15985771D01*
X138908776Y-15985771D02*
X138861157Y-15938152D01*
X138861157Y-15938152D02*
X138813538Y-15842914D01*
X138813538Y-15842914D02*
X138813538Y-15795295D01*
X138813538Y-15795295D02*
X138861157Y-15700057D01*
X138861157Y-15700057D02*
X138908776Y-15652438D01*
X138908776Y-15652438D02*
X139004014Y-15604819D01*
X139004014Y-15604819D02*
X139194490Y-15604819D01*
X139194490Y-15604819D02*
X139289728Y-15652438D01*
X139289728Y-15652438D02*
X139337347Y-15700057D01*
X139337347Y-15700057D02*
X139384966Y-15795295D01*
X139384966Y-15795295D02*
X139384966Y-15842914D01*
X139384966Y-15842914D02*
X139337347Y-15938152D01*
X139337347Y-15938152D02*
X139289728Y-15985771D01*
X139289728Y-15985771D02*
X139194490Y-16033390D01*
X139194490Y-16033390D02*
X139004014Y-16033390D01*
X139004014Y-16033390D02*
X138908776Y-16081009D01*
X138908776Y-16081009D02*
X138861157Y-16128628D01*
X138861157Y-16128628D02*
X138813538Y-16223866D01*
X138813538Y-16223866D02*
X138813538Y-16414342D01*
X138813538Y-16414342D02*
X138861157Y-16509580D01*
X138861157Y-16509580D02*
X138908776Y-16557200D01*
X138908776Y-16557200D02*
X139004014Y-16604819D01*
X139004014Y-16604819D02*
X139194490Y-16604819D01*
X139194490Y-16604819D02*
X139289728Y-16557200D01*
X139289728Y-16557200D02*
X139337347Y-16509580D01*
X139337347Y-16509580D02*
X139384966Y-16414342D01*
X139384966Y-16414342D02*
X139384966Y-16223866D01*
X139384966Y-16223866D02*
X139337347Y-16128628D01*
X139337347Y-16128628D02*
X139289728Y-16081009D01*
X139289728Y-16081009D02*
X139194490Y-16033390D01*
X144046871Y-36264700D02*
X145189729Y-36264700D01*
X144618300Y-36836128D02*
X144618300Y-35693271D01*
X131746871Y-36264700D02*
X132889729Y-36264700D01*
X89455323Y-113373308D02*
X89598180Y-113420927D01*
X89598180Y-113420927D02*
X89836275Y-113420927D01*
X89836275Y-113420927D02*
X89931513Y-113373308D01*
X89931513Y-113373308D02*
X89979132Y-113325688D01*
X89979132Y-113325688D02*
X90026751Y-113230450D01*
X90026751Y-113230450D02*
X90026751Y-113135212D01*
X90026751Y-113135212D02*
X89979132Y-113039974D01*
X89979132Y-113039974D02*
X89931513Y-112992355D01*
X89931513Y-112992355D02*
X89836275Y-112944736D01*
X89836275Y-112944736D02*
X89645799Y-112897117D01*
X89645799Y-112897117D02*
X89550561Y-112849498D01*
X89550561Y-112849498D02*
X89502942Y-112801879D01*
X89502942Y-112801879D02*
X89455323Y-112706641D01*
X89455323Y-112706641D02*
X89455323Y-112611403D01*
X89455323Y-112611403D02*
X89502942Y-112516165D01*
X89502942Y-112516165D02*
X89550561Y-112468546D01*
X89550561Y-112468546D02*
X89645799Y-112420927D01*
X89645799Y-112420927D02*
X89883894Y-112420927D01*
X89883894Y-112420927D02*
X90026751Y-112468546D01*
X90360085Y-112420927D02*
X90598180Y-113420927D01*
X90598180Y-113420927D02*
X90788656Y-112706641D01*
X90788656Y-112706641D02*
X90979132Y-113420927D01*
X90979132Y-113420927D02*
X91217228Y-112420927D01*
X92121989Y-113420927D02*
X91550561Y-113420927D01*
X91836275Y-113420927D02*
X91836275Y-112420927D01*
X91836275Y-112420927D02*
X91741037Y-112563784D01*
X91741037Y-112563784D02*
X91645799Y-112659022D01*
X91645799Y-112659022D02*
X91550561Y-112706641D01*
X64280933Y-121206247D02*
X64233314Y-121253867D01*
X64233314Y-121253867D02*
X64090457Y-121301486D01*
X64090457Y-121301486D02*
X63995219Y-121301486D01*
X63995219Y-121301486D02*
X63852362Y-121253867D01*
X63852362Y-121253867D02*
X63757124Y-121158628D01*
X63757124Y-121158628D02*
X63709505Y-121063390D01*
X63709505Y-121063390D02*
X63661886Y-120872914D01*
X63661886Y-120872914D02*
X63661886Y-120730057D01*
X63661886Y-120730057D02*
X63709505Y-120539581D01*
X63709505Y-120539581D02*
X63757124Y-120444343D01*
X63757124Y-120444343D02*
X63852362Y-120349105D01*
X63852362Y-120349105D02*
X63995219Y-120301486D01*
X63995219Y-120301486D02*
X64090457Y-120301486D01*
X64090457Y-120301486D02*
X64233314Y-120349105D01*
X64233314Y-120349105D02*
X64280933Y-120396724D01*
X65138076Y-120301486D02*
X64947600Y-120301486D01*
X64947600Y-120301486D02*
X64852362Y-120349105D01*
X64852362Y-120349105D02*
X64804743Y-120396724D01*
X64804743Y-120396724D02*
X64709505Y-120539581D01*
X64709505Y-120539581D02*
X64661886Y-120730057D01*
X64661886Y-120730057D02*
X64661886Y-121111009D01*
X64661886Y-121111009D02*
X64709505Y-121206247D01*
X64709505Y-121206247D02*
X64757124Y-121253867D01*
X64757124Y-121253867D02*
X64852362Y-121301486D01*
X64852362Y-121301486D02*
X65042838Y-121301486D01*
X65042838Y-121301486D02*
X65138076Y-121253867D01*
X65138076Y-121253867D02*
X65185695Y-121206247D01*
X65185695Y-121206247D02*
X65233314Y-121111009D01*
X65233314Y-121111009D02*
X65233314Y-120872914D01*
X65233314Y-120872914D02*
X65185695Y-120777676D01*
X65185695Y-120777676D02*
X65138076Y-120730057D01*
X65138076Y-120730057D02*
X65042838Y-120682438D01*
X65042838Y-120682438D02*
X64852362Y-120682438D01*
X64852362Y-120682438D02*
X64757124Y-120730057D01*
X64757124Y-120730057D02*
X64709505Y-120777676D01*
X64709505Y-120777676D02*
X64661886Y-120872914D01*
X136357142Y-113454819D02*
X136023809Y-112978628D01*
X135785714Y-113454819D02*
X135785714Y-112454819D01*
X135785714Y-112454819D02*
X136166666Y-112454819D01*
X136166666Y-112454819D02*
X136261904Y-112502438D01*
X136261904Y-112502438D02*
X136309523Y-112550057D01*
X136309523Y-112550057D02*
X136357142Y-112645295D01*
X136357142Y-112645295D02*
X136357142Y-112788152D01*
X136357142Y-112788152D02*
X136309523Y-112883390D01*
X136309523Y-112883390D02*
X136261904Y-112931009D01*
X136261904Y-112931009D02*
X136166666Y-112978628D01*
X136166666Y-112978628D02*
X135785714Y-112978628D01*
X137261904Y-112454819D02*
X136785714Y-112454819D01*
X136785714Y-112454819D02*
X136738095Y-112931009D01*
X136738095Y-112931009D02*
X136785714Y-112883390D01*
X136785714Y-112883390D02*
X136880952Y-112835771D01*
X136880952Y-112835771D02*
X137119047Y-112835771D01*
X137119047Y-112835771D02*
X137214285Y-112883390D01*
X137214285Y-112883390D02*
X137261904Y-112931009D01*
X137261904Y-112931009D02*
X137309523Y-113026247D01*
X137309523Y-113026247D02*
X137309523Y-113264342D01*
X137309523Y-113264342D02*
X137261904Y-113359580D01*
X137261904Y-113359580D02*
X137214285Y-113407200D01*
X137214285Y-113407200D02*
X137119047Y-113454819D01*
X137119047Y-113454819D02*
X136880952Y-113454819D01*
X136880952Y-113454819D02*
X136785714Y-113407200D01*
X136785714Y-113407200D02*
X136738095Y-113359580D01*
X138166666Y-112788152D02*
X138166666Y-113454819D01*
X137928571Y-112407200D02*
X137690476Y-113121485D01*
X137690476Y-113121485D02*
X138309523Y-113121485D01*
X75537942Y-49915319D02*
X75204609Y-49439128D01*
X74966514Y-49915319D02*
X74966514Y-48915319D01*
X74966514Y-48915319D02*
X75347466Y-48915319D01*
X75347466Y-48915319D02*
X75442704Y-48962938D01*
X75442704Y-48962938D02*
X75490323Y-49010557D01*
X75490323Y-49010557D02*
X75537942Y-49105795D01*
X75537942Y-49105795D02*
X75537942Y-49248652D01*
X75537942Y-49248652D02*
X75490323Y-49343890D01*
X75490323Y-49343890D02*
X75442704Y-49391509D01*
X75442704Y-49391509D02*
X75347466Y-49439128D01*
X75347466Y-49439128D02*
X74966514Y-49439128D01*
X75918895Y-49010557D02*
X75966514Y-48962938D01*
X75966514Y-48962938D02*
X76061752Y-48915319D01*
X76061752Y-48915319D02*
X76299847Y-48915319D01*
X76299847Y-48915319D02*
X76395085Y-48962938D01*
X76395085Y-48962938D02*
X76442704Y-49010557D01*
X76442704Y-49010557D02*
X76490323Y-49105795D01*
X76490323Y-49105795D02*
X76490323Y-49201033D01*
X76490323Y-49201033D02*
X76442704Y-49343890D01*
X76442704Y-49343890D02*
X75871276Y-49915319D01*
X75871276Y-49915319D02*
X76490323Y-49915319D01*
X76823657Y-48915319D02*
X77442704Y-48915319D01*
X77442704Y-48915319D02*
X77109371Y-49296271D01*
X77109371Y-49296271D02*
X77252228Y-49296271D01*
X77252228Y-49296271D02*
X77347466Y-49343890D01*
X77347466Y-49343890D02*
X77395085Y-49391509D01*
X77395085Y-49391509D02*
X77442704Y-49486747D01*
X77442704Y-49486747D02*
X77442704Y-49724842D01*
X77442704Y-49724842D02*
X77395085Y-49820080D01*
X77395085Y-49820080D02*
X77347466Y-49867700D01*
X77347466Y-49867700D02*
X77252228Y-49915319D01*
X77252228Y-49915319D02*
X76966514Y-49915319D01*
X76966514Y-49915319D02*
X76871276Y-49867700D01*
X76871276Y-49867700D02*
X76823657Y-49820080D01*
X41976633Y-38915319D02*
X41643300Y-38439128D01*
X41405205Y-38915319D02*
X41405205Y-37915319D01*
X41405205Y-37915319D02*
X41786157Y-37915319D01*
X41786157Y-37915319D02*
X41881395Y-37962938D01*
X41881395Y-37962938D02*
X41929014Y-38010557D01*
X41929014Y-38010557D02*
X41976633Y-38105795D01*
X41976633Y-38105795D02*
X41976633Y-38248652D01*
X41976633Y-38248652D02*
X41929014Y-38343890D01*
X41929014Y-38343890D02*
X41881395Y-38391509D01*
X41881395Y-38391509D02*
X41786157Y-38439128D01*
X41786157Y-38439128D02*
X41405205Y-38439128D01*
X42548062Y-38343890D02*
X42452824Y-38296271D01*
X42452824Y-38296271D02*
X42405205Y-38248652D01*
X42405205Y-38248652D02*
X42357586Y-38153414D01*
X42357586Y-38153414D02*
X42357586Y-38105795D01*
X42357586Y-38105795D02*
X42405205Y-38010557D01*
X42405205Y-38010557D02*
X42452824Y-37962938D01*
X42452824Y-37962938D02*
X42548062Y-37915319D01*
X42548062Y-37915319D02*
X42738538Y-37915319D01*
X42738538Y-37915319D02*
X42833776Y-37962938D01*
X42833776Y-37962938D02*
X42881395Y-38010557D01*
X42881395Y-38010557D02*
X42929014Y-38105795D01*
X42929014Y-38105795D02*
X42929014Y-38153414D01*
X42929014Y-38153414D02*
X42881395Y-38248652D01*
X42881395Y-38248652D02*
X42833776Y-38296271D01*
X42833776Y-38296271D02*
X42738538Y-38343890D01*
X42738538Y-38343890D02*
X42548062Y-38343890D01*
X42548062Y-38343890D02*
X42452824Y-38391509D01*
X42452824Y-38391509D02*
X42405205Y-38439128D01*
X42405205Y-38439128D02*
X42357586Y-38534366D01*
X42357586Y-38534366D02*
X42357586Y-38724842D01*
X42357586Y-38724842D02*
X42405205Y-38820080D01*
X42405205Y-38820080D02*
X42452824Y-38867700D01*
X42452824Y-38867700D02*
X42548062Y-38915319D01*
X42548062Y-38915319D02*
X42738538Y-38915319D01*
X42738538Y-38915319D02*
X42833776Y-38867700D01*
X42833776Y-38867700D02*
X42881395Y-38820080D01*
X42881395Y-38820080D02*
X42929014Y-38724842D01*
X42929014Y-38724842D02*
X42929014Y-38534366D01*
X42929014Y-38534366D02*
X42881395Y-38439128D01*
X42881395Y-38439128D02*
X42833776Y-38391509D01*
X42833776Y-38391509D02*
X42738538Y-38343890D01*
X26357161Y-113552080D02*
X26309542Y-113599700D01*
X26309542Y-113599700D02*
X26166685Y-113647319D01*
X26166685Y-113647319D02*
X26071447Y-113647319D01*
X26071447Y-113647319D02*
X25928590Y-113599700D01*
X25928590Y-113599700D02*
X25833352Y-113504461D01*
X25833352Y-113504461D02*
X25785733Y-113409223D01*
X25785733Y-113409223D02*
X25738114Y-113218747D01*
X25738114Y-113218747D02*
X25738114Y-113075890D01*
X25738114Y-113075890D02*
X25785733Y-112885414D01*
X25785733Y-112885414D02*
X25833352Y-112790176D01*
X25833352Y-112790176D02*
X25928590Y-112694938D01*
X25928590Y-112694938D02*
X26071447Y-112647319D01*
X26071447Y-112647319D02*
X26166685Y-112647319D01*
X26166685Y-112647319D02*
X26309542Y-112694938D01*
X26309542Y-112694938D02*
X26357161Y-112742557D01*
X27309542Y-113647319D02*
X26738114Y-113647319D01*
X27023828Y-113647319D02*
X27023828Y-112647319D01*
X27023828Y-112647319D02*
X26928590Y-112790176D01*
X26928590Y-112790176D02*
X26833352Y-112885414D01*
X26833352Y-112885414D02*
X26738114Y-112933033D01*
X28166685Y-112980652D02*
X28166685Y-113647319D01*
X27928590Y-112599700D02*
X27690495Y-113313985D01*
X27690495Y-113313985D02*
X28309542Y-113313985D01*
X36290495Y-110104819D02*
X36290495Y-110914342D01*
X36290495Y-110914342D02*
X36338114Y-111009580D01*
X36338114Y-111009580D02*
X36385733Y-111057200D01*
X36385733Y-111057200D02*
X36480971Y-111104819D01*
X36480971Y-111104819D02*
X36671447Y-111104819D01*
X36671447Y-111104819D02*
X36766685Y-111057200D01*
X36766685Y-111057200D02*
X36814304Y-111009580D01*
X36814304Y-111009580D02*
X36861923Y-110914342D01*
X36861923Y-110914342D02*
X36861923Y-110104819D01*
X37242876Y-110104819D02*
X37861923Y-110104819D01*
X37861923Y-110104819D02*
X37528590Y-110485771D01*
X37528590Y-110485771D02*
X37671447Y-110485771D01*
X37671447Y-110485771D02*
X37766685Y-110533390D01*
X37766685Y-110533390D02*
X37814304Y-110581009D01*
X37814304Y-110581009D02*
X37861923Y-110676247D01*
X37861923Y-110676247D02*
X37861923Y-110914342D01*
X37861923Y-110914342D02*
X37814304Y-111009580D01*
X37814304Y-111009580D02*
X37766685Y-111057200D01*
X37766685Y-111057200D02*
X37671447Y-111104819D01*
X37671447Y-111104819D02*
X37385733Y-111104819D01*
X37385733Y-111104819D02*
X37290495Y-111057200D01*
X37290495Y-111057200D02*
X37242876Y-111009580D01*
X145575442Y-41915319D02*
X145242109Y-41439128D01*
X145004014Y-41915319D02*
X145004014Y-40915319D01*
X145004014Y-40915319D02*
X145384966Y-40915319D01*
X145384966Y-40915319D02*
X145480204Y-40962938D01*
X145480204Y-40962938D02*
X145527823Y-41010557D01*
X145527823Y-41010557D02*
X145575442Y-41105795D01*
X145575442Y-41105795D02*
X145575442Y-41248652D01*
X145575442Y-41248652D02*
X145527823Y-41343890D01*
X145527823Y-41343890D02*
X145480204Y-41391509D01*
X145480204Y-41391509D02*
X145384966Y-41439128D01*
X145384966Y-41439128D02*
X145004014Y-41439128D01*
X145908776Y-40915319D02*
X146527823Y-40915319D01*
X146527823Y-40915319D02*
X146194490Y-41296271D01*
X146194490Y-41296271D02*
X146337347Y-41296271D01*
X146337347Y-41296271D02*
X146432585Y-41343890D01*
X146432585Y-41343890D02*
X146480204Y-41391509D01*
X146480204Y-41391509D02*
X146527823Y-41486747D01*
X146527823Y-41486747D02*
X146527823Y-41724842D01*
X146527823Y-41724842D02*
X146480204Y-41820080D01*
X146480204Y-41820080D02*
X146432585Y-41867700D01*
X146432585Y-41867700D02*
X146337347Y-41915319D01*
X146337347Y-41915319D02*
X146051633Y-41915319D01*
X146051633Y-41915319D02*
X145956395Y-41867700D01*
X145956395Y-41867700D02*
X145908776Y-41820080D01*
X146861157Y-40915319D02*
X147480204Y-40915319D01*
X147480204Y-40915319D02*
X147146871Y-41296271D01*
X147146871Y-41296271D02*
X147289728Y-41296271D01*
X147289728Y-41296271D02*
X147384966Y-41343890D01*
X147384966Y-41343890D02*
X147432585Y-41391509D01*
X147432585Y-41391509D02*
X147480204Y-41486747D01*
X147480204Y-41486747D02*
X147480204Y-41724842D01*
X147480204Y-41724842D02*
X147432585Y-41820080D01*
X147432585Y-41820080D02*
X147384966Y-41867700D01*
X147384966Y-41867700D02*
X147289728Y-41915319D01*
X147289728Y-41915319D02*
X147004014Y-41915319D01*
X147004014Y-41915319D02*
X146908776Y-41867700D01*
X146908776Y-41867700D02*
X146861157Y-41820080D01*
X122280528Y-115454819D02*
X121947195Y-114978628D01*
X121709100Y-115454819D02*
X121709100Y-114454819D01*
X121709100Y-114454819D02*
X122090052Y-114454819D01*
X122090052Y-114454819D02*
X122185290Y-114502438D01*
X122185290Y-114502438D02*
X122232909Y-114550057D01*
X122232909Y-114550057D02*
X122280528Y-114645295D01*
X122280528Y-114645295D02*
X122280528Y-114788152D01*
X122280528Y-114788152D02*
X122232909Y-114883390D01*
X122232909Y-114883390D02*
X122185290Y-114931009D01*
X122185290Y-114931009D02*
X122090052Y-114978628D01*
X122090052Y-114978628D02*
X121709100Y-114978628D01*
X122709100Y-115454819D02*
X122709100Y-114454819D01*
X122709100Y-114454819D02*
X123090052Y-114454819D01*
X123090052Y-114454819D02*
X123185290Y-114502438D01*
X123185290Y-114502438D02*
X123232909Y-114550057D01*
X123232909Y-114550057D02*
X123280528Y-114645295D01*
X123280528Y-114645295D02*
X123280528Y-114788152D01*
X123280528Y-114788152D02*
X123232909Y-114883390D01*
X123232909Y-114883390D02*
X123185290Y-114931009D01*
X123185290Y-114931009D02*
X123090052Y-114978628D01*
X123090052Y-114978628D02*
X122709100Y-114978628D01*
X123471005Y-115550057D02*
X124232909Y-115550057D01*
X124423386Y-115407200D02*
X124566243Y-115454819D01*
X124566243Y-115454819D02*
X124804338Y-115454819D01*
X124804338Y-115454819D02*
X124899576Y-115407200D01*
X124899576Y-115407200D02*
X124947195Y-115359580D01*
X124947195Y-115359580D02*
X124994814Y-115264342D01*
X124994814Y-115264342D02*
X124994814Y-115169104D01*
X124994814Y-115169104D02*
X124947195Y-115073866D01*
X124947195Y-115073866D02*
X124899576Y-115026247D01*
X124899576Y-115026247D02*
X124804338Y-114978628D01*
X124804338Y-114978628D02*
X124613862Y-114931009D01*
X124613862Y-114931009D02*
X124518624Y-114883390D01*
X124518624Y-114883390D02*
X124471005Y-114835771D01*
X124471005Y-114835771D02*
X124423386Y-114740533D01*
X124423386Y-114740533D02*
X124423386Y-114645295D01*
X124423386Y-114645295D02*
X124471005Y-114550057D01*
X124471005Y-114550057D02*
X124518624Y-114502438D01*
X124518624Y-114502438D02*
X124613862Y-114454819D01*
X124613862Y-114454819D02*
X124851957Y-114454819D01*
X124851957Y-114454819D02*
X124994814Y-114502438D01*
X125994814Y-115359580D02*
X125947195Y-115407200D01*
X125947195Y-115407200D02*
X125804338Y-115454819D01*
X125804338Y-115454819D02*
X125709100Y-115454819D01*
X125709100Y-115454819D02*
X125566243Y-115407200D01*
X125566243Y-115407200D02*
X125471005Y-115311961D01*
X125471005Y-115311961D02*
X125423386Y-115216723D01*
X125423386Y-115216723D02*
X125375767Y-115026247D01*
X125375767Y-115026247D02*
X125375767Y-114883390D01*
X125375767Y-114883390D02*
X125423386Y-114692914D01*
X125423386Y-114692914D02*
X125471005Y-114597676D01*
X125471005Y-114597676D02*
X125566243Y-114502438D01*
X125566243Y-114502438D02*
X125709100Y-114454819D01*
X125709100Y-114454819D02*
X125804338Y-114454819D01*
X125804338Y-114454819D02*
X125947195Y-114502438D01*
X125947195Y-114502438D02*
X125994814Y-114550057D01*
X126899576Y-115454819D02*
X126423386Y-115454819D01*
X126423386Y-115454819D02*
X126423386Y-114454819D01*
X127756719Y-115454819D02*
X127185291Y-115454819D01*
X127471005Y-115454819D02*
X127471005Y-114454819D01*
X127471005Y-114454819D02*
X127375767Y-114597676D01*
X127375767Y-114597676D02*
X127280529Y-114692914D01*
X127280529Y-114692914D02*
X127185291Y-114740533D01*
X152690476Y-112431009D02*
X152357143Y-112431009D01*
X152357143Y-112954819D02*
X152357143Y-111954819D01*
X152357143Y-111954819D02*
X152833333Y-111954819D01*
X153166667Y-112669104D02*
X153642857Y-112669104D01*
X153071429Y-112954819D02*
X153404762Y-111954819D01*
X153404762Y-111954819D02*
X153738095Y-112954819D01*
X154071429Y-112954819D02*
X154071429Y-111954819D01*
X154071429Y-111954819D02*
X154642857Y-112954819D01*
X154642857Y-112954819D02*
X154642857Y-111954819D01*
X23500442Y-52915319D02*
X23167109Y-52439128D01*
X22929014Y-52915319D02*
X22929014Y-51915319D01*
X22929014Y-51915319D02*
X23309966Y-51915319D01*
X23309966Y-51915319D02*
X23405204Y-51962938D01*
X23405204Y-51962938D02*
X23452823Y-52010557D01*
X23452823Y-52010557D02*
X23500442Y-52105795D01*
X23500442Y-52105795D02*
X23500442Y-52248652D01*
X23500442Y-52248652D02*
X23452823Y-52343890D01*
X23452823Y-52343890D02*
X23405204Y-52391509D01*
X23405204Y-52391509D02*
X23309966Y-52439128D01*
X23309966Y-52439128D02*
X22929014Y-52439128D01*
X24452823Y-52915319D02*
X23881395Y-52915319D01*
X24167109Y-52915319D02*
X24167109Y-51915319D01*
X24167109Y-51915319D02*
X24071871Y-52058176D01*
X24071871Y-52058176D02*
X23976633Y-52153414D01*
X23976633Y-52153414D02*
X23881395Y-52201033D01*
X25405204Y-52915319D02*
X24833776Y-52915319D01*
X25119490Y-52915319D02*
X25119490Y-51915319D01*
X25119490Y-51915319D02*
X25024252Y-52058176D01*
X25024252Y-52058176D02*
X24929014Y-52153414D01*
X24929014Y-52153414D02*
X24833776Y-52201033D01*
X23905205Y-39915319D02*
X23905205Y-38915319D01*
X23905205Y-38915319D02*
X24143300Y-38915319D01*
X24143300Y-38915319D02*
X24286157Y-38962938D01*
X24286157Y-38962938D02*
X24381395Y-39058176D01*
X24381395Y-39058176D02*
X24429014Y-39153414D01*
X24429014Y-39153414D02*
X24476633Y-39343890D01*
X24476633Y-39343890D02*
X24476633Y-39486747D01*
X24476633Y-39486747D02*
X24429014Y-39677223D01*
X24429014Y-39677223D02*
X24381395Y-39772461D01*
X24381395Y-39772461D02*
X24286157Y-39867700D01*
X24286157Y-39867700D02*
X24143300Y-39915319D01*
X24143300Y-39915319D02*
X23905205Y-39915319D01*
X24809967Y-38915319D02*
X25429014Y-38915319D01*
X25429014Y-38915319D02*
X25095681Y-39296271D01*
X25095681Y-39296271D02*
X25238538Y-39296271D01*
X25238538Y-39296271D02*
X25333776Y-39343890D01*
X25333776Y-39343890D02*
X25381395Y-39391509D01*
X25381395Y-39391509D02*
X25429014Y-39486747D01*
X25429014Y-39486747D02*
X25429014Y-39724842D01*
X25429014Y-39724842D02*
X25381395Y-39820080D01*
X25381395Y-39820080D02*
X25333776Y-39867700D01*
X25333776Y-39867700D02*
X25238538Y-39915319D01*
X25238538Y-39915319D02*
X24952824Y-39915319D01*
X24952824Y-39915319D02*
X24857586Y-39867700D01*
X24857586Y-39867700D02*
X24809967Y-39820080D01*
X73743433Y-108187319D02*
X73267243Y-108187319D01*
X73267243Y-108187319D02*
X73267243Y-107187319D01*
X74600576Y-108187319D02*
X74029148Y-108187319D01*
X74314862Y-108187319D02*
X74314862Y-107187319D01*
X74314862Y-107187319D02*
X74219624Y-107330176D01*
X74219624Y-107330176D02*
X74124386Y-107425414D01*
X74124386Y-107425414D02*
X74029148Y-107473033D01*
X23500442Y-49915319D02*
X23167109Y-49439128D01*
X22929014Y-49915319D02*
X22929014Y-48915319D01*
X22929014Y-48915319D02*
X23309966Y-48915319D01*
X23309966Y-48915319D02*
X23405204Y-48962938D01*
X23405204Y-48962938D02*
X23452823Y-49010557D01*
X23452823Y-49010557D02*
X23500442Y-49105795D01*
X23500442Y-49105795D02*
X23500442Y-49248652D01*
X23500442Y-49248652D02*
X23452823Y-49343890D01*
X23452823Y-49343890D02*
X23405204Y-49391509D01*
X23405204Y-49391509D02*
X23309966Y-49439128D01*
X23309966Y-49439128D02*
X22929014Y-49439128D01*
X24452823Y-49915319D02*
X23881395Y-49915319D01*
X24167109Y-49915319D02*
X24167109Y-48915319D01*
X24167109Y-48915319D02*
X24071871Y-49058176D01*
X24071871Y-49058176D02*
X23976633Y-49153414D01*
X23976633Y-49153414D02*
X23881395Y-49201033D01*
X25071871Y-48915319D02*
X25167109Y-48915319D01*
X25167109Y-48915319D02*
X25262347Y-48962938D01*
X25262347Y-48962938D02*
X25309966Y-49010557D01*
X25309966Y-49010557D02*
X25357585Y-49105795D01*
X25357585Y-49105795D02*
X25405204Y-49296271D01*
X25405204Y-49296271D02*
X25405204Y-49534366D01*
X25405204Y-49534366D02*
X25357585Y-49724842D01*
X25357585Y-49724842D02*
X25309966Y-49820080D01*
X25309966Y-49820080D02*
X25262347Y-49867700D01*
X25262347Y-49867700D02*
X25167109Y-49915319D01*
X25167109Y-49915319D02*
X25071871Y-49915319D01*
X25071871Y-49915319D02*
X24976633Y-49867700D01*
X24976633Y-49867700D02*
X24929014Y-49820080D01*
X24929014Y-49820080D02*
X24881395Y-49724842D01*
X24881395Y-49724842D02*
X24833776Y-49534366D01*
X24833776Y-49534366D02*
X24833776Y-49296271D01*
X24833776Y-49296271D02*
X24881395Y-49105795D01*
X24881395Y-49105795D02*
X24929014Y-49010557D01*
X24929014Y-49010557D02*
X24976633Y-48962938D01*
X24976633Y-48962938D02*
X25071871Y-48915319D01*
X53709505Y-108187319D02*
X53709505Y-107187319D01*
X53709505Y-107187319D02*
X53947600Y-107187319D01*
X53947600Y-107187319D02*
X54090457Y-107234938D01*
X54090457Y-107234938D02*
X54185695Y-107330176D01*
X54185695Y-107330176D02*
X54233314Y-107425414D01*
X54233314Y-107425414D02*
X54280933Y-107615890D01*
X54280933Y-107615890D02*
X54280933Y-107758747D01*
X54280933Y-107758747D02*
X54233314Y-107949223D01*
X54233314Y-107949223D02*
X54185695Y-108044461D01*
X54185695Y-108044461D02*
X54090457Y-108139700D01*
X54090457Y-108139700D02*
X53947600Y-108187319D01*
X53947600Y-108187319D02*
X53709505Y-108187319D01*
X55233314Y-108187319D02*
X54661886Y-108187319D01*
X54947600Y-108187319D02*
X54947600Y-107187319D01*
X54947600Y-107187319D02*
X54852362Y-107330176D01*
X54852362Y-107330176D02*
X54757124Y-107425414D01*
X54757124Y-107425414D02*
X54661886Y-107473033D01*
X81280933Y-118092080D02*
X81233314Y-118139700D01*
X81233314Y-118139700D02*
X81090457Y-118187319D01*
X81090457Y-118187319D02*
X80995219Y-118187319D01*
X80995219Y-118187319D02*
X80852362Y-118139700D01*
X80852362Y-118139700D02*
X80757124Y-118044461D01*
X80757124Y-118044461D02*
X80709505Y-117949223D01*
X80709505Y-117949223D02*
X80661886Y-117758747D01*
X80661886Y-117758747D02*
X80661886Y-117615890D01*
X80661886Y-117615890D02*
X80709505Y-117425414D01*
X80709505Y-117425414D02*
X80757124Y-117330176D01*
X80757124Y-117330176D02*
X80852362Y-117234938D01*
X80852362Y-117234938D02*
X80995219Y-117187319D01*
X80995219Y-117187319D02*
X81090457Y-117187319D01*
X81090457Y-117187319D02*
X81233314Y-117234938D01*
X81233314Y-117234938D02*
X81280933Y-117282557D01*
X81661886Y-117282557D02*
X81709505Y-117234938D01*
X81709505Y-117234938D02*
X81804743Y-117187319D01*
X81804743Y-117187319D02*
X82042838Y-117187319D01*
X82042838Y-117187319D02*
X82138076Y-117234938D01*
X82138076Y-117234938D02*
X82185695Y-117282557D01*
X82185695Y-117282557D02*
X82233314Y-117377795D01*
X82233314Y-117377795D02*
X82233314Y-117473033D01*
X82233314Y-117473033D02*
X82185695Y-117615890D01*
X82185695Y-117615890D02*
X81614267Y-118187319D01*
X81614267Y-118187319D02*
X82233314Y-118187319D01*
X135277214Y-108954819D02*
X135277214Y-107954819D01*
X135277214Y-107954819D02*
X135515309Y-107954819D01*
X135515309Y-107954819D02*
X135658166Y-108002438D01*
X135658166Y-108002438D02*
X135753404Y-108097676D01*
X135753404Y-108097676D02*
X135801023Y-108192914D01*
X135801023Y-108192914D02*
X135848642Y-108383390D01*
X135848642Y-108383390D02*
X135848642Y-108526247D01*
X135848642Y-108526247D02*
X135801023Y-108716723D01*
X135801023Y-108716723D02*
X135753404Y-108811961D01*
X135753404Y-108811961D02*
X135658166Y-108907200D01*
X135658166Y-108907200D02*
X135515309Y-108954819D01*
X135515309Y-108954819D02*
X135277214Y-108954819D01*
X136801023Y-108954819D02*
X136229595Y-108954819D01*
X136515309Y-108954819D02*
X136515309Y-107954819D01*
X136515309Y-107954819D02*
X136420071Y-108097676D01*
X136420071Y-108097676D02*
X136324833Y-108192914D01*
X136324833Y-108192914D02*
X136229595Y-108240533D01*
X137134357Y-107954819D02*
X137753404Y-107954819D01*
X137753404Y-107954819D02*
X137420071Y-108335771D01*
X137420071Y-108335771D02*
X137562928Y-108335771D01*
X137562928Y-108335771D02*
X137658166Y-108383390D01*
X137658166Y-108383390D02*
X137705785Y-108431009D01*
X137705785Y-108431009D02*
X137753404Y-108526247D01*
X137753404Y-108526247D02*
X137753404Y-108764342D01*
X137753404Y-108764342D02*
X137705785Y-108859580D01*
X137705785Y-108859580D02*
X137658166Y-108907200D01*
X137658166Y-108907200D02*
X137562928Y-108954819D01*
X137562928Y-108954819D02*
X137277214Y-108954819D01*
X137277214Y-108954819D02*
X137181976Y-108907200D01*
X137181976Y-108907200D02*
X137134357Y-108859580D01*
X148738095Y-106954819D02*
X148738095Y-105954819D01*
X149309523Y-106954819D02*
X148880952Y-106383390D01*
X149309523Y-105954819D02*
X148738095Y-106526247D01*
X31179542Y-110552080D02*
X31131923Y-110599700D01*
X31131923Y-110599700D02*
X30989066Y-110647319D01*
X30989066Y-110647319D02*
X30893828Y-110647319D01*
X30893828Y-110647319D02*
X30750971Y-110599700D01*
X30750971Y-110599700D02*
X30655733Y-110504461D01*
X30655733Y-110504461D02*
X30608114Y-110409223D01*
X30608114Y-110409223D02*
X30560495Y-110218747D01*
X30560495Y-110218747D02*
X30560495Y-110075890D01*
X30560495Y-110075890D02*
X30608114Y-109885414D01*
X30608114Y-109885414D02*
X30655733Y-109790176D01*
X30655733Y-109790176D02*
X30750971Y-109694938D01*
X30750971Y-109694938D02*
X30893828Y-109647319D01*
X30893828Y-109647319D02*
X30989066Y-109647319D01*
X30989066Y-109647319D02*
X31131923Y-109694938D01*
X31131923Y-109694938D02*
X31179542Y-109742557D01*
X32131923Y-110647319D02*
X31560495Y-110647319D01*
X31846209Y-110647319D02*
X31846209Y-109647319D01*
X31846209Y-109647319D02*
X31750971Y-109790176D01*
X31750971Y-109790176D02*
X31655733Y-109885414D01*
X31655733Y-109885414D02*
X31560495Y-109933033D01*
X32750971Y-109647319D02*
X32846209Y-109647319D01*
X32846209Y-109647319D02*
X32941447Y-109694938D01*
X32941447Y-109694938D02*
X32989066Y-109742557D01*
X32989066Y-109742557D02*
X33036685Y-109837795D01*
X33036685Y-109837795D02*
X33084304Y-110028271D01*
X33084304Y-110028271D02*
X33084304Y-110266366D01*
X33084304Y-110266366D02*
X33036685Y-110456842D01*
X33036685Y-110456842D02*
X32989066Y-110552080D01*
X32989066Y-110552080D02*
X32941447Y-110599700D01*
X32941447Y-110599700D02*
X32846209Y-110647319D01*
X32846209Y-110647319D02*
X32750971Y-110647319D01*
X32750971Y-110647319D02*
X32655733Y-110599700D01*
X32655733Y-110599700D02*
X32608114Y-110552080D01*
X32608114Y-110552080D02*
X32560495Y-110456842D01*
X32560495Y-110456842D02*
X32512876Y-110266366D01*
X32512876Y-110266366D02*
X32512876Y-110028271D01*
X32512876Y-110028271D02*
X32560495Y-109837795D01*
X32560495Y-109837795D02*
X32608114Y-109742557D01*
X32608114Y-109742557D02*
X32655733Y-109694938D01*
X32655733Y-109694938D02*
X32750971Y-109647319D01*
X33807192Y-106454779D02*
X33473859Y-105978588D01*
X33235764Y-106454779D02*
X33235764Y-105454779D01*
X33235764Y-105454779D02*
X33616716Y-105454779D01*
X33616716Y-105454779D02*
X33711954Y-105502398D01*
X33711954Y-105502398D02*
X33759573Y-105550017D01*
X33759573Y-105550017D02*
X33807192Y-105645255D01*
X33807192Y-105645255D02*
X33807192Y-105788112D01*
X33807192Y-105788112D02*
X33759573Y-105883350D01*
X33759573Y-105883350D02*
X33711954Y-105930969D01*
X33711954Y-105930969D02*
X33616716Y-105978588D01*
X33616716Y-105978588D02*
X33235764Y-105978588D01*
X34759573Y-106454779D02*
X34188145Y-106454779D01*
X34473859Y-106454779D02*
X34473859Y-105454779D01*
X34473859Y-105454779D02*
X34378621Y-105597636D01*
X34378621Y-105597636D02*
X34283383Y-105692874D01*
X34283383Y-105692874D02*
X34188145Y-105740493D01*
X35092907Y-105454779D02*
X35711954Y-105454779D01*
X35711954Y-105454779D02*
X35378621Y-105835731D01*
X35378621Y-105835731D02*
X35521478Y-105835731D01*
X35521478Y-105835731D02*
X35616716Y-105883350D01*
X35616716Y-105883350D02*
X35664335Y-105930969D01*
X35664335Y-105930969D02*
X35711954Y-106026207D01*
X35711954Y-106026207D02*
X35711954Y-106264302D01*
X35711954Y-106264302D02*
X35664335Y-106359540D01*
X35664335Y-106359540D02*
X35616716Y-106407160D01*
X35616716Y-106407160D02*
X35521478Y-106454779D01*
X35521478Y-106454779D02*
X35235764Y-106454779D01*
X35235764Y-106454779D02*
X35140526Y-106407160D01*
X35140526Y-106407160D02*
X35092907Y-106359540D01*
X119556642Y-41915319D02*
X119223309Y-41439128D01*
X118985214Y-41915319D02*
X118985214Y-40915319D01*
X118985214Y-40915319D02*
X119366166Y-40915319D01*
X119366166Y-40915319D02*
X119461404Y-40962938D01*
X119461404Y-40962938D02*
X119509023Y-41010557D01*
X119509023Y-41010557D02*
X119556642Y-41105795D01*
X119556642Y-41105795D02*
X119556642Y-41248652D01*
X119556642Y-41248652D02*
X119509023Y-41343890D01*
X119509023Y-41343890D02*
X119461404Y-41391509D01*
X119461404Y-41391509D02*
X119366166Y-41439128D01*
X119366166Y-41439128D02*
X118985214Y-41439128D01*
X119937595Y-41010557D02*
X119985214Y-40962938D01*
X119985214Y-40962938D02*
X120080452Y-40915319D01*
X120080452Y-40915319D02*
X120318547Y-40915319D01*
X120318547Y-40915319D02*
X120413785Y-40962938D01*
X120413785Y-40962938D02*
X120461404Y-41010557D01*
X120461404Y-41010557D02*
X120509023Y-41105795D01*
X120509023Y-41105795D02*
X120509023Y-41201033D01*
X120509023Y-41201033D02*
X120461404Y-41343890D01*
X120461404Y-41343890D02*
X119889976Y-41915319D01*
X119889976Y-41915319D02*
X120509023Y-41915319D01*
X120842357Y-40915319D02*
X121509023Y-40915319D01*
X121509023Y-40915319D02*
X121080452Y-41915319D01*
X61066761Y-48360557D02*
X60971523Y-48312938D01*
X60971523Y-48312938D02*
X60876285Y-48217700D01*
X60876285Y-48217700D02*
X60733428Y-48074842D01*
X60733428Y-48074842D02*
X60638190Y-48027223D01*
X60638190Y-48027223D02*
X60542952Y-48027223D01*
X60590571Y-48265319D02*
X60495333Y-48217700D01*
X60495333Y-48217700D02*
X60400095Y-48122461D01*
X60400095Y-48122461D02*
X60352476Y-47931985D01*
X60352476Y-47931985D02*
X60352476Y-47598652D01*
X60352476Y-47598652D02*
X60400095Y-47408176D01*
X60400095Y-47408176D02*
X60495333Y-47312938D01*
X60495333Y-47312938D02*
X60590571Y-47265319D01*
X60590571Y-47265319D02*
X60781047Y-47265319D01*
X60781047Y-47265319D02*
X60876285Y-47312938D01*
X60876285Y-47312938D02*
X60971523Y-47408176D01*
X60971523Y-47408176D02*
X61019142Y-47598652D01*
X61019142Y-47598652D02*
X61019142Y-47931985D01*
X61019142Y-47931985D02*
X60971523Y-48122461D01*
X60971523Y-48122461D02*
X60876285Y-48217700D01*
X60876285Y-48217700D02*
X60781047Y-48265319D01*
X60781047Y-48265319D02*
X60590571Y-48265319D01*
X61400095Y-47360557D02*
X61447714Y-47312938D01*
X61447714Y-47312938D02*
X61542952Y-47265319D01*
X61542952Y-47265319D02*
X61781047Y-47265319D01*
X61781047Y-47265319D02*
X61876285Y-47312938D01*
X61876285Y-47312938D02*
X61923904Y-47360557D01*
X61923904Y-47360557D02*
X61971523Y-47455795D01*
X61971523Y-47455795D02*
X61971523Y-47551033D01*
X61971523Y-47551033D02*
X61923904Y-47693890D01*
X61923904Y-47693890D02*
X61352476Y-48265319D01*
X61352476Y-48265319D02*
X61971523Y-48265319D01*
X134047618Y-116454819D02*
X133714285Y-115978628D01*
X133476190Y-116454819D02*
X133476190Y-115454819D01*
X133476190Y-115454819D02*
X133857142Y-115454819D01*
X133857142Y-115454819D02*
X133952380Y-115502438D01*
X133952380Y-115502438D02*
X133999999Y-115550057D01*
X133999999Y-115550057D02*
X134047618Y-115645295D01*
X134047618Y-115645295D02*
X134047618Y-115788152D01*
X134047618Y-115788152D02*
X133999999Y-115883390D01*
X133999999Y-115883390D02*
X133952380Y-115931009D01*
X133952380Y-115931009D02*
X133857142Y-115978628D01*
X133857142Y-115978628D02*
X133476190Y-115978628D01*
X134476190Y-116454819D02*
X134476190Y-115454819D01*
X134476190Y-115454819D02*
X134857142Y-115454819D01*
X134857142Y-115454819D02*
X134952380Y-115502438D01*
X134952380Y-115502438D02*
X134999999Y-115550057D01*
X134999999Y-115550057D02*
X135047618Y-115645295D01*
X135047618Y-115645295D02*
X135047618Y-115788152D01*
X135047618Y-115788152D02*
X134999999Y-115883390D01*
X134999999Y-115883390D02*
X134952380Y-115931009D01*
X134952380Y-115931009D02*
X134857142Y-115978628D01*
X134857142Y-115978628D02*
X134476190Y-115978628D01*
X135238095Y-116550057D02*
X135999999Y-116550057D01*
X136190476Y-116407200D02*
X136333333Y-116454819D01*
X136333333Y-116454819D02*
X136571428Y-116454819D01*
X136571428Y-116454819D02*
X136666666Y-116407200D01*
X136666666Y-116407200D02*
X136714285Y-116359580D01*
X136714285Y-116359580D02*
X136761904Y-116264342D01*
X136761904Y-116264342D02*
X136761904Y-116169104D01*
X136761904Y-116169104D02*
X136714285Y-116073866D01*
X136714285Y-116073866D02*
X136666666Y-116026247D01*
X136666666Y-116026247D02*
X136571428Y-115978628D01*
X136571428Y-115978628D02*
X136380952Y-115931009D01*
X136380952Y-115931009D02*
X136285714Y-115883390D01*
X136285714Y-115883390D02*
X136238095Y-115835771D01*
X136238095Y-115835771D02*
X136190476Y-115740533D01*
X136190476Y-115740533D02*
X136190476Y-115645295D01*
X136190476Y-115645295D02*
X136238095Y-115550057D01*
X136238095Y-115550057D02*
X136285714Y-115502438D01*
X136285714Y-115502438D02*
X136380952Y-115454819D01*
X136380952Y-115454819D02*
X136619047Y-115454819D01*
X136619047Y-115454819D02*
X136761904Y-115502438D01*
X137190476Y-116454819D02*
X137190476Y-115454819D01*
X137190476Y-115454819D02*
X137428571Y-115454819D01*
X137428571Y-115454819D02*
X137571428Y-115502438D01*
X137571428Y-115502438D02*
X137666666Y-115597676D01*
X137666666Y-115597676D02*
X137714285Y-115692914D01*
X137714285Y-115692914D02*
X137761904Y-115883390D01*
X137761904Y-115883390D02*
X137761904Y-116026247D01*
X137761904Y-116026247D02*
X137714285Y-116216723D01*
X137714285Y-116216723D02*
X137666666Y-116311961D01*
X137666666Y-116311961D02*
X137571428Y-116407200D01*
X137571428Y-116407200D02*
X137428571Y-116454819D01*
X137428571Y-116454819D02*
X137190476Y-116454819D01*
X138142857Y-116169104D02*
X138619047Y-116169104D01*
X138047619Y-116454819D02*
X138380952Y-115454819D01*
X138380952Y-115454819D02*
X138714285Y-116454819D01*
X139571428Y-116454819D02*
X139000000Y-116454819D01*
X139285714Y-116454819D02*
X139285714Y-115454819D01*
X139285714Y-115454819D02*
X139190476Y-115597676D01*
X139190476Y-115597676D02*
X139095238Y-115692914D01*
X139095238Y-115692914D02*
X139000000Y-115740533D01*
X119556642Y-44320080D02*
X119509023Y-44367700D01*
X119509023Y-44367700D02*
X119366166Y-44415319D01*
X119366166Y-44415319D02*
X119270928Y-44415319D01*
X119270928Y-44415319D02*
X119128071Y-44367700D01*
X119128071Y-44367700D02*
X119032833Y-44272461D01*
X119032833Y-44272461D02*
X118985214Y-44177223D01*
X118985214Y-44177223D02*
X118937595Y-43986747D01*
X118937595Y-43986747D02*
X118937595Y-43843890D01*
X118937595Y-43843890D02*
X118985214Y-43653414D01*
X118985214Y-43653414D02*
X119032833Y-43558176D01*
X119032833Y-43558176D02*
X119128071Y-43462938D01*
X119128071Y-43462938D02*
X119270928Y-43415319D01*
X119270928Y-43415319D02*
X119366166Y-43415319D01*
X119366166Y-43415319D02*
X119509023Y-43462938D01*
X119509023Y-43462938D02*
X119556642Y-43510557D01*
X119937595Y-43510557D02*
X119985214Y-43462938D01*
X119985214Y-43462938D02*
X120080452Y-43415319D01*
X120080452Y-43415319D02*
X120318547Y-43415319D01*
X120318547Y-43415319D02*
X120413785Y-43462938D01*
X120413785Y-43462938D02*
X120461404Y-43510557D01*
X120461404Y-43510557D02*
X120509023Y-43605795D01*
X120509023Y-43605795D02*
X120509023Y-43701033D01*
X120509023Y-43701033D02*
X120461404Y-43843890D01*
X120461404Y-43843890D02*
X119889976Y-44415319D01*
X119889976Y-44415319D02*
X120509023Y-44415319D01*
X121461404Y-44415319D02*
X120889976Y-44415319D01*
X121175690Y-44415319D02*
X121175690Y-43415319D01*
X121175690Y-43415319D02*
X121080452Y-43558176D01*
X121080452Y-43558176D02*
X120985214Y-43653414D01*
X120985214Y-43653414D02*
X120889976Y-43701033D01*
X41159542Y-124859580D02*
X41111923Y-124907200D01*
X41111923Y-124907200D02*
X40969066Y-124954819D01*
X40969066Y-124954819D02*
X40873828Y-124954819D01*
X40873828Y-124954819D02*
X40730971Y-124907200D01*
X40730971Y-124907200D02*
X40635733Y-124811961D01*
X40635733Y-124811961D02*
X40588114Y-124716723D01*
X40588114Y-124716723D02*
X40540495Y-124526247D01*
X40540495Y-124526247D02*
X40540495Y-124383390D01*
X40540495Y-124383390D02*
X40588114Y-124192914D01*
X40588114Y-124192914D02*
X40635733Y-124097676D01*
X40635733Y-124097676D02*
X40730971Y-124002438D01*
X40730971Y-124002438D02*
X40873828Y-123954819D01*
X40873828Y-123954819D02*
X40969066Y-123954819D01*
X40969066Y-123954819D02*
X41111923Y-124002438D01*
X41111923Y-124002438D02*
X41159542Y-124050057D01*
X42111923Y-124954819D02*
X41540495Y-124954819D01*
X41826209Y-124954819D02*
X41826209Y-123954819D01*
X41826209Y-123954819D02*
X41730971Y-124097676D01*
X41730971Y-124097676D02*
X41635733Y-124192914D01*
X41635733Y-124192914D02*
X41540495Y-124240533D01*
X43064304Y-124954819D02*
X42492876Y-124954819D01*
X42778590Y-124954819D02*
X42778590Y-123954819D01*
X42778590Y-123954819D02*
X42683352Y-124097676D01*
X42683352Y-124097676D02*
X42588114Y-124192914D01*
X42588114Y-124192914D02*
X42492876Y-124240533D01*
X127980205Y-39915319D02*
X127980205Y-38915319D01*
X127980205Y-38915319D02*
X128218300Y-38915319D01*
X128218300Y-38915319D02*
X128361157Y-38962938D01*
X128361157Y-38962938D02*
X128456395Y-39058176D01*
X128456395Y-39058176D02*
X128504014Y-39153414D01*
X128504014Y-39153414D02*
X128551633Y-39343890D01*
X128551633Y-39343890D02*
X128551633Y-39486747D01*
X128551633Y-39486747D02*
X128504014Y-39677223D01*
X128504014Y-39677223D02*
X128456395Y-39772461D01*
X128456395Y-39772461D02*
X128361157Y-39867700D01*
X128361157Y-39867700D02*
X128218300Y-39915319D01*
X128218300Y-39915319D02*
X127980205Y-39915319D01*
X128884967Y-38915319D02*
X129551633Y-38915319D01*
X129551633Y-38915319D02*
X129123062Y-39915319D01*
X63733314Y-111349819D02*
X63733314Y-110349819D01*
X63733314Y-110349819D02*
X63971409Y-110349819D01*
X63971409Y-110349819D02*
X64114266Y-110397438D01*
X64114266Y-110397438D02*
X64209504Y-110492676D01*
X64209504Y-110492676D02*
X64257123Y-110587914D01*
X64257123Y-110587914D02*
X64304742Y-110778390D01*
X64304742Y-110778390D02*
X64304742Y-110921247D01*
X64304742Y-110921247D02*
X64257123Y-111111723D01*
X64257123Y-111111723D02*
X64209504Y-111206961D01*
X64209504Y-111206961D02*
X64114266Y-111302200D01*
X64114266Y-111302200D02*
X63971409Y-111349819D01*
X63971409Y-111349819D02*
X63733314Y-111349819D01*
X65257123Y-111349819D02*
X64685695Y-111349819D01*
X64971409Y-111349819D02*
X64971409Y-110349819D01*
X64971409Y-110349819D02*
X64876171Y-110492676D01*
X64876171Y-110492676D02*
X64780933Y-110587914D01*
X64780933Y-110587914D02*
X64685695Y-110635533D01*
X65733314Y-111349819D02*
X65923790Y-111349819D01*
X65923790Y-111349819D02*
X66019028Y-111302200D01*
X66019028Y-111302200D02*
X66066647Y-111254580D01*
X66066647Y-111254580D02*
X66161885Y-111111723D01*
X66161885Y-111111723D02*
X66209504Y-110921247D01*
X66209504Y-110921247D02*
X66209504Y-110540295D01*
X66209504Y-110540295D02*
X66161885Y-110445057D01*
X66161885Y-110445057D02*
X66114266Y-110397438D01*
X66114266Y-110397438D02*
X66019028Y-110349819D01*
X66019028Y-110349819D02*
X65828552Y-110349819D01*
X65828552Y-110349819D02*
X65733314Y-110397438D01*
X65733314Y-110397438D02*
X65685695Y-110445057D01*
X65685695Y-110445057D02*
X65638076Y-110540295D01*
X65638076Y-110540295D02*
X65638076Y-110778390D01*
X65638076Y-110778390D02*
X65685695Y-110873628D01*
X65685695Y-110873628D02*
X65733314Y-110921247D01*
X65733314Y-110921247D02*
X65828552Y-110968866D01*
X65828552Y-110968866D02*
X66019028Y-110968866D01*
X66019028Y-110968866D02*
X66114266Y-110921247D01*
X66114266Y-110921247D02*
X66161885Y-110873628D01*
X66161885Y-110873628D02*
X66209504Y-110778390D01*
X30385733Y-121359580D02*
X30338114Y-121407200D01*
X30338114Y-121407200D02*
X30195257Y-121454819D01*
X30195257Y-121454819D02*
X30100019Y-121454819D01*
X30100019Y-121454819D02*
X29957162Y-121407200D01*
X29957162Y-121407200D02*
X29861924Y-121311961D01*
X29861924Y-121311961D02*
X29814305Y-121216723D01*
X29814305Y-121216723D02*
X29766686Y-121026247D01*
X29766686Y-121026247D02*
X29766686Y-120883390D01*
X29766686Y-120883390D02*
X29814305Y-120692914D01*
X29814305Y-120692914D02*
X29861924Y-120597676D01*
X29861924Y-120597676D02*
X29957162Y-120502438D01*
X29957162Y-120502438D02*
X30100019Y-120454819D01*
X30100019Y-120454819D02*
X30195257Y-120454819D01*
X30195257Y-120454819D02*
X30338114Y-120502438D01*
X30338114Y-120502438D02*
X30385733Y-120550057D01*
X30957162Y-120883390D02*
X30861924Y-120835771D01*
X30861924Y-120835771D02*
X30814305Y-120788152D01*
X30814305Y-120788152D02*
X30766686Y-120692914D01*
X30766686Y-120692914D02*
X30766686Y-120645295D01*
X30766686Y-120645295D02*
X30814305Y-120550057D01*
X30814305Y-120550057D02*
X30861924Y-120502438D01*
X30861924Y-120502438D02*
X30957162Y-120454819D01*
X30957162Y-120454819D02*
X31147638Y-120454819D01*
X31147638Y-120454819D02*
X31242876Y-120502438D01*
X31242876Y-120502438D02*
X31290495Y-120550057D01*
X31290495Y-120550057D02*
X31338114Y-120645295D01*
X31338114Y-120645295D02*
X31338114Y-120692914D01*
X31338114Y-120692914D02*
X31290495Y-120788152D01*
X31290495Y-120788152D02*
X31242876Y-120835771D01*
X31242876Y-120835771D02*
X31147638Y-120883390D01*
X31147638Y-120883390D02*
X30957162Y-120883390D01*
X30957162Y-120883390D02*
X30861924Y-120931009D01*
X30861924Y-120931009D02*
X30814305Y-120978628D01*
X30814305Y-120978628D02*
X30766686Y-121073866D01*
X30766686Y-121073866D02*
X30766686Y-121264342D01*
X30766686Y-121264342D02*
X30814305Y-121359580D01*
X30814305Y-121359580D02*
X30861924Y-121407200D01*
X30861924Y-121407200D02*
X30957162Y-121454819D01*
X30957162Y-121454819D02*
X31147638Y-121454819D01*
X31147638Y-121454819D02*
X31242876Y-121407200D01*
X31242876Y-121407200D02*
X31290495Y-121359580D01*
X31290495Y-121359580D02*
X31338114Y-121264342D01*
X31338114Y-121264342D02*
X31338114Y-121073866D01*
X31338114Y-121073866D02*
X31290495Y-120978628D01*
X31290495Y-120978628D02*
X31242876Y-120931009D01*
X31242876Y-120931009D02*
X31147638Y-120883390D01*
X48947714Y-44915319D02*
X48947714Y-43915319D01*
X48947714Y-43915319D02*
X49185809Y-43915319D01*
X49185809Y-43915319D02*
X49328666Y-43962938D01*
X49328666Y-43962938D02*
X49423904Y-44058176D01*
X49423904Y-44058176D02*
X49471523Y-44153414D01*
X49471523Y-44153414D02*
X49519142Y-44343890D01*
X49519142Y-44343890D02*
X49519142Y-44486747D01*
X49519142Y-44486747D02*
X49471523Y-44677223D01*
X49471523Y-44677223D02*
X49423904Y-44772461D01*
X49423904Y-44772461D02*
X49328666Y-44867700D01*
X49328666Y-44867700D02*
X49185809Y-44915319D01*
X49185809Y-44915319D02*
X48947714Y-44915319D01*
X50471523Y-44915319D02*
X49900095Y-44915319D01*
X50185809Y-44915319D02*
X50185809Y-43915319D01*
X50185809Y-43915319D02*
X50090571Y-44058176D01*
X50090571Y-44058176D02*
X49995333Y-44153414D01*
X49995333Y-44153414D02*
X49900095Y-44201033D01*
X51376285Y-43915319D02*
X50900095Y-43915319D01*
X50900095Y-43915319D02*
X50852476Y-44391509D01*
X50852476Y-44391509D02*
X50900095Y-44343890D01*
X50900095Y-44343890D02*
X50995333Y-44296271D01*
X50995333Y-44296271D02*
X51233428Y-44296271D01*
X51233428Y-44296271D02*
X51328666Y-44343890D01*
X51328666Y-44343890D02*
X51376285Y-44391509D01*
X51376285Y-44391509D02*
X51423904Y-44486747D01*
X51423904Y-44486747D02*
X51423904Y-44724842D01*
X51423904Y-44724842D02*
X51376285Y-44820080D01*
X51376285Y-44820080D02*
X51328666Y-44867700D01*
X51328666Y-44867700D02*
X51233428Y-44915319D01*
X51233428Y-44915319D02*
X50995333Y-44915319D01*
X50995333Y-44915319D02*
X50900095Y-44867700D01*
X50900095Y-44867700D02*
X50852476Y-44820080D01*
X49519142Y-52915319D02*
X49185809Y-52439128D01*
X48947714Y-52915319D02*
X48947714Y-51915319D01*
X48947714Y-51915319D02*
X49328666Y-51915319D01*
X49328666Y-51915319D02*
X49423904Y-51962938D01*
X49423904Y-51962938D02*
X49471523Y-52010557D01*
X49471523Y-52010557D02*
X49519142Y-52105795D01*
X49519142Y-52105795D02*
X49519142Y-52248652D01*
X49519142Y-52248652D02*
X49471523Y-52343890D01*
X49471523Y-52343890D02*
X49423904Y-52391509D01*
X49423904Y-52391509D02*
X49328666Y-52439128D01*
X49328666Y-52439128D02*
X48947714Y-52439128D01*
X50471523Y-52915319D02*
X49900095Y-52915319D01*
X50185809Y-52915319D02*
X50185809Y-51915319D01*
X50185809Y-51915319D02*
X50090571Y-52058176D01*
X50090571Y-52058176D02*
X49995333Y-52153414D01*
X49995333Y-52153414D02*
X49900095Y-52201033D01*
X51328666Y-51915319D02*
X51138190Y-51915319D01*
X51138190Y-51915319D02*
X51042952Y-51962938D01*
X51042952Y-51962938D02*
X50995333Y-52010557D01*
X50995333Y-52010557D02*
X50900095Y-52153414D01*
X50900095Y-52153414D02*
X50852476Y-52343890D01*
X50852476Y-52343890D02*
X50852476Y-52724842D01*
X50852476Y-52724842D02*
X50900095Y-52820080D01*
X50900095Y-52820080D02*
X50947714Y-52867700D01*
X50947714Y-52867700D02*
X51042952Y-52915319D01*
X51042952Y-52915319D02*
X51233428Y-52915319D01*
X51233428Y-52915319D02*
X51328666Y-52867700D01*
X51328666Y-52867700D02*
X51376285Y-52820080D01*
X51376285Y-52820080D02*
X51423904Y-52724842D01*
X51423904Y-52724842D02*
X51423904Y-52486747D01*
X51423904Y-52486747D02*
X51376285Y-52391509D01*
X51376285Y-52391509D02*
X51328666Y-52343890D01*
X51328666Y-52343890D02*
X51233428Y-52296271D01*
X51233428Y-52296271D02*
X51042952Y-52296271D01*
X51042952Y-52296271D02*
X50947714Y-52343890D01*
X50947714Y-52343890D02*
X50900095Y-52391509D01*
X50900095Y-52391509D02*
X50852476Y-52486747D01*
X46659542Y-113482080D02*
X46611923Y-113529700D01*
X46611923Y-113529700D02*
X46469066Y-113577319D01*
X46469066Y-113577319D02*
X46373828Y-113577319D01*
X46373828Y-113577319D02*
X46230971Y-113529700D01*
X46230971Y-113529700D02*
X46135733Y-113434461D01*
X46135733Y-113434461D02*
X46088114Y-113339223D01*
X46088114Y-113339223D02*
X46040495Y-113148747D01*
X46040495Y-113148747D02*
X46040495Y-113005890D01*
X46040495Y-113005890D02*
X46088114Y-112815414D01*
X46088114Y-112815414D02*
X46135733Y-112720176D01*
X46135733Y-112720176D02*
X46230971Y-112624938D01*
X46230971Y-112624938D02*
X46373828Y-112577319D01*
X46373828Y-112577319D02*
X46469066Y-112577319D01*
X46469066Y-112577319D02*
X46611923Y-112624938D01*
X46611923Y-112624938D02*
X46659542Y-112672557D01*
X47611923Y-113577319D02*
X47040495Y-113577319D01*
X47326209Y-113577319D02*
X47326209Y-112577319D01*
X47326209Y-112577319D02*
X47230971Y-112720176D01*
X47230971Y-112720176D02*
X47135733Y-112815414D01*
X47135733Y-112815414D02*
X47040495Y-112863033D01*
X48516685Y-112577319D02*
X48040495Y-112577319D01*
X48040495Y-112577319D02*
X47992876Y-113053509D01*
X47992876Y-113053509D02*
X48040495Y-113005890D01*
X48040495Y-113005890D02*
X48135733Y-112958271D01*
X48135733Y-112958271D02*
X48373828Y-112958271D01*
X48373828Y-112958271D02*
X48469066Y-113005890D01*
X48469066Y-113005890D02*
X48516685Y-113053509D01*
X48516685Y-113053509D02*
X48564304Y-113148747D01*
X48564304Y-113148747D02*
X48564304Y-113386842D01*
X48564304Y-113386842D02*
X48516685Y-113482080D01*
X48516685Y-113482080D02*
X48469066Y-113529700D01*
X48469066Y-113529700D02*
X48373828Y-113577319D01*
X48373828Y-113577319D02*
X48135733Y-113577319D01*
X48135733Y-113577319D02*
X48040495Y-113529700D01*
X48040495Y-113529700D02*
X47992876Y-113482080D01*
X67775892Y-106454779D02*
X67442559Y-105978588D01*
X67204464Y-106454779D02*
X67204464Y-105454779D01*
X67204464Y-105454779D02*
X67585416Y-105454779D01*
X67585416Y-105454779D02*
X67680654Y-105502398D01*
X67680654Y-105502398D02*
X67728273Y-105550017D01*
X67728273Y-105550017D02*
X67775892Y-105645255D01*
X67775892Y-105645255D02*
X67775892Y-105788112D01*
X67775892Y-105788112D02*
X67728273Y-105883350D01*
X67728273Y-105883350D02*
X67680654Y-105930969D01*
X67680654Y-105930969D02*
X67585416Y-105978588D01*
X67585416Y-105978588D02*
X67204464Y-105978588D01*
X68680654Y-105454779D02*
X68204464Y-105454779D01*
X68204464Y-105454779D02*
X68156845Y-105930969D01*
X68156845Y-105930969D02*
X68204464Y-105883350D01*
X68204464Y-105883350D02*
X68299702Y-105835731D01*
X68299702Y-105835731D02*
X68537797Y-105835731D01*
X68537797Y-105835731D02*
X68633035Y-105883350D01*
X68633035Y-105883350D02*
X68680654Y-105930969D01*
X68680654Y-105930969D02*
X68728273Y-106026207D01*
X68728273Y-106026207D02*
X68728273Y-106264302D01*
X68728273Y-106264302D02*
X68680654Y-106359540D01*
X68680654Y-106359540D02*
X68633035Y-106407160D01*
X68633035Y-106407160D02*
X68537797Y-106454779D01*
X68537797Y-106454779D02*
X68299702Y-106454779D01*
X68299702Y-106454779D02*
X68204464Y-106407160D01*
X68204464Y-106407160D02*
X68156845Y-106359540D01*
X69585416Y-105454779D02*
X69394940Y-105454779D01*
X69394940Y-105454779D02*
X69299702Y-105502398D01*
X69299702Y-105502398D02*
X69252083Y-105550017D01*
X69252083Y-105550017D02*
X69156845Y-105692874D01*
X69156845Y-105692874D02*
X69109226Y-105883350D01*
X69109226Y-105883350D02*
X69109226Y-106264302D01*
X69109226Y-106264302D02*
X69156845Y-106359540D01*
X69156845Y-106359540D02*
X69204464Y-106407160D01*
X69204464Y-106407160D02*
X69299702Y-106454779D01*
X69299702Y-106454779D02*
X69490178Y-106454779D01*
X69490178Y-106454779D02*
X69585416Y-106407160D01*
X69585416Y-106407160D02*
X69633035Y-106359540D01*
X69633035Y-106359540D02*
X69680654Y-106264302D01*
X69680654Y-106264302D02*
X69680654Y-106026207D01*
X69680654Y-106026207D02*
X69633035Y-105930969D01*
X69633035Y-105930969D02*
X69585416Y-105883350D01*
X69585416Y-105883350D02*
X69490178Y-105835731D01*
X69490178Y-105835731D02*
X69299702Y-105835731D01*
X69299702Y-105835731D02*
X69204464Y-105883350D01*
X69204464Y-105883350D02*
X69156845Y-105930969D01*
X69156845Y-105930969D02*
X69109226Y-106026207D01*
X60328666Y-15604819D02*
X60328666Y-16319104D01*
X60328666Y-16319104D02*
X60281047Y-16461961D01*
X60281047Y-16461961D02*
X60185809Y-16557200D01*
X60185809Y-16557200D02*
X60042952Y-16604819D01*
X60042952Y-16604819D02*
X59947714Y-16604819D01*
X61281047Y-15604819D02*
X60804857Y-15604819D01*
X60804857Y-15604819D02*
X60757238Y-16081009D01*
X60757238Y-16081009D02*
X60804857Y-16033390D01*
X60804857Y-16033390D02*
X60900095Y-15985771D01*
X60900095Y-15985771D02*
X61138190Y-15985771D01*
X61138190Y-15985771D02*
X61233428Y-16033390D01*
X61233428Y-16033390D02*
X61281047Y-16081009D01*
X61281047Y-16081009D02*
X61328666Y-16176247D01*
X61328666Y-16176247D02*
X61328666Y-16414342D01*
X61328666Y-16414342D02*
X61281047Y-16509580D01*
X61281047Y-16509580D02*
X61233428Y-16557200D01*
X61233428Y-16557200D02*
X61138190Y-16604819D01*
X61138190Y-16604819D02*
X60900095Y-16604819D01*
X60900095Y-16604819D02*
X60804857Y-16557200D01*
X60804857Y-16557200D02*
X60757238Y-16509580D01*
X53690571Y-36264700D02*
X54833429Y-36264700D01*
X65990571Y-36264700D02*
X67133429Y-36264700D01*
X66562000Y-36836128D02*
X66562000Y-35693271D01*
X75942705Y-39915319D02*
X75942705Y-38915319D01*
X75942705Y-38915319D02*
X76180800Y-38915319D01*
X76180800Y-38915319D02*
X76323657Y-38962938D01*
X76323657Y-38962938D02*
X76418895Y-39058176D01*
X76418895Y-39058176D02*
X76466514Y-39153414D01*
X76466514Y-39153414D02*
X76514133Y-39343890D01*
X76514133Y-39343890D02*
X76514133Y-39486747D01*
X76514133Y-39486747D02*
X76466514Y-39677223D01*
X76466514Y-39677223D02*
X76418895Y-39772461D01*
X76418895Y-39772461D02*
X76323657Y-39867700D01*
X76323657Y-39867700D02*
X76180800Y-39915319D01*
X76180800Y-39915319D02*
X75942705Y-39915319D01*
X77418895Y-38915319D02*
X76942705Y-38915319D01*
X76942705Y-38915319D02*
X76895086Y-39391509D01*
X76895086Y-39391509D02*
X76942705Y-39343890D01*
X76942705Y-39343890D02*
X77037943Y-39296271D01*
X77037943Y-39296271D02*
X77276038Y-39296271D01*
X77276038Y-39296271D02*
X77371276Y-39343890D01*
X77371276Y-39343890D02*
X77418895Y-39391509D01*
X77418895Y-39391509D02*
X77466514Y-39486747D01*
X77466514Y-39486747D02*
X77466514Y-39724842D01*
X77466514Y-39724842D02*
X77418895Y-39820080D01*
X77418895Y-39820080D02*
X77371276Y-39867700D01*
X77371276Y-39867700D02*
X77276038Y-39915319D01*
X77276038Y-39915319D02*
X77037943Y-39915319D01*
X77037943Y-39915319D02*
X76942705Y-39867700D01*
X76942705Y-39867700D02*
X76895086Y-39820080D01*
X35048061Y-48360557D02*
X34952823Y-48312938D01*
X34952823Y-48312938D02*
X34857585Y-48217700D01*
X34857585Y-48217700D02*
X34714728Y-48074842D01*
X34714728Y-48074842D02*
X34619490Y-48027223D01*
X34619490Y-48027223D02*
X34524252Y-48027223D01*
X34571871Y-48265319D02*
X34476633Y-48217700D01*
X34476633Y-48217700D02*
X34381395Y-48122461D01*
X34381395Y-48122461D02*
X34333776Y-47931985D01*
X34333776Y-47931985D02*
X34333776Y-47598652D01*
X34333776Y-47598652D02*
X34381395Y-47408176D01*
X34381395Y-47408176D02*
X34476633Y-47312938D01*
X34476633Y-47312938D02*
X34571871Y-47265319D01*
X34571871Y-47265319D02*
X34762347Y-47265319D01*
X34762347Y-47265319D02*
X34857585Y-47312938D01*
X34857585Y-47312938D02*
X34952823Y-47408176D01*
X34952823Y-47408176D02*
X35000442Y-47598652D01*
X35000442Y-47598652D02*
X35000442Y-47931985D01*
X35000442Y-47931985D02*
X34952823Y-48122461D01*
X34952823Y-48122461D02*
X34857585Y-48217700D01*
X34857585Y-48217700D02*
X34762347Y-48265319D01*
X34762347Y-48265319D02*
X34571871Y-48265319D01*
X35952823Y-48265319D02*
X35381395Y-48265319D01*
X35667109Y-48265319D02*
X35667109Y-47265319D01*
X35667109Y-47265319D02*
X35571871Y-47408176D01*
X35571871Y-47408176D02*
X35476633Y-47503414D01*
X35476633Y-47503414D02*
X35381395Y-47551033D01*
X144423386Y-121650100D02*
X144566243Y-121697719D01*
X144566243Y-121697719D02*
X144804338Y-121697719D01*
X144804338Y-121697719D02*
X144899576Y-121650100D01*
X144899576Y-121650100D02*
X144947195Y-121602480D01*
X144947195Y-121602480D02*
X144994814Y-121507242D01*
X144994814Y-121507242D02*
X144994814Y-121412004D01*
X144994814Y-121412004D02*
X144947195Y-121316766D01*
X144947195Y-121316766D02*
X144899576Y-121269147D01*
X144899576Y-121269147D02*
X144804338Y-121221528D01*
X144804338Y-121221528D02*
X144613862Y-121173909D01*
X144613862Y-121173909D02*
X144518624Y-121126290D01*
X144518624Y-121126290D02*
X144471005Y-121078671D01*
X144471005Y-121078671D02*
X144423386Y-120983433D01*
X144423386Y-120983433D02*
X144423386Y-120888195D01*
X144423386Y-120888195D02*
X144471005Y-120792957D01*
X144471005Y-120792957D02*
X144518624Y-120745338D01*
X144518624Y-120745338D02*
X144613862Y-120697719D01*
X144613862Y-120697719D02*
X144851957Y-120697719D01*
X144851957Y-120697719D02*
X144994814Y-120745338D01*
X145280529Y-120697719D02*
X145851957Y-120697719D01*
X145566243Y-121697719D02*
X145566243Y-120697719D01*
X146185291Y-121316766D02*
X146947196Y-121316766D01*
X147899576Y-121697719D02*
X147423386Y-121697719D01*
X147423386Y-121697719D02*
X147423386Y-120697719D01*
X148232910Y-121697719D02*
X148232910Y-121031052D01*
X148232910Y-120697719D02*
X148185291Y-120745338D01*
X148185291Y-120745338D02*
X148232910Y-120792957D01*
X148232910Y-120792957D02*
X148280529Y-120745338D01*
X148280529Y-120745338D02*
X148232910Y-120697719D01*
X148232910Y-120697719D02*
X148232910Y-120792957D01*
X148709100Y-121031052D02*
X148709100Y-121697719D01*
X148709100Y-121126290D02*
X148756719Y-121078671D01*
X148756719Y-121078671D02*
X148851957Y-121031052D01*
X148851957Y-121031052D02*
X148994814Y-121031052D01*
X148994814Y-121031052D02*
X149090052Y-121078671D01*
X149090052Y-121078671D02*
X149137671Y-121173909D01*
X149137671Y-121173909D02*
X149137671Y-121697719D01*
X149613862Y-121697719D02*
X149613862Y-120697719D01*
X149709100Y-121316766D02*
X149994814Y-121697719D01*
X149994814Y-121031052D02*
X149613862Y-121412004D01*
X22429542Y-116359580D02*
X22381923Y-116407200D01*
X22381923Y-116407200D02*
X22239066Y-116454819D01*
X22239066Y-116454819D02*
X22143828Y-116454819D01*
X22143828Y-116454819D02*
X22000971Y-116407200D01*
X22000971Y-116407200D02*
X21905733Y-116311961D01*
X21905733Y-116311961D02*
X21858114Y-116216723D01*
X21858114Y-116216723D02*
X21810495Y-116026247D01*
X21810495Y-116026247D02*
X21810495Y-115883390D01*
X21810495Y-115883390D02*
X21858114Y-115692914D01*
X21858114Y-115692914D02*
X21905733Y-115597676D01*
X21905733Y-115597676D02*
X22000971Y-115502438D01*
X22000971Y-115502438D02*
X22143828Y-115454819D01*
X22143828Y-115454819D02*
X22239066Y-115454819D01*
X22239066Y-115454819D02*
X22381923Y-115502438D01*
X22381923Y-115502438D02*
X22429542Y-115550057D01*
X22810495Y-115550057D02*
X22858114Y-115502438D01*
X22858114Y-115502438D02*
X22953352Y-115454819D01*
X22953352Y-115454819D02*
X23191447Y-115454819D01*
X23191447Y-115454819D02*
X23286685Y-115502438D01*
X23286685Y-115502438D02*
X23334304Y-115550057D01*
X23334304Y-115550057D02*
X23381923Y-115645295D01*
X23381923Y-115645295D02*
X23381923Y-115740533D01*
X23381923Y-115740533D02*
X23334304Y-115883390D01*
X23334304Y-115883390D02*
X22762876Y-116454819D01*
X22762876Y-116454819D02*
X23381923Y-116454819D01*
X24286685Y-115454819D02*
X23810495Y-115454819D01*
X23810495Y-115454819D02*
X23762876Y-115931009D01*
X23762876Y-115931009D02*
X23810495Y-115883390D01*
X23810495Y-115883390D02*
X23905733Y-115835771D01*
X23905733Y-115835771D02*
X24143828Y-115835771D01*
X24143828Y-115835771D02*
X24239066Y-115883390D01*
X24239066Y-115883390D02*
X24286685Y-115931009D01*
X24286685Y-115931009D02*
X24334304Y-116026247D01*
X24334304Y-116026247D02*
X24334304Y-116264342D01*
X24334304Y-116264342D02*
X24286685Y-116359580D01*
X24286685Y-116359580D02*
X24239066Y-116407200D01*
X24239066Y-116407200D02*
X24143828Y-116454819D01*
X24143828Y-116454819D02*
X23905733Y-116454819D01*
X23905733Y-116454819D02*
X23810495Y-116407200D01*
X23810495Y-116407200D02*
X23762876Y-116359580D01*
X27576209Y-119978628D02*
X27576209Y-120454819D01*
X27242876Y-119454819D02*
X27576209Y-119978628D01*
X27576209Y-119978628D02*
X27909542Y-119454819D01*
X28766685Y-120454819D02*
X28195257Y-120454819D01*
X28480971Y-120454819D02*
X28480971Y-119454819D01*
X28480971Y-119454819D02*
X28385733Y-119597676D01*
X28385733Y-119597676D02*
X28290495Y-119692914D01*
X28290495Y-119692914D02*
X28195257Y-119740533D01*
X85844692Y-106454779D02*
X85511359Y-105978588D01*
X85273264Y-106454779D02*
X85273264Y-105454779D01*
X85273264Y-105454779D02*
X85654216Y-105454779D01*
X85654216Y-105454779D02*
X85749454Y-105502398D01*
X85749454Y-105502398D02*
X85797073Y-105550017D01*
X85797073Y-105550017D02*
X85844692Y-105645255D01*
X85844692Y-105645255D02*
X85844692Y-105788112D01*
X85844692Y-105788112D02*
X85797073Y-105883350D01*
X85797073Y-105883350D02*
X85749454Y-105930969D01*
X85749454Y-105930969D02*
X85654216Y-105978588D01*
X85654216Y-105978588D02*
X85273264Y-105978588D01*
X86225645Y-105550017D02*
X86273264Y-105502398D01*
X86273264Y-105502398D02*
X86368502Y-105454779D01*
X86368502Y-105454779D02*
X86606597Y-105454779D01*
X86606597Y-105454779D02*
X86701835Y-105502398D01*
X86701835Y-105502398D02*
X86749454Y-105550017D01*
X86749454Y-105550017D02*
X86797073Y-105645255D01*
X86797073Y-105645255D02*
X86797073Y-105740493D01*
X86797073Y-105740493D02*
X86749454Y-105883350D01*
X86749454Y-105883350D02*
X86178026Y-106454779D01*
X86178026Y-106454779D02*
X86797073Y-106454779D01*
X87701835Y-105454779D02*
X87225645Y-105454779D01*
X87225645Y-105454779D02*
X87178026Y-105930969D01*
X87178026Y-105930969D02*
X87225645Y-105883350D01*
X87225645Y-105883350D02*
X87320883Y-105835731D01*
X87320883Y-105835731D02*
X87558978Y-105835731D01*
X87558978Y-105835731D02*
X87654216Y-105883350D01*
X87654216Y-105883350D02*
X87701835Y-105930969D01*
X87701835Y-105930969D02*
X87749454Y-106026207D01*
X87749454Y-106026207D02*
X87749454Y-106264302D01*
X87749454Y-106264302D02*
X87701835Y-106359540D01*
X87701835Y-106359540D02*
X87654216Y-106407160D01*
X87654216Y-106407160D02*
X87558978Y-106454779D01*
X87558978Y-106454779D02*
X87320883Y-106454779D01*
X87320883Y-106454779D02*
X87225645Y-106407160D01*
X87225645Y-106407160D02*
X87178026Y-106359540D01*
X87085561Y-48360557D02*
X86990323Y-48312938D01*
X86990323Y-48312938D02*
X86895085Y-48217700D01*
X86895085Y-48217700D02*
X86752228Y-48074842D01*
X86752228Y-48074842D02*
X86656990Y-48027223D01*
X86656990Y-48027223D02*
X86561752Y-48027223D01*
X86609371Y-48265319D02*
X86514133Y-48217700D01*
X86514133Y-48217700D02*
X86418895Y-48122461D01*
X86418895Y-48122461D02*
X86371276Y-47931985D01*
X86371276Y-47931985D02*
X86371276Y-47598652D01*
X86371276Y-47598652D02*
X86418895Y-47408176D01*
X86418895Y-47408176D02*
X86514133Y-47312938D01*
X86514133Y-47312938D02*
X86609371Y-47265319D01*
X86609371Y-47265319D02*
X86799847Y-47265319D01*
X86799847Y-47265319D02*
X86895085Y-47312938D01*
X86895085Y-47312938D02*
X86990323Y-47408176D01*
X86990323Y-47408176D02*
X87037942Y-47598652D01*
X87037942Y-47598652D02*
X87037942Y-47931985D01*
X87037942Y-47931985D02*
X86990323Y-48122461D01*
X86990323Y-48122461D02*
X86895085Y-48217700D01*
X86895085Y-48217700D02*
X86799847Y-48265319D01*
X86799847Y-48265319D02*
X86609371Y-48265319D01*
X87371276Y-47265319D02*
X87990323Y-47265319D01*
X87990323Y-47265319D02*
X87656990Y-47646271D01*
X87656990Y-47646271D02*
X87799847Y-47646271D01*
X87799847Y-47646271D02*
X87895085Y-47693890D01*
X87895085Y-47693890D02*
X87942704Y-47741509D01*
X87942704Y-47741509D02*
X87990323Y-47836747D01*
X87990323Y-47836747D02*
X87990323Y-48074842D01*
X87990323Y-48074842D02*
X87942704Y-48170080D01*
X87942704Y-48170080D02*
X87895085Y-48217700D01*
X87895085Y-48217700D02*
X87799847Y-48265319D01*
X87799847Y-48265319D02*
X87514133Y-48265319D01*
X87514133Y-48265319D02*
X87418895Y-48217700D01*
X87418895Y-48217700D02*
X87371276Y-48170080D01*
X128732910Y-121697719D02*
X128732910Y-120697719D01*
X129161481Y-120792957D02*
X129209100Y-120745338D01*
X129209100Y-120745338D02*
X129304338Y-120697719D01*
X129304338Y-120697719D02*
X129542433Y-120697719D01*
X129542433Y-120697719D02*
X129637671Y-120745338D01*
X129637671Y-120745338D02*
X129685290Y-120792957D01*
X129685290Y-120792957D02*
X129732909Y-120888195D01*
X129732909Y-120888195D02*
X129732909Y-120983433D01*
X129732909Y-120983433D02*
X129685290Y-121126290D01*
X129685290Y-121126290D02*
X129113862Y-121697719D01*
X129113862Y-121697719D02*
X129732909Y-121697719D01*
X130732909Y-121602480D02*
X130685290Y-121650100D01*
X130685290Y-121650100D02*
X130542433Y-121697719D01*
X130542433Y-121697719D02*
X130447195Y-121697719D01*
X130447195Y-121697719D02*
X130304338Y-121650100D01*
X130304338Y-121650100D02*
X130209100Y-121554861D01*
X130209100Y-121554861D02*
X130161481Y-121459623D01*
X130161481Y-121459623D02*
X130113862Y-121269147D01*
X130113862Y-121269147D02*
X130113862Y-121126290D01*
X130113862Y-121126290D02*
X130161481Y-120935814D01*
X130161481Y-120935814D02*
X130209100Y-120840576D01*
X130209100Y-120840576D02*
X130304338Y-120745338D01*
X130304338Y-120745338D02*
X130447195Y-120697719D01*
X130447195Y-120697719D02*
X130542433Y-120697719D01*
X130542433Y-120697719D02*
X130685290Y-120745338D01*
X130685290Y-120745338D02*
X130732909Y-120792957D01*
X144896261Y-116750057D02*
X144801023Y-116702438D01*
X144801023Y-116702438D02*
X144705785Y-116607200D01*
X144705785Y-116607200D02*
X144562928Y-116464342D01*
X144562928Y-116464342D02*
X144467690Y-116416723D01*
X144467690Y-116416723D02*
X144372452Y-116416723D01*
X144420071Y-116654819D02*
X144324833Y-116607200D01*
X144324833Y-116607200D02*
X144229595Y-116511961D01*
X144229595Y-116511961D02*
X144181976Y-116321485D01*
X144181976Y-116321485D02*
X144181976Y-115988152D01*
X144181976Y-115988152D02*
X144229595Y-115797676D01*
X144229595Y-115797676D02*
X144324833Y-115702438D01*
X144324833Y-115702438D02*
X144420071Y-115654819D01*
X144420071Y-115654819D02*
X144610547Y-115654819D01*
X144610547Y-115654819D02*
X144705785Y-115702438D01*
X144705785Y-115702438D02*
X144801023Y-115797676D01*
X144801023Y-115797676D02*
X144848642Y-115988152D01*
X144848642Y-115988152D02*
X144848642Y-116321485D01*
X144848642Y-116321485D02*
X144801023Y-116511961D01*
X144801023Y-116511961D02*
X144705785Y-116607200D01*
X144705785Y-116607200D02*
X144610547Y-116654819D01*
X144610547Y-116654819D02*
X144420071Y-116654819D01*
X145705785Y-115654819D02*
X145515309Y-115654819D01*
X145515309Y-115654819D02*
X145420071Y-115702438D01*
X145420071Y-115702438D02*
X145372452Y-115750057D01*
X145372452Y-115750057D02*
X145277214Y-115892914D01*
X145277214Y-115892914D02*
X145229595Y-116083390D01*
X145229595Y-116083390D02*
X145229595Y-116464342D01*
X145229595Y-116464342D02*
X145277214Y-116559580D01*
X145277214Y-116559580D02*
X145324833Y-116607200D01*
X145324833Y-116607200D02*
X145420071Y-116654819D01*
X145420071Y-116654819D02*
X145610547Y-116654819D01*
X145610547Y-116654819D02*
X145705785Y-116607200D01*
X145705785Y-116607200D02*
X145753404Y-116559580D01*
X145753404Y-116559580D02*
X145801023Y-116464342D01*
X145801023Y-116464342D02*
X145801023Y-116226247D01*
X145801023Y-116226247D02*
X145753404Y-116131009D01*
X145753404Y-116131009D02*
X145705785Y-116083390D01*
X145705785Y-116083390D02*
X145610547Y-116035771D01*
X145610547Y-116035771D02*
X145420071Y-116035771D01*
X145420071Y-116035771D02*
X145324833Y-116083390D01*
X145324833Y-116083390D02*
X145277214Y-116131009D01*
X145277214Y-116131009D02*
X145229595Y-116226247D01*
X41757192Y-106454779D02*
X41423859Y-105978588D01*
X41185764Y-106454779D02*
X41185764Y-105454779D01*
X41185764Y-105454779D02*
X41566716Y-105454779D01*
X41566716Y-105454779D02*
X41661954Y-105502398D01*
X41661954Y-105502398D02*
X41709573Y-105550017D01*
X41709573Y-105550017D02*
X41757192Y-105645255D01*
X41757192Y-105645255D02*
X41757192Y-105788112D01*
X41757192Y-105788112D02*
X41709573Y-105883350D01*
X41709573Y-105883350D02*
X41661954Y-105930969D01*
X41661954Y-105930969D02*
X41566716Y-105978588D01*
X41566716Y-105978588D02*
X41185764Y-105978588D01*
X42661954Y-105454779D02*
X42185764Y-105454779D01*
X42185764Y-105454779D02*
X42138145Y-105930969D01*
X42138145Y-105930969D02*
X42185764Y-105883350D01*
X42185764Y-105883350D02*
X42281002Y-105835731D01*
X42281002Y-105835731D02*
X42519097Y-105835731D01*
X42519097Y-105835731D02*
X42614335Y-105883350D01*
X42614335Y-105883350D02*
X42661954Y-105930969D01*
X42661954Y-105930969D02*
X42709573Y-106026207D01*
X42709573Y-106026207D02*
X42709573Y-106264302D01*
X42709573Y-106264302D02*
X42661954Y-106359540D01*
X42661954Y-106359540D02*
X42614335Y-106407160D01*
X42614335Y-106407160D02*
X42519097Y-106454779D01*
X42519097Y-106454779D02*
X42281002Y-106454779D01*
X42281002Y-106454779D02*
X42185764Y-106407160D01*
X42185764Y-106407160D02*
X42138145Y-106359540D01*
X43614335Y-105454779D02*
X43138145Y-105454779D01*
X43138145Y-105454779D02*
X43090526Y-105930969D01*
X43090526Y-105930969D02*
X43138145Y-105883350D01*
X43138145Y-105883350D02*
X43233383Y-105835731D01*
X43233383Y-105835731D02*
X43471478Y-105835731D01*
X43471478Y-105835731D02*
X43566716Y-105883350D01*
X43566716Y-105883350D02*
X43614335Y-105930969D01*
X43614335Y-105930969D02*
X43661954Y-106026207D01*
X43661954Y-106026207D02*
X43661954Y-106264302D01*
X43661954Y-106264302D02*
X43614335Y-106359540D01*
X43614335Y-106359540D02*
X43566716Y-106407160D01*
X43566716Y-106407160D02*
X43471478Y-106454779D01*
X43471478Y-106454779D02*
X43233383Y-106454779D01*
X43233383Y-106454779D02*
X43138145Y-106407160D01*
X43138145Y-106407160D02*
X43090526Y-106359540D01*
X34309966Y-15604819D02*
X34309966Y-16319104D01*
X34309966Y-16319104D02*
X34262347Y-16461961D01*
X34262347Y-16461961D02*
X34167109Y-16557200D01*
X34167109Y-16557200D02*
X34024252Y-16604819D01*
X34024252Y-16604819D02*
X33929014Y-16604819D01*
X35214728Y-15938152D02*
X35214728Y-16604819D01*
X34976633Y-15557200D02*
X34738538Y-16271485D01*
X34738538Y-16271485D02*
X35357585Y-16271485D01*
X27671871Y-36264700D02*
X28814729Y-36264700D01*
X39971871Y-36264700D02*
X41114729Y-36264700D01*
X40543300Y-36836128D02*
X40543300Y-35693271D01*
X139123061Y-48360557D02*
X139027823Y-48312938D01*
X139027823Y-48312938D02*
X138932585Y-48217700D01*
X138932585Y-48217700D02*
X138789728Y-48074842D01*
X138789728Y-48074842D02*
X138694490Y-48027223D01*
X138694490Y-48027223D02*
X138599252Y-48027223D01*
X138646871Y-48265319D02*
X138551633Y-48217700D01*
X138551633Y-48217700D02*
X138456395Y-48122461D01*
X138456395Y-48122461D02*
X138408776Y-47931985D01*
X138408776Y-47931985D02*
X138408776Y-47598652D01*
X138408776Y-47598652D02*
X138456395Y-47408176D01*
X138456395Y-47408176D02*
X138551633Y-47312938D01*
X138551633Y-47312938D02*
X138646871Y-47265319D01*
X138646871Y-47265319D02*
X138837347Y-47265319D01*
X138837347Y-47265319D02*
X138932585Y-47312938D01*
X138932585Y-47312938D02*
X139027823Y-47408176D01*
X139027823Y-47408176D02*
X139075442Y-47598652D01*
X139075442Y-47598652D02*
X139075442Y-47931985D01*
X139075442Y-47931985D02*
X139027823Y-48122461D01*
X139027823Y-48122461D02*
X138932585Y-48217700D01*
X138932585Y-48217700D02*
X138837347Y-48265319D01*
X138837347Y-48265319D02*
X138646871Y-48265319D01*
X139980204Y-47265319D02*
X139504014Y-47265319D01*
X139504014Y-47265319D02*
X139456395Y-47741509D01*
X139456395Y-47741509D02*
X139504014Y-47693890D01*
X139504014Y-47693890D02*
X139599252Y-47646271D01*
X139599252Y-47646271D02*
X139837347Y-47646271D01*
X139837347Y-47646271D02*
X139932585Y-47693890D01*
X139932585Y-47693890D02*
X139980204Y-47741509D01*
X139980204Y-47741509D02*
X140027823Y-47836747D01*
X140027823Y-47836747D02*
X140027823Y-48074842D01*
X140027823Y-48074842D02*
X139980204Y-48170080D01*
X139980204Y-48170080D02*
X139932585Y-48217700D01*
X139932585Y-48217700D02*
X139837347Y-48265319D01*
X139837347Y-48265319D02*
X139599252Y-48265319D01*
X139599252Y-48265319D02*
X139504014Y-48217700D01*
X139504014Y-48217700D02*
X139456395Y-48170080D01*
X109705322Y-119954819D02*
X109705322Y-120669104D01*
X109705322Y-120669104D02*
X109657703Y-120811961D01*
X109657703Y-120811961D02*
X109562465Y-120907200D01*
X109562465Y-120907200D02*
X109419608Y-120954819D01*
X109419608Y-120954819D02*
X109324370Y-120954819D01*
X110133894Y-120050057D02*
X110181513Y-120002438D01*
X110181513Y-120002438D02*
X110276751Y-119954819D01*
X110276751Y-119954819D02*
X110514846Y-119954819D01*
X110514846Y-119954819D02*
X110610084Y-120002438D01*
X110610084Y-120002438D02*
X110657703Y-120050057D01*
X110657703Y-120050057D02*
X110705322Y-120145295D01*
X110705322Y-120145295D02*
X110705322Y-120240533D01*
X110705322Y-120240533D02*
X110657703Y-120383390D01*
X110657703Y-120383390D02*
X110086275Y-120954819D01*
X110086275Y-120954819D02*
X110705322Y-120954819D01*
X98371989Y-110920927D02*
X98038656Y-110444736D01*
X97800561Y-110920927D02*
X97800561Y-109920927D01*
X97800561Y-109920927D02*
X98181513Y-109920927D01*
X98181513Y-109920927D02*
X98276751Y-109968546D01*
X98276751Y-109968546D02*
X98324370Y-110016165D01*
X98324370Y-110016165D02*
X98371989Y-110111403D01*
X98371989Y-110111403D02*
X98371989Y-110254260D01*
X98371989Y-110254260D02*
X98324370Y-110349498D01*
X98324370Y-110349498D02*
X98276751Y-110397117D01*
X98276751Y-110397117D02*
X98181513Y-110444736D01*
X98181513Y-110444736D02*
X97800561Y-110444736D01*
X98752942Y-110016165D02*
X98800561Y-109968546D01*
X98800561Y-109968546D02*
X98895799Y-109920927D01*
X98895799Y-109920927D02*
X99133894Y-109920927D01*
X99133894Y-109920927D02*
X99229132Y-109968546D01*
X99229132Y-109968546D02*
X99276751Y-110016165D01*
X99276751Y-110016165D02*
X99324370Y-110111403D01*
X99324370Y-110111403D02*
X99324370Y-110206641D01*
X99324370Y-110206641D02*
X99276751Y-110349498D01*
X99276751Y-110349498D02*
X98705323Y-110920927D01*
X98705323Y-110920927D02*
X99324370Y-110920927D01*
X129932192Y-106454779D02*
X129598859Y-105978588D01*
X129360764Y-106454779D02*
X129360764Y-105454779D01*
X129360764Y-105454779D02*
X129741716Y-105454779D01*
X129741716Y-105454779D02*
X129836954Y-105502398D01*
X129836954Y-105502398D02*
X129884573Y-105550017D01*
X129884573Y-105550017D02*
X129932192Y-105645255D01*
X129932192Y-105645255D02*
X129932192Y-105788112D01*
X129932192Y-105788112D02*
X129884573Y-105883350D01*
X129884573Y-105883350D02*
X129836954Y-105930969D01*
X129836954Y-105930969D02*
X129741716Y-105978588D01*
X129741716Y-105978588D02*
X129360764Y-105978588D01*
X130265526Y-105454779D02*
X130884573Y-105454779D01*
X130884573Y-105454779D02*
X130551240Y-105835731D01*
X130551240Y-105835731D02*
X130694097Y-105835731D01*
X130694097Y-105835731D02*
X130789335Y-105883350D01*
X130789335Y-105883350D02*
X130836954Y-105930969D01*
X130836954Y-105930969D02*
X130884573Y-106026207D01*
X130884573Y-106026207D02*
X130884573Y-106264302D01*
X130884573Y-106264302D02*
X130836954Y-106359540D01*
X130836954Y-106359540D02*
X130789335Y-106407160D01*
X130789335Y-106407160D02*
X130694097Y-106454779D01*
X130694097Y-106454779D02*
X130408383Y-106454779D01*
X130408383Y-106454779D02*
X130313145Y-106407160D01*
X130313145Y-106407160D02*
X130265526Y-106359540D01*
X131741716Y-105454779D02*
X131551240Y-105454779D01*
X131551240Y-105454779D02*
X131456002Y-105502398D01*
X131456002Y-105502398D02*
X131408383Y-105550017D01*
X131408383Y-105550017D02*
X131313145Y-105692874D01*
X131313145Y-105692874D02*
X131265526Y-105883350D01*
X131265526Y-105883350D02*
X131265526Y-106264302D01*
X131265526Y-106264302D02*
X131313145Y-106359540D01*
X131313145Y-106359540D02*
X131360764Y-106407160D01*
X131360764Y-106407160D02*
X131456002Y-106454779D01*
X131456002Y-106454779D02*
X131646478Y-106454779D01*
X131646478Y-106454779D02*
X131741716Y-106407160D01*
X131741716Y-106407160D02*
X131789335Y-106359540D01*
X131789335Y-106359540D02*
X131836954Y-106264302D01*
X131836954Y-106264302D02*
X131836954Y-106026207D01*
X131836954Y-106026207D02*
X131789335Y-105930969D01*
X131789335Y-105930969D02*
X131741716Y-105883350D01*
X131741716Y-105883350D02*
X131646478Y-105835731D01*
X131646478Y-105835731D02*
X131456002Y-105835731D01*
X131456002Y-105835731D02*
X131360764Y-105883350D01*
X131360764Y-105883350D02*
X131313145Y-105930969D01*
X131313145Y-105930969D02*
X131265526Y-106026207D01*
X26357161Y-115052080D02*
X26309542Y-115099700D01*
X26309542Y-115099700D02*
X26166685Y-115147319D01*
X26166685Y-115147319D02*
X26071447Y-115147319D01*
X26071447Y-115147319D02*
X25928590Y-115099700D01*
X25928590Y-115099700D02*
X25833352Y-115004461D01*
X25833352Y-115004461D02*
X25785733Y-114909223D01*
X25785733Y-114909223D02*
X25738114Y-114718747D01*
X25738114Y-114718747D02*
X25738114Y-114575890D01*
X25738114Y-114575890D02*
X25785733Y-114385414D01*
X25785733Y-114385414D02*
X25833352Y-114290176D01*
X25833352Y-114290176D02*
X25928590Y-114194938D01*
X25928590Y-114194938D02*
X26071447Y-114147319D01*
X26071447Y-114147319D02*
X26166685Y-114147319D01*
X26166685Y-114147319D02*
X26309542Y-114194938D01*
X26309542Y-114194938D02*
X26357161Y-114242557D01*
X27309542Y-115147319D02*
X26738114Y-115147319D01*
X27023828Y-115147319D02*
X27023828Y-114147319D01*
X27023828Y-114147319D02*
X26928590Y-114290176D01*
X26928590Y-114290176D02*
X26833352Y-114385414D01*
X26833352Y-114385414D02*
X26738114Y-114433033D01*
X27642876Y-114147319D02*
X28261923Y-114147319D01*
X28261923Y-114147319D02*
X27928590Y-114528271D01*
X27928590Y-114528271D02*
X28071447Y-114528271D01*
X28071447Y-114528271D02*
X28166685Y-114575890D01*
X28166685Y-114575890D02*
X28214304Y-114623509D01*
X28214304Y-114623509D02*
X28261923Y-114718747D01*
X28261923Y-114718747D02*
X28261923Y-114956842D01*
X28261923Y-114956842D02*
X28214304Y-115052080D01*
X28214304Y-115052080D02*
X28166685Y-115099700D01*
X28166685Y-115099700D02*
X28071447Y-115147319D01*
X28071447Y-115147319D02*
X27785733Y-115147319D01*
X27785733Y-115147319D02*
X27690495Y-115099700D01*
X27690495Y-115099700D02*
X27642876Y-115052080D01*
X67519142Y-41915319D02*
X67185809Y-41439128D01*
X66947714Y-41915319D02*
X66947714Y-40915319D01*
X66947714Y-40915319D02*
X67328666Y-40915319D01*
X67328666Y-40915319D02*
X67423904Y-40962938D01*
X67423904Y-40962938D02*
X67471523Y-41010557D01*
X67471523Y-41010557D02*
X67519142Y-41105795D01*
X67519142Y-41105795D02*
X67519142Y-41248652D01*
X67519142Y-41248652D02*
X67471523Y-41343890D01*
X67471523Y-41343890D02*
X67423904Y-41391509D01*
X67423904Y-41391509D02*
X67328666Y-41439128D01*
X67328666Y-41439128D02*
X66947714Y-41439128D01*
X68471523Y-41915319D02*
X67900095Y-41915319D01*
X68185809Y-41915319D02*
X68185809Y-40915319D01*
X68185809Y-40915319D02*
X68090571Y-41058176D01*
X68090571Y-41058176D02*
X67995333Y-41153414D01*
X67995333Y-41153414D02*
X67900095Y-41201033D01*
X69376285Y-40915319D02*
X68900095Y-40915319D01*
X68900095Y-40915319D02*
X68852476Y-41391509D01*
X68852476Y-41391509D02*
X68900095Y-41343890D01*
X68900095Y-41343890D02*
X68995333Y-41296271D01*
X68995333Y-41296271D02*
X69233428Y-41296271D01*
X69233428Y-41296271D02*
X69328666Y-41343890D01*
X69328666Y-41343890D02*
X69376285Y-41391509D01*
X69376285Y-41391509D02*
X69423904Y-41486747D01*
X69423904Y-41486747D02*
X69423904Y-41724842D01*
X69423904Y-41724842D02*
X69376285Y-41820080D01*
X69376285Y-41820080D02*
X69328666Y-41867700D01*
X69328666Y-41867700D02*
X69233428Y-41915319D01*
X69233428Y-41915319D02*
X68995333Y-41915319D01*
X68995333Y-41915319D02*
X68900095Y-41867700D01*
X68900095Y-41867700D02*
X68852476Y-41820080D01*
X113104261Y-48360557D02*
X113009023Y-48312938D01*
X113009023Y-48312938D02*
X112913785Y-48217700D01*
X112913785Y-48217700D02*
X112770928Y-48074842D01*
X112770928Y-48074842D02*
X112675690Y-48027223D01*
X112675690Y-48027223D02*
X112580452Y-48027223D01*
X112628071Y-48265319D02*
X112532833Y-48217700D01*
X112532833Y-48217700D02*
X112437595Y-48122461D01*
X112437595Y-48122461D02*
X112389976Y-47931985D01*
X112389976Y-47931985D02*
X112389976Y-47598652D01*
X112389976Y-47598652D02*
X112437595Y-47408176D01*
X112437595Y-47408176D02*
X112532833Y-47312938D01*
X112532833Y-47312938D02*
X112628071Y-47265319D01*
X112628071Y-47265319D02*
X112818547Y-47265319D01*
X112818547Y-47265319D02*
X112913785Y-47312938D01*
X112913785Y-47312938D02*
X113009023Y-47408176D01*
X113009023Y-47408176D02*
X113056642Y-47598652D01*
X113056642Y-47598652D02*
X113056642Y-47931985D01*
X113056642Y-47931985D02*
X113009023Y-48122461D01*
X113009023Y-48122461D02*
X112913785Y-48217700D01*
X112913785Y-48217700D02*
X112818547Y-48265319D01*
X112818547Y-48265319D02*
X112628071Y-48265319D01*
X113913785Y-47598652D02*
X113913785Y-48265319D01*
X113675690Y-47217700D02*
X113437595Y-47931985D01*
X113437595Y-47931985D02*
X114056642Y-47931985D01*
X64280933Y-116283119D02*
X63947600Y-115806928D01*
X63709505Y-116283119D02*
X63709505Y-115283119D01*
X63709505Y-115283119D02*
X64090457Y-115283119D01*
X64090457Y-115283119D02*
X64185695Y-115330738D01*
X64185695Y-115330738D02*
X64233314Y-115378357D01*
X64233314Y-115378357D02*
X64280933Y-115473595D01*
X64280933Y-115473595D02*
X64280933Y-115616452D01*
X64280933Y-115616452D02*
X64233314Y-115711690D01*
X64233314Y-115711690D02*
X64185695Y-115759309D01*
X64185695Y-115759309D02*
X64090457Y-115806928D01*
X64090457Y-115806928D02*
X63709505Y-115806928D01*
X65138076Y-115616452D02*
X65138076Y-116283119D01*
X64899981Y-115235500D02*
X64661886Y-115949785D01*
X64661886Y-115949785D02*
X65280933Y-115949785D01*
X145575442Y-38915319D02*
X145242109Y-38439128D01*
X145004014Y-38915319D02*
X145004014Y-37915319D01*
X145004014Y-37915319D02*
X145384966Y-37915319D01*
X145384966Y-37915319D02*
X145480204Y-37962938D01*
X145480204Y-37962938D02*
X145527823Y-38010557D01*
X145527823Y-38010557D02*
X145575442Y-38105795D01*
X145575442Y-38105795D02*
X145575442Y-38248652D01*
X145575442Y-38248652D02*
X145527823Y-38343890D01*
X145527823Y-38343890D02*
X145480204Y-38391509D01*
X145480204Y-38391509D02*
X145384966Y-38439128D01*
X145384966Y-38439128D02*
X145004014Y-38439128D01*
X145908776Y-37915319D02*
X146527823Y-37915319D01*
X146527823Y-37915319D02*
X146194490Y-38296271D01*
X146194490Y-38296271D02*
X146337347Y-38296271D01*
X146337347Y-38296271D02*
X146432585Y-38343890D01*
X146432585Y-38343890D02*
X146480204Y-38391509D01*
X146480204Y-38391509D02*
X146527823Y-38486747D01*
X146527823Y-38486747D02*
X146527823Y-38724842D01*
X146527823Y-38724842D02*
X146480204Y-38820080D01*
X146480204Y-38820080D02*
X146432585Y-38867700D01*
X146432585Y-38867700D02*
X146337347Y-38915319D01*
X146337347Y-38915319D02*
X146051633Y-38915319D01*
X146051633Y-38915319D02*
X145956395Y-38867700D01*
X145956395Y-38867700D02*
X145908776Y-38820080D01*
X146908776Y-38010557D02*
X146956395Y-37962938D01*
X146956395Y-37962938D02*
X147051633Y-37915319D01*
X147051633Y-37915319D02*
X147289728Y-37915319D01*
X147289728Y-37915319D02*
X147384966Y-37962938D01*
X147384966Y-37962938D02*
X147432585Y-38010557D01*
X147432585Y-38010557D02*
X147480204Y-38105795D01*
X147480204Y-38105795D02*
X147480204Y-38201033D01*
X147480204Y-38201033D02*
X147432585Y-38343890D01*
X147432585Y-38343890D02*
X146861157Y-38915319D01*
X146861157Y-38915319D02*
X147480204Y-38915319D01*
X119813392Y-106454779D02*
X119480059Y-105978588D01*
X119241964Y-106454779D02*
X119241964Y-105454779D01*
X119241964Y-105454779D02*
X119622916Y-105454779D01*
X119622916Y-105454779D02*
X119718154Y-105502398D01*
X119718154Y-105502398D02*
X119765773Y-105550017D01*
X119765773Y-105550017D02*
X119813392Y-105645255D01*
X119813392Y-105645255D02*
X119813392Y-105788112D01*
X119813392Y-105788112D02*
X119765773Y-105883350D01*
X119765773Y-105883350D02*
X119718154Y-105930969D01*
X119718154Y-105930969D02*
X119622916Y-105978588D01*
X119622916Y-105978588D02*
X119241964Y-105978588D01*
X120718154Y-105454779D02*
X120241964Y-105454779D01*
X120241964Y-105454779D02*
X120194345Y-105930969D01*
X120194345Y-105930969D02*
X120241964Y-105883350D01*
X120241964Y-105883350D02*
X120337202Y-105835731D01*
X120337202Y-105835731D02*
X120575297Y-105835731D01*
X120575297Y-105835731D02*
X120670535Y-105883350D01*
X120670535Y-105883350D02*
X120718154Y-105930969D01*
X120718154Y-105930969D02*
X120765773Y-106026207D01*
X120765773Y-106026207D02*
X120765773Y-106264302D01*
X120765773Y-106264302D02*
X120718154Y-106359540D01*
X120718154Y-106359540D02*
X120670535Y-106407160D01*
X120670535Y-106407160D02*
X120575297Y-106454779D01*
X120575297Y-106454779D02*
X120337202Y-106454779D01*
X120337202Y-106454779D02*
X120241964Y-106407160D01*
X120241964Y-106407160D02*
X120194345Y-106359540D01*
X121337202Y-105883350D02*
X121241964Y-105835731D01*
X121241964Y-105835731D02*
X121194345Y-105788112D01*
X121194345Y-105788112D02*
X121146726Y-105692874D01*
X121146726Y-105692874D02*
X121146726Y-105645255D01*
X121146726Y-105645255D02*
X121194345Y-105550017D01*
X121194345Y-105550017D02*
X121241964Y-105502398D01*
X121241964Y-105502398D02*
X121337202Y-105454779D01*
X121337202Y-105454779D02*
X121527678Y-105454779D01*
X121527678Y-105454779D02*
X121622916Y-105502398D01*
X121622916Y-105502398D02*
X121670535Y-105550017D01*
X121670535Y-105550017D02*
X121718154Y-105645255D01*
X121718154Y-105645255D02*
X121718154Y-105692874D01*
X121718154Y-105692874D02*
X121670535Y-105788112D01*
X121670535Y-105788112D02*
X121622916Y-105835731D01*
X121622916Y-105835731D02*
X121527678Y-105883350D01*
X121527678Y-105883350D02*
X121337202Y-105883350D01*
X121337202Y-105883350D02*
X121241964Y-105930969D01*
X121241964Y-105930969D02*
X121194345Y-105978588D01*
X121194345Y-105978588D02*
X121146726Y-106073826D01*
X121146726Y-106073826D02*
X121146726Y-106264302D01*
X121146726Y-106264302D02*
X121194345Y-106359540D01*
X121194345Y-106359540D02*
X121241964Y-106407160D01*
X121241964Y-106407160D02*
X121337202Y-106454779D01*
X121337202Y-106454779D02*
X121527678Y-106454779D01*
X121527678Y-106454779D02*
X121622916Y-106407160D01*
X121622916Y-106407160D02*
X121670535Y-106359540D01*
X121670535Y-106359540D02*
X121718154Y-106264302D01*
X121718154Y-106264302D02*
X121718154Y-106073826D01*
X121718154Y-106073826D02*
X121670535Y-105978588D01*
X121670535Y-105978588D02*
X121622916Y-105930969D01*
X121622916Y-105930969D02*
X121527678Y-105883350D01*
X93537942Y-38915319D02*
X93204609Y-38439128D01*
X92966514Y-38915319D02*
X92966514Y-37915319D01*
X92966514Y-37915319D02*
X93347466Y-37915319D01*
X93347466Y-37915319D02*
X93442704Y-37962938D01*
X93442704Y-37962938D02*
X93490323Y-38010557D01*
X93490323Y-38010557D02*
X93537942Y-38105795D01*
X93537942Y-38105795D02*
X93537942Y-38248652D01*
X93537942Y-38248652D02*
X93490323Y-38343890D01*
X93490323Y-38343890D02*
X93442704Y-38391509D01*
X93442704Y-38391509D02*
X93347466Y-38439128D01*
X93347466Y-38439128D02*
X92966514Y-38439128D01*
X93918895Y-38010557D02*
X93966514Y-37962938D01*
X93966514Y-37962938D02*
X94061752Y-37915319D01*
X94061752Y-37915319D02*
X94299847Y-37915319D01*
X94299847Y-37915319D02*
X94395085Y-37962938D01*
X94395085Y-37962938D02*
X94442704Y-38010557D01*
X94442704Y-38010557D02*
X94490323Y-38105795D01*
X94490323Y-38105795D02*
X94490323Y-38201033D01*
X94490323Y-38201033D02*
X94442704Y-38343890D01*
X94442704Y-38343890D02*
X93871276Y-38915319D01*
X93871276Y-38915319D02*
X94490323Y-38915319D01*
X95109371Y-37915319D02*
X95204609Y-37915319D01*
X95204609Y-37915319D02*
X95299847Y-37962938D01*
X95299847Y-37962938D02*
X95347466Y-38010557D01*
X95347466Y-38010557D02*
X95395085Y-38105795D01*
X95395085Y-38105795D02*
X95442704Y-38296271D01*
X95442704Y-38296271D02*
X95442704Y-38534366D01*
X95442704Y-38534366D02*
X95395085Y-38724842D01*
X95395085Y-38724842D02*
X95347466Y-38820080D01*
X95347466Y-38820080D02*
X95299847Y-38867700D01*
X95299847Y-38867700D02*
X95204609Y-38915319D01*
X95204609Y-38915319D02*
X95109371Y-38915319D01*
X95109371Y-38915319D02*
X95014133Y-38867700D01*
X95014133Y-38867700D02*
X94966514Y-38820080D01*
X94966514Y-38820080D02*
X94918895Y-38724842D01*
X94918895Y-38724842D02*
X94871276Y-38534366D01*
X94871276Y-38534366D02*
X94871276Y-38296271D01*
X94871276Y-38296271D02*
X94918895Y-38105795D01*
X94918895Y-38105795D02*
X94966514Y-38010557D01*
X94966514Y-38010557D02*
X95014133Y-37962938D01*
X95014133Y-37962938D02*
X95109371Y-37915319D01*
X31655733Y-109052080D02*
X31608114Y-109099700D01*
X31608114Y-109099700D02*
X31465257Y-109147319D01*
X31465257Y-109147319D02*
X31370019Y-109147319D01*
X31370019Y-109147319D02*
X31227162Y-109099700D01*
X31227162Y-109099700D02*
X31131924Y-109004461D01*
X31131924Y-109004461D02*
X31084305Y-108909223D01*
X31084305Y-108909223D02*
X31036686Y-108718747D01*
X31036686Y-108718747D02*
X31036686Y-108575890D01*
X31036686Y-108575890D02*
X31084305Y-108385414D01*
X31084305Y-108385414D02*
X31131924Y-108290176D01*
X31131924Y-108290176D02*
X31227162Y-108194938D01*
X31227162Y-108194938D02*
X31370019Y-108147319D01*
X31370019Y-108147319D02*
X31465257Y-108147319D01*
X31465257Y-108147319D02*
X31608114Y-108194938D01*
X31608114Y-108194938D02*
X31655733Y-108242557D01*
X32131924Y-109147319D02*
X32322400Y-109147319D01*
X32322400Y-109147319D02*
X32417638Y-109099700D01*
X32417638Y-109099700D02*
X32465257Y-109052080D01*
X32465257Y-109052080D02*
X32560495Y-108909223D01*
X32560495Y-108909223D02*
X32608114Y-108718747D01*
X32608114Y-108718747D02*
X32608114Y-108337795D01*
X32608114Y-108337795D02*
X32560495Y-108242557D01*
X32560495Y-108242557D02*
X32512876Y-108194938D01*
X32512876Y-108194938D02*
X32417638Y-108147319D01*
X32417638Y-108147319D02*
X32227162Y-108147319D01*
X32227162Y-108147319D02*
X32131924Y-108194938D01*
X32131924Y-108194938D02*
X32084305Y-108242557D01*
X32084305Y-108242557D02*
X32036686Y-108337795D01*
X32036686Y-108337795D02*
X32036686Y-108575890D01*
X32036686Y-108575890D02*
X32084305Y-108671128D01*
X32084305Y-108671128D02*
X32131924Y-108718747D01*
X32131924Y-108718747D02*
X32227162Y-108766366D01*
X32227162Y-108766366D02*
X32417638Y-108766366D01*
X32417638Y-108766366D02*
X32512876Y-108718747D01*
X32512876Y-108718747D02*
X32560495Y-108671128D01*
X32560495Y-108671128D02*
X32608114Y-108575890D01*
X145575442Y-44320080D02*
X145527823Y-44367700D01*
X145527823Y-44367700D02*
X145384966Y-44415319D01*
X145384966Y-44415319D02*
X145289728Y-44415319D01*
X145289728Y-44415319D02*
X145146871Y-44367700D01*
X145146871Y-44367700D02*
X145051633Y-44272461D01*
X145051633Y-44272461D02*
X145004014Y-44177223D01*
X145004014Y-44177223D02*
X144956395Y-43986747D01*
X144956395Y-43986747D02*
X144956395Y-43843890D01*
X144956395Y-43843890D02*
X145004014Y-43653414D01*
X145004014Y-43653414D02*
X145051633Y-43558176D01*
X145051633Y-43558176D02*
X145146871Y-43462938D01*
X145146871Y-43462938D02*
X145289728Y-43415319D01*
X145289728Y-43415319D02*
X145384966Y-43415319D01*
X145384966Y-43415319D02*
X145527823Y-43462938D01*
X145527823Y-43462938D02*
X145575442Y-43510557D01*
X145956395Y-43510557D02*
X146004014Y-43462938D01*
X146004014Y-43462938D02*
X146099252Y-43415319D01*
X146099252Y-43415319D02*
X146337347Y-43415319D01*
X146337347Y-43415319D02*
X146432585Y-43462938D01*
X146432585Y-43462938D02*
X146480204Y-43510557D01*
X146480204Y-43510557D02*
X146527823Y-43605795D01*
X146527823Y-43605795D02*
X146527823Y-43701033D01*
X146527823Y-43701033D02*
X146480204Y-43843890D01*
X146480204Y-43843890D02*
X145908776Y-44415319D01*
X145908776Y-44415319D02*
X146527823Y-44415319D01*
X146908776Y-43510557D02*
X146956395Y-43462938D01*
X146956395Y-43462938D02*
X147051633Y-43415319D01*
X147051633Y-43415319D02*
X147289728Y-43415319D01*
X147289728Y-43415319D02*
X147384966Y-43462938D01*
X147384966Y-43462938D02*
X147432585Y-43510557D01*
X147432585Y-43510557D02*
X147480204Y-43605795D01*
X147480204Y-43605795D02*
X147480204Y-43701033D01*
X147480204Y-43701033D02*
X147432585Y-43843890D01*
X147432585Y-43843890D02*
X146861157Y-44415319D01*
X146861157Y-44415319D02*
X147480204Y-44415319D01*
X51875892Y-106454779D02*
X51542559Y-105978588D01*
X51304464Y-106454779D02*
X51304464Y-105454779D01*
X51304464Y-105454779D02*
X51685416Y-105454779D01*
X51685416Y-105454779D02*
X51780654Y-105502398D01*
X51780654Y-105502398D02*
X51828273Y-105550017D01*
X51828273Y-105550017D02*
X51875892Y-105645255D01*
X51875892Y-105645255D02*
X51875892Y-105788112D01*
X51875892Y-105788112D02*
X51828273Y-105883350D01*
X51828273Y-105883350D02*
X51780654Y-105930969D01*
X51780654Y-105930969D02*
X51685416Y-105978588D01*
X51685416Y-105978588D02*
X51304464Y-105978588D01*
X52828273Y-106454779D02*
X52256845Y-106454779D01*
X52542559Y-106454779D02*
X52542559Y-105454779D01*
X52542559Y-105454779D02*
X52447321Y-105597636D01*
X52447321Y-105597636D02*
X52352083Y-105692874D01*
X52352083Y-105692874D02*
X52256845Y-105740493D01*
X53399702Y-105883350D02*
X53304464Y-105835731D01*
X53304464Y-105835731D02*
X53256845Y-105788112D01*
X53256845Y-105788112D02*
X53209226Y-105692874D01*
X53209226Y-105692874D02*
X53209226Y-105645255D01*
X53209226Y-105645255D02*
X53256845Y-105550017D01*
X53256845Y-105550017D02*
X53304464Y-105502398D01*
X53304464Y-105502398D02*
X53399702Y-105454779D01*
X53399702Y-105454779D02*
X53590178Y-105454779D01*
X53590178Y-105454779D02*
X53685416Y-105502398D01*
X53685416Y-105502398D02*
X53733035Y-105550017D01*
X53733035Y-105550017D02*
X53780654Y-105645255D01*
X53780654Y-105645255D02*
X53780654Y-105692874D01*
X53780654Y-105692874D02*
X53733035Y-105788112D01*
X53733035Y-105788112D02*
X53685416Y-105835731D01*
X53685416Y-105835731D02*
X53590178Y-105883350D01*
X53590178Y-105883350D02*
X53399702Y-105883350D01*
X53399702Y-105883350D02*
X53304464Y-105930969D01*
X53304464Y-105930969D02*
X53256845Y-105978588D01*
X53256845Y-105978588D02*
X53209226Y-106073826D01*
X53209226Y-106073826D02*
X53209226Y-106264302D01*
X53209226Y-106264302D02*
X53256845Y-106359540D01*
X53256845Y-106359540D02*
X53304464Y-106407160D01*
X53304464Y-106407160D02*
X53399702Y-106454779D01*
X53399702Y-106454779D02*
X53590178Y-106454779D01*
X53590178Y-106454779D02*
X53685416Y-106407160D01*
X53685416Y-106407160D02*
X53733035Y-106359540D01*
X53733035Y-106359540D02*
X53780654Y-106264302D01*
X53780654Y-106264302D02*
X53780654Y-106073826D01*
X53780654Y-106073826D02*
X53733035Y-105978588D01*
X53733035Y-105978588D02*
X53685416Y-105930969D01*
X53685416Y-105930969D02*
X53590178Y-105883350D01*
X22409542Y-118329580D02*
X22361923Y-118377200D01*
X22361923Y-118377200D02*
X22219066Y-118424819D01*
X22219066Y-118424819D02*
X22123828Y-118424819D01*
X22123828Y-118424819D02*
X21980971Y-118377200D01*
X21980971Y-118377200D02*
X21885733Y-118281961D01*
X21885733Y-118281961D02*
X21838114Y-118186723D01*
X21838114Y-118186723D02*
X21790495Y-117996247D01*
X21790495Y-117996247D02*
X21790495Y-117853390D01*
X21790495Y-117853390D02*
X21838114Y-117662914D01*
X21838114Y-117662914D02*
X21885733Y-117567676D01*
X21885733Y-117567676D02*
X21980971Y-117472438D01*
X21980971Y-117472438D02*
X22123828Y-117424819D01*
X22123828Y-117424819D02*
X22219066Y-117424819D01*
X22219066Y-117424819D02*
X22361923Y-117472438D01*
X22361923Y-117472438D02*
X22409542Y-117520057D01*
X23361923Y-118424819D02*
X22790495Y-118424819D01*
X23076209Y-118424819D02*
X23076209Y-117424819D01*
X23076209Y-117424819D02*
X22980971Y-117567676D01*
X22980971Y-117567676D02*
X22885733Y-117662914D01*
X22885733Y-117662914D02*
X22790495Y-117710533D01*
X23695257Y-117424819D02*
X24361923Y-117424819D01*
X24361923Y-117424819D02*
X23933352Y-118424819D01*
X67519142Y-44320080D02*
X67471523Y-44367700D01*
X67471523Y-44367700D02*
X67328666Y-44415319D01*
X67328666Y-44415319D02*
X67233428Y-44415319D01*
X67233428Y-44415319D02*
X67090571Y-44367700D01*
X67090571Y-44367700D02*
X66995333Y-44272461D01*
X66995333Y-44272461D02*
X66947714Y-44177223D01*
X66947714Y-44177223D02*
X66900095Y-43986747D01*
X66900095Y-43986747D02*
X66900095Y-43843890D01*
X66900095Y-43843890D02*
X66947714Y-43653414D01*
X66947714Y-43653414D02*
X66995333Y-43558176D01*
X66995333Y-43558176D02*
X67090571Y-43462938D01*
X67090571Y-43462938D02*
X67233428Y-43415319D01*
X67233428Y-43415319D02*
X67328666Y-43415319D01*
X67328666Y-43415319D02*
X67471523Y-43462938D01*
X67471523Y-43462938D02*
X67519142Y-43510557D01*
X68471523Y-44415319D02*
X67900095Y-44415319D01*
X68185809Y-44415319D02*
X68185809Y-43415319D01*
X68185809Y-43415319D02*
X68090571Y-43558176D01*
X68090571Y-43558176D02*
X67995333Y-43653414D01*
X67995333Y-43653414D02*
X67900095Y-43701033D01*
X68947714Y-44415319D02*
X69138190Y-44415319D01*
X69138190Y-44415319D02*
X69233428Y-44367700D01*
X69233428Y-44367700D02*
X69281047Y-44320080D01*
X69281047Y-44320080D02*
X69376285Y-44177223D01*
X69376285Y-44177223D02*
X69423904Y-43986747D01*
X69423904Y-43986747D02*
X69423904Y-43605795D01*
X69423904Y-43605795D02*
X69376285Y-43510557D01*
X69376285Y-43510557D02*
X69328666Y-43462938D01*
X69328666Y-43462938D02*
X69233428Y-43415319D01*
X69233428Y-43415319D02*
X69042952Y-43415319D01*
X69042952Y-43415319D02*
X68947714Y-43462938D01*
X68947714Y-43462938D02*
X68900095Y-43510557D01*
X68900095Y-43510557D02*
X68852476Y-43605795D01*
X68852476Y-43605795D02*
X68852476Y-43843890D01*
X68852476Y-43843890D02*
X68900095Y-43939128D01*
X68900095Y-43939128D02*
X68947714Y-43986747D01*
X68947714Y-43986747D02*
X69042952Y-44034366D01*
X69042952Y-44034366D02*
X69233428Y-44034366D01*
X69233428Y-44034366D02*
X69328666Y-43986747D01*
X69328666Y-43986747D02*
X69376285Y-43939128D01*
X69376285Y-43939128D02*
X69423904Y-43843890D01*
X76738076Y-119454819D02*
X76738076Y-120264342D01*
X76738076Y-120264342D02*
X76785695Y-120359580D01*
X76785695Y-120359580D02*
X76833314Y-120407200D01*
X76833314Y-120407200D02*
X76928552Y-120454819D01*
X76928552Y-120454819D02*
X77119028Y-120454819D01*
X77119028Y-120454819D02*
X77214266Y-120407200D01*
X77214266Y-120407200D02*
X77261885Y-120359580D01*
X77261885Y-120359580D02*
X77309504Y-120264342D01*
X77309504Y-120264342D02*
X77309504Y-119454819D01*
X78309504Y-120454819D02*
X77738076Y-120454819D01*
X78023790Y-120454819D02*
X78023790Y-119454819D01*
X78023790Y-119454819D02*
X77928552Y-119597676D01*
X77928552Y-119597676D02*
X77833314Y-119692914D01*
X77833314Y-119692914D02*
X77738076Y-119740533D01*
X22929014Y-44915319D02*
X22929014Y-43915319D01*
X22929014Y-43915319D02*
X23167109Y-43915319D01*
X23167109Y-43915319D02*
X23309966Y-43962938D01*
X23309966Y-43962938D02*
X23405204Y-44058176D01*
X23405204Y-44058176D02*
X23452823Y-44153414D01*
X23452823Y-44153414D02*
X23500442Y-44343890D01*
X23500442Y-44343890D02*
X23500442Y-44486747D01*
X23500442Y-44486747D02*
X23452823Y-44677223D01*
X23452823Y-44677223D02*
X23405204Y-44772461D01*
X23405204Y-44772461D02*
X23309966Y-44867700D01*
X23309966Y-44867700D02*
X23167109Y-44915319D01*
X23167109Y-44915319D02*
X22929014Y-44915319D01*
X24452823Y-44915319D02*
X23881395Y-44915319D01*
X24167109Y-44915319D02*
X24167109Y-43915319D01*
X24167109Y-43915319D02*
X24071871Y-44058176D01*
X24071871Y-44058176D02*
X23976633Y-44153414D01*
X23976633Y-44153414D02*
X23881395Y-44201033D01*
X25309966Y-44248652D02*
X25309966Y-44915319D01*
X25071871Y-43867700D02*
X24833776Y-44581985D01*
X24833776Y-44581985D02*
X25452823Y-44581985D01*
X93794692Y-106454779D02*
X93461359Y-105978588D01*
X93223264Y-106454779D02*
X93223264Y-105454779D01*
X93223264Y-105454779D02*
X93604216Y-105454779D01*
X93604216Y-105454779D02*
X93699454Y-105502398D01*
X93699454Y-105502398D02*
X93747073Y-105550017D01*
X93747073Y-105550017D02*
X93794692Y-105645255D01*
X93794692Y-105645255D02*
X93794692Y-105788112D01*
X93794692Y-105788112D02*
X93747073Y-105883350D01*
X93747073Y-105883350D02*
X93699454Y-105930969D01*
X93699454Y-105930969D02*
X93604216Y-105978588D01*
X93604216Y-105978588D02*
X93223264Y-105978588D01*
X94699454Y-105454779D02*
X94223264Y-105454779D01*
X94223264Y-105454779D02*
X94175645Y-105930969D01*
X94175645Y-105930969D02*
X94223264Y-105883350D01*
X94223264Y-105883350D02*
X94318502Y-105835731D01*
X94318502Y-105835731D02*
X94556597Y-105835731D01*
X94556597Y-105835731D02*
X94651835Y-105883350D01*
X94651835Y-105883350D02*
X94699454Y-105930969D01*
X94699454Y-105930969D02*
X94747073Y-106026207D01*
X94747073Y-106026207D02*
X94747073Y-106264302D01*
X94747073Y-106264302D02*
X94699454Y-106359540D01*
X94699454Y-106359540D02*
X94651835Y-106407160D01*
X94651835Y-106407160D02*
X94556597Y-106454779D01*
X94556597Y-106454779D02*
X94318502Y-106454779D01*
X94318502Y-106454779D02*
X94223264Y-106407160D01*
X94223264Y-106407160D02*
X94175645Y-106359540D01*
X95080407Y-105454779D02*
X95747073Y-105454779D01*
X95747073Y-105454779D02*
X95318502Y-106454779D01*
X53685695Y-121187319D02*
X53685695Y-121996842D01*
X53685695Y-121996842D02*
X53733314Y-122092080D01*
X53733314Y-122092080D02*
X53780933Y-122139700D01*
X53780933Y-122139700D02*
X53876171Y-122187319D01*
X53876171Y-122187319D02*
X54066647Y-122187319D01*
X54066647Y-122187319D02*
X54161885Y-122139700D01*
X54161885Y-122139700D02*
X54209504Y-122092080D01*
X54209504Y-122092080D02*
X54257123Y-121996842D01*
X54257123Y-121996842D02*
X54257123Y-121187319D01*
X54685695Y-121282557D02*
X54733314Y-121234938D01*
X54733314Y-121234938D02*
X54828552Y-121187319D01*
X54828552Y-121187319D02*
X55066647Y-121187319D01*
X55066647Y-121187319D02*
X55161885Y-121234938D01*
X55161885Y-121234938D02*
X55209504Y-121282557D01*
X55209504Y-121282557D02*
X55257123Y-121377795D01*
X55257123Y-121377795D02*
X55257123Y-121473033D01*
X55257123Y-121473033D02*
X55209504Y-121615890D01*
X55209504Y-121615890D02*
X54638076Y-122187319D01*
X54638076Y-122187319D02*
X55257123Y-122187319D01*
X101556642Y-49915319D02*
X101223309Y-49439128D01*
X100985214Y-49915319D02*
X100985214Y-48915319D01*
X100985214Y-48915319D02*
X101366166Y-48915319D01*
X101366166Y-48915319D02*
X101461404Y-48962938D01*
X101461404Y-48962938D02*
X101509023Y-49010557D01*
X101509023Y-49010557D02*
X101556642Y-49105795D01*
X101556642Y-49105795D02*
X101556642Y-49248652D01*
X101556642Y-49248652D02*
X101509023Y-49343890D01*
X101509023Y-49343890D02*
X101461404Y-49391509D01*
X101461404Y-49391509D02*
X101366166Y-49439128D01*
X101366166Y-49439128D02*
X100985214Y-49439128D01*
X101937595Y-49010557D02*
X101985214Y-48962938D01*
X101985214Y-48962938D02*
X102080452Y-48915319D01*
X102080452Y-48915319D02*
X102318547Y-48915319D01*
X102318547Y-48915319D02*
X102413785Y-48962938D01*
X102413785Y-48962938D02*
X102461404Y-49010557D01*
X102461404Y-49010557D02*
X102509023Y-49105795D01*
X102509023Y-49105795D02*
X102509023Y-49201033D01*
X102509023Y-49201033D02*
X102461404Y-49343890D01*
X102461404Y-49343890D02*
X101889976Y-49915319D01*
X101889976Y-49915319D02*
X102509023Y-49915319D01*
X102985214Y-49915319D02*
X103175690Y-49915319D01*
X103175690Y-49915319D02*
X103270928Y-49867700D01*
X103270928Y-49867700D02*
X103318547Y-49820080D01*
X103318547Y-49820080D02*
X103413785Y-49677223D01*
X103413785Y-49677223D02*
X103461404Y-49486747D01*
X103461404Y-49486747D02*
X103461404Y-49105795D01*
X103461404Y-49105795D02*
X103413785Y-49010557D01*
X103413785Y-49010557D02*
X103366166Y-48962938D01*
X103366166Y-48962938D02*
X103270928Y-48915319D01*
X103270928Y-48915319D02*
X103080452Y-48915319D01*
X103080452Y-48915319D02*
X102985214Y-48962938D01*
X102985214Y-48962938D02*
X102937595Y-49010557D01*
X102937595Y-49010557D02*
X102889976Y-49105795D01*
X102889976Y-49105795D02*
X102889976Y-49343890D01*
X102889976Y-49343890D02*
X102937595Y-49439128D01*
X102937595Y-49439128D02*
X102985214Y-49486747D01*
X102985214Y-49486747D02*
X103080452Y-49534366D01*
X103080452Y-49534366D02*
X103270928Y-49534366D01*
X103270928Y-49534366D02*
X103366166Y-49486747D01*
X103366166Y-49486747D02*
X103413785Y-49439128D01*
X103413785Y-49439128D02*
X103461404Y-49343890D01*
X101961405Y-39915319D02*
X101961405Y-38915319D01*
X101961405Y-38915319D02*
X102199500Y-38915319D01*
X102199500Y-38915319D02*
X102342357Y-38962938D01*
X102342357Y-38962938D02*
X102437595Y-39058176D01*
X102437595Y-39058176D02*
X102485214Y-39153414D01*
X102485214Y-39153414D02*
X102532833Y-39343890D01*
X102532833Y-39343890D02*
X102532833Y-39486747D01*
X102532833Y-39486747D02*
X102485214Y-39677223D01*
X102485214Y-39677223D02*
X102437595Y-39772461D01*
X102437595Y-39772461D02*
X102342357Y-39867700D01*
X102342357Y-39867700D02*
X102199500Y-39915319D01*
X102199500Y-39915319D02*
X101961405Y-39915319D01*
X103389976Y-38915319D02*
X103199500Y-38915319D01*
X103199500Y-38915319D02*
X103104262Y-38962938D01*
X103104262Y-38962938D02*
X103056643Y-39010557D01*
X103056643Y-39010557D02*
X102961405Y-39153414D01*
X102961405Y-39153414D02*
X102913786Y-39343890D01*
X102913786Y-39343890D02*
X102913786Y-39724842D01*
X102913786Y-39724842D02*
X102961405Y-39820080D01*
X102961405Y-39820080D02*
X103009024Y-39867700D01*
X103009024Y-39867700D02*
X103104262Y-39915319D01*
X103104262Y-39915319D02*
X103294738Y-39915319D01*
X103294738Y-39915319D02*
X103389976Y-39867700D01*
X103389976Y-39867700D02*
X103437595Y-39820080D01*
X103437595Y-39820080D02*
X103485214Y-39724842D01*
X103485214Y-39724842D02*
X103485214Y-39486747D01*
X103485214Y-39486747D02*
X103437595Y-39391509D01*
X103437595Y-39391509D02*
X103389976Y-39343890D01*
X103389976Y-39343890D02*
X103294738Y-39296271D01*
X103294738Y-39296271D02*
X103104262Y-39296271D01*
X103104262Y-39296271D02*
X103009024Y-39343890D01*
X103009024Y-39343890D02*
X102961405Y-39391509D01*
X102961405Y-39391509D02*
X102913786Y-39486747D01*
X137882192Y-106454779D02*
X137548859Y-105978588D01*
X137310764Y-106454779D02*
X137310764Y-105454779D01*
X137310764Y-105454779D02*
X137691716Y-105454779D01*
X137691716Y-105454779D02*
X137786954Y-105502398D01*
X137786954Y-105502398D02*
X137834573Y-105550017D01*
X137834573Y-105550017D02*
X137882192Y-105645255D01*
X137882192Y-105645255D02*
X137882192Y-105788112D01*
X137882192Y-105788112D02*
X137834573Y-105883350D01*
X137834573Y-105883350D02*
X137786954Y-105930969D01*
X137786954Y-105930969D02*
X137691716Y-105978588D01*
X137691716Y-105978588D02*
X137310764Y-105978588D01*
X138215526Y-105454779D02*
X138834573Y-105454779D01*
X138834573Y-105454779D02*
X138501240Y-105835731D01*
X138501240Y-105835731D02*
X138644097Y-105835731D01*
X138644097Y-105835731D02*
X138739335Y-105883350D01*
X138739335Y-105883350D02*
X138786954Y-105930969D01*
X138786954Y-105930969D02*
X138834573Y-106026207D01*
X138834573Y-106026207D02*
X138834573Y-106264302D01*
X138834573Y-106264302D02*
X138786954Y-106359540D01*
X138786954Y-106359540D02*
X138739335Y-106407160D01*
X138739335Y-106407160D02*
X138644097Y-106454779D01*
X138644097Y-106454779D02*
X138358383Y-106454779D01*
X138358383Y-106454779D02*
X138263145Y-106407160D01*
X138263145Y-106407160D02*
X138215526Y-106359540D01*
X139167907Y-105454779D02*
X139834573Y-105454779D01*
X139834573Y-105454779D02*
X139406002Y-106454779D01*
X86347466Y-15604819D02*
X86347466Y-16319104D01*
X86347466Y-16319104D02*
X86299847Y-16461961D01*
X86299847Y-16461961D02*
X86204609Y-16557200D01*
X86204609Y-16557200D02*
X86061752Y-16604819D01*
X86061752Y-16604819D02*
X85966514Y-16604819D01*
X87252228Y-15604819D02*
X87061752Y-15604819D01*
X87061752Y-15604819D02*
X86966514Y-15652438D01*
X86966514Y-15652438D02*
X86918895Y-15700057D01*
X86918895Y-15700057D02*
X86823657Y-15842914D01*
X86823657Y-15842914D02*
X86776038Y-16033390D01*
X86776038Y-16033390D02*
X86776038Y-16414342D01*
X86776038Y-16414342D02*
X86823657Y-16509580D01*
X86823657Y-16509580D02*
X86871276Y-16557200D01*
X86871276Y-16557200D02*
X86966514Y-16604819D01*
X86966514Y-16604819D02*
X87156990Y-16604819D01*
X87156990Y-16604819D02*
X87252228Y-16557200D01*
X87252228Y-16557200D02*
X87299847Y-16509580D01*
X87299847Y-16509580D02*
X87347466Y-16414342D01*
X87347466Y-16414342D02*
X87347466Y-16176247D01*
X87347466Y-16176247D02*
X87299847Y-16081009D01*
X87299847Y-16081009D02*
X87252228Y-16033390D01*
X87252228Y-16033390D02*
X87156990Y-15985771D01*
X87156990Y-15985771D02*
X86966514Y-15985771D01*
X86966514Y-15985771D02*
X86871276Y-16033390D01*
X86871276Y-16033390D02*
X86823657Y-16081009D01*
X86823657Y-16081009D02*
X86776038Y-16176247D01*
X79709371Y-36264700D02*
X80852229Y-36264700D01*
X92009371Y-36264700D02*
X93152229Y-36264700D01*
X92580800Y-36836128D02*
X92580800Y-35693271D01*
X67519142Y-38915319D02*
X67185809Y-38439128D01*
X66947714Y-38915319D02*
X66947714Y-37915319D01*
X66947714Y-37915319D02*
X67328666Y-37915319D01*
X67328666Y-37915319D02*
X67423904Y-37962938D01*
X67423904Y-37962938D02*
X67471523Y-38010557D01*
X67471523Y-38010557D02*
X67519142Y-38105795D01*
X67519142Y-38105795D02*
X67519142Y-38248652D01*
X67519142Y-38248652D02*
X67471523Y-38343890D01*
X67471523Y-38343890D02*
X67423904Y-38391509D01*
X67423904Y-38391509D02*
X67328666Y-38439128D01*
X67328666Y-38439128D02*
X66947714Y-38439128D01*
X68471523Y-38915319D02*
X67900095Y-38915319D01*
X68185809Y-38915319D02*
X68185809Y-37915319D01*
X68185809Y-37915319D02*
X68090571Y-38058176D01*
X68090571Y-38058176D02*
X67995333Y-38153414D01*
X67995333Y-38153414D02*
X67900095Y-38201033D01*
X69328666Y-38248652D02*
X69328666Y-38915319D01*
X69090571Y-37867700D02*
X68852476Y-38581985D01*
X68852476Y-38581985D02*
X69471523Y-38581985D01*
X103319589Y-111383427D02*
X102986256Y-110907236D01*
X102748161Y-111383427D02*
X102748161Y-110383427D01*
X102748161Y-110383427D02*
X103129113Y-110383427D01*
X103129113Y-110383427D02*
X103224351Y-110431046D01*
X103224351Y-110431046D02*
X103271970Y-110478665D01*
X103271970Y-110478665D02*
X103319589Y-110573903D01*
X103319589Y-110573903D02*
X103319589Y-110716760D01*
X103319589Y-110716760D02*
X103271970Y-110811998D01*
X103271970Y-110811998D02*
X103224351Y-110859617D01*
X103224351Y-110859617D02*
X103129113Y-110907236D01*
X103129113Y-110907236D02*
X102748161Y-110907236D01*
X103652923Y-110383427D02*
X104271970Y-110383427D01*
X104271970Y-110383427D02*
X103938637Y-110764379D01*
X103938637Y-110764379D02*
X104081494Y-110764379D01*
X104081494Y-110764379D02*
X104176732Y-110811998D01*
X104176732Y-110811998D02*
X104224351Y-110859617D01*
X104224351Y-110859617D02*
X104271970Y-110954855D01*
X104271970Y-110954855D02*
X104271970Y-111192950D01*
X104271970Y-111192950D02*
X104224351Y-111288188D01*
X104224351Y-111288188D02*
X104176732Y-111335808D01*
X104176732Y-111335808D02*
X104081494Y-111383427D01*
X104081494Y-111383427D02*
X103795780Y-111383427D01*
X103795780Y-111383427D02*
X103700542Y-111335808D01*
X103700542Y-111335808D02*
X103652923Y-111288188D01*
X127575442Y-52915319D02*
X127242109Y-52439128D01*
X127004014Y-52915319D02*
X127004014Y-51915319D01*
X127004014Y-51915319D02*
X127384966Y-51915319D01*
X127384966Y-51915319D02*
X127480204Y-51962938D01*
X127480204Y-51962938D02*
X127527823Y-52010557D01*
X127527823Y-52010557D02*
X127575442Y-52105795D01*
X127575442Y-52105795D02*
X127575442Y-52248652D01*
X127575442Y-52248652D02*
X127527823Y-52343890D01*
X127527823Y-52343890D02*
X127480204Y-52391509D01*
X127480204Y-52391509D02*
X127384966Y-52439128D01*
X127384966Y-52439128D02*
X127004014Y-52439128D01*
X127908776Y-51915319D02*
X128527823Y-51915319D01*
X128527823Y-51915319D02*
X128194490Y-52296271D01*
X128194490Y-52296271D02*
X128337347Y-52296271D01*
X128337347Y-52296271D02*
X128432585Y-52343890D01*
X128432585Y-52343890D02*
X128480204Y-52391509D01*
X128480204Y-52391509D02*
X128527823Y-52486747D01*
X128527823Y-52486747D02*
X128527823Y-52724842D01*
X128527823Y-52724842D02*
X128480204Y-52820080D01*
X128480204Y-52820080D02*
X128432585Y-52867700D01*
X128432585Y-52867700D02*
X128337347Y-52915319D01*
X128337347Y-52915319D02*
X128051633Y-52915319D01*
X128051633Y-52915319D02*
X127956395Y-52867700D01*
X127956395Y-52867700D02*
X127908776Y-52820080D01*
X129384966Y-52248652D02*
X129384966Y-52915319D01*
X129146871Y-51867700D02*
X128908776Y-52581985D01*
X128908776Y-52581985D02*
X129527823Y-52581985D01*
X74966514Y-44915319D02*
X74966514Y-43915319D01*
X74966514Y-43915319D02*
X75204609Y-43915319D01*
X75204609Y-43915319D02*
X75347466Y-43962938D01*
X75347466Y-43962938D02*
X75442704Y-44058176D01*
X75442704Y-44058176D02*
X75490323Y-44153414D01*
X75490323Y-44153414D02*
X75537942Y-44343890D01*
X75537942Y-44343890D02*
X75537942Y-44486747D01*
X75537942Y-44486747D02*
X75490323Y-44677223D01*
X75490323Y-44677223D02*
X75442704Y-44772461D01*
X75442704Y-44772461D02*
X75347466Y-44867700D01*
X75347466Y-44867700D02*
X75204609Y-44915319D01*
X75204609Y-44915319D02*
X74966514Y-44915319D01*
X76490323Y-44915319D02*
X75918895Y-44915319D01*
X76204609Y-44915319D02*
X76204609Y-43915319D01*
X76204609Y-43915319D02*
X76109371Y-44058176D01*
X76109371Y-44058176D02*
X76014133Y-44153414D01*
X76014133Y-44153414D02*
X75918895Y-44201033D01*
X77347466Y-43915319D02*
X77156990Y-43915319D01*
X77156990Y-43915319D02*
X77061752Y-43962938D01*
X77061752Y-43962938D02*
X77014133Y-44010557D01*
X77014133Y-44010557D02*
X76918895Y-44153414D01*
X76918895Y-44153414D02*
X76871276Y-44343890D01*
X76871276Y-44343890D02*
X76871276Y-44724842D01*
X76871276Y-44724842D02*
X76918895Y-44820080D01*
X76918895Y-44820080D02*
X76966514Y-44867700D01*
X76966514Y-44867700D02*
X77061752Y-44915319D01*
X77061752Y-44915319D02*
X77252228Y-44915319D01*
X77252228Y-44915319D02*
X77347466Y-44867700D01*
X77347466Y-44867700D02*
X77395085Y-44820080D01*
X77395085Y-44820080D02*
X77442704Y-44724842D01*
X77442704Y-44724842D02*
X77442704Y-44486747D01*
X77442704Y-44486747D02*
X77395085Y-44391509D01*
X77395085Y-44391509D02*
X77347466Y-44343890D01*
X77347466Y-44343890D02*
X77252228Y-44296271D01*
X77252228Y-44296271D02*
X77061752Y-44296271D01*
X77061752Y-44296271D02*
X76966514Y-44343890D01*
X76966514Y-44343890D02*
X76918895Y-44391509D01*
X76918895Y-44391509D02*
X76871276Y-44486747D01*
X49519142Y-49915319D02*
X49185809Y-49439128D01*
X48947714Y-49915319D02*
X48947714Y-48915319D01*
X48947714Y-48915319D02*
X49328666Y-48915319D01*
X49328666Y-48915319D02*
X49423904Y-48962938D01*
X49423904Y-48962938D02*
X49471523Y-49010557D01*
X49471523Y-49010557D02*
X49519142Y-49105795D01*
X49519142Y-49105795D02*
X49519142Y-49248652D01*
X49519142Y-49248652D02*
X49471523Y-49343890D01*
X49471523Y-49343890D02*
X49423904Y-49391509D01*
X49423904Y-49391509D02*
X49328666Y-49439128D01*
X49328666Y-49439128D02*
X48947714Y-49439128D01*
X50471523Y-49915319D02*
X49900095Y-49915319D01*
X50185809Y-49915319D02*
X50185809Y-48915319D01*
X50185809Y-48915319D02*
X50090571Y-49058176D01*
X50090571Y-49058176D02*
X49995333Y-49153414D01*
X49995333Y-49153414D02*
X49900095Y-49201033D01*
X50804857Y-48915319D02*
X51471523Y-48915319D01*
X51471523Y-48915319D02*
X51042952Y-49915319D01*
X76780933Y-122592080D02*
X76733314Y-122639700D01*
X76733314Y-122639700D02*
X76590457Y-122687319D01*
X76590457Y-122687319D02*
X76495219Y-122687319D01*
X76495219Y-122687319D02*
X76352362Y-122639700D01*
X76352362Y-122639700D02*
X76257124Y-122544461D01*
X76257124Y-122544461D02*
X76209505Y-122449223D01*
X76209505Y-122449223D02*
X76161886Y-122258747D01*
X76161886Y-122258747D02*
X76161886Y-122115890D01*
X76161886Y-122115890D02*
X76209505Y-121925414D01*
X76209505Y-121925414D02*
X76257124Y-121830176D01*
X76257124Y-121830176D02*
X76352362Y-121734938D01*
X76352362Y-121734938D02*
X76495219Y-121687319D01*
X76495219Y-121687319D02*
X76590457Y-121687319D01*
X76590457Y-121687319D02*
X76733314Y-121734938D01*
X76733314Y-121734938D02*
X76780933Y-121782557D01*
X77733314Y-122687319D02*
X77161886Y-122687319D01*
X77447600Y-122687319D02*
X77447600Y-121687319D01*
X77447600Y-121687319D02*
X77352362Y-121830176D01*
X77352362Y-121830176D02*
X77257124Y-121925414D01*
X77257124Y-121925414D02*
X77161886Y-121973033D01*
X75537942Y-52915319D02*
X75204609Y-52439128D01*
X74966514Y-52915319D02*
X74966514Y-51915319D01*
X74966514Y-51915319D02*
X75347466Y-51915319D01*
X75347466Y-51915319D02*
X75442704Y-51962938D01*
X75442704Y-51962938D02*
X75490323Y-52010557D01*
X75490323Y-52010557D02*
X75537942Y-52105795D01*
X75537942Y-52105795D02*
X75537942Y-52248652D01*
X75537942Y-52248652D02*
X75490323Y-52343890D01*
X75490323Y-52343890D02*
X75442704Y-52391509D01*
X75442704Y-52391509D02*
X75347466Y-52439128D01*
X75347466Y-52439128D02*
X74966514Y-52439128D01*
X75918895Y-52010557D02*
X75966514Y-51962938D01*
X75966514Y-51962938D02*
X76061752Y-51915319D01*
X76061752Y-51915319D02*
X76299847Y-51915319D01*
X76299847Y-51915319D02*
X76395085Y-51962938D01*
X76395085Y-51962938D02*
X76442704Y-52010557D01*
X76442704Y-52010557D02*
X76490323Y-52105795D01*
X76490323Y-52105795D02*
X76490323Y-52201033D01*
X76490323Y-52201033D02*
X76442704Y-52343890D01*
X76442704Y-52343890D02*
X75871276Y-52915319D01*
X75871276Y-52915319D02*
X76490323Y-52915319D01*
X76871276Y-52010557D02*
X76918895Y-51962938D01*
X76918895Y-51962938D02*
X77014133Y-51915319D01*
X77014133Y-51915319D02*
X77252228Y-51915319D01*
X77252228Y-51915319D02*
X77347466Y-51962938D01*
X77347466Y-51962938D02*
X77395085Y-52010557D01*
X77395085Y-52010557D02*
X77442704Y-52105795D01*
X77442704Y-52105795D02*
X77442704Y-52201033D01*
X77442704Y-52201033D02*
X77395085Y-52343890D01*
X77395085Y-52343890D02*
X76823657Y-52915319D01*
X76823657Y-52915319D02*
X77442704Y-52915319D01*
X59825892Y-106454779D02*
X59492559Y-105978588D01*
X59254464Y-106454779D02*
X59254464Y-105454779D01*
X59254464Y-105454779D02*
X59635416Y-105454779D01*
X59635416Y-105454779D02*
X59730654Y-105502398D01*
X59730654Y-105502398D02*
X59778273Y-105550017D01*
X59778273Y-105550017D02*
X59825892Y-105645255D01*
X59825892Y-105645255D02*
X59825892Y-105788112D01*
X59825892Y-105788112D02*
X59778273Y-105883350D01*
X59778273Y-105883350D02*
X59730654Y-105930969D01*
X59730654Y-105930969D02*
X59635416Y-105978588D01*
X59635416Y-105978588D02*
X59254464Y-105978588D01*
X60778273Y-106454779D02*
X60206845Y-106454779D01*
X60492559Y-106454779D02*
X60492559Y-105454779D01*
X60492559Y-105454779D02*
X60397321Y-105597636D01*
X60397321Y-105597636D02*
X60302083Y-105692874D01*
X60302083Y-105692874D02*
X60206845Y-105740493D01*
X61254464Y-106454779D02*
X61444940Y-106454779D01*
X61444940Y-106454779D02*
X61540178Y-106407160D01*
X61540178Y-106407160D02*
X61587797Y-106359540D01*
X61587797Y-106359540D02*
X61683035Y-106216683D01*
X61683035Y-106216683D02*
X61730654Y-106026207D01*
X61730654Y-106026207D02*
X61730654Y-105645255D01*
X61730654Y-105645255D02*
X61683035Y-105550017D01*
X61683035Y-105550017D02*
X61635416Y-105502398D01*
X61635416Y-105502398D02*
X61540178Y-105454779D01*
X61540178Y-105454779D02*
X61349702Y-105454779D01*
X61349702Y-105454779D02*
X61254464Y-105502398D01*
X61254464Y-105502398D02*
X61206845Y-105550017D01*
X61206845Y-105550017D02*
X61159226Y-105645255D01*
X61159226Y-105645255D02*
X61159226Y-105883350D01*
X61159226Y-105883350D02*
X61206845Y-105978588D01*
X61206845Y-105978588D02*
X61254464Y-106026207D01*
X61254464Y-106026207D02*
X61349702Y-106073826D01*
X61349702Y-106073826D02*
X61540178Y-106073826D01*
X61540178Y-106073826D02*
X61635416Y-106026207D01*
X61635416Y-106026207D02*
X61683035Y-105978588D01*
X61683035Y-105978588D02*
X61730654Y-105883350D01*
X136363862Y-120697719D02*
X136363862Y-121507242D01*
X136363862Y-121507242D02*
X136411481Y-121602480D01*
X136411481Y-121602480D02*
X136459100Y-121650100D01*
X136459100Y-121650100D02*
X136554338Y-121697719D01*
X136554338Y-121697719D02*
X136744814Y-121697719D01*
X136744814Y-121697719D02*
X136840052Y-121650100D01*
X136840052Y-121650100D02*
X136887671Y-121602480D01*
X136887671Y-121602480D02*
X136935290Y-121507242D01*
X136935290Y-121507242D02*
X136935290Y-120697719D01*
X137363862Y-121412004D02*
X137840052Y-121412004D01*
X137268624Y-121697719D02*
X137601957Y-120697719D01*
X137601957Y-120697719D02*
X137935290Y-121697719D01*
X138840052Y-121697719D02*
X138506719Y-121221528D01*
X138268624Y-121697719D02*
X138268624Y-120697719D01*
X138268624Y-120697719D02*
X138649576Y-120697719D01*
X138649576Y-120697719D02*
X138744814Y-120745338D01*
X138744814Y-120745338D02*
X138792433Y-120792957D01*
X138792433Y-120792957D02*
X138840052Y-120888195D01*
X138840052Y-120888195D02*
X138840052Y-121031052D01*
X138840052Y-121031052D02*
X138792433Y-121126290D01*
X138792433Y-121126290D02*
X138744814Y-121173909D01*
X138744814Y-121173909D02*
X138649576Y-121221528D01*
X138649576Y-121221528D02*
X138268624Y-121221528D01*
X139125767Y-120697719D02*
X139697195Y-120697719D01*
X139411481Y-121697719D02*
X139411481Y-120697719D01*
X111863392Y-106454779D02*
X111530059Y-105978588D01*
X111291964Y-106454779D02*
X111291964Y-105454779D01*
X111291964Y-105454779D02*
X111672916Y-105454779D01*
X111672916Y-105454779D02*
X111768154Y-105502398D01*
X111768154Y-105502398D02*
X111815773Y-105550017D01*
X111815773Y-105550017D02*
X111863392Y-105645255D01*
X111863392Y-105645255D02*
X111863392Y-105788112D01*
X111863392Y-105788112D02*
X111815773Y-105883350D01*
X111815773Y-105883350D02*
X111768154Y-105930969D01*
X111768154Y-105930969D02*
X111672916Y-105978588D01*
X111672916Y-105978588D02*
X111291964Y-105978588D01*
X112196726Y-105454779D02*
X112815773Y-105454779D01*
X112815773Y-105454779D02*
X112482440Y-105835731D01*
X112482440Y-105835731D02*
X112625297Y-105835731D01*
X112625297Y-105835731D02*
X112720535Y-105883350D01*
X112720535Y-105883350D02*
X112768154Y-105930969D01*
X112768154Y-105930969D02*
X112815773Y-106026207D01*
X112815773Y-106026207D02*
X112815773Y-106264302D01*
X112815773Y-106264302D02*
X112768154Y-106359540D01*
X112768154Y-106359540D02*
X112720535Y-106407160D01*
X112720535Y-106407160D02*
X112625297Y-106454779D01*
X112625297Y-106454779D02*
X112339583Y-106454779D01*
X112339583Y-106454779D02*
X112244345Y-106407160D01*
X112244345Y-106407160D02*
X112196726Y-106359540D01*
X113768154Y-106454779D02*
X113196726Y-106454779D01*
X113482440Y-106454779D02*
X113482440Y-105454779D01*
X113482440Y-105454779D02*
X113387202Y-105597636D01*
X113387202Y-105597636D02*
X113291964Y-105692874D01*
X113291964Y-105692874D02*
X113196726Y-105740493D01*
X127575442Y-49915319D02*
X127242109Y-49439128D01*
X127004014Y-49915319D02*
X127004014Y-48915319D01*
X127004014Y-48915319D02*
X127384966Y-48915319D01*
X127384966Y-48915319D02*
X127480204Y-48962938D01*
X127480204Y-48962938D02*
X127527823Y-49010557D01*
X127527823Y-49010557D02*
X127575442Y-49105795D01*
X127575442Y-49105795D02*
X127575442Y-49248652D01*
X127575442Y-49248652D02*
X127527823Y-49343890D01*
X127527823Y-49343890D02*
X127480204Y-49391509D01*
X127480204Y-49391509D02*
X127384966Y-49439128D01*
X127384966Y-49439128D02*
X127004014Y-49439128D01*
X127908776Y-48915319D02*
X128527823Y-48915319D01*
X128527823Y-48915319D02*
X128194490Y-49296271D01*
X128194490Y-49296271D02*
X128337347Y-49296271D01*
X128337347Y-49296271D02*
X128432585Y-49343890D01*
X128432585Y-49343890D02*
X128480204Y-49391509D01*
X128480204Y-49391509D02*
X128527823Y-49486747D01*
X128527823Y-49486747D02*
X128527823Y-49724842D01*
X128527823Y-49724842D02*
X128480204Y-49820080D01*
X128480204Y-49820080D02*
X128432585Y-49867700D01*
X128432585Y-49867700D02*
X128337347Y-49915319D01*
X128337347Y-49915319D02*
X128051633Y-49915319D01*
X128051633Y-49915319D02*
X127956395Y-49867700D01*
X127956395Y-49867700D02*
X127908776Y-49820080D01*
X129432585Y-48915319D02*
X128956395Y-48915319D01*
X128956395Y-48915319D02*
X128908776Y-49391509D01*
X128908776Y-49391509D02*
X128956395Y-49343890D01*
X128956395Y-49343890D02*
X129051633Y-49296271D01*
X129051633Y-49296271D02*
X129289728Y-49296271D01*
X129289728Y-49296271D02*
X129384966Y-49343890D01*
X129384966Y-49343890D02*
X129432585Y-49391509D01*
X129432585Y-49391509D02*
X129480204Y-49486747D01*
X129480204Y-49486747D02*
X129480204Y-49724842D01*
X129480204Y-49724842D02*
X129432585Y-49820080D01*
X129432585Y-49820080D02*
X129384966Y-49867700D01*
X129384966Y-49867700D02*
X129289728Y-49915319D01*
X129289728Y-49915319D02*
X129051633Y-49915319D01*
X129051633Y-49915319D02*
X128956395Y-49867700D01*
X128956395Y-49867700D02*
X128908776Y-49820080D01*
X66395933Y-120592080D02*
X66348314Y-120639700D01*
X66348314Y-120639700D02*
X66205457Y-120687319D01*
X66205457Y-120687319D02*
X66110219Y-120687319D01*
X66110219Y-120687319D02*
X65967362Y-120639700D01*
X65967362Y-120639700D02*
X65872124Y-120544461D01*
X65872124Y-120544461D02*
X65824505Y-120449223D01*
X65824505Y-120449223D02*
X65776886Y-120258747D01*
X65776886Y-120258747D02*
X65776886Y-120115890D01*
X65776886Y-120115890D02*
X65824505Y-119925414D01*
X65824505Y-119925414D02*
X65872124Y-119830176D01*
X65872124Y-119830176D02*
X65967362Y-119734938D01*
X65967362Y-119734938D02*
X66110219Y-119687319D01*
X66110219Y-119687319D02*
X66205457Y-119687319D01*
X66205457Y-119687319D02*
X66348314Y-119734938D01*
X66348314Y-119734938D02*
X66395933Y-119782557D01*
X67253076Y-120020652D02*
X67253076Y-120687319D01*
X67014981Y-119639700D02*
X66776886Y-120353985D01*
X66776886Y-120353985D02*
X67395933Y-120353985D01*
X41159542Y-123022080D02*
X41111923Y-123069700D01*
X41111923Y-123069700D02*
X40969066Y-123117319D01*
X40969066Y-123117319D02*
X40873828Y-123117319D01*
X40873828Y-123117319D02*
X40730971Y-123069700D01*
X40730971Y-123069700D02*
X40635733Y-122974461D01*
X40635733Y-122974461D02*
X40588114Y-122879223D01*
X40588114Y-122879223D02*
X40540495Y-122688747D01*
X40540495Y-122688747D02*
X40540495Y-122545890D01*
X40540495Y-122545890D02*
X40588114Y-122355414D01*
X40588114Y-122355414D02*
X40635733Y-122260176D01*
X40635733Y-122260176D02*
X40730971Y-122164938D01*
X40730971Y-122164938D02*
X40873828Y-122117319D01*
X40873828Y-122117319D02*
X40969066Y-122117319D01*
X40969066Y-122117319D02*
X41111923Y-122164938D01*
X41111923Y-122164938D02*
X41159542Y-122212557D01*
X42111923Y-123117319D02*
X41540495Y-123117319D01*
X41826209Y-123117319D02*
X41826209Y-122117319D01*
X41826209Y-122117319D02*
X41730971Y-122260176D01*
X41730971Y-122260176D02*
X41635733Y-122355414D01*
X41635733Y-122355414D02*
X41540495Y-122403033D01*
X42492876Y-122212557D02*
X42540495Y-122164938D01*
X42540495Y-122164938D02*
X42635733Y-122117319D01*
X42635733Y-122117319D02*
X42873828Y-122117319D01*
X42873828Y-122117319D02*
X42969066Y-122164938D01*
X42969066Y-122164938D02*
X43016685Y-122212557D01*
X43016685Y-122212557D02*
X43064304Y-122307795D01*
X43064304Y-122307795D02*
X43064304Y-122403033D01*
X43064304Y-122403033D02*
X43016685Y-122545890D01*
X43016685Y-122545890D02*
X42445257Y-123117319D01*
X42445257Y-123117319D02*
X43064304Y-123117319D01*
X101556642Y-52915319D02*
X101223309Y-52439128D01*
X100985214Y-52915319D02*
X100985214Y-51915319D01*
X100985214Y-51915319D02*
X101366166Y-51915319D01*
X101366166Y-51915319D02*
X101461404Y-51962938D01*
X101461404Y-51962938D02*
X101509023Y-52010557D01*
X101509023Y-52010557D02*
X101556642Y-52105795D01*
X101556642Y-52105795D02*
X101556642Y-52248652D01*
X101556642Y-52248652D02*
X101509023Y-52343890D01*
X101509023Y-52343890D02*
X101461404Y-52391509D01*
X101461404Y-52391509D02*
X101366166Y-52439128D01*
X101366166Y-52439128D02*
X100985214Y-52439128D01*
X101937595Y-52010557D02*
X101985214Y-51962938D01*
X101985214Y-51962938D02*
X102080452Y-51915319D01*
X102080452Y-51915319D02*
X102318547Y-51915319D01*
X102318547Y-51915319D02*
X102413785Y-51962938D01*
X102413785Y-51962938D02*
X102461404Y-52010557D01*
X102461404Y-52010557D02*
X102509023Y-52105795D01*
X102509023Y-52105795D02*
X102509023Y-52201033D01*
X102509023Y-52201033D02*
X102461404Y-52343890D01*
X102461404Y-52343890D02*
X101889976Y-52915319D01*
X101889976Y-52915319D02*
X102509023Y-52915319D01*
X103080452Y-52343890D02*
X102985214Y-52296271D01*
X102985214Y-52296271D02*
X102937595Y-52248652D01*
X102937595Y-52248652D02*
X102889976Y-52153414D01*
X102889976Y-52153414D02*
X102889976Y-52105795D01*
X102889976Y-52105795D02*
X102937595Y-52010557D01*
X102937595Y-52010557D02*
X102985214Y-51962938D01*
X102985214Y-51962938D02*
X103080452Y-51915319D01*
X103080452Y-51915319D02*
X103270928Y-51915319D01*
X103270928Y-51915319D02*
X103366166Y-51962938D01*
X103366166Y-51962938D02*
X103413785Y-52010557D01*
X103413785Y-52010557D02*
X103461404Y-52105795D01*
X103461404Y-52105795D02*
X103461404Y-52153414D01*
X103461404Y-52153414D02*
X103413785Y-52248652D01*
X103413785Y-52248652D02*
X103366166Y-52296271D01*
X103366166Y-52296271D02*
X103270928Y-52343890D01*
X103270928Y-52343890D02*
X103080452Y-52343890D01*
X103080452Y-52343890D02*
X102985214Y-52391509D01*
X102985214Y-52391509D02*
X102937595Y-52439128D01*
X102937595Y-52439128D02*
X102889976Y-52534366D01*
X102889976Y-52534366D02*
X102889976Y-52724842D01*
X102889976Y-52724842D02*
X102937595Y-52820080D01*
X102937595Y-52820080D02*
X102985214Y-52867700D01*
X102985214Y-52867700D02*
X103080452Y-52915319D01*
X103080452Y-52915319D02*
X103270928Y-52915319D01*
X103270928Y-52915319D02*
X103366166Y-52867700D01*
X103366166Y-52867700D02*
X103413785Y-52820080D01*
X103413785Y-52820080D02*
X103461404Y-52724842D01*
X103461404Y-52724842D02*
X103461404Y-52534366D01*
X103461404Y-52534366D02*
X103413785Y-52439128D01*
X103413785Y-52439128D02*
X103366166Y-52391509D01*
X103366166Y-52391509D02*
X103270928Y-52343890D01*
X25857192Y-106454779D02*
X25523859Y-105978588D01*
X25285764Y-106454779D02*
X25285764Y-105454779D01*
X25285764Y-105454779D02*
X25666716Y-105454779D01*
X25666716Y-105454779D02*
X25761954Y-105502398D01*
X25761954Y-105502398D02*
X25809573Y-105550017D01*
X25809573Y-105550017D02*
X25857192Y-105645255D01*
X25857192Y-105645255D02*
X25857192Y-105788112D01*
X25857192Y-105788112D02*
X25809573Y-105883350D01*
X25809573Y-105883350D02*
X25761954Y-105930969D01*
X25761954Y-105930969D02*
X25666716Y-105978588D01*
X25666716Y-105978588D02*
X25285764Y-105978588D01*
X26809573Y-106454779D02*
X26238145Y-106454779D01*
X26523859Y-106454779D02*
X26523859Y-105454779D01*
X26523859Y-105454779D02*
X26428621Y-105597636D01*
X26428621Y-105597636D02*
X26333383Y-105692874D01*
X26333383Y-105692874D02*
X26238145Y-105740493D01*
X27190526Y-105550017D02*
X27238145Y-105502398D01*
X27238145Y-105502398D02*
X27333383Y-105454779D01*
X27333383Y-105454779D02*
X27571478Y-105454779D01*
X27571478Y-105454779D02*
X27666716Y-105502398D01*
X27666716Y-105502398D02*
X27714335Y-105550017D01*
X27714335Y-105550017D02*
X27761954Y-105645255D01*
X27761954Y-105645255D02*
X27761954Y-105740493D01*
X27761954Y-105740493D02*
X27714335Y-105883350D01*
X27714335Y-105883350D02*
X27142907Y-106454779D01*
X27142907Y-106454779D02*
X27761954Y-106454779D01*
X43635733Y-111582080D02*
X43588114Y-111629700D01*
X43588114Y-111629700D02*
X43445257Y-111677319D01*
X43445257Y-111677319D02*
X43350019Y-111677319D01*
X43350019Y-111677319D02*
X43207162Y-111629700D01*
X43207162Y-111629700D02*
X43111924Y-111534461D01*
X43111924Y-111534461D02*
X43064305Y-111439223D01*
X43064305Y-111439223D02*
X43016686Y-111248747D01*
X43016686Y-111248747D02*
X43016686Y-111105890D01*
X43016686Y-111105890D02*
X43064305Y-110915414D01*
X43064305Y-110915414D02*
X43111924Y-110820176D01*
X43111924Y-110820176D02*
X43207162Y-110724938D01*
X43207162Y-110724938D02*
X43350019Y-110677319D01*
X43350019Y-110677319D02*
X43445257Y-110677319D01*
X43445257Y-110677319D02*
X43588114Y-110724938D01*
X43588114Y-110724938D02*
X43635733Y-110772557D01*
X43969067Y-110677319D02*
X44635733Y-110677319D01*
X44635733Y-110677319D02*
X44207162Y-111677319D01*
X26089066Y-111623509D02*
X25755733Y-111623509D01*
X25755733Y-112147319D02*
X25755733Y-111147319D01*
X25755733Y-111147319D02*
X26231923Y-111147319D01*
X26946209Y-111623509D02*
X27089066Y-111671128D01*
X27089066Y-111671128D02*
X27136685Y-111718747D01*
X27136685Y-111718747D02*
X27184304Y-111813985D01*
X27184304Y-111813985D02*
X27184304Y-111956842D01*
X27184304Y-111956842D02*
X27136685Y-112052080D01*
X27136685Y-112052080D02*
X27089066Y-112099700D01*
X27089066Y-112099700D02*
X26993828Y-112147319D01*
X26993828Y-112147319D02*
X26612876Y-112147319D01*
X26612876Y-112147319D02*
X26612876Y-111147319D01*
X26612876Y-111147319D02*
X26946209Y-111147319D01*
X26946209Y-111147319D02*
X27041447Y-111194938D01*
X27041447Y-111194938D02*
X27089066Y-111242557D01*
X27089066Y-111242557D02*
X27136685Y-111337795D01*
X27136685Y-111337795D02*
X27136685Y-111433033D01*
X27136685Y-111433033D02*
X27089066Y-111528271D01*
X27089066Y-111528271D02*
X27041447Y-111575890D01*
X27041447Y-111575890D02*
X26946209Y-111623509D01*
X26946209Y-111623509D02*
X26612876Y-111623509D01*
X28136685Y-112147319D02*
X27565257Y-112147319D01*
X27850971Y-112147319D02*
X27850971Y-111147319D01*
X27850971Y-111147319D02*
X27755733Y-111290176D01*
X27755733Y-111290176D02*
X27660495Y-111385414D01*
X27660495Y-111385414D02*
X27565257Y-111433033D01*
X49923905Y-39915319D02*
X49923905Y-38915319D01*
X49923905Y-38915319D02*
X50162000Y-38915319D01*
X50162000Y-38915319D02*
X50304857Y-38962938D01*
X50304857Y-38962938D02*
X50400095Y-39058176D01*
X50400095Y-39058176D02*
X50447714Y-39153414D01*
X50447714Y-39153414D02*
X50495333Y-39343890D01*
X50495333Y-39343890D02*
X50495333Y-39486747D01*
X50495333Y-39486747D02*
X50447714Y-39677223D01*
X50447714Y-39677223D02*
X50400095Y-39772461D01*
X50400095Y-39772461D02*
X50304857Y-39867700D01*
X50304857Y-39867700D02*
X50162000Y-39915319D01*
X50162000Y-39915319D02*
X49923905Y-39915319D01*
X51352476Y-39248652D02*
X51352476Y-39915319D01*
X51114381Y-38867700D02*
X50876286Y-39581985D01*
X50876286Y-39581985D02*
X51495333Y-39581985D01*
X93537942Y-44320080D02*
X93490323Y-44367700D01*
X93490323Y-44367700D02*
X93347466Y-44415319D01*
X93347466Y-44415319D02*
X93252228Y-44415319D01*
X93252228Y-44415319D02*
X93109371Y-44367700D01*
X93109371Y-44367700D02*
X93014133Y-44272461D01*
X93014133Y-44272461D02*
X92966514Y-44177223D01*
X92966514Y-44177223D02*
X92918895Y-43986747D01*
X92918895Y-43986747D02*
X92918895Y-43843890D01*
X92918895Y-43843890D02*
X92966514Y-43653414D01*
X92966514Y-43653414D02*
X93014133Y-43558176D01*
X93014133Y-43558176D02*
X93109371Y-43462938D01*
X93109371Y-43462938D02*
X93252228Y-43415319D01*
X93252228Y-43415319D02*
X93347466Y-43415319D01*
X93347466Y-43415319D02*
X93490323Y-43462938D01*
X93490323Y-43462938D02*
X93537942Y-43510557D01*
X93918895Y-43510557D02*
X93966514Y-43462938D01*
X93966514Y-43462938D02*
X94061752Y-43415319D01*
X94061752Y-43415319D02*
X94299847Y-43415319D01*
X94299847Y-43415319D02*
X94395085Y-43462938D01*
X94395085Y-43462938D02*
X94442704Y-43510557D01*
X94442704Y-43510557D02*
X94490323Y-43605795D01*
X94490323Y-43605795D02*
X94490323Y-43701033D01*
X94490323Y-43701033D02*
X94442704Y-43843890D01*
X94442704Y-43843890D02*
X93871276Y-44415319D01*
X93871276Y-44415319D02*
X94490323Y-44415319D01*
X95109371Y-43415319D02*
X95204609Y-43415319D01*
X95204609Y-43415319D02*
X95299847Y-43462938D01*
X95299847Y-43462938D02*
X95347466Y-43510557D01*
X95347466Y-43510557D02*
X95395085Y-43605795D01*
X95395085Y-43605795D02*
X95442704Y-43796271D01*
X95442704Y-43796271D02*
X95442704Y-44034366D01*
X95442704Y-44034366D02*
X95395085Y-44224842D01*
X95395085Y-44224842D02*
X95347466Y-44320080D01*
X95347466Y-44320080D02*
X95299847Y-44367700D01*
X95299847Y-44367700D02*
X95204609Y-44415319D01*
X95204609Y-44415319D02*
X95109371Y-44415319D01*
X95109371Y-44415319D02*
X95014133Y-44367700D01*
X95014133Y-44367700D02*
X94966514Y-44320080D01*
X94966514Y-44320080D02*
X94918895Y-44224842D01*
X94918895Y-44224842D02*
X94871276Y-44034366D01*
X94871276Y-44034366D02*
X94871276Y-43796271D01*
X94871276Y-43796271D02*
X94918895Y-43605795D01*
X94918895Y-43605795D02*
X94966514Y-43510557D01*
X94966514Y-43510557D02*
X95014133Y-43462938D01*
X95014133Y-43462938D02*
X95109371Y-43415319D01*
X41976633Y-41915319D02*
X41643300Y-41439128D01*
X41405205Y-41915319D02*
X41405205Y-40915319D01*
X41405205Y-40915319D02*
X41786157Y-40915319D01*
X41786157Y-40915319D02*
X41881395Y-40962938D01*
X41881395Y-40962938D02*
X41929014Y-41010557D01*
X41929014Y-41010557D02*
X41976633Y-41105795D01*
X41976633Y-41105795D02*
X41976633Y-41248652D01*
X41976633Y-41248652D02*
X41929014Y-41343890D01*
X41929014Y-41343890D02*
X41881395Y-41391509D01*
X41881395Y-41391509D02*
X41786157Y-41439128D01*
X41786157Y-41439128D02*
X41405205Y-41439128D01*
X42452824Y-41915319D02*
X42643300Y-41915319D01*
X42643300Y-41915319D02*
X42738538Y-41867700D01*
X42738538Y-41867700D02*
X42786157Y-41820080D01*
X42786157Y-41820080D02*
X42881395Y-41677223D01*
X42881395Y-41677223D02*
X42929014Y-41486747D01*
X42929014Y-41486747D02*
X42929014Y-41105795D01*
X42929014Y-41105795D02*
X42881395Y-41010557D01*
X42881395Y-41010557D02*
X42833776Y-40962938D01*
X42833776Y-40962938D02*
X42738538Y-40915319D01*
X42738538Y-40915319D02*
X42548062Y-40915319D01*
X42548062Y-40915319D02*
X42452824Y-40962938D01*
X42452824Y-40962938D02*
X42405205Y-41010557D01*
X42405205Y-41010557D02*
X42357586Y-41105795D01*
X42357586Y-41105795D02*
X42357586Y-41343890D01*
X42357586Y-41343890D02*
X42405205Y-41439128D01*
X42405205Y-41439128D02*
X42452824Y-41486747D01*
X42452824Y-41486747D02*
X42548062Y-41534366D01*
X42548062Y-41534366D02*
X42738538Y-41534366D01*
X42738538Y-41534366D02*
X42833776Y-41486747D01*
X42833776Y-41486747D02*
X42881395Y-41439128D01*
X42881395Y-41439128D02*
X42929014Y-41343890D01*
X119556642Y-38915319D02*
X119223309Y-38439128D01*
X118985214Y-38915319D02*
X118985214Y-37915319D01*
X118985214Y-37915319D02*
X119366166Y-37915319D01*
X119366166Y-37915319D02*
X119461404Y-37962938D01*
X119461404Y-37962938D02*
X119509023Y-38010557D01*
X119509023Y-38010557D02*
X119556642Y-38105795D01*
X119556642Y-38105795D02*
X119556642Y-38248652D01*
X119556642Y-38248652D02*
X119509023Y-38343890D01*
X119509023Y-38343890D02*
X119461404Y-38391509D01*
X119461404Y-38391509D02*
X119366166Y-38439128D01*
X119366166Y-38439128D02*
X118985214Y-38439128D01*
X119937595Y-38010557D02*
X119985214Y-37962938D01*
X119985214Y-37962938D02*
X120080452Y-37915319D01*
X120080452Y-37915319D02*
X120318547Y-37915319D01*
X120318547Y-37915319D02*
X120413785Y-37962938D01*
X120413785Y-37962938D02*
X120461404Y-38010557D01*
X120461404Y-38010557D02*
X120509023Y-38105795D01*
X120509023Y-38105795D02*
X120509023Y-38201033D01*
X120509023Y-38201033D02*
X120461404Y-38343890D01*
X120461404Y-38343890D02*
X119889976Y-38915319D01*
X119889976Y-38915319D02*
X120509023Y-38915319D01*
X121366166Y-37915319D02*
X121175690Y-37915319D01*
X121175690Y-37915319D02*
X121080452Y-37962938D01*
X121080452Y-37962938D02*
X121032833Y-38010557D01*
X121032833Y-38010557D02*
X120937595Y-38153414D01*
X120937595Y-38153414D02*
X120889976Y-38343890D01*
X120889976Y-38343890D02*
X120889976Y-38724842D01*
X120889976Y-38724842D02*
X120937595Y-38820080D01*
X120937595Y-38820080D02*
X120985214Y-38867700D01*
X120985214Y-38867700D02*
X121080452Y-38915319D01*
X121080452Y-38915319D02*
X121270928Y-38915319D01*
X121270928Y-38915319D02*
X121366166Y-38867700D01*
X121366166Y-38867700D02*
X121413785Y-38820080D01*
X121413785Y-38820080D02*
X121461404Y-38724842D01*
X121461404Y-38724842D02*
X121461404Y-38486747D01*
X121461404Y-38486747D02*
X121413785Y-38391509D01*
X121413785Y-38391509D02*
X121366166Y-38343890D01*
X121366166Y-38343890D02*
X121270928Y-38296271D01*
X121270928Y-38296271D02*
X121080452Y-38296271D01*
X121080452Y-38296271D02*
X120985214Y-38343890D01*
X120985214Y-38343890D02*
X120937595Y-38391509D01*
X120937595Y-38391509D02*
X120889976Y-38486747D01*
X64280933Y-118706280D02*
X64233314Y-118753900D01*
X64233314Y-118753900D02*
X64090457Y-118801519D01*
X64090457Y-118801519D02*
X63995219Y-118801519D01*
X63995219Y-118801519D02*
X63852362Y-118753900D01*
X63852362Y-118753900D02*
X63757124Y-118658661D01*
X63757124Y-118658661D02*
X63709505Y-118563423D01*
X63709505Y-118563423D02*
X63661886Y-118372947D01*
X63661886Y-118372947D02*
X63661886Y-118230090D01*
X63661886Y-118230090D02*
X63709505Y-118039614D01*
X63709505Y-118039614D02*
X63757124Y-117944376D01*
X63757124Y-117944376D02*
X63852362Y-117849138D01*
X63852362Y-117849138D02*
X63995219Y-117801519D01*
X63995219Y-117801519D02*
X64090457Y-117801519D01*
X64090457Y-117801519D02*
X64233314Y-117849138D01*
X64233314Y-117849138D02*
X64280933Y-117896757D01*
X65185695Y-117801519D02*
X64709505Y-117801519D01*
X64709505Y-117801519D02*
X64661886Y-118277709D01*
X64661886Y-118277709D02*
X64709505Y-118230090D01*
X64709505Y-118230090D02*
X64804743Y-118182471D01*
X64804743Y-118182471D02*
X65042838Y-118182471D01*
X65042838Y-118182471D02*
X65138076Y-118230090D01*
X65138076Y-118230090D02*
X65185695Y-118277709D01*
X65185695Y-118277709D02*
X65233314Y-118372947D01*
X65233314Y-118372947D02*
X65233314Y-118611042D01*
X65233314Y-118611042D02*
X65185695Y-118706280D01*
X65185695Y-118706280D02*
X65138076Y-118753900D01*
X65138076Y-118753900D02*
X65042838Y-118801519D01*
X65042838Y-118801519D02*
X64804743Y-118801519D01*
X64804743Y-118801519D02*
X64709505Y-118753900D01*
X64709505Y-118753900D02*
X64661886Y-118706280D01*
X66395933Y-118092080D02*
X66348314Y-118139700D01*
X66348314Y-118139700D02*
X66205457Y-118187319D01*
X66205457Y-118187319D02*
X66110219Y-118187319D01*
X66110219Y-118187319D02*
X65967362Y-118139700D01*
X65967362Y-118139700D02*
X65872124Y-118044461D01*
X65872124Y-118044461D02*
X65824505Y-117949223D01*
X65824505Y-117949223D02*
X65776886Y-117758747D01*
X65776886Y-117758747D02*
X65776886Y-117615890D01*
X65776886Y-117615890D02*
X65824505Y-117425414D01*
X65824505Y-117425414D02*
X65872124Y-117330176D01*
X65872124Y-117330176D02*
X65967362Y-117234938D01*
X65967362Y-117234938D02*
X66110219Y-117187319D01*
X66110219Y-117187319D02*
X66205457Y-117187319D01*
X66205457Y-117187319D02*
X66348314Y-117234938D01*
X66348314Y-117234938D02*
X66395933Y-117282557D01*
X66729267Y-117187319D02*
X67348314Y-117187319D01*
X67348314Y-117187319D02*
X67014981Y-117568271D01*
X67014981Y-117568271D02*
X67157838Y-117568271D01*
X67157838Y-117568271D02*
X67253076Y-117615890D01*
X67253076Y-117615890D02*
X67300695Y-117663509D01*
X67300695Y-117663509D02*
X67348314Y-117758747D01*
X67348314Y-117758747D02*
X67348314Y-117996842D01*
X67348314Y-117996842D02*
X67300695Y-118092080D01*
X67300695Y-118092080D02*
X67253076Y-118139700D01*
X67253076Y-118139700D02*
X67157838Y-118187319D01*
X67157838Y-118187319D02*
X66872124Y-118187319D01*
X66872124Y-118187319D02*
X66776886Y-118139700D01*
X66776886Y-118139700D02*
X66729267Y-118092080D01*
X100985214Y-44915319D02*
X100985214Y-43915319D01*
X100985214Y-43915319D02*
X101223309Y-43915319D01*
X101223309Y-43915319D02*
X101366166Y-43962938D01*
X101366166Y-43962938D02*
X101461404Y-44058176D01*
X101461404Y-44058176D02*
X101509023Y-44153414D01*
X101509023Y-44153414D02*
X101556642Y-44343890D01*
X101556642Y-44343890D02*
X101556642Y-44486747D01*
X101556642Y-44486747D02*
X101509023Y-44677223D01*
X101509023Y-44677223D02*
X101461404Y-44772461D01*
X101461404Y-44772461D02*
X101366166Y-44867700D01*
X101366166Y-44867700D02*
X101223309Y-44915319D01*
X101223309Y-44915319D02*
X100985214Y-44915319D01*
X102509023Y-44915319D02*
X101937595Y-44915319D01*
X102223309Y-44915319D02*
X102223309Y-43915319D01*
X102223309Y-43915319D02*
X102128071Y-44058176D01*
X102128071Y-44058176D02*
X102032833Y-44153414D01*
X102032833Y-44153414D02*
X101937595Y-44201033D01*
X102842357Y-43915319D02*
X103509023Y-43915319D01*
X103509023Y-43915319D02*
X103080452Y-44915319D01*
X145832192Y-106454779D02*
X145498859Y-105978588D01*
X145260764Y-106454779D02*
X145260764Y-105454779D01*
X145260764Y-105454779D02*
X145641716Y-105454779D01*
X145641716Y-105454779D02*
X145736954Y-105502398D01*
X145736954Y-105502398D02*
X145784573Y-105550017D01*
X145784573Y-105550017D02*
X145832192Y-105645255D01*
X145832192Y-105645255D02*
X145832192Y-105788112D01*
X145832192Y-105788112D02*
X145784573Y-105883350D01*
X145784573Y-105883350D02*
X145736954Y-105930969D01*
X145736954Y-105930969D02*
X145641716Y-105978588D01*
X145641716Y-105978588D02*
X145260764Y-105978588D01*
X146736954Y-105454779D02*
X146260764Y-105454779D01*
X146260764Y-105454779D02*
X146213145Y-105930969D01*
X146213145Y-105930969D02*
X146260764Y-105883350D01*
X146260764Y-105883350D02*
X146356002Y-105835731D01*
X146356002Y-105835731D02*
X146594097Y-105835731D01*
X146594097Y-105835731D02*
X146689335Y-105883350D01*
X146689335Y-105883350D02*
X146736954Y-105930969D01*
X146736954Y-105930969D02*
X146784573Y-106026207D01*
X146784573Y-106026207D02*
X146784573Y-106264302D01*
X146784573Y-106264302D02*
X146736954Y-106359540D01*
X146736954Y-106359540D02*
X146689335Y-106407160D01*
X146689335Y-106407160D02*
X146594097Y-106454779D01*
X146594097Y-106454779D02*
X146356002Y-106454779D01*
X146356002Y-106454779D02*
X146260764Y-106407160D01*
X146260764Y-106407160D02*
X146213145Y-106359540D01*
X147260764Y-106454779D02*
X147451240Y-106454779D01*
X147451240Y-106454779D02*
X147546478Y-106407160D01*
X147546478Y-106407160D02*
X147594097Y-106359540D01*
X147594097Y-106359540D02*
X147689335Y-106216683D01*
X147689335Y-106216683D02*
X147736954Y-106026207D01*
X147736954Y-106026207D02*
X147736954Y-105645255D01*
X147736954Y-105645255D02*
X147689335Y-105550017D01*
X147689335Y-105550017D02*
X147641716Y-105502398D01*
X147641716Y-105502398D02*
X147546478Y-105454779D01*
X147546478Y-105454779D02*
X147356002Y-105454779D01*
X147356002Y-105454779D02*
X147260764Y-105502398D01*
X147260764Y-105502398D02*
X147213145Y-105550017D01*
X147213145Y-105550017D02*
X147165526Y-105645255D01*
X147165526Y-105645255D02*
X147165526Y-105883350D01*
X147165526Y-105883350D02*
X147213145Y-105978588D01*
X147213145Y-105978588D02*
X147260764Y-106026207D01*
X147260764Y-106026207D02*
X147356002Y-106073826D01*
X147356002Y-106073826D02*
X147546478Y-106073826D01*
X147546478Y-106073826D02*
X147641716Y-106026207D01*
X147641716Y-106026207D02*
X147689335Y-105978588D01*
X147689335Y-105978588D02*
X147736954Y-105883350D01*
X103913392Y-106454779D02*
X103580059Y-105978588D01*
X103341964Y-106454779D02*
X103341964Y-105454779D01*
X103341964Y-105454779D02*
X103722916Y-105454779D01*
X103722916Y-105454779D02*
X103818154Y-105502398D01*
X103818154Y-105502398D02*
X103865773Y-105550017D01*
X103865773Y-105550017D02*
X103913392Y-105645255D01*
X103913392Y-105645255D02*
X103913392Y-105788112D01*
X103913392Y-105788112D02*
X103865773Y-105883350D01*
X103865773Y-105883350D02*
X103818154Y-105930969D01*
X103818154Y-105930969D02*
X103722916Y-105978588D01*
X103722916Y-105978588D02*
X103341964Y-105978588D01*
X104246726Y-105454779D02*
X104865773Y-105454779D01*
X104865773Y-105454779D02*
X104532440Y-105835731D01*
X104532440Y-105835731D02*
X104675297Y-105835731D01*
X104675297Y-105835731D02*
X104770535Y-105883350D01*
X104770535Y-105883350D02*
X104818154Y-105930969D01*
X104818154Y-105930969D02*
X104865773Y-106026207D01*
X104865773Y-106026207D02*
X104865773Y-106264302D01*
X104865773Y-106264302D02*
X104818154Y-106359540D01*
X104818154Y-106359540D02*
X104770535Y-106407160D01*
X104770535Y-106407160D02*
X104675297Y-106454779D01*
X104675297Y-106454779D02*
X104389583Y-106454779D01*
X104389583Y-106454779D02*
X104294345Y-106407160D01*
X104294345Y-106407160D02*
X104246726Y-106359540D01*
X105484821Y-105454779D02*
X105580059Y-105454779D01*
X105580059Y-105454779D02*
X105675297Y-105502398D01*
X105675297Y-105502398D02*
X105722916Y-105550017D01*
X105722916Y-105550017D02*
X105770535Y-105645255D01*
X105770535Y-105645255D02*
X105818154Y-105835731D01*
X105818154Y-105835731D02*
X105818154Y-106073826D01*
X105818154Y-106073826D02*
X105770535Y-106264302D01*
X105770535Y-106264302D02*
X105722916Y-106359540D01*
X105722916Y-106359540D02*
X105675297Y-106407160D01*
X105675297Y-106407160D02*
X105580059Y-106454779D01*
X105580059Y-106454779D02*
X105484821Y-106454779D01*
X105484821Y-106454779D02*
X105389583Y-106407160D01*
X105389583Y-106407160D02*
X105341964Y-106359540D01*
X105341964Y-106359540D02*
X105294345Y-106264302D01*
X105294345Y-106264302D02*
X105246726Y-106073826D01*
X105246726Y-106073826D02*
X105246726Y-105835731D01*
X105246726Y-105835731D02*
X105294345Y-105645255D01*
X105294345Y-105645255D02*
X105341964Y-105550017D01*
X105341964Y-105550017D02*
X105389583Y-105502398D01*
X105389583Y-105502398D02*
X105484821Y-105454779D01*
X41500442Y-44320080D02*
X41452823Y-44367700D01*
X41452823Y-44367700D02*
X41309966Y-44415319D01*
X41309966Y-44415319D02*
X41214728Y-44415319D01*
X41214728Y-44415319D02*
X41071871Y-44367700D01*
X41071871Y-44367700D02*
X40976633Y-44272461D01*
X40976633Y-44272461D02*
X40929014Y-44177223D01*
X40929014Y-44177223D02*
X40881395Y-43986747D01*
X40881395Y-43986747D02*
X40881395Y-43843890D01*
X40881395Y-43843890D02*
X40929014Y-43653414D01*
X40929014Y-43653414D02*
X40976633Y-43558176D01*
X40976633Y-43558176D02*
X41071871Y-43462938D01*
X41071871Y-43462938D02*
X41214728Y-43415319D01*
X41214728Y-43415319D02*
X41309966Y-43415319D01*
X41309966Y-43415319D02*
X41452823Y-43462938D01*
X41452823Y-43462938D02*
X41500442Y-43510557D01*
X42452823Y-44415319D02*
X41881395Y-44415319D01*
X42167109Y-44415319D02*
X42167109Y-43415319D01*
X42167109Y-43415319D02*
X42071871Y-43558176D01*
X42071871Y-43558176D02*
X41976633Y-43653414D01*
X41976633Y-43653414D02*
X41881395Y-43701033D01*
X43024252Y-43843890D02*
X42929014Y-43796271D01*
X42929014Y-43796271D02*
X42881395Y-43748652D01*
X42881395Y-43748652D02*
X42833776Y-43653414D01*
X42833776Y-43653414D02*
X42833776Y-43605795D01*
X42833776Y-43605795D02*
X42881395Y-43510557D01*
X42881395Y-43510557D02*
X42929014Y-43462938D01*
X42929014Y-43462938D02*
X43024252Y-43415319D01*
X43024252Y-43415319D02*
X43214728Y-43415319D01*
X43214728Y-43415319D02*
X43309966Y-43462938D01*
X43309966Y-43462938D02*
X43357585Y-43510557D01*
X43357585Y-43510557D02*
X43405204Y-43605795D01*
X43405204Y-43605795D02*
X43405204Y-43653414D01*
X43405204Y-43653414D02*
X43357585Y-43748652D01*
X43357585Y-43748652D02*
X43309966Y-43796271D01*
X43309966Y-43796271D02*
X43214728Y-43843890D01*
X43214728Y-43843890D02*
X43024252Y-43843890D01*
X43024252Y-43843890D02*
X42929014Y-43891509D01*
X42929014Y-43891509D02*
X42881395Y-43939128D01*
X42881395Y-43939128D02*
X42833776Y-44034366D01*
X42833776Y-44034366D02*
X42833776Y-44224842D01*
X42833776Y-44224842D02*
X42881395Y-44320080D01*
X42881395Y-44320080D02*
X42929014Y-44367700D01*
X42929014Y-44367700D02*
X43024252Y-44415319D01*
X43024252Y-44415319D02*
X43214728Y-44415319D01*
X43214728Y-44415319D02*
X43309966Y-44367700D01*
X43309966Y-44367700D02*
X43357585Y-44320080D01*
X43357585Y-44320080D02*
X43405204Y-44224842D01*
X43405204Y-44224842D02*
X43405204Y-44034366D01*
X43405204Y-44034366D02*
X43357585Y-43939128D01*
X43357585Y-43939128D02*
X43309966Y-43891509D01*
X43309966Y-43891509D02*
X43214728Y-43843890D01*
X93537942Y-41915319D02*
X93204609Y-41439128D01*
X92966514Y-41915319D02*
X92966514Y-40915319D01*
X92966514Y-40915319D02*
X93347466Y-40915319D01*
X93347466Y-40915319D02*
X93442704Y-40962938D01*
X93442704Y-40962938D02*
X93490323Y-41010557D01*
X93490323Y-41010557D02*
X93537942Y-41105795D01*
X93537942Y-41105795D02*
X93537942Y-41248652D01*
X93537942Y-41248652D02*
X93490323Y-41343890D01*
X93490323Y-41343890D02*
X93442704Y-41391509D01*
X93442704Y-41391509D02*
X93347466Y-41439128D01*
X93347466Y-41439128D02*
X92966514Y-41439128D01*
X93918895Y-41010557D02*
X93966514Y-40962938D01*
X93966514Y-40962938D02*
X94061752Y-40915319D01*
X94061752Y-40915319D02*
X94299847Y-40915319D01*
X94299847Y-40915319D02*
X94395085Y-40962938D01*
X94395085Y-40962938D02*
X94442704Y-41010557D01*
X94442704Y-41010557D02*
X94490323Y-41105795D01*
X94490323Y-41105795D02*
X94490323Y-41201033D01*
X94490323Y-41201033D02*
X94442704Y-41343890D01*
X94442704Y-41343890D02*
X93871276Y-41915319D01*
X93871276Y-41915319D02*
X94490323Y-41915319D01*
X95442704Y-41915319D02*
X94871276Y-41915319D01*
X95156990Y-41915319D02*
X95156990Y-40915319D01*
X95156990Y-40915319D02*
X95061752Y-41058176D01*
X95061752Y-41058176D02*
X94966514Y-41153414D01*
X94966514Y-41153414D02*
X94871276Y-41201033D01*
X112366166Y-15604819D02*
X112366166Y-16319104D01*
X112366166Y-16319104D02*
X112318547Y-16461961D01*
X112318547Y-16461961D02*
X112223309Y-16557200D01*
X112223309Y-16557200D02*
X112080452Y-16604819D01*
X112080452Y-16604819D02*
X111985214Y-16604819D01*
X112747119Y-15604819D02*
X113413785Y-15604819D01*
X113413785Y-15604819D02*
X112985214Y-16604819D01*
X105728071Y-36264700D02*
X106870929Y-36264700D01*
X118028071Y-36264700D02*
X119170929Y-36264700D01*
X118599500Y-36836128D02*
X118599500Y-35693271D01*
X127004014Y-44915319D02*
X127004014Y-43915319D01*
X127004014Y-43915319D02*
X127242109Y-43915319D01*
X127242109Y-43915319D02*
X127384966Y-43962938D01*
X127384966Y-43962938D02*
X127480204Y-44058176D01*
X127480204Y-44058176D02*
X127527823Y-44153414D01*
X127527823Y-44153414D02*
X127575442Y-44343890D01*
X127575442Y-44343890D02*
X127575442Y-44486747D01*
X127575442Y-44486747D02*
X127527823Y-44677223D01*
X127527823Y-44677223D02*
X127480204Y-44772461D01*
X127480204Y-44772461D02*
X127384966Y-44867700D01*
X127384966Y-44867700D02*
X127242109Y-44915319D01*
X127242109Y-44915319D02*
X127004014Y-44915319D01*
X128527823Y-44915319D02*
X127956395Y-44915319D01*
X128242109Y-44915319D02*
X128242109Y-43915319D01*
X128242109Y-43915319D02*
X128146871Y-44058176D01*
X128146871Y-44058176D02*
X128051633Y-44153414D01*
X128051633Y-44153414D02*
X127956395Y-44201033D01*
X129099252Y-44343890D02*
X129004014Y-44296271D01*
X129004014Y-44296271D02*
X128956395Y-44248652D01*
X128956395Y-44248652D02*
X128908776Y-44153414D01*
X128908776Y-44153414D02*
X128908776Y-44105795D01*
X128908776Y-44105795D02*
X128956395Y-44010557D01*
X128956395Y-44010557D02*
X129004014Y-43962938D01*
X129004014Y-43962938D02*
X129099252Y-43915319D01*
X129099252Y-43915319D02*
X129289728Y-43915319D01*
X129289728Y-43915319D02*
X129384966Y-43962938D01*
X129384966Y-43962938D02*
X129432585Y-44010557D01*
X129432585Y-44010557D02*
X129480204Y-44105795D01*
X129480204Y-44105795D02*
X129480204Y-44153414D01*
X129480204Y-44153414D02*
X129432585Y-44248652D01*
X129432585Y-44248652D02*
X129384966Y-44296271D01*
X129384966Y-44296271D02*
X129289728Y-44343890D01*
X129289728Y-44343890D02*
X129099252Y-44343890D01*
X129099252Y-44343890D02*
X129004014Y-44391509D01*
X129004014Y-44391509D02*
X128956395Y-44439128D01*
X128956395Y-44439128D02*
X128908776Y-44534366D01*
X128908776Y-44534366D02*
X128908776Y-44724842D01*
X128908776Y-44724842D02*
X128956395Y-44820080D01*
X128956395Y-44820080D02*
X129004014Y-44867700D01*
X129004014Y-44867700D02*
X129099252Y-44915319D01*
X129099252Y-44915319D02*
X129289728Y-44915319D01*
X129289728Y-44915319D02*
X129384966Y-44867700D01*
X129384966Y-44867700D02*
X129432585Y-44820080D01*
X129432585Y-44820080D02*
X129480204Y-44724842D01*
X129480204Y-44724842D02*
X129480204Y-44534366D01*
X129480204Y-44534366D02*
X129432585Y-44439128D01*
X129432585Y-44439128D02*
X129384966Y-44391509D01*
X129384966Y-44391509D02*
X129289728Y-44343890D01*
X77894692Y-106454779D02*
X77561359Y-105978588D01*
X77323264Y-106454779D02*
X77323264Y-105454779D01*
X77323264Y-105454779D02*
X77704216Y-105454779D01*
X77704216Y-105454779D02*
X77799454Y-105502398D01*
X77799454Y-105502398D02*
X77847073Y-105550017D01*
X77847073Y-105550017D02*
X77894692Y-105645255D01*
X77894692Y-105645255D02*
X77894692Y-105788112D01*
X77894692Y-105788112D02*
X77847073Y-105883350D01*
X77847073Y-105883350D02*
X77799454Y-105930969D01*
X77799454Y-105930969D02*
X77704216Y-105978588D01*
X77704216Y-105978588D02*
X77323264Y-105978588D01*
X78275645Y-105550017D02*
X78323264Y-105502398D01*
X78323264Y-105502398D02*
X78418502Y-105454779D01*
X78418502Y-105454779D02*
X78656597Y-105454779D01*
X78656597Y-105454779D02*
X78751835Y-105502398D01*
X78751835Y-105502398D02*
X78799454Y-105550017D01*
X78799454Y-105550017D02*
X78847073Y-105645255D01*
X78847073Y-105645255D02*
X78847073Y-105740493D01*
X78847073Y-105740493D02*
X78799454Y-105883350D01*
X78799454Y-105883350D02*
X78228026Y-106454779D01*
X78228026Y-106454779D02*
X78847073Y-106454779D01*
X79704216Y-105788112D02*
X79704216Y-106454779D01*
X79466121Y-105407160D02*
X79228026Y-106121445D01*
X79228026Y-106121445D02*
X79847073Y-106121445D01*
%TO.C,J8*%
D11*
X146578300Y-31500000D02*
G75*
G02*
X143669948Y-35430413I-4110000J0D01*
G01*
X132851494Y-35022958D02*
G75*
G02*
X130858300Y-31500000I2116805J3522957D01*
G01*
X146578300Y-17190000D02*
X146578300Y-31500000D01*
X137428300Y-35610000D02*
X141168300Y-35610000D01*
X130858300Y-17190000D02*
X146578300Y-17190000D01*
X130858300Y-17190000D02*
X130858300Y-31500000D01*
%TO.C,SW1*%
X94750000Y-120750000D02*
X94750000Y-116250000D01*
X92250000Y-115000000D02*
X90750000Y-115000000D01*
X90750000Y-122000000D02*
X92250000Y-122000000D01*
X88250000Y-116250000D02*
X88250000Y-120750000D01*
%TO.C,C6*%
X61186348Y-120160000D02*
X61708852Y-120160000D01*
X61186348Y-121630000D02*
X61708852Y-121630000D01*
%TO.C,R54*%
X138765000Y-112772936D02*
X138765000Y-113227064D01*
X140235000Y-112772936D02*
X140235000Y-113227064D01*
%TO.C,R23*%
X79453736Y-48725500D02*
X79907864Y-48725500D01*
X79453736Y-50195500D02*
X79907864Y-50195500D01*
%TO.C,R8*%
X38416236Y-37725500D02*
X38870364Y-37725500D01*
X38416236Y-39195500D02*
X38870364Y-39195500D01*
%TO.C,C14*%
X30600236Y-113302500D02*
X30384564Y-113302500D01*
X30600236Y-114022500D02*
X30384564Y-114022500D01*
%TO.C,U3*%
X33442400Y-112890000D02*
X33892400Y-112890000D01*
X33442400Y-113340000D02*
X33442400Y-112890000D01*
X33442400Y-120110000D02*
X33442400Y-119660000D01*
X33892400Y-120110000D02*
X33442400Y-120110000D01*
X40212400Y-112890000D02*
X40662400Y-112890000D01*
X40662400Y-112890000D02*
X40662400Y-113340000D01*
X40662400Y-119660000D02*
X40662400Y-120110000D01*
X40662400Y-120110000D02*
X40212400Y-120110000D01*
X32802400Y-113340000D02*
X32462400Y-112870000D01*
X33142400Y-112870000D01*
X32802400Y-113340000D01*
G36*
X32802400Y-113340000D02*
G01*
X32462400Y-112870000D01*
X33142400Y-112870000D01*
X32802400Y-113340000D01*
G37*
%TO.C,R33*%
X142491236Y-40675500D02*
X142945364Y-40675500D01*
X142491236Y-42145500D02*
X142945364Y-42145500D01*
%TO.C,RP_SCL1*%
X129045459Y-114620000D02*
X129352741Y-114620000D01*
X129045459Y-115380000D02*
X129352741Y-115380000D01*
%TO.C,FAN*%
X148611500Y-112230000D02*
X148611500Y-109580000D01*
X151371500Y-109580000D02*
X148611500Y-109580000D01*
X151371500Y-112230000D02*
X148611500Y-112230000D01*
X151371500Y-112230000D02*
X151371500Y-109580000D01*
X151371500Y-113500000D02*
X151371500Y-114880000D01*
X151371500Y-114880000D02*
X149991500Y-114880000D01*
%TO.C,R11*%
X27416236Y-51675500D02*
X27870364Y-51675500D01*
X27416236Y-53145500D02*
X27870364Y-53145500D01*
%TO.C,D3*%
X26233300Y-37310500D02*
X26233300Y-41610500D01*
X26233300Y-37310500D02*
X33643300Y-37310500D01*
X26233300Y-41610500D02*
X33643300Y-41610500D01*
%TO.C,L1*%
X70210100Y-108532500D02*
X77610100Y-108532500D01*
X70210100Y-110832500D02*
X70210100Y-108532500D01*
X70210100Y-115932500D02*
X70210100Y-113632500D01*
X77610100Y-108532500D02*
X77610100Y-110832500D01*
X77610100Y-113632500D02*
X77610100Y-115932500D01*
X77610100Y-115932500D02*
X70210100Y-115932500D01*
%TO.C,R10*%
X27416236Y-48725500D02*
X27870364Y-48725500D01*
X27416236Y-50195500D02*
X27870364Y-50195500D01*
%TO.C,D1*%
X49737600Y-108582500D02*
X49737600Y-112882500D01*
X49737600Y-108582500D02*
X57147600Y-108582500D01*
X49737600Y-112882500D02*
X57147600Y-112882500D01*
%TO.C,C2*%
X78186348Y-116997500D02*
X78708852Y-116997500D01*
X78186348Y-118467500D02*
X78708852Y-118467500D01*
%TO.C,D13*%
X140531500Y-108500000D02*
X141181500Y-108500000D01*
X144581500Y-109620000D02*
X144581500Y-107380000D01*
X144701500Y-109620000D02*
X144701500Y-107380000D01*
X144821500Y-109620000D02*
X144821500Y-107380000D01*
X146071500Y-108500000D02*
X145421500Y-108500000D01*
X141181500Y-107380000D02*
X145421500Y-107380000D01*
X145421500Y-109620000D01*
X141181500Y-109620000D01*
X141181500Y-107380000D01*
%TO.C,C10*%
X34214564Y-109832500D02*
X34430236Y-109832500D01*
X34214564Y-110552500D02*
X34430236Y-110552500D01*
%TO.C,R13*%
X34593300Y-59040500D02*
X34593300Y-61340500D01*
X34593300Y-101880500D02*
X34593300Y-99580500D01*
X31273300Y-61340500D02*
X37913300Y-61340500D01*
X37913300Y-99580500D01*
X31273300Y-99580500D01*
X31273300Y-61340500D01*
%TO.C,R27*%
X116472436Y-40675500D02*
X116926564Y-40675500D01*
X116472436Y-42145500D02*
X116926564Y-42145500D01*
%TO.C,Q2*%
X56052000Y-48650500D02*
X66272000Y-48650500D01*
X56052000Y-50030500D02*
X66272000Y-50030500D01*
X56052000Y-53270500D02*
X56052000Y-48650500D01*
X59312000Y-48650500D02*
X59312000Y-50030500D01*
X63012000Y-48650500D02*
X63012000Y-50030500D01*
X66272000Y-48650500D02*
X66272000Y-53270500D01*
X66272000Y-53270500D02*
X56052000Y-53270500D01*
%TO.C,RP_SDA1*%
X131545459Y-114620000D02*
X131852741Y-114620000D01*
X131545459Y-115380000D02*
X131852741Y-115380000D01*
%TO.C,C21*%
X116475748Y-43225500D02*
X116998252Y-43225500D01*
X116475748Y-44695500D02*
X116998252Y-44695500D01*
%TO.C,C11*%
X39410236Y-123640000D02*
X39194564Y-123640000D01*
X39410236Y-124360000D02*
X39194564Y-124360000D01*
%TO.C,D7*%
X130308300Y-37310500D02*
X130308300Y-41610500D01*
X130308300Y-37310500D02*
X137718300Y-37310500D01*
X130308300Y-41610500D02*
X137718300Y-41610500D01*
%TO.C,D19*%
X59862600Y-108395000D02*
X59862600Y-114255000D01*
X59862600Y-114255000D02*
X63032600Y-114255000D01*
X63032600Y-114255000D02*
X63032600Y-108395000D01*
%TO.C,C8*%
X30600236Y-119332500D02*
X30384564Y-119332500D01*
X30600236Y-120052500D02*
X30384564Y-120052500D01*
%TO.C,D15*%
X52252000Y-42860500D02*
X52252000Y-46160500D01*
X52252000Y-42860500D02*
X57762000Y-42860500D01*
X52252000Y-46160500D02*
X57762000Y-46160500D01*
%TO.C,R16*%
X53434936Y-51675500D02*
X53889064Y-51675500D01*
X53434936Y-53145500D02*
X53889064Y-53145500D01*
%TO.C,C15*%
X44942400Y-113014664D02*
X44942400Y-113230336D01*
X45662400Y-113014664D02*
X45662400Y-113230336D01*
%TO.C,R56*%
X68562000Y-59040500D02*
X68562000Y-61340500D01*
X68562000Y-101880500D02*
X68562000Y-99580500D01*
X65242000Y-61340500D02*
X71882000Y-61340500D01*
X71882000Y-99580500D01*
X65242000Y-99580500D01*
X65242000Y-61340500D01*
%TO.C,J5*%
X52802000Y-17190000D02*
X52802000Y-31500000D01*
X52802000Y-17190000D02*
X68522000Y-17190000D01*
X59372000Y-35610000D02*
X63112000Y-35610000D01*
X68522000Y-17190000D02*
X68522000Y-31500000D01*
X54795194Y-35022958D02*
G75*
G02*
X52802000Y-31500000I2116805J3522957D01*
G01*
X68522000Y-31500000D02*
G75*
G02*
X65613648Y-35430413I-4110000J0D01*
G01*
%TO.C,D5*%
X78270800Y-37310500D02*
X78270800Y-41610500D01*
X78270800Y-37310500D02*
X85680800Y-37310500D01*
X78270800Y-41610500D02*
X85680800Y-41610500D01*
%TO.C,Q1*%
X30033300Y-48650500D02*
X40253300Y-48650500D01*
X30033300Y-50030500D02*
X40253300Y-50030500D01*
X30033300Y-53270500D02*
X30033300Y-48650500D01*
X33293300Y-48650500D02*
X33293300Y-50030500D01*
X36993300Y-48650500D02*
X36993300Y-50030500D01*
X40253300Y-48650500D02*
X40253300Y-53270500D01*
X40253300Y-53270500D02*
X30033300Y-53270500D01*
%TO.C,ST-Link*%
X143599100Y-117132900D02*
X143599100Y-119352900D01*
X149709100Y-117132900D02*
X143599100Y-117132900D01*
X149709100Y-117132900D02*
X149709100Y-119352900D01*
X149709100Y-119352900D02*
X143599100Y-119352900D01*
X150709100Y-117132900D02*
X151819100Y-117132900D01*
X151819100Y-117132900D02*
X151819100Y-118242900D01*
%TO.C,C25*%
X25464564Y-115640000D02*
X25680236Y-115640000D01*
X25464564Y-116360000D02*
X25680236Y-116360000D01*
%TO.C,Y1*%
X27242400Y-115482500D02*
X27242400Y-118902500D01*
X27242400Y-118902500D02*
X31362400Y-118902500D01*
%TO.C,R25*%
X86630800Y-59040500D02*
X86630800Y-61340500D01*
X86630800Y-101880500D02*
X86630800Y-99580500D01*
X83310800Y-61340500D02*
X89950800Y-61340500D01*
X89950800Y-99580500D01*
X83310800Y-99580500D01*
X83310800Y-61340500D01*
%TO.C,Q3*%
X82070800Y-48650500D02*
X92290800Y-48650500D01*
X82070800Y-50030500D02*
X92290800Y-50030500D01*
X82070800Y-53270500D02*
X82070800Y-48650500D01*
X85330800Y-48650500D02*
X85330800Y-50030500D01*
X89030800Y-48650500D02*
X89030800Y-50030500D01*
X92290800Y-48650500D02*
X92290800Y-53270500D01*
X92290800Y-53270500D02*
X82070800Y-53270500D01*
%TO.C,I2C*%
X125099100Y-117132900D02*
X125099100Y-119352900D01*
X131209100Y-117132900D02*
X125099100Y-117132900D01*
X131209100Y-117132900D02*
X131209100Y-119352900D01*
X131209100Y-119352900D02*
X125099100Y-119352900D01*
X132209100Y-117132900D02*
X133319100Y-117132900D01*
X133319100Y-117132900D02*
X133319100Y-118242900D01*
%TO.C,Q6*%
X146791500Y-110790000D02*
X143191500Y-110790000D01*
X144991500Y-115240000D02*
G75*
G02*
X143153022Y-110801522I0J2600000D01*
G01*
X146829978Y-110801522D02*
G75*
G02*
X144991500Y-115240001I-1838478J-1838478D01*
G01*
%TO.C,R55*%
X42543300Y-59040500D02*
X42543300Y-61340500D01*
X42543300Y-101880500D02*
X42543300Y-99580500D01*
X39223300Y-61340500D02*
X45863300Y-61340500D01*
X45863300Y-99580500D01*
X39223300Y-99580500D01*
X39223300Y-61340500D01*
%TO.C,J4*%
X26783300Y-17190000D02*
X26783300Y-31500000D01*
X26783300Y-17190000D02*
X42503300Y-17190000D01*
X33353300Y-35610000D02*
X37093300Y-35610000D01*
X42503300Y-17190000D02*
X42503300Y-31500000D01*
X28776494Y-35022958D02*
G75*
G02*
X26783300Y-31500000I2116805J3522957D01*
G01*
X42503300Y-31500000D02*
G75*
G02*
X39594948Y-35430413I-4110000J0D01*
G01*
%TO.C,Q5*%
X134108300Y-48650500D02*
X144328300Y-48650500D01*
X134108300Y-50030500D02*
X144328300Y-50030500D01*
X134108300Y-53270500D02*
X134108300Y-48650500D01*
X137368300Y-48650500D02*
X137368300Y-50030500D01*
X141068300Y-48650500D02*
X141068300Y-50030500D01*
X144328300Y-48650500D02*
X144328300Y-53270500D01*
X144328300Y-53270500D02*
X134108300Y-53270500D01*
%TO.C,J2*%
X98800000Y-119100000D02*
X98800000Y-121100000D01*
X98800000Y-123000000D02*
X98800000Y-124900000D01*
X98800000Y-124900000D02*
X108200000Y-124900000D01*
X108200000Y-119100000D02*
X108200000Y-121100000D01*
X108200000Y-123000000D02*
X108200000Y-124900000D01*
%TO.C,R2*%
X98620000Y-111846359D02*
X98620000Y-112153641D01*
X99380000Y-111846359D02*
X99380000Y-112153641D01*
%TO.C,R36*%
X130718300Y-59040500D02*
X130718300Y-61340500D01*
X130718300Y-101880500D02*
X130718300Y-99580500D01*
X127398300Y-61340500D02*
X134038300Y-61340500D01*
X134038300Y-99580500D01*
X127398300Y-99580500D01*
X127398300Y-61340500D01*
%TO.C,C13*%
X30600236Y-114302500D02*
X30384564Y-114302500D01*
X30600236Y-115022500D02*
X30384564Y-115022500D01*
%TO.C,R15*%
X64434936Y-40675500D02*
X64889064Y-40675500D01*
X64434936Y-42145500D02*
X64889064Y-42145500D01*
%TO.C,Q4*%
X108089500Y-48650500D02*
X118309500Y-48650500D01*
X108089500Y-50030500D02*
X118309500Y-50030500D01*
X108089500Y-53270500D02*
X108089500Y-48650500D01*
X111349500Y-48650500D02*
X111349500Y-50030500D01*
X115049500Y-48650500D02*
X115049500Y-50030500D01*
X118309500Y-48650500D02*
X118309500Y-53270500D01*
X118309500Y-53270500D02*
X108089500Y-53270500D01*
%TO.C,R4*%
X61674664Y-115093300D02*
X61220536Y-115093300D01*
X61674664Y-116563300D02*
X61220536Y-116563300D01*
%TO.C,R32*%
X142491236Y-37725500D02*
X142945364Y-37725500D01*
X142491236Y-39195500D02*
X142945364Y-39195500D01*
%TO.C,R58*%
X120599500Y-59040500D02*
X120599500Y-61340500D01*
X120599500Y-101880500D02*
X120599500Y-99580500D01*
X117279500Y-61340500D02*
X123919500Y-61340500D01*
X123919500Y-99580500D01*
X117279500Y-99580500D01*
X117279500Y-61340500D01*
%TO.C,R20*%
X90453736Y-37725500D02*
X90907864Y-37725500D01*
X90453736Y-39195500D02*
X90907864Y-39195500D01*
%TO.C,C9*%
X34214564Y-108832500D02*
X34430236Y-108832500D01*
X34214564Y-109552500D02*
X34430236Y-109552500D01*
%TO.C,C22*%
X142494548Y-43225500D02*
X143017052Y-43225500D01*
X142494548Y-44695500D02*
X143017052Y-44695500D01*
%TO.C,R18*%
X52662000Y-59040500D02*
X52662000Y-61340500D01*
X52662000Y-101880500D02*
X52662000Y-99580500D01*
X49342000Y-61340500D02*
X55982000Y-61340500D01*
X55982000Y-99580500D01*
X49342000Y-99580500D01*
X49342000Y-61340500D01*
%TO.C,C17*%
X25464564Y-117640000D02*
X25680236Y-117640000D01*
X25464564Y-118360000D02*
X25680236Y-118360000D01*
%TO.C,C19*%
X64438248Y-43225500D02*
X64960752Y-43225500D01*
X64438248Y-44695500D02*
X64960752Y-44695500D01*
%TO.C,U1*%
X73000100Y-116722500D02*
X74820100Y-116722500D01*
X73000100Y-116772500D02*
X73000100Y-116722500D01*
X73000100Y-119842500D02*
X73000100Y-119792500D01*
X74820100Y-116722500D02*
X74820100Y-116772500D01*
X74820100Y-119792500D02*
X74820100Y-119842500D01*
X74820100Y-119842500D02*
X73000100Y-119842500D01*
X72460100Y-116772500D02*
X72220100Y-116442500D01*
X72700100Y-116442500D01*
X72460100Y-116772500D01*
G36*
X72460100Y-116772500D02*
G01*
X72220100Y-116442500D01*
X72700100Y-116442500D01*
X72460100Y-116772500D01*
G37*
%TO.C,D14*%
X26233300Y-42860500D02*
X26233300Y-46160500D01*
X26233300Y-42860500D02*
X31743300Y-42860500D01*
X26233300Y-46160500D02*
X31743300Y-46160500D01*
%TO.C,R57*%
X94580800Y-59040500D02*
X94580800Y-61340500D01*
X94580800Y-101880500D02*
X94580800Y-99580500D01*
X91260800Y-61340500D02*
X97900800Y-61340500D01*
X97900800Y-99580500D01*
X91260800Y-99580500D01*
X91260800Y-61340500D01*
%TO.C,U2*%
X52537600Y-113822500D02*
X52537600Y-115082500D01*
X52537600Y-120642500D02*
X52537600Y-119382500D01*
X56297600Y-113822500D02*
X52537600Y-113822500D01*
X56297600Y-120642500D02*
X52537600Y-120642500D01*
X57577600Y-120542500D02*
X57817600Y-120872500D01*
X57337600Y-120872500D01*
X57577600Y-120542500D01*
G36*
X57817600Y-120872500D02*
G01*
X57337600Y-120872500D01*
X57577600Y-120542500D01*
X57817600Y-120872500D01*
G37*
%TO.C,R29*%
X105472436Y-48725500D02*
X105926564Y-48725500D01*
X105472436Y-50195500D02*
X105926564Y-50195500D01*
%TO.C,D6*%
X104289500Y-37310500D02*
X104289500Y-41610500D01*
X104289500Y-37310500D02*
X111699500Y-37310500D01*
X104289500Y-41610500D02*
X111699500Y-41610500D01*
%TO.C,R37*%
X138668300Y-59040500D02*
X138668300Y-61340500D01*
X138668300Y-101880500D02*
X138668300Y-99580500D01*
X135348300Y-61340500D02*
X141988300Y-61340500D01*
X141988300Y-99580500D01*
X135348300Y-99580500D01*
X135348300Y-61340500D01*
%TO.C,J6*%
X78820800Y-17190000D02*
X78820800Y-31500000D01*
X78820800Y-17190000D02*
X94540800Y-17190000D01*
X85390800Y-35610000D02*
X89130800Y-35610000D01*
X94540800Y-17190000D02*
X94540800Y-31500000D01*
X80813994Y-35022958D02*
G75*
G02*
X78820800Y-31500000I2116805J3522957D01*
G01*
X94540800Y-31500000D02*
G75*
G02*
X91632448Y-35430413I-4110000J0D01*
G01*
%TO.C,R14*%
X64434936Y-37725500D02*
X64889064Y-37725500D01*
X64434936Y-39195500D02*
X64889064Y-39195500D01*
%TO.C,R3*%
X103567600Y-112308859D02*
X103567600Y-112616141D01*
X104327600Y-112308859D02*
X104327600Y-112616141D01*
%TO.C,R34*%
X131491236Y-51675500D02*
X131945364Y-51675500D01*
X131491236Y-53145500D02*
X131945364Y-53145500D01*
%TO.C,D16*%
X78270800Y-42860500D02*
X78270800Y-46160500D01*
X78270800Y-42860500D02*
X83780800Y-42860500D01*
X78270800Y-46160500D02*
X83780800Y-46160500D01*
%TO.C,R17*%
X53434936Y-48725500D02*
X53889064Y-48725500D01*
X53434936Y-50195500D02*
X53889064Y-50195500D01*
%TO.C,C1*%
X73648848Y-121497500D02*
X74171352Y-121497500D01*
X73648848Y-122967500D02*
X74171352Y-122967500D01*
%TO.C,R22*%
X79453736Y-51675500D02*
X79907864Y-51675500D01*
X79453736Y-53145500D02*
X79907864Y-53145500D01*
%TO.C,R19*%
X60612000Y-59040500D02*
X60612000Y-61340500D01*
X60612000Y-101880500D02*
X60612000Y-99580500D01*
X57292000Y-61340500D02*
X63932000Y-61340500D01*
X63932000Y-99580500D01*
X57292000Y-99580500D01*
X57292000Y-61340500D01*
%TO.C,UART*%
X134349100Y-117132900D02*
X134349100Y-119352900D01*
X140459100Y-117132900D02*
X134349100Y-117132900D01*
X140459100Y-117132900D02*
X140459100Y-119352900D01*
X140459100Y-119352900D02*
X134349100Y-119352900D01*
X141459100Y-117132900D02*
X142569100Y-117132900D01*
X142569100Y-117132900D02*
X142569100Y-118242900D01*
%TO.C,R31*%
X112649500Y-59040500D02*
X112649500Y-61340500D01*
X112649500Y-101880500D02*
X112649500Y-99580500D01*
X109329500Y-61340500D02*
X115969500Y-61340500D01*
X115969500Y-99580500D01*
X109329500Y-99580500D01*
X109329500Y-61340500D01*
%TO.C,R35*%
X131491236Y-48725500D02*
X131945364Y-48725500D01*
X131491236Y-50195500D02*
X131945364Y-50195500D01*
%TO.C,C4*%
X69186348Y-119497500D02*
X69708852Y-119497500D01*
X69186348Y-120967500D02*
X69708852Y-120967500D01*
%TO.C,C12*%
X39410236Y-122332500D02*
X39194564Y-122332500D01*
X39410236Y-123052500D02*
X39194564Y-123052500D01*
%TO.C,R28*%
X105472436Y-51675500D02*
X105926564Y-51675500D01*
X105472436Y-53145500D02*
X105926564Y-53145500D01*
%TO.C,R12*%
X26643300Y-59040500D02*
X26643300Y-61340500D01*
X26643300Y-101880500D02*
X26643300Y-99580500D01*
X23323300Y-61340500D02*
X29963300Y-61340500D01*
X29963300Y-99580500D01*
X23323300Y-99580500D01*
X23323300Y-61340500D01*
%TO.C,C7*%
X43292400Y-113551920D02*
X43292400Y-113833080D01*
X44312400Y-113551920D02*
X44312400Y-113833080D01*
%TO.C,FB1*%
X29759621Y-111682500D02*
X30085179Y-111682500D01*
X29759621Y-112702500D02*
X30085179Y-112702500D01*
%TO.C,D4*%
X52252000Y-37310500D02*
X52252000Y-41610500D01*
X52252000Y-37310500D02*
X59662000Y-37310500D01*
X52252000Y-41610500D02*
X59662000Y-41610500D01*
%TO.C,C20*%
X90457048Y-43225500D02*
X90979552Y-43225500D01*
X90457048Y-44695500D02*
X90979552Y-44695500D01*
%TO.C,R9*%
X38416236Y-40675500D02*
X38870364Y-40675500D01*
X38416236Y-42145500D02*
X38870364Y-42145500D01*
%TO.C,R26*%
X116472436Y-37725500D02*
X116926564Y-37725500D01*
X116472436Y-39195500D02*
X116926564Y-39195500D01*
%TO.C,C5*%
X61186348Y-117611700D02*
X61708852Y-117611700D01*
X61186348Y-119081700D02*
X61708852Y-119081700D01*
%TO.C,C3*%
X69186348Y-116997500D02*
X69708852Y-116997500D01*
X69186348Y-118467500D02*
X69708852Y-118467500D01*
%TO.C,D17*%
X104289500Y-42860500D02*
X104289500Y-46160500D01*
X104289500Y-42860500D02*
X109799500Y-42860500D01*
X104289500Y-46160500D02*
X109799500Y-46160500D01*
%TO.C,R59*%
X146618300Y-59040500D02*
X146618300Y-61340500D01*
X146618300Y-101880500D02*
X146618300Y-99580500D01*
X143298300Y-61340500D02*
X149938300Y-61340500D01*
X149938300Y-99580500D01*
X143298300Y-99580500D01*
X143298300Y-61340500D01*
%TO.C,R30*%
X104699500Y-59040500D02*
X104699500Y-61340500D01*
X104699500Y-101880500D02*
X104699500Y-99580500D01*
X101379500Y-61340500D02*
X108019500Y-61340500D01*
X108019500Y-99580500D01*
X101379500Y-99580500D01*
X101379500Y-61340500D01*
%TO.C,C18*%
X38419548Y-43225500D02*
X38942052Y-43225500D01*
X38419548Y-44695500D02*
X38942052Y-44695500D01*
%TO.C,R21*%
X90453736Y-40675500D02*
X90907864Y-40675500D01*
X90453736Y-42145500D02*
X90907864Y-42145500D01*
%TO.C,J7*%
X104839500Y-17190000D02*
X104839500Y-31500000D01*
X104839500Y-17190000D02*
X120559500Y-17190000D01*
X111409500Y-35610000D02*
X115149500Y-35610000D01*
X120559500Y-17190000D02*
X120559500Y-31500000D01*
X106832694Y-35022958D02*
G75*
G02*
X104839500Y-31500000I2116805J3522957D01*
G01*
X120559500Y-31500000D02*
G75*
G02*
X117651148Y-35430413I-4110000J0D01*
G01*
%TO.C,D18*%
X130308300Y-42860500D02*
X130308300Y-46160500D01*
X130308300Y-42860500D02*
X135818300Y-42860500D01*
X130308300Y-46160500D02*
X135818300Y-46160500D01*
%TO.C,R24*%
X78680800Y-59040500D02*
X78680800Y-61340500D01*
X78680800Y-101880500D02*
X78680800Y-99580500D01*
X75360800Y-61340500D02*
X82000800Y-61340500D01*
X82000800Y-99580500D01*
X75360800Y-99580500D01*
X75360800Y-61340500D01*
%TD*%
M02*
