%TF.GenerationSoftware,KiCad,Pcbnew,10.0.2*%
%TF.CreationDate,2026-06-16T22:33:29-07:00*%
%TF.ProjectId,Lipo Discharger,4c69706f-2044-4697-9363-686172676572,rev?*%
%TF.SameCoordinates,Original*%
%TF.FileFunction,Copper,L1,Top*%
%TF.FilePolarity,Positive*%
%FSLAX46Y46*%
G04 Gerber Fmt 4.6, Leading zero omitted, Abs format (unit mm)*
G04 Created by KiCad (PCBNEW 10.0.2) date 2026-06-16 22:33:29*
%MOMM*%
%LPD*%
G01*
G04 APERTURE LIST*
G04 Aperture macros list*
%AMRoundRect*
0 Rectangle with rounded corners*
0 $1 Rounding radius*
0 $2 $3 $4 $5 $6 $7 $8 $9 X,Y pos of 4 corners*
0 Add a 4 corners polygon primitive as box body*
4,1,4,$2,$3,$4,$5,$6,$7,$8,$9,$2,$3,0*
0 Add four circle primitives for the rounded corners*
1,1,$1+$1,$2,$3*
1,1,$1+$1,$4,$5*
1,1,$1+$1,$6,$7*
1,1,$1+$1,$8,$9*
0 Add four rect primitives between the rounded corners*
20,1,$1+$1,$2,$3,$4,$5,0*
20,1,$1+$1,$4,$5,$6,$7,0*
20,1,$1+$1,$6,$7,$8,$9,0*
20,1,$1+$1,$8,$9,$2,$3,0*%
G04 Aperture macros list end*
%TA.AperFunction,ComponentPad*%
%ADD10C,4.100000*%
%TD*%
%TA.AperFunction,ComponentPad*%
%ADD11RoundRect,1.025000X-1.025000X-1.025000X1.025000X-1.025000X1.025000X1.025000X-1.025000X1.025000X0*%
%TD*%
%TA.AperFunction,ComponentPad*%
%ADD12R,1.100000X2.100000*%
%TD*%
%TA.AperFunction,ComponentPad*%
%ADD13C,2.000000*%
%TD*%
%TA.AperFunction,SMDPad,CuDef*%
%ADD14RoundRect,0.250000X-0.337500X-0.475000X0.337500X-0.475000X0.337500X0.475000X-0.337500X0.475000X0*%
%TD*%
%TA.AperFunction,SMDPad,CuDef*%
%ADD15RoundRect,0.250000X-0.450000X0.350000X-0.450000X-0.350000X0.450000X-0.350000X0.450000X0.350000X0*%
%TD*%
%TA.AperFunction,SMDPad,CuDef*%
%ADD16RoundRect,0.250000X-0.350000X-0.450000X0.350000X-0.450000X0.350000X0.450000X-0.350000X0.450000X0*%
%TD*%
%TA.AperFunction,SMDPad,CuDef*%
%ADD17RoundRect,0.140000X0.140000X0.170000X-0.140000X0.170000X-0.140000X-0.170000X0.140000X-0.170000X0*%
%TD*%
%TA.AperFunction,SMDPad,CuDef*%
%ADD18RoundRect,0.075000X-0.662500X-0.075000X0.662500X-0.075000X0.662500X0.075000X-0.662500X0.075000X0*%
%TD*%
%TA.AperFunction,SMDPad,CuDef*%
%ADD19RoundRect,0.075000X-0.075000X-0.662500X0.075000X-0.662500X0.075000X0.662500X-0.075000X0.662500X0*%
%TD*%
%TA.AperFunction,SMDPad,CuDef*%
%ADD20RoundRect,0.135000X-0.135000X-0.185000X0.135000X-0.185000X0.135000X0.185000X-0.135000X0.185000X0*%
%TD*%
%TA.AperFunction,ComponentPad*%
%ADD21R,1.700000X1.700000*%
%TD*%
%TA.AperFunction,ComponentPad*%
%ADD22C,1.700000*%
%TD*%
%TA.AperFunction,SMDPad,CuDef*%
%ADD23RoundRect,0.250000X-1.500000X-0.900000X1.500000X-0.900000X1.500000X0.900000X-1.500000X0.900000X0*%
%TD*%
%TA.AperFunction,SMDPad,CuDef*%
%ADD24R,1.500000X2.200000*%
%TD*%
%TA.AperFunction,ComponentPad*%
%ADD25RoundRect,0.250000X0.550000X0.550000X-0.550000X0.550000X-0.550000X-0.550000X0.550000X-0.550000X0*%
%TD*%
%TA.AperFunction,ComponentPad*%
%ADD26C,1.600000*%
%TD*%
%TA.AperFunction,SMDPad,CuDef*%
%ADD27RoundRect,0.140000X-0.140000X-0.170000X0.140000X-0.170000X0.140000X0.170000X-0.140000X0.170000X0*%
%TD*%
%TA.AperFunction,ComponentPad*%
%ADD28C,2.400000*%
%TD*%
%TA.AperFunction,ComponentPad*%
%ADD29R,1.905000X2.000000*%
%TD*%
%TA.AperFunction,ComponentPad*%
%ADD30O,1.905000X2.000000*%
%TD*%
%TA.AperFunction,SMDPad,CuDef*%
%ADD31RoundRect,0.249999X1.075001X-0.512501X1.075001X0.512501X-1.075001X0.512501X-1.075001X-0.512501X0*%
%TD*%
%TA.AperFunction,SMDPad,CuDef*%
%ADD32RoundRect,0.250000X-1.000000X-0.650000X1.000000X-0.650000X1.000000X0.650000X-1.000000X0.650000X0*%
%TD*%
%TA.AperFunction,SMDPad,CuDef*%
%ADD33RoundRect,0.140000X-0.170000X0.140000X-0.170000X-0.140000X0.170000X-0.140000X0.170000X0.140000X0*%
%TD*%
%TA.AperFunction,ComponentPad*%
%ADD34R,1.350000X1.350000*%
%TD*%
%TA.AperFunction,ComponentPad*%
%ADD35C,1.350000*%
%TD*%
%TA.AperFunction,SMDPad,CuDef*%
%ADD36RoundRect,0.250000X-0.450000X-0.350000X0.450000X-0.350000X0.450000X0.350000X-0.450000X0.350000X0*%
%TD*%
%TA.AperFunction,ComponentPad*%
%ADD37R,1.150000X1.500000*%
%TD*%
%TA.AperFunction,ComponentPad*%
%ADD38O,1.150000X1.500000*%
%TD*%
%TA.AperFunction,SMDPad,CuDef*%
%ADD39RoundRect,0.150000X-0.150000X-0.575000X0.150000X-0.575000X0.150000X0.575000X-0.150000X0.575000X0*%
%TD*%
%TA.AperFunction,SMDPad,CuDef*%
%ADD40RoundRect,0.075000X-0.075000X-0.650000X0.075000X-0.650000X0.075000X0.650000X-0.075000X0.650000X0*%
%TD*%
%TA.AperFunction,ComponentPad*%
%ADD41O,1.000000X2.100000*%
%TD*%
%TA.AperFunction,ComponentPad*%
%ADD42O,1.000000X1.600000*%
%TD*%
%TA.AperFunction,SMDPad,CuDef*%
%ADD43RoundRect,0.135000X-0.185000X0.135000X-0.185000X-0.135000X0.185000X-0.135000X0.185000X0.135000X0*%
%TD*%
%TA.AperFunction,SMDPad,CuDef*%
%ADD44RoundRect,0.250000X0.350000X0.450000X-0.350000X0.450000X-0.350000X-0.450000X0.350000X-0.450000X0*%
%TD*%
%TA.AperFunction,SMDPad,CuDef*%
%ADD45RoundRect,0.150000X-0.512500X-0.150000X0.512500X-0.150000X0.512500X0.150000X-0.512500X0.150000X0*%
%TD*%
%TA.AperFunction,SMDPad,CuDef*%
%ADD46RoundRect,0.375000X0.625000X0.375000X-0.625000X0.375000X-0.625000X-0.375000X0.625000X-0.375000X0*%
%TD*%
%TA.AperFunction,SMDPad,CuDef*%
%ADD47RoundRect,0.500000X0.500000X1.400000X-0.500000X1.400000X-0.500000X-1.400000X0.500000X-1.400000X0*%
%TD*%
%TA.AperFunction,SMDPad,CuDef*%
%ADD48RoundRect,0.225000X-0.250000X0.225000X-0.250000X-0.225000X0.250000X-0.225000X0.250000X0.225000X0*%
%TD*%
%TA.AperFunction,SMDPad,CuDef*%
%ADD49RoundRect,0.218750X-0.218750X-0.256250X0.218750X-0.256250X0.218750X0.256250X-0.218750X0.256250X0*%
%TD*%
%TA.AperFunction,ViaPad*%
%ADD50C,0.700000*%
%TD*%
%TA.AperFunction,Conductor*%
%ADD51C,0.200000*%
%TD*%
G04 APERTURE END LIST*
D10*
%TO.P,J8,2,Pin_2_2*%
%TO.N,Net-(D18-A)*%
X142318300Y-33650000D03*
D11*
%TO.P,J8,1,Pin_1_1*%
%TO.N,GND*%
X135118300Y-33650000D03*
D12*
%TO.P,J8,*%
%TO.N,*%
X145468300Y-27650000D03*
X131968300Y-27650000D03*
%TD*%
D13*
%TO.P,SW1,2,2_2*%
%TO.N,Net-(U3-BOOT0)*%
X93750000Y-115250000D03*
X93750000Y-121750000D03*
%TO.P,SW1,1,1_1*%
%TO.N,+3.3V*%
X89250000Y-115250000D03*
X89250000Y-121750000D03*
%TD*%
D14*
%TO.P,C6,1*%
%TO.N,+3.3V*%
X60410100Y-120895000D03*
%TO.P,C6,2*%
%TO.N,GND*%
X62485100Y-120895000D03*
%TD*%
D15*
%TO.P,R54,1*%
%TO.N,FAN_CTRL*%
X139500000Y-112000000D03*
%TO.P,R54,2*%
%TO.N,Net-(Q6-B)*%
X139500000Y-114000000D03*
%TD*%
D16*
%TO.P,R23,1*%
%TO.N,Net-(Q3-G)*%
X78680800Y-49460500D03*
%TO.P,R23,2*%
%TO.N,GATE_P3*%
X80680800Y-49460500D03*
%TD*%
%TO.P,R8,1*%
%TO.N,Net-(D14-A)*%
X37643300Y-38460500D03*
%TO.P,R8,2*%
%TO.N,ADC_P1*%
X39643300Y-38460500D03*
%TD*%
D17*
%TO.P,C14,1*%
%TO.N,Net-(U3-VDDA)*%
X30972400Y-113662500D03*
%TO.P,C14,2*%
%TO.N,GND*%
X30012400Y-113662500D03*
%TD*%
D18*
%TO.P,U3,1,VBAT_1*%
%TO.N,+3.3V*%
X32889900Y-113750000D03*
%TO.P,U3,2,PC13_2*%
%TO.N,unconnected-(U3-PC13-Pad2)*%
X32889900Y-114250000D03*
%TO.P,U3,3,PC14_3*%
%TO.N,unconnected-(U3-PC14-Pad3)*%
X32889900Y-114750000D03*
%TO.P,U3,4,PC15_4*%
%TO.N,unconnected-(U3-PC15-Pad4)*%
X32889900Y-115250000D03*
%TO.P,U3,5,PD0_5*%
%TO.N,/STM32/HSE_IN*%
X32889900Y-115750000D03*
%TO.P,U3,6,PD1_6*%
%TO.N,/STM32/HSE_OUT*%
X32889900Y-116250000D03*
%TO.P,U3,7,NRST_7*%
%TO.N,/STM32/NRST*%
X32889900Y-116750000D03*
%TO.P,U3,8,VSSA_8*%
%TO.N,GND*%
X32889900Y-117250000D03*
%TO.P,U3,9,VDDA_9*%
%TO.N,Net-(U3-VDDA)*%
X32889900Y-117750000D03*
%TO.P,U3,10,PA0_10*%
%TO.N,ADC_P1*%
X32889900Y-118250000D03*
%TO.P,U3,11,PA1_11*%
%TO.N,ADC_P2*%
X32889900Y-118750000D03*
%TO.P,U3,12,PA2_12*%
%TO.N,ADC_P3*%
X32889900Y-119250000D03*
D19*
%TO.P,U3,13,PA3_13*%
%TO.N,ADC_P4*%
X34302400Y-120662500D03*
%TO.P,U3,14,PA4_14*%
%TO.N,ADC_P5*%
X34802400Y-120662500D03*
%TO.P,U3,15,PA5_15*%
%TO.N,GATE_P1*%
X35302400Y-120662500D03*
%TO.P,U3,16,PA6_16*%
%TO.N,GATE_P2*%
X35802400Y-120662500D03*
%TO.P,U3,17,PA7_17*%
%TO.N,GATE_P3*%
X36302400Y-120662500D03*
%TO.P,U3,18,PB0_18*%
%TO.N,unconnected-(U3-PB0-Pad18)*%
X36802400Y-120662500D03*
%TO.P,U3,19,PB1_19*%
%TO.N,unconnected-(U3-PB1-Pad19)*%
X37302400Y-120662500D03*
%TO.P,U3,20,PB2_20*%
%TO.N,unconnected-(U3-PB2-Pad20)*%
X37802400Y-120662500D03*
%TO.P,U3,21,PB10_21*%
%TO.N,/STM32/I2C2_SCL*%
X38302400Y-120662500D03*
%TO.P,U3,22,PB11_22*%
%TO.N,/STM32/I2C2_SDA*%
X38802400Y-120662500D03*
%TO.P,U3,23,VSS_23*%
%TO.N,GND*%
X39302400Y-120662500D03*
%TO.P,U3,24,VDD_24*%
%TO.N,+3.3V*%
X39802400Y-120662500D03*
D18*
%TO.P,U3,25,PB12_25*%
%TO.N,unconnected-(U3-PB12-Pad25)*%
X41214900Y-119250000D03*
%TO.P,U3,26,PB13_26*%
%TO.N,unconnected-(U3-PB13-Pad26)*%
X41214900Y-118750000D03*
%TO.P,U3,27,PB14_27*%
%TO.N,unconnected-(U3-PB14-Pad27)*%
X41214900Y-118250000D03*
%TO.P,U3,28,PB15_28*%
%TO.N,unconnected-(U3-PB15-Pad28)*%
X41214900Y-117750000D03*
%TO.P,U3,29,PA8_29*%
%TO.N,GATE_P4*%
X41214900Y-117250000D03*
%TO.P,U3,30,PA9_30*%
%TO.N,GATE_P5*%
X41214900Y-116750000D03*
%TO.P,U3,31,PA10_31*%
%TO.N,FAN_CTRL*%
X41214900Y-116250000D03*
%TO.P,U3,32,PA11_32*%
%TO.N,/STM32/USB_D-*%
X41214900Y-115750000D03*
%TO.P,U3,33,PA12_33*%
%TO.N,/STM32/USB_D+*%
X41214900Y-115250000D03*
%TO.P,U3,34,PA13_34*%
%TO.N,/STM32/SWDIO*%
X41214900Y-114750000D03*
%TO.P,U3,35,VSS_35*%
%TO.N,GND*%
X41214900Y-114250000D03*
%TO.P,U3,36,VDD_36*%
%TO.N,+3.3V*%
X41214900Y-113750000D03*
D19*
%TO.P,U3,37,PA14_37*%
%TO.N,/STM32/SWCLK*%
X39802400Y-112337500D03*
%TO.P,U3,38,PA15_38*%
%TO.N,unconnected-(U3-PA15-Pad38)*%
X39302400Y-112337500D03*
%TO.P,U3,39,PB3_39*%
%TO.N,unconnected-(U3-PB3-Pad39)*%
X38802400Y-112337500D03*
%TO.P,U3,40,PB4_40*%
%TO.N,unconnected-(U3-PB4-Pad40)*%
X38302400Y-112337500D03*
%TO.P,U3,41,PB5_41*%
%TO.N,unconnected-(U3-PB5-Pad41)*%
X37802400Y-112337500D03*
%TO.P,U3,42,PB6_42*%
%TO.N,/STM32/USART1_TX*%
X37302400Y-112337500D03*
%TO.P,U3,43,PB7_43*%
%TO.N,/STM32/USART1_RX*%
X36802400Y-112337500D03*
%TO.P,U3,44,BOOT0_44*%
%TO.N,Net-(U3-BOOT0)*%
X36302400Y-112337500D03*
%TO.P,U3,45,PB8_45*%
%TO.N,unconnected-(U3-PB8-Pad45)*%
X35802400Y-112337500D03*
%TO.P,U3,46,PB9_46*%
%TO.N,unconnected-(U3-PB9-Pad46)*%
X35302400Y-112337500D03*
%TO.P,U3,47,VSS_47*%
%TO.N,GND*%
X34802400Y-112337500D03*
%TO.P,U3,48,VDD_48*%
%TO.N,+3.3V*%
X34302400Y-112337500D03*
%TD*%
D16*
%TO.P,R33,1*%
%TO.N,ADC_P5*%
X141718300Y-41410500D03*
%TO.P,R33,2*%
%TO.N,GND*%
X143718300Y-41410500D03*
%TD*%
D20*
%TO.P,RP_SCL1,1*%
%TO.N,+3.3V*%
X128689100Y-115000000D03*
%TO.P,RP_SCL1,2*%
%TO.N,/STM32/I2C2_SCL*%
X129709100Y-115000000D03*
%TD*%
D21*
%TO.P,FAN,1,Pin_1_1*%
%TO.N,Net-(D13-K)*%
X149991500Y-113500000D03*
D22*
%TO.P,FAN,2,Pin_2_2*%
%TO.N,+5V*%
X149991500Y-110960000D03*
%TD*%
D16*
%TO.P,R11,1*%
%TO.N,Net-(Q1-G)*%
X26643300Y-52410500D03*
%TO.P,R11,2*%
%TO.N,GND*%
X28643300Y-52410500D03*
%TD*%
D23*
%TO.P,D3,1,A1_1*%
%TO.N,GND*%
X28243300Y-39460500D03*
%TO.P,D3,2,A2_2*%
%TO.N,Net-(D14-A)*%
X33643300Y-39460500D03*
%TD*%
D24*
%TO.P,L1,1,1_1*%
%TO.N,Net-(U1-BST)*%
X77110100Y-112232500D03*
%TO.P,L1,2,2_2*%
%TO.N,+5V*%
X70710100Y-112232500D03*
%TD*%
D16*
%TO.P,R10,1*%
%TO.N,Net-(Q1-G)*%
X26643300Y-49460500D03*
%TO.P,R10,2*%
%TO.N,GATE_P1*%
X28643300Y-49460500D03*
%TD*%
D23*
%TO.P,D1,1,K_1*%
%TO.N,+5V*%
X51747600Y-110732500D03*
%TO.P,D1,2,A_2*%
%TO.N,+3.3V*%
X57147600Y-110732500D03*
%TD*%
D14*
%TO.P,C2,1*%
%TO.N,Net-(U1-SW)*%
X77410100Y-117732500D03*
%TO.P,C2,2*%
%TO.N,Net-(U1-BST)*%
X79485100Y-117732500D03*
%TD*%
D25*
%TO.P,D13,1,K_1*%
%TO.N,Net-(D13-K)*%
X147111500Y-108500000D03*
D26*
%TO.P,D13,2,A_2*%
%TO.N,+5V*%
X139491500Y-108500000D03*
%TD*%
D27*
%TO.P,C10,1*%
%TO.N,+3.3V*%
X33842400Y-110192500D03*
%TO.P,C10,2*%
%TO.N,GND*%
X34802400Y-110192500D03*
%TD*%
D28*
%TO.P,R13,1*%
%TO.N,Net-(R12-Pad2)*%
X34593300Y-103320500D03*
%TO.P,R13,2*%
%TO.N,Net-(Q1-D)*%
X34593300Y-57600500D03*
%TD*%
D16*
%TO.P,R27,1*%
%TO.N,ADC_P4*%
X115699500Y-41410500D03*
%TO.P,R27,2*%
%TO.N,GND*%
X117699500Y-41410500D03*
%TD*%
D29*
%TO.P,Q2,1,G_1*%
%TO.N,Net-(Q2-G)*%
X58622000Y-51910500D03*
D30*
%TO.P,Q2,2,S_2*%
%TO.N,GND*%
X61162000Y-51910500D03*
%TO.P,Q2,3,D_3*%
%TO.N,Net-(Q2-D)*%
X63702000Y-51910500D03*
%TD*%
D20*
%TO.P,RP_SDA1,1*%
%TO.N,/STM32/I2C2_SDA*%
X131189100Y-115000000D03*
%TO.P,RP_SDA1,2*%
%TO.N,+3.3V*%
X132209100Y-115000000D03*
%TD*%
D14*
%TO.P,C21,1*%
%TO.N,ADC_P4*%
X115699500Y-43960500D03*
%TO.P,C21,2*%
%TO.N,GND*%
X117774500Y-43960500D03*
%TD*%
D17*
%TO.P,C11,1*%
%TO.N,+3.3V*%
X39782400Y-124000000D03*
%TO.P,C11,2*%
%TO.N,GND*%
X38822400Y-124000000D03*
%TD*%
D23*
%TO.P,D7,1,A1_1*%
%TO.N,GND*%
X132318300Y-39460500D03*
%TO.P,D7,2,A2_2*%
%TO.N,Net-(D18-A)*%
X137718300Y-39460500D03*
%TD*%
D31*
%TO.P,D19,1,K_1*%
%TO.N,Net-(D19-K)*%
X61447600Y-113232500D03*
%TO.P,D19,2,A_2*%
%TO.N,+3.3V*%
X61447600Y-108557500D03*
%TD*%
D17*
%TO.P,C8,1*%
%TO.N,/STM32/NRST*%
X30972400Y-119692500D03*
%TO.P,C8,2*%
%TO.N,GND*%
X30012400Y-119692500D03*
%TD*%
D32*
%TO.P,D15,1,K_1*%
%TO.N,+BATT*%
X53762000Y-44510500D03*
%TO.P,D15,2,A_2*%
%TO.N,Net-(D15-A)*%
X57762000Y-44510500D03*
%TD*%
D16*
%TO.P,R16,1*%
%TO.N,Net-(Q2-G)*%
X52662000Y-52410500D03*
%TO.P,R16,2*%
%TO.N,GND*%
X54662000Y-52410500D03*
%TD*%
D33*
%TO.P,C15,1*%
%TO.N,+3.3V*%
X45302400Y-112642500D03*
%TO.P,C15,2*%
%TO.N,GND*%
X45302400Y-113602500D03*
%TD*%
D28*
%TO.P,R56,1*%
%TO.N,Net-(R18-Pad1)*%
X68562000Y-103320500D03*
%TO.P,R56,2*%
%TO.N,Net-(D15-A)*%
X68562000Y-57600500D03*
%TD*%
D12*
%TO.P,J5,*%
%TO.N,*%
X53912000Y-27650000D03*
X67412000Y-27650000D03*
D11*
%TO.P,J5,1,Pin_1_1*%
%TO.N,GND*%
X57062000Y-33650000D03*
D10*
%TO.P,J5,2,Pin_2_2*%
%TO.N,Net-(D15-A)*%
X64262000Y-33650000D03*
%TD*%
D23*
%TO.P,D5,1,A1_1*%
%TO.N,GND*%
X80280800Y-39460500D03*
%TO.P,D5,2,A2_2*%
%TO.N,Net-(D16-A)*%
X85680800Y-39460500D03*
%TD*%
D29*
%TO.P,Q1,1,G_1*%
%TO.N,Net-(Q1-G)*%
X32603300Y-51910500D03*
D30*
%TO.P,Q1,2,S_2*%
%TO.N,GND*%
X35143300Y-51910500D03*
%TO.P,Q1,3,D_3*%
%TO.N,Net-(Q1-D)*%
X37683300Y-51910500D03*
%TD*%
D34*
%TO.P,ST-Link,1,Pin_1_1*%
%TO.N,+3.3V*%
X150709100Y-118242900D03*
D35*
%TO.P,ST-Link,2,Pin_2_2*%
%TO.N,/STM32/SWDIO*%
X148709100Y-118242900D03*
%TO.P,ST-Link,3,Pin_3_3*%
%TO.N,/STM32/SWCLK*%
X146709100Y-118242900D03*
%TO.P,ST-Link,4,Pin_4_4*%
%TO.N,GND*%
X144709100Y-118242900D03*
%TD*%
D27*
%TO.P,C25,1*%
%TO.N,/STM32/HSE_OUT*%
X25092400Y-116000000D03*
%TO.P,C25,2*%
%TO.N,GND*%
X26052400Y-116000000D03*
%TD*%
D36*
%TO.P,Y1,1,1_1*%
%TO.N,/STM32/HSE_IN*%
X28202400Y-118042500D03*
%TO.P,Y1,2,2_2*%
%TO.N,GND*%
X30402400Y-118042500D03*
%TO.P,Y1,3,3_3*%
%TO.N,/STM32/HSE_OUT*%
X30402400Y-116342500D03*
%TO.P,Y1,4,4_4*%
%TO.N,GND*%
X28202400Y-116342500D03*
%TD*%
D28*
%TO.P,R25,1*%
%TO.N,Net-(R24-Pad2)*%
X86630800Y-103320500D03*
%TO.P,R25,2*%
%TO.N,Net-(Q3-D)*%
X86630800Y-57600500D03*
%TD*%
D29*
%TO.P,Q3,1,G_1*%
%TO.N,Net-(Q3-G)*%
X84640800Y-51910500D03*
D30*
%TO.P,Q3,2,S_2*%
%TO.N,GND*%
X87180800Y-51910500D03*
%TO.P,Q3,3,D_3*%
%TO.N,Net-(Q3-D)*%
X89720800Y-51910500D03*
%TD*%
D34*
%TO.P,I2C,1,Pin_1_1*%
%TO.N,+3.3V*%
X132209100Y-118242900D03*
D35*
%TO.P,I2C,2,Pin_2_2*%
%TO.N,/STM32/I2C2_SCL*%
X130209100Y-118242900D03*
%TO.P,I2C,3,Pin_3_3*%
%TO.N,/STM32/I2C2_SDA*%
X128209100Y-118242900D03*
%TO.P,I2C,4,Pin_4_4*%
%TO.N,GND*%
X126209100Y-118242900D03*
%TD*%
D37*
%TO.P,Q6,1,B_1*%
%TO.N,Net-(Q6-B)*%
X146361500Y-112640000D03*
D38*
%TO.P,Q6,2,C_2*%
%TO.N,Net-(D13-K)*%
X144961500Y-112640000D03*
%TO.P,Q6,3,E_3*%
%TO.N,GND*%
X143561500Y-112640000D03*
%TD*%
D28*
%TO.P,R55,1*%
%TO.N,Net-(R12-Pad1)*%
X42543300Y-103320500D03*
%TO.P,R55,2*%
%TO.N,Net-(D14-A)*%
X42543300Y-57600500D03*
%TD*%
D12*
%TO.P,J4,*%
%TO.N,*%
X27893300Y-27650000D03*
X41393300Y-27650000D03*
D11*
%TO.P,J4,1,Pin_1_1*%
%TO.N,GND*%
X31043300Y-33650000D03*
D10*
%TO.P,J4,2,Pin_2_2*%
%TO.N,Net-(D14-A)*%
X38243300Y-33650000D03*
%TD*%
D29*
%TO.P,Q5,1,G_1*%
%TO.N,Net-(Q5-G)*%
X136678300Y-51910500D03*
D30*
%TO.P,Q5,2,S_2*%
%TO.N,GND*%
X139218300Y-51910500D03*
%TO.P,Q5,3,D_3*%
%TO.N,Net-(Q5-D)*%
X141758300Y-51910500D03*
%TD*%
D39*
%TO.P,J2,A1,GND_A1*%
%TO.N,GND*%
X100250000Y-116955000D03*
%TO.P,J2,A4,VBUS_A4*%
%TO.N,+5V*%
X101050000Y-116955000D03*
D40*
%TO.P,J2,A5,CC1_A5*%
%TO.N,unconnected-(J2-CC1-PadA5)*%
X102250000Y-116955000D03*
%TO.P,J2,A6,D+_A6*%
%TO.N,/STM32/USB_D+*%
X103250000Y-116955000D03*
%TO.P,J2,A7,D-_A7*%
%TO.N,/STM32/USB_D-*%
X103750000Y-116955000D03*
%TO.P,J2,A8,SBU1_A8*%
%TO.N,unconnected-(J2-SBU1-PadA8)*%
X104750000Y-116955000D03*
D39*
%TO.P,J2,A9,VBUS_A9*%
%TO.N,+5V*%
X105950000Y-116955000D03*
%TO.P,J2,A12,GND_A12*%
%TO.N,GND*%
X106750000Y-116955000D03*
%TO.P,J2,B1,GND_B1*%
X106750000Y-116955000D03*
%TO.P,J2,B4,VBUS_B4*%
%TO.N,+5V*%
X105950000Y-116955000D03*
D40*
%TO.P,J2,B5,CC2_B5*%
%TO.N,unconnected-(J2-CC2-PadB5)*%
X105250000Y-116955000D03*
%TO.P,J2,B6,D+_B6*%
%TO.N,/STM32/USB_D+*%
X104250000Y-116955000D03*
%TO.P,J2,B7,D-_B7*%
%TO.N,/STM32/USB_D-*%
X102750000Y-116955000D03*
%TO.P,J2,B8,SBU2_B8*%
%TO.N,unconnected-(J2-SBU2-PadB8)*%
X101750000Y-116955000D03*
D39*
%TO.P,J2,B9,VBUS_B9*%
%TO.N,+5V*%
X101050000Y-116955000D03*
%TO.P,J2,B12,GND_B12*%
%TO.N,GND*%
X100250000Y-116955000D03*
D41*
%TO.P,J2,SH,SHIELD_SH*%
%TO.N,unconnected-(J2-SHIELD-PadSH)_3*%
X99180000Y-117870000D03*
D42*
%TO.N,unconnected-(J2-SHIELD-PadSH)*%
X99180000Y-122050000D03*
D41*
%TO.N,unconnected-(J2-SHIELD-PadSH)_2*%
X107820000Y-117870000D03*
D42*
%TO.N,unconnected-(J2-SHIELD-PadSH)_1*%
X107820000Y-122050000D03*
%TD*%
D43*
%TO.P,R2,1*%
%TO.N,GND*%
X99000000Y-111490000D03*
%TO.P,R2,2*%
%TO.N,Net-(U3-BOOT0)*%
X99000000Y-112510000D03*
%TD*%
D28*
%TO.P,R36,1*%
%TO.N,Net-(R36-Pad1)*%
X130718300Y-103320500D03*
%TO.P,R36,2*%
%TO.N,Net-(R36-Pad2)*%
X130718300Y-57600500D03*
%TD*%
D17*
%TO.P,C13,1*%
%TO.N,Net-(U3-VDDA)*%
X30972400Y-114662500D03*
%TO.P,C13,2*%
%TO.N,GND*%
X30012400Y-114662500D03*
%TD*%
D16*
%TO.P,R15,1*%
%TO.N,ADC_P2*%
X63662000Y-41410500D03*
%TO.P,R15,2*%
%TO.N,GND*%
X65662000Y-41410500D03*
%TD*%
D29*
%TO.P,Q4,1,G_1*%
%TO.N,Net-(Q4-G)*%
X110659500Y-51910500D03*
D30*
%TO.P,Q4,2,S_2*%
%TO.N,GND*%
X113199500Y-51910500D03*
%TO.P,Q4,3,D_3*%
%TO.N,Net-(Q4-D)*%
X115739500Y-51910500D03*
%TD*%
D44*
%TO.P,R4,1*%
%TO.N,Net-(D19-K)*%
X62447600Y-115828300D03*
%TO.P,R4,2*%
%TO.N,GND*%
X60447600Y-115828300D03*
%TD*%
D16*
%TO.P,R32,1*%
%TO.N,Net-(D18-A)*%
X141718300Y-38460500D03*
%TO.P,R32,2*%
%TO.N,ADC_P5*%
X143718300Y-38460500D03*
%TD*%
D28*
%TO.P,R58,1*%
%TO.N,Net-(R30-Pad1)*%
X120599500Y-103320500D03*
%TO.P,R58,2*%
%TO.N,Net-(D17-A)*%
X120599500Y-57600500D03*
%TD*%
D16*
%TO.P,R20,1*%
%TO.N,Net-(D16-A)*%
X89680800Y-38460500D03*
%TO.P,R20,2*%
%TO.N,ADC_P3*%
X91680800Y-38460500D03*
%TD*%
D27*
%TO.P,C9,1*%
%TO.N,+3.3V*%
X33842400Y-109192500D03*
%TO.P,C9,2*%
%TO.N,GND*%
X34802400Y-109192500D03*
%TD*%
D14*
%TO.P,C22,1*%
%TO.N,ADC_P5*%
X141718300Y-43960500D03*
%TO.P,C22,2*%
%TO.N,GND*%
X143793300Y-43960500D03*
%TD*%
D28*
%TO.P,R18,1*%
%TO.N,Net-(R18-Pad1)*%
X52662000Y-103320500D03*
%TO.P,R18,2*%
%TO.N,Net-(R18-Pad2)*%
X52662000Y-57600500D03*
%TD*%
D27*
%TO.P,C17,1*%
%TO.N,/STM32/HSE_IN*%
X25092400Y-118000000D03*
%TO.P,C17,2*%
%TO.N,GND*%
X26052400Y-118000000D03*
%TD*%
D14*
%TO.P,C19,1*%
%TO.N,ADC_P2*%
X63662000Y-43960500D03*
%TO.P,C19,2*%
%TO.N,GND*%
X65737000Y-43960500D03*
%TD*%
D45*
%TO.P,U1,1,FB_1*%
%TO.N,+5V*%
X72772600Y-117332500D03*
%TO.P,U1,2,EN_2*%
%TO.N,+BATT*%
X72772600Y-118282500D03*
%TO.P,U1,3,IN_3*%
X72772600Y-119232500D03*
%TO.P,U1,4,GND_4*%
%TO.N,GND*%
X75047600Y-119232500D03*
%TO.P,U1,5,SW_5*%
%TO.N,Net-(U1-SW)*%
X75047600Y-118282500D03*
%TO.P,U1,6,BST_6*%
%TO.N,Net-(U1-BST)*%
X75047600Y-117332500D03*
%TD*%
D32*
%TO.P,D14,1,K_1*%
%TO.N,+BATT*%
X27743300Y-44510500D03*
%TO.P,D14,2,A_2*%
%TO.N,Net-(D14-A)*%
X31743300Y-44510500D03*
%TD*%
D28*
%TO.P,R57,1*%
%TO.N,Net-(R24-Pad1)*%
X94580800Y-103320500D03*
%TO.P,R57,2*%
%TO.N,Net-(D16-A)*%
X94580800Y-57600500D03*
%TD*%
D46*
%TO.P,U2,1,GND_1*%
%TO.N,GND*%
X57597600Y-119532500D03*
%TO.P,U2,2,VO_2*%
%TO.N,+3.3V*%
X57597600Y-117232500D03*
D47*
X51297600Y-117232500D03*
D46*
%TO.P,U2,3,VI_3*%
%TO.N,+5V*%
X57597600Y-114932500D03*
%TD*%
D16*
%TO.P,R29,1*%
%TO.N,Net-(Q4-G)*%
X104699500Y-49460500D03*
%TO.P,R29,2*%
%TO.N,GATE_P4*%
X106699500Y-49460500D03*
%TD*%
D23*
%TO.P,D6,1,A1_1*%
%TO.N,GND*%
X106299500Y-39460500D03*
%TO.P,D6,2,A2_2*%
%TO.N,Net-(D17-A)*%
X111699500Y-39460500D03*
%TD*%
D28*
%TO.P,R37,1*%
%TO.N,Net-(R36-Pad2)*%
X138668300Y-103320500D03*
%TO.P,R37,2*%
%TO.N,Net-(Q5-D)*%
X138668300Y-57600500D03*
%TD*%
D12*
%TO.P,J6,*%
%TO.N,*%
X79930800Y-27650000D03*
X93430800Y-27650000D03*
D11*
%TO.P,J6,1,Pin_1_1*%
%TO.N,GND*%
X83080800Y-33650000D03*
D10*
%TO.P,J6,2,Pin_2_2*%
%TO.N,Net-(D16-A)*%
X90280800Y-33650000D03*
%TD*%
D16*
%TO.P,R14,1*%
%TO.N,Net-(D15-A)*%
X63662000Y-38460500D03*
%TO.P,R14,2*%
%TO.N,ADC_P2*%
X65662000Y-38460500D03*
%TD*%
D43*
%TO.P,R3,1*%
%TO.N,+3.3V*%
X103947600Y-111952500D03*
%TO.P,R3,2*%
%TO.N,/STM32/USB_D+*%
X103947600Y-112972500D03*
%TD*%
D16*
%TO.P,R34,1*%
%TO.N,Net-(Q5-G)*%
X130718300Y-52410500D03*
%TO.P,R34,2*%
%TO.N,GND*%
X132718300Y-52410500D03*
%TD*%
D32*
%TO.P,D16,1,K_1*%
%TO.N,+BATT*%
X79780800Y-44510500D03*
%TO.P,D16,2,A_2*%
%TO.N,Net-(D16-A)*%
X83780800Y-44510500D03*
%TD*%
D16*
%TO.P,R17,1*%
%TO.N,Net-(Q2-G)*%
X52662000Y-49460500D03*
%TO.P,R17,2*%
%TO.N,GATE_P2*%
X54662000Y-49460500D03*
%TD*%
D14*
%TO.P,C1,1*%
%TO.N,+BATT*%
X72872600Y-122232500D03*
%TO.P,C1,2*%
%TO.N,GND*%
X74947600Y-122232500D03*
%TD*%
D16*
%TO.P,R22,1*%
%TO.N,Net-(Q3-G)*%
X78680800Y-52410500D03*
%TO.P,R22,2*%
%TO.N,GND*%
X80680800Y-52410500D03*
%TD*%
D28*
%TO.P,R19,1*%
%TO.N,Net-(R18-Pad2)*%
X60612000Y-103320500D03*
%TO.P,R19,2*%
%TO.N,Net-(Q2-D)*%
X60612000Y-57600500D03*
%TD*%
D34*
%TO.P,UART,1,Pin_1_1*%
%TO.N,+3.3V*%
X141459100Y-118242900D03*
D35*
%TO.P,UART,2,Pin_2_2*%
%TO.N,/STM32/USART1_TX*%
X139459100Y-118242900D03*
%TO.P,UART,3,Pin_3_3*%
%TO.N,/STM32/USART1_RX*%
X137459100Y-118242900D03*
%TO.P,UART,4,Pin_4_4*%
%TO.N,GND*%
X135459100Y-118242900D03*
%TD*%
D28*
%TO.P,R31,1*%
%TO.N,Net-(R30-Pad2)*%
X112649500Y-103320500D03*
%TO.P,R31,2*%
%TO.N,Net-(Q4-D)*%
X112649500Y-57600500D03*
%TD*%
D16*
%TO.P,R35,1*%
%TO.N,Net-(Q5-G)*%
X130718300Y-49460500D03*
%TO.P,R35,2*%
%TO.N,GATE_P5*%
X132718300Y-49460500D03*
%TD*%
D14*
%TO.P,C4,1*%
%TO.N,+5V*%
X68410100Y-120232500D03*
%TO.P,C4,2*%
%TO.N,GND*%
X70485100Y-120232500D03*
%TD*%
D17*
%TO.P,C12,1*%
%TO.N,+3.3V*%
X39782400Y-122692500D03*
%TO.P,C12,2*%
%TO.N,GND*%
X38822400Y-122692500D03*
%TD*%
D16*
%TO.P,R28,1*%
%TO.N,Net-(Q4-G)*%
X104699500Y-52410500D03*
%TO.P,R28,2*%
%TO.N,GND*%
X106699500Y-52410500D03*
%TD*%
D28*
%TO.P,R12,1*%
%TO.N,Net-(R12-Pad1)*%
X26643300Y-103320500D03*
%TO.P,R12,2*%
%TO.N,Net-(R12-Pad2)*%
X26643300Y-57600500D03*
%TD*%
D48*
%TO.P,C7,1*%
%TO.N,+3.3V*%
X43802400Y-112917500D03*
%TO.P,C7,2*%
%TO.N,GND*%
X43802400Y-114467500D03*
%TD*%
D49*
%TO.P,FB1,1*%
%TO.N,Net-(U3-VDDA)*%
X29134900Y-112192500D03*
%TO.P,FB1,2*%
%TO.N,+3.3V*%
X30709900Y-112192500D03*
%TD*%
D23*
%TO.P,D4,1,A1_1*%
%TO.N,GND*%
X54262000Y-39460500D03*
%TO.P,D4,2,A2_2*%
%TO.N,Net-(D15-A)*%
X59662000Y-39460500D03*
%TD*%
D14*
%TO.P,C20,1*%
%TO.N,ADC_P3*%
X89680800Y-43960500D03*
%TO.P,C20,2*%
%TO.N,GND*%
X91755800Y-43960500D03*
%TD*%
D16*
%TO.P,R9,1*%
%TO.N,ADC_P1*%
X37643300Y-41410500D03*
%TO.P,R9,2*%
%TO.N,GND*%
X39643300Y-41410500D03*
%TD*%
%TO.P,R26,1*%
%TO.N,Net-(D17-A)*%
X115699500Y-38460500D03*
%TO.P,R26,2*%
%TO.N,ADC_P4*%
X117699500Y-38460500D03*
%TD*%
D14*
%TO.P,C5,1*%
%TO.N,+5V*%
X60410100Y-118346700D03*
%TO.P,C5,2*%
%TO.N,GND*%
X62485100Y-118346700D03*
%TD*%
%TO.P,C3,1*%
%TO.N,+5V*%
X68410100Y-117732500D03*
%TO.P,C3,2*%
%TO.N,GND*%
X70485100Y-117732500D03*
%TD*%
D32*
%TO.P,D17,1,K_1*%
%TO.N,+BATT*%
X105799500Y-44510500D03*
%TO.P,D17,2,A_2*%
%TO.N,Net-(D17-A)*%
X109799500Y-44510500D03*
%TD*%
D28*
%TO.P,R59,1*%
%TO.N,Net-(R36-Pad1)*%
X146618300Y-103320500D03*
%TO.P,R59,2*%
%TO.N,Net-(D18-A)*%
X146618300Y-57600500D03*
%TD*%
%TO.P,R30,1*%
%TO.N,Net-(R30-Pad1)*%
X104699500Y-103320500D03*
%TO.P,R30,2*%
%TO.N,Net-(R30-Pad2)*%
X104699500Y-57600500D03*
%TD*%
D14*
%TO.P,C18,1*%
%TO.N,ADC_P1*%
X37643300Y-43960500D03*
%TO.P,C18,2*%
%TO.N,GND*%
X39718300Y-43960500D03*
%TD*%
D16*
%TO.P,R21,1*%
%TO.N,ADC_P3*%
X89680800Y-41410500D03*
%TO.P,R21,2*%
%TO.N,GND*%
X91680800Y-41410500D03*
%TD*%
D12*
%TO.P,J7,*%
%TO.N,*%
X105949500Y-27650000D03*
X119449500Y-27650000D03*
D11*
%TO.P,J7,1,Pin_1_1*%
%TO.N,GND*%
X109099500Y-33650000D03*
D10*
%TO.P,J7,2,Pin_2_2*%
%TO.N,Net-(D17-A)*%
X116299500Y-33650000D03*
%TD*%
D32*
%TO.P,D18,1,K_1*%
%TO.N,+BATT*%
X131818300Y-44510500D03*
%TO.P,D18,2,A_2*%
%TO.N,Net-(D18-A)*%
X135818300Y-44510500D03*
%TD*%
D28*
%TO.P,R24,1*%
%TO.N,Net-(R24-Pad1)*%
X78680800Y-103320500D03*
%TO.P,R24,2*%
%TO.N,Net-(R24-Pad2)*%
X78680800Y-57600500D03*
%TD*%
D50*
%TO.N,+BATT*%
X73211600Y-116468300D03*
X74627500Y-45717200D03*
%TO.N,+5V*%
X116734900Y-119105300D03*
%TO.N,Net-(U3-BOOT0)*%
X87956600Y-105541400D03*
%TO.N,/STM32/USART1_RX*%
X126487000Y-107335700D03*
%TO.N,/STM32/USART1_TX*%
X125010300Y-107355500D03*
%TO.N,/STM32/USB_D+*%
X64641900Y-109586200D03*
X44149900Y-117030000D03*
%TO.N,/STM32/USB_D-*%
X43211300Y-116899700D03*
X63604600Y-109769300D03*
%TO.N,GATE_P5*%
X38253700Y-116770900D03*
X43756600Y-71979300D03*
%TO.N,GATE_P4*%
X39914700Y-118180900D03*
X54929200Y-65100500D03*
%TO.N,/STM32/I2C2_SDA*%
X121829400Y-124622600D03*
%TO.N,/STM32/I2C2_SCL*%
X124461500Y-123990500D03*
X44306400Y-123949300D03*
X37579000Y-122946000D03*
%TO.N,GATE_P2*%
X38343400Y-119351000D03*
X54425800Y-50731700D03*
%TO.N,GATE_P1*%
X27671100Y-50432700D03*
X35724400Y-121992100D03*
%TO.N,ADC_P5*%
X51093400Y-52549200D03*
X34798600Y-121988000D03*
%TO.N,ADC_P4*%
X114713300Y-44946700D03*
X115788700Y-89176300D03*
%TO.N,ADC_P3*%
X37368200Y-118888700D03*
X59582100Y-45450700D03*
%TO.N,ADC_P2*%
X60322100Y-42685500D03*
X34383700Y-118783800D03*
%TO.N,/STM32/HSE_OUT*%
X34198200Y-116250000D03*
X29153600Y-113977600D03*
%TO.N,Net-(U3-VDDA)*%
X33189000Y-120374400D03*
X32270600Y-112946100D03*
%TO.N,ADC_P1*%
X34642300Y-117862600D03*
X34100900Y-44276500D03*
%TO.N,GATE_P3*%
X56714000Y-62428700D03*
X37102300Y-122084900D03*
%TO.N,FAN_CTRL*%
X43909400Y-106860400D03*
X39901600Y-116250000D03*
%TO.N,GND*%
X35143300Y-45135500D03*
X61162000Y-44988800D03*
X87180800Y-45021200D03*
X42511600Y-113734700D03*
X38223100Y-118276300D03*
X38447700Y-114023500D03*
%TO.N,+3.3V*%
X90673300Y-109179700D03*
%TD*%
%TO.N,+5V*%
D51*
X101050000Y-114579800D02*
X101050000Y-116955000D01*
X100237800Y-113767600D02*
X101050000Y-114579800D01*
X100237800Y-111789400D02*
X100237800Y-113767600D01*
X99208400Y-110760000D02*
X100237800Y-111789400D01*
X90611522Y-116550000D02*
X96401522Y-110760000D01*
X88711522Y-116550000D02*
X90611522Y-116550000D01*
X82994022Y-110832500D02*
X88711522Y-116550000D01*
X96401522Y-110760000D02*
X99208400Y-110760000D01*
X72997150Y-110997150D02*
X73161800Y-110832500D01*
X73161800Y-110832500D02*
X82994022Y-110832500D01*
X72997150Y-110997150D02*
X73163500Y-110830800D01*
%TO.N,GND*%
X79072600Y-123257500D02*
X75047600Y-119232500D01*
X94319000Y-123257500D02*
X79072600Y-123257500D01*
X98344000Y-119232500D02*
X94319000Y-123257500D01*
%TO.N,+3.3V*%
X89250000Y-115250000D02*
X89250000Y-112514900D01*
X89250000Y-112514900D02*
X87138500Y-110403400D01*
%TO.N,Net-(U3-BOOT0)*%
X96490000Y-112510000D02*
X99000000Y-112510000D01*
X93750000Y-115250000D02*
X96490000Y-112510000D01*
%TO.N,Net-(R24-Pad1)*%
X93041000Y-104860300D02*
X94580800Y-103320500D01*
X80220600Y-104860300D02*
X93041000Y-104860300D01*
X78680800Y-103320500D02*
X80220600Y-104860300D01*
%TO.N,Net-(D17-A)*%
X111699500Y-42610500D02*
X111699500Y-39460500D01*
X109799500Y-44510500D02*
X111699500Y-42610500D01*
X115699500Y-34250000D02*
X115699500Y-38460500D01*
X116299500Y-33650000D02*
X115699500Y-34250000D01*
X114699500Y-39460500D02*
X115699500Y-38460500D01*
X111699500Y-39460500D02*
X114699500Y-39460500D01*
%TO.N,Net-(R30-Pad1)*%
X119059700Y-104860300D02*
X120599500Y-103320500D01*
X106239300Y-104860300D02*
X119059700Y-104860300D01*
X104699500Y-103320500D02*
X106239300Y-104860300D01*
%TO.N,Net-(Q4-G)*%
X105759400Y-53470400D02*
X104699500Y-52410500D01*
X107845400Y-53470400D02*
X105759400Y-53470400D01*
X109405300Y-51910500D02*
X107845400Y-53470400D01*
X110659500Y-51910500D02*
X109405300Y-51910500D01*
X104699500Y-52410500D02*
X104699500Y-49460500D01*
%TO.N,Net-(R36-Pad1)*%
X132294600Y-101744200D02*
X130718300Y-103320500D01*
X145042000Y-101744200D02*
X132294600Y-101744200D01*
X146618300Y-103320500D02*
X145042000Y-101744200D01*
%TO.N,Net-(Q5-G)*%
X131778200Y-53470400D02*
X130718300Y-52410500D01*
X133864200Y-53470400D02*
X131778200Y-53470400D01*
X135424100Y-51910500D02*
X133864200Y-53470400D01*
X136678300Y-51910500D02*
X135424100Y-51910500D01*
X130718300Y-49460500D02*
X130718300Y-52410500D01*
%TO.N,Net-(R12-Pad1)*%
X41007600Y-101784800D02*
X42543300Y-103320500D01*
X28179000Y-101784800D02*
X41007600Y-101784800D01*
X26643300Y-103320500D02*
X28179000Y-101784800D01*
%TO.N,Net-(D16-A)*%
X85680800Y-42610500D02*
X85680800Y-39460500D01*
X83780800Y-44510500D02*
X85680800Y-42610500D01*
X89680800Y-34250000D02*
X89680800Y-38460500D01*
X90280800Y-33650000D02*
X89680800Y-34250000D01*
X88680800Y-39460500D02*
X89680800Y-38460500D01*
X85680800Y-39460500D02*
X88680800Y-39460500D01*
%TO.N,Net-(R18-Pad1)*%
X67022200Y-104860300D02*
X68562000Y-103320500D01*
X54201800Y-104860300D02*
X67022200Y-104860300D01*
X52662000Y-103320500D02*
X54201800Y-104860300D01*
%TO.N,Net-(D15-A)*%
X59662000Y-42610500D02*
X59662000Y-39460500D01*
X57762000Y-44510500D02*
X59662000Y-42610500D01*
X63662000Y-34250000D02*
X63662000Y-38460500D01*
X64262000Y-33650000D02*
X63662000Y-34250000D01*
X62662000Y-39460500D02*
X63662000Y-38460500D01*
X59662000Y-39460500D02*
X62662000Y-39460500D01*
%TO.N,+BATT*%
X72772600Y-119232500D02*
X72772600Y-118282500D01*
X52485300Y-45787200D02*
X53762000Y-44510500D01*
X29020000Y-45787200D02*
X52485300Y-45787200D01*
X27743300Y-44510500D02*
X29020000Y-45787200D01*
X72772600Y-122132500D02*
X72772600Y-119232500D01*
X72872600Y-122232500D02*
X72772600Y-122132500D01*
X78574100Y-45717200D02*
X79780800Y-44510500D01*
X74627500Y-45717200D02*
X78574100Y-45717200D01*
X73740500Y-116997200D02*
X73211600Y-116468300D01*
X73740500Y-117728500D02*
X73740500Y-116997200D01*
X73186500Y-118282500D02*
X73740500Y-117728500D01*
X72772600Y-118282500D02*
X73186500Y-118282500D01*
X74225800Y-46118900D02*
X74627500Y-45717200D01*
X55370400Y-46118900D02*
X74225800Y-46118900D01*
X53762000Y-44510500D02*
X55370400Y-46118900D01*
X105799500Y-46129400D02*
X105799500Y-44510500D01*
X81401200Y-46130900D02*
X79780800Y-44510500D01*
X105798000Y-46130900D02*
X81401200Y-46130900D01*
X105799500Y-46129400D02*
X105798000Y-46130900D01*
X130173500Y-46155300D02*
X131818300Y-44510500D01*
X105825400Y-46155300D02*
X130173500Y-46155300D01*
X105799500Y-46129400D02*
X105825400Y-46155300D01*
%TO.N,Net-(D19-K)*%
X62447600Y-114232500D02*
X61447600Y-113232500D01*
X62447600Y-115828300D02*
X62447600Y-114232500D01*
%TO.N,Net-(Q2-G)*%
X53727600Y-53476100D02*
X52662000Y-52410500D01*
X55802200Y-53476100D02*
X53727600Y-53476100D01*
X57367800Y-51910500D02*
X55802200Y-53476100D01*
X58622000Y-51910500D02*
X57367800Y-51910500D01*
X52662000Y-49460500D02*
X52662000Y-52410500D01*
%TO.N,Net-(U1-SW)*%
X76860100Y-118282500D02*
X77410100Y-117732500D01*
X75047600Y-118282500D02*
X76860100Y-118282500D01*
%TO.N,Net-(D18-A)*%
X137718300Y-42610500D02*
X137718300Y-39460500D01*
X135818300Y-44510500D02*
X137718300Y-42610500D01*
X141718300Y-34250000D02*
X141718300Y-38460500D01*
X142318300Y-33650000D02*
X141718300Y-34250000D01*
X140718300Y-39460500D02*
X141718300Y-38460500D01*
X137718300Y-39460500D02*
X140718300Y-39460500D01*
%TO.N,Net-(U1-BST)*%
X77110100Y-112232500D02*
X77110100Y-116704800D01*
X75675300Y-116704800D02*
X77110100Y-116704800D01*
X75047600Y-117332500D02*
X75675300Y-116704800D01*
X78457400Y-116704800D02*
X79485100Y-117732500D01*
X77110100Y-116704800D02*
X78457400Y-116704800D01*
%TO.N,Net-(Q1-G)*%
X27708900Y-53476100D02*
X26643300Y-52410500D01*
X29783500Y-53476100D02*
X27708900Y-53476100D01*
X31349100Y-51910500D02*
X29783500Y-53476100D01*
X32603300Y-51910500D02*
X31349100Y-51910500D01*
X26643300Y-49460500D02*
X26643300Y-52410500D01*
%TO.N,+5V*%
X141951500Y-110960000D02*
X149991500Y-110960000D01*
X139491500Y-108500000D02*
X141951500Y-110960000D01*
X70710100Y-112232500D02*
X70710100Y-116704800D01*
X72144900Y-116704800D02*
X70710100Y-116704800D01*
X72772600Y-117332500D02*
X72144900Y-116704800D01*
X69437800Y-116704800D02*
X68410100Y-117732500D01*
X70710100Y-116704800D02*
X69437800Y-116704800D01*
X55947600Y-114932500D02*
X57597600Y-114932500D01*
X51747600Y-110732500D02*
X55947600Y-114932500D01*
X68410100Y-117732500D02*
X68410100Y-120232500D01*
X67740100Y-117062500D02*
X68410100Y-117732500D01*
X62033700Y-117062500D02*
X67740100Y-117062500D01*
X61447600Y-116476400D02*
X62033700Y-117062500D01*
X61447600Y-115205000D02*
X61447600Y-116476400D01*
X61018800Y-114776200D02*
X61447600Y-115205000D01*
X59908000Y-114776200D02*
X61018800Y-114776200D01*
X58674700Y-116009500D02*
X59908000Y-114776200D01*
X57597600Y-114932500D02*
X58674700Y-116009500D01*
X60410100Y-117745000D02*
X60410100Y-118346700D01*
X58674700Y-116009500D02*
X60410100Y-117745000D01*
X101050000Y-117556600D02*
X101050000Y-116955000D01*
X101880300Y-118386900D02*
X101050000Y-117556600D01*
X105187300Y-118386900D02*
X101880300Y-118386900D01*
X105187300Y-118284400D02*
X105187300Y-118386900D01*
X105950000Y-117521700D02*
X105187300Y-118284400D01*
X105950000Y-116955000D02*
X105950000Y-117521700D01*
X116524400Y-119315800D02*
X116734900Y-119105300D01*
X106036000Y-119315800D02*
X116524400Y-119315800D01*
X105187300Y-118467100D02*
X106036000Y-119315800D01*
X105187300Y-118386900D02*
X105187300Y-118467100D01*
X71761800Y-112232500D02*
X72997150Y-110997150D01*
X70710100Y-112232500D02*
X71761800Y-112232500D01*
%TO.N,Net-(U3-BOOT0)*%
X87799200Y-105384000D02*
X87956600Y-105541400D01*
X42216600Y-105384000D02*
X87799200Y-105384000D01*
X36302400Y-111298200D02*
X42216600Y-105384000D01*
X36302400Y-112337500D02*
X36302400Y-111298200D01*
%TO.N,/STM32/USART1_RX*%
X125501900Y-106350600D02*
X126487000Y-107335700D01*
X64586800Y-106350600D02*
X125501900Y-106350600D01*
X64021900Y-105785700D02*
X64586800Y-106350600D01*
X42417000Y-105785700D02*
X64021900Y-105785700D01*
X36802400Y-111400300D02*
X42417000Y-105785700D01*
X36802400Y-112337500D02*
X36802400Y-111400300D01*
%TO.N,/STM32/USART1_TX*%
X124407100Y-106752300D02*
X125010300Y-107355500D01*
X64420500Y-106752300D02*
X124407100Y-106752300D01*
X63855600Y-106187400D02*
X64420500Y-106752300D01*
X42619000Y-106187400D02*
X63855600Y-106187400D01*
X37302400Y-111504000D02*
X42619000Y-106187400D01*
X37302400Y-112337500D02*
X37302400Y-111504000D01*
%TO.N,/STM32/SWCLK*%
X44682700Y-107457200D02*
X39802400Y-112337500D01*
X63941900Y-107457200D02*
X44682700Y-107457200D01*
X65012700Y-108528000D02*
X63941900Y-107457200D01*
X130152200Y-108528000D02*
X65012700Y-108528000D01*
X138071300Y-116447100D02*
X130152200Y-108528000D01*
X144913300Y-116447100D02*
X138071300Y-116447100D01*
X146709100Y-118242900D02*
X144913300Y-116447100D01*
%TO.N,/STM32/SWDIO*%
X42791500Y-114750000D02*
X41214900Y-114750000D01*
X51723200Y-123681700D02*
X42791500Y-114750000D01*
X120396500Y-123681700D02*
X51723200Y-123681700D01*
X120748000Y-123330200D02*
X120396500Y-123681700D01*
X143621800Y-123330200D02*
X120748000Y-123330200D01*
X148709100Y-118242900D02*
X143621800Y-123330200D01*
%TO.N,/STM32/USB_D+*%
X103250000Y-117713100D02*
X103250000Y-116955000D01*
X103518900Y-117982000D02*
X103250000Y-117713100D01*
X103981100Y-117982000D02*
X103518900Y-117982000D01*
X104250000Y-117713100D02*
X103981100Y-117982000D01*
X104250000Y-116955000D02*
X104250000Y-117713100D01*
X42489000Y-115250000D02*
X41214900Y-115250000D01*
X44149900Y-116910900D02*
X42489000Y-115250000D01*
X44149900Y-117030000D02*
X44149900Y-116910900D01*
X104250000Y-113274900D02*
X103947600Y-112972500D01*
X104250000Y-116955000D02*
X104250000Y-113274900D01*
X100806500Y-109831400D02*
X103947600Y-112972500D01*
X90403500Y-109831400D02*
X100806500Y-109831400D01*
X90158300Y-109586200D02*
X90403500Y-109831400D01*
X64641900Y-109586200D02*
X90158300Y-109586200D01*
%TO.N,/STM32/USB_D-*%
X103468600Y-115896800D02*
X103050100Y-115896800D01*
X103750000Y-116178200D02*
X103468600Y-115896800D01*
X103750000Y-116955000D02*
X103750000Y-116178200D01*
X102750000Y-116196900D02*
X102750000Y-116955000D01*
X103050100Y-115896800D02*
X102750000Y-116196900D01*
X103050100Y-114033700D02*
X103050100Y-115896800D01*
X99249500Y-110233100D02*
X103050100Y-114033700D01*
X90237200Y-110233100D02*
X99249500Y-110233100D01*
X90005800Y-110001700D02*
X90237200Y-110233100D01*
X65311500Y-110001700D02*
X90005800Y-110001700D01*
X65011700Y-110301500D02*
X65311500Y-110001700D01*
X64136800Y-110301500D02*
X65011700Y-110301500D01*
X63604600Y-109769300D02*
X64136800Y-110301500D01*
X42061600Y-115750000D02*
X43211300Y-116899700D01*
X41214900Y-115750000D02*
X42061600Y-115750000D01*
%TO.N,GATE_P5*%
X131702900Y-48445100D02*
X132718300Y-49460500D01*
X126227500Y-48445100D02*
X131702900Y-48445100D01*
X102693300Y-71979300D02*
X126227500Y-48445100D01*
X43756600Y-71979300D02*
X102693300Y-71979300D01*
X38413100Y-116930300D02*
X38253700Y-116770900D01*
X40196000Y-116930300D02*
X38413100Y-116930300D01*
X40376300Y-116750000D02*
X40196000Y-116930300D01*
X41214900Y-116750000D02*
X40376300Y-116750000D01*
%TO.N,GATE_P4*%
X39914700Y-117779600D02*
X39914700Y-118180900D01*
X40396300Y-117298000D02*
X39914700Y-117779600D01*
X41166900Y-117298000D02*
X40396300Y-117298000D01*
X41214900Y-117250000D02*
X41166900Y-117298000D01*
X105684100Y-48445100D02*
X106699500Y-49460500D01*
X98304000Y-48445100D02*
X105684100Y-48445100D01*
X81648600Y-65100500D02*
X98304000Y-48445100D01*
X54929200Y-65100500D02*
X81648600Y-65100500D01*
%TO.N,/STM32/I2C2_SDA*%
X131189100Y-115262900D02*
X131189100Y-115000000D01*
X128209100Y-118242900D02*
X131189100Y-115262900D01*
X38802400Y-121701700D02*
X38802400Y-120662500D01*
X38232000Y-122272100D02*
X38802400Y-121701700D01*
X38232000Y-124400800D02*
X38232000Y-122272100D01*
X38453800Y-124622600D02*
X38232000Y-124400800D01*
X121829400Y-124622600D02*
X38453800Y-124622600D01*
%TO.N,/STM32/I2C2_SCL*%
X127209100Y-117500000D02*
X129709100Y-115000000D01*
X127209100Y-118677000D02*
X127209100Y-117500000D01*
X127807500Y-119275400D02*
X127209100Y-118677000D01*
X129176600Y-119275400D02*
X127807500Y-119275400D01*
X130209100Y-118242900D02*
X129176600Y-119275400D01*
X38302400Y-121532300D02*
X38302400Y-120662500D01*
X37754100Y-122080600D02*
X38302400Y-121532300D01*
X37754100Y-122770900D02*
X37754100Y-122080600D01*
X37579000Y-122946000D02*
X37754100Y-122770900D01*
X124403000Y-123932000D02*
X124461500Y-123990500D01*
X120914400Y-123932000D02*
X124403000Y-123932000D01*
X120705700Y-124140700D02*
X120914400Y-123932000D01*
X44497800Y-124140700D02*
X120705700Y-124140700D01*
X44306400Y-123949300D02*
X44497800Y-124140700D01*
%TO.N,GATE_P2*%
X38154000Y-119540400D02*
X38343400Y-119351000D01*
X36151600Y-119540400D02*
X38154000Y-119540400D01*
X35802400Y-119889600D02*
X36151600Y-119540400D01*
X35802400Y-120662500D02*
X35802400Y-119889600D01*
X54662000Y-50495500D02*
X54425800Y-50731700D01*
X54662000Y-49460500D02*
X54662000Y-50495500D01*
%TO.N,GATE_P1*%
X28643300Y-49460500D02*
X27671100Y-50432700D01*
X35302400Y-121570100D02*
X35724400Y-121992100D01*
X35302400Y-120662500D02*
X35302400Y-121570100D01*
%TO.N,ADC_P5*%
X143718300Y-39410500D02*
X141718300Y-41410500D01*
X143718300Y-38460500D02*
X143718300Y-39410500D01*
X141718300Y-41410500D02*
X141718300Y-43960500D01*
X34802400Y-121984200D02*
X34798600Y-121988000D01*
X34802400Y-120662500D02*
X34802400Y-121984200D01*
X52489800Y-53945600D02*
X51093400Y-52549200D01*
X63488100Y-53945600D02*
X52489800Y-53945600D01*
X69402900Y-48030800D02*
X63488100Y-53945600D01*
X137648000Y-48030800D02*
X69402900Y-48030800D01*
X141718300Y-43960500D02*
X137648000Y-48030800D01*
%TO.N,ADC_P4*%
X117699500Y-39410500D02*
X115699500Y-41410500D01*
X117699500Y-38460500D02*
X117699500Y-39410500D01*
X115699500Y-41410500D02*
X115699500Y-43960500D01*
X33938100Y-121026800D02*
X34302400Y-120662500D01*
X26597300Y-121026800D02*
X33938100Y-121026800D01*
X24095900Y-118525400D02*
X26597300Y-121026800D01*
X24095900Y-115446500D02*
X24095900Y-118525400D01*
X34575700Y-104966700D02*
X24095900Y-115446500D01*
X44864300Y-104966700D02*
X34575700Y-104966700D01*
X60654700Y-89176300D02*
X44864300Y-104966700D01*
X115788700Y-89176300D02*
X60654700Y-89176300D01*
X115699500Y-43960500D02*
X114713300Y-44946700D01*
%TO.N,ADC_P3*%
X89680800Y-41410500D02*
X89680800Y-43960500D01*
X91680800Y-39410500D02*
X89680800Y-41410500D01*
X91680800Y-38460500D02*
X91680800Y-39410500D01*
X59798600Y-45667200D02*
X59582100Y-45450700D01*
X67674400Y-45667200D02*
X59798600Y-45667200D01*
X70079500Y-43262100D02*
X67674400Y-45667200D01*
X81009700Y-43262100D02*
X70079500Y-43262100D01*
X81747300Y-43999700D02*
X81009700Y-43262100D01*
X81747300Y-44972600D02*
X81747300Y-43999700D01*
X82503900Y-45729200D02*
X81747300Y-44972600D01*
X84993700Y-45729200D02*
X82503900Y-45729200D01*
X86762400Y-43960500D02*
X84993700Y-45729200D01*
X89680800Y-43960500D02*
X86762400Y-43960500D01*
X36090900Y-118888700D02*
X37368200Y-118888700D01*
X35494200Y-119485400D02*
X36090900Y-118888700D01*
X33125300Y-119485400D02*
X35494200Y-119485400D01*
X32889900Y-119250000D02*
X33125300Y-119485400D01*
%TO.N,ADC_P2*%
X65662000Y-39410500D02*
X63662000Y-41410500D01*
X65662000Y-38460500D02*
X65662000Y-39410500D01*
X63662000Y-41410500D02*
X63662000Y-42685500D01*
X63662000Y-42685500D02*
X63662000Y-43960500D01*
X63662000Y-42685500D02*
X60322100Y-42685500D01*
X34349900Y-118750000D02*
X34383700Y-118783800D01*
X32889900Y-118750000D02*
X34349900Y-118750000D01*
%TO.N,/STM32/NRST*%
X32077600Y-116750000D02*
X32889900Y-116750000D01*
X31407000Y-117420600D02*
X32077600Y-116750000D01*
X31407000Y-119257900D02*
X31407000Y-117420600D01*
X30972400Y-119692500D02*
X31407000Y-119257900D01*
%TO.N,/STM32/HSE_OUT*%
X30494900Y-116250000D02*
X30402400Y-116342500D01*
X32889900Y-116250000D02*
X30494900Y-116250000D01*
X27114800Y-113977600D02*
X29153600Y-113977600D01*
X25092400Y-116000000D02*
X27114800Y-113977600D01*
X32889900Y-116250000D02*
X34198200Y-116250000D01*
%TO.N,/STM32/HSE_IN*%
X25780000Y-117312400D02*
X25092400Y-118000000D01*
X27472300Y-117312400D02*
X25780000Y-117312400D01*
X28202400Y-118042500D02*
X27472300Y-117312400D01*
X29302400Y-116942500D02*
X28202400Y-118042500D01*
X29302400Y-115795700D02*
X29302400Y-116942500D01*
X29723600Y-115374500D02*
X29302400Y-115795700D01*
X31488600Y-115374500D02*
X29723600Y-115374500D01*
X31864100Y-115750000D02*
X31488600Y-115374500D01*
X32889900Y-115750000D02*
X31864100Y-115750000D01*
%TO.N,Net-(U3-VDDA)*%
X30972400Y-113662500D02*
X30972400Y-114662500D01*
X32741100Y-120374400D02*
X33189000Y-120374400D01*
X31850400Y-119483700D02*
X32741100Y-120374400D01*
X31850400Y-118003400D02*
X31850400Y-119483700D01*
X32103800Y-117750000D02*
X31850400Y-118003400D01*
X32889900Y-117750000D02*
X32103800Y-117750000D01*
X31688800Y-112946100D02*
X30972400Y-113662500D01*
X32270600Y-112946100D02*
X31688800Y-112946100D01*
X30279900Y-112970000D02*
X30972400Y-113662500D01*
X29912400Y-112970000D02*
X30279900Y-112970000D01*
X29134900Y-112192500D02*
X29912400Y-112970000D01*
%TO.N,ADC_P1*%
X37327300Y-44276500D02*
X37643300Y-43960500D01*
X34100900Y-44276500D02*
X37327300Y-44276500D01*
X37643300Y-41410500D02*
X37643300Y-43960500D01*
X39643300Y-39410500D02*
X37643300Y-41410500D01*
X39643300Y-38460500D02*
X39643300Y-39410500D01*
X34249600Y-117862600D02*
X34642300Y-117862600D01*
X33862200Y-118250000D02*
X34249600Y-117862600D01*
X32889900Y-118250000D02*
X33862200Y-118250000D01*
%TO.N,Net-(D14-A)*%
X33643300Y-42610500D02*
X33643300Y-39460500D01*
X31743300Y-44510500D02*
X33643300Y-42610500D01*
X37643300Y-34250000D02*
X37643300Y-38460500D01*
X38243300Y-33650000D02*
X37643300Y-34250000D01*
X36643300Y-39460500D02*
X37643300Y-38460500D01*
X33643300Y-39460500D02*
X36643300Y-39460500D01*
%TO.N,GATE_P3*%
X61259100Y-62428700D02*
X56714000Y-62428700D01*
X75255300Y-48432500D02*
X61259100Y-62428700D01*
X79652800Y-48432500D02*
X75255300Y-48432500D01*
X80680800Y-49460500D02*
X79652800Y-48432500D01*
X36919500Y-122084900D02*
X37102300Y-122084900D01*
X36302400Y-121467800D02*
X36919500Y-122084900D01*
X36302400Y-120662500D02*
X36302400Y-121467800D01*
%TO.N,Net-(Q3-G)*%
X79746400Y-53476100D02*
X78680800Y-52410500D01*
X81821000Y-53476100D02*
X79746400Y-53476100D01*
X83386600Y-51910500D02*
X81821000Y-53476100D01*
X84640800Y-51910500D02*
X83386600Y-51910500D01*
X78680800Y-52410500D02*
X78680800Y-49460500D01*
%TO.N,Net-(Q6-B)*%
X139808300Y-113691700D02*
X139500000Y-114000000D01*
X146361500Y-113691700D02*
X139808300Y-113691700D01*
X146361500Y-112640000D02*
X146361500Y-113691700D01*
%TO.N,FAN_CTRL*%
X41214900Y-116250000D02*
X39901600Y-116250000D01*
X44180700Y-106589100D02*
X43909400Y-106860400D01*
X63689300Y-106589100D02*
X44180700Y-106589100D01*
X65226500Y-108126300D02*
X63689300Y-106589100D01*
X135626300Y-108126300D02*
X65226500Y-108126300D01*
X139500000Y-112000000D02*
X135626300Y-108126300D01*
%TO.N,GND*%
X113199500Y-51910500D02*
X111945300Y-51910500D01*
X139218300Y-51910500D02*
X137964100Y-51910500D01*
X87180800Y-51910500D02*
X85926600Y-51910500D01*
X30445000Y-50608800D02*
X28643300Y-52410500D01*
X33684800Y-50608800D02*
X30445000Y-50608800D01*
X33889100Y-50813100D02*
X33684800Y-50608800D01*
X33889100Y-51910500D02*
X33889100Y-50813100D01*
X35143300Y-51910500D02*
X33889100Y-51910500D01*
X56463700Y-50608800D02*
X54662000Y-52410500D01*
X59703500Y-50608800D02*
X56463700Y-50608800D01*
X59907800Y-50813100D02*
X59703500Y-50608800D01*
X59907800Y-51910500D02*
X59907800Y-50813100D01*
X61162000Y-51910500D02*
X59907800Y-51910500D01*
X34802400Y-109192500D02*
X34802400Y-110192500D01*
X34802400Y-110192500D02*
X34802400Y-112337500D01*
X106299500Y-36450000D02*
X106299500Y-39460500D01*
X109099500Y-33650000D02*
X106299500Y-36450000D01*
X80280800Y-36450000D02*
X80280800Y-39460500D01*
X83080800Y-33650000D02*
X80280800Y-36450000D01*
X28243300Y-36450000D02*
X28243300Y-39460500D01*
X31043300Y-33650000D02*
X28243300Y-36450000D01*
X54262000Y-36450000D02*
X54262000Y-39460500D01*
X57062000Y-33650000D02*
X54262000Y-36450000D01*
X132318300Y-36450000D02*
X132318300Y-39460500D01*
X135118300Y-33650000D02*
X132318300Y-36450000D01*
X39302400Y-122212500D02*
X38822400Y-122692500D01*
X39302400Y-120662500D02*
X39302400Y-122212500D01*
X29796800Y-114662500D02*
X28159600Y-116299700D01*
X30012400Y-114662500D02*
X29796800Y-114662500D01*
X28202400Y-116342500D02*
X28159600Y-116299700D01*
X27859900Y-116000000D02*
X26052400Y-116000000D01*
X28159600Y-116299700D02*
X27859900Y-116000000D01*
X91755800Y-41410500D02*
X91755800Y-43960500D01*
X91755800Y-41410500D02*
X91680800Y-41410500D01*
X39643300Y-41410500D02*
X40955800Y-42723000D01*
X44218300Y-39460500D02*
X40955800Y-42723000D01*
X54262000Y-39460500D02*
X44218300Y-39460500D01*
X40955800Y-42723000D02*
X39718300Y-43960500D01*
X108501200Y-50608800D02*
X106699500Y-52410500D01*
X111741000Y-50608800D02*
X108501200Y-50608800D01*
X111945300Y-50813100D02*
X111741000Y-50608800D01*
X111945300Y-51910500D02*
X111945300Y-50813100D01*
X134520000Y-50608800D02*
X132718300Y-52410500D01*
X137759800Y-50608800D02*
X134520000Y-50608800D01*
X137964100Y-50813100D02*
X137759800Y-50608800D01*
X137964100Y-51910500D02*
X137964100Y-50813100D01*
X65662000Y-41410500D02*
X66974500Y-42723000D01*
X70237000Y-39460500D02*
X66974500Y-42723000D01*
X80280800Y-39460500D02*
X70237000Y-39460500D01*
X66974500Y-42723000D02*
X65737000Y-43960500D01*
X117774500Y-41410500D02*
X117774500Y-43960500D01*
X130368300Y-41410500D02*
X117774500Y-41410500D01*
X132318300Y-39460500D02*
X130368300Y-41410500D01*
X117774500Y-41410500D02*
X117699500Y-41410500D01*
X38543300Y-45135500D02*
X39718300Y-43960500D01*
X35143300Y-45135500D02*
X38543300Y-45135500D01*
X143793300Y-41485500D02*
X143793300Y-43960500D01*
X143718300Y-41410500D02*
X143793300Y-41485500D01*
X64708700Y-44988800D02*
X61162000Y-44988800D01*
X65737000Y-43960500D02*
X64708700Y-44988800D01*
X70485100Y-117732500D02*
X70485100Y-120232500D01*
X62485100Y-118346700D02*
X62485100Y-120895000D01*
X60447600Y-116309200D02*
X62485100Y-118346700D01*
X60447600Y-115828300D02*
X60447600Y-116309200D01*
X82482500Y-50608800D02*
X80680800Y-52410500D01*
X85722300Y-50608800D02*
X82482500Y-50608800D01*
X85926600Y-50813100D02*
X85722300Y-50608800D01*
X85926600Y-51910500D02*
X85926600Y-50813100D01*
X74947600Y-119332500D02*
X74947600Y-122232500D01*
X75047600Y-119232500D02*
X74947600Y-119332500D01*
X139218300Y-48535500D02*
X139218300Y-51910500D01*
X143793300Y-43960500D02*
X139218300Y-48535500D01*
X70485100Y-120232500D02*
X69861700Y-120855900D01*
X62886500Y-121296400D02*
X62485100Y-120895000D01*
X69421200Y-121296400D02*
X62886500Y-121296400D01*
X69861700Y-120855900D02*
X69421200Y-121296400D01*
X57597600Y-119766300D02*
X57597600Y-119532500D01*
X59754200Y-121922900D02*
X57597600Y-119766300D01*
X61457200Y-121922900D02*
X59754200Y-121922900D01*
X62485100Y-120895000D02*
X61457200Y-121922900D01*
X44667400Y-113602500D02*
X43802400Y-114467500D01*
X45302400Y-113602500D02*
X44667400Y-113602500D01*
X106299500Y-39460500D02*
X104349500Y-41410500D01*
X104349500Y-41410500D02*
X91755800Y-41410500D01*
X90695100Y-45021200D02*
X87180800Y-45021200D01*
X91755800Y-43960500D02*
X90695100Y-45021200D01*
X25395400Y-118657000D02*
X26052400Y-118000000D01*
X24804200Y-118657000D02*
X25395400Y-118657000D01*
X24503900Y-118356700D02*
X24804200Y-118657000D01*
X24503900Y-117548500D02*
X24503900Y-118356700D01*
X26052400Y-116000000D02*
X24503900Y-117548500D01*
X27009700Y-118957300D02*
X30012400Y-118957300D01*
X26052400Y-118000000D02*
X27009700Y-118957300D01*
X30012400Y-118432500D02*
X30012400Y-118957300D01*
X30402400Y-118042500D02*
X30012400Y-118432500D01*
X30012400Y-118957300D02*
X30012400Y-119692500D01*
X48867400Y-119532500D02*
X43802400Y-114467500D01*
X57597600Y-119532500D02*
X48867400Y-119532500D01*
X30012400Y-114662500D02*
X30012400Y-113662500D01*
X125596000Y-118856000D02*
X126209100Y-118242900D01*
X117421900Y-118856000D02*
X125596000Y-118856000D01*
X107194800Y-116510200D02*
X106750000Y-116955000D01*
X115076100Y-116510200D02*
X107194800Y-116510200D01*
X117421900Y-118856000D02*
X115076100Y-116510200D01*
X37157600Y-117210800D02*
X38223100Y-118276300D01*
X32929100Y-117210800D02*
X37157600Y-117210800D01*
X32889900Y-117250000D02*
X32929100Y-117210800D01*
X39302400Y-119355600D02*
X38223100Y-118276300D01*
X39302400Y-120662500D02*
X39302400Y-119355600D01*
X34802400Y-113180000D02*
X34802400Y-112337500D01*
X35645900Y-114023500D02*
X34802400Y-113180000D01*
X38447700Y-114023500D02*
X35645900Y-114023500D01*
X42511600Y-114250000D02*
X42511600Y-113734700D01*
X41214900Y-114250000D02*
X42511600Y-114250000D01*
X43584900Y-114250000D02*
X43802400Y-114467500D01*
X42511600Y-114250000D02*
X43584900Y-114250000D01*
X134024900Y-119677100D02*
X135459100Y-118242900D01*
X127572300Y-119677100D02*
X134024900Y-119677100D01*
X126209100Y-118313900D02*
X127572300Y-119677100D01*
X126209100Y-118242900D02*
X126209100Y-118313900D01*
X38822400Y-122692500D02*
X38822400Y-124000000D01*
X98885600Y-119774100D02*
X98344000Y-119232500D01*
X117006000Y-119774100D02*
X98885600Y-119774100D01*
X117421900Y-119358200D02*
X117006000Y-119774100D01*
X117421900Y-118856000D02*
X117421900Y-119358200D01*
X72283300Y-123277500D02*
X69861700Y-120855900D01*
X73902600Y-123277500D02*
X72283300Y-123277500D01*
X74947600Y-122232500D02*
X73902600Y-123277500D01*
X99625000Y-112115000D02*
X99625000Y-116460900D01*
X99000000Y-111490000D02*
X99625000Y-112115000D01*
X99755900Y-116460900D02*
X99625000Y-116460900D01*
X100250000Y-116955000D02*
X99755900Y-116460900D01*
X98344000Y-117005700D02*
X98344000Y-119232500D01*
X98888800Y-116460900D02*
X98344000Y-117005700D01*
X99625000Y-116460900D02*
X98888800Y-116460900D01*
X115981400Y-45753600D02*
X117774500Y-43960500D01*
X108600500Y-45753600D02*
X115981400Y-45753600D01*
X107822400Y-44975500D02*
X108600500Y-45753600D01*
X107822400Y-44046500D02*
X107822400Y-44975500D01*
X105186500Y-41410600D02*
X107822400Y-44046500D01*
X104349500Y-41410600D02*
X105186500Y-41410600D01*
X104349500Y-41410500D02*
X104349500Y-41410600D01*
X34138500Y-108528600D02*
X34802400Y-109192500D01*
X31586600Y-108528600D02*
X34138500Y-108528600D01*
X28369800Y-111745400D02*
X31586600Y-108528600D01*
X28369800Y-112652700D02*
X28369800Y-111745400D01*
X28887100Y-113170000D02*
X28369800Y-112652700D01*
X29519900Y-113170000D02*
X28887100Y-113170000D01*
X30012400Y-113662500D02*
X29519900Y-113170000D01*
%TO.N,+3.3V*%
X51297600Y-117232500D02*
X57597600Y-117232500D01*
X60410100Y-120045000D02*
X60410100Y-120895000D01*
X57597600Y-117232500D02*
X60410100Y-120045000D01*
X59272600Y-110732500D02*
X57147600Y-110732500D01*
X61447600Y-108557500D02*
X59272600Y-110732500D01*
X33842400Y-109192500D02*
X33842400Y-110192500D01*
X33842400Y-110192500D02*
X33842400Y-112192500D01*
X34157400Y-112192500D02*
X34302400Y-112337500D01*
X33842400Y-112192500D02*
X34157400Y-112192500D01*
X141459100Y-118242900D02*
X140482400Y-118242900D01*
X42047400Y-112917500D02*
X43802400Y-112917500D01*
X41214900Y-113750000D02*
X42047400Y-112917500D01*
X39802400Y-122672500D02*
X39782400Y-122692500D01*
X39802400Y-120662500D02*
X39802400Y-122672500D01*
X39782400Y-122692500D02*
X39782400Y-124000000D01*
X106995100Y-115000000D02*
X103947600Y-111952500D01*
X128689100Y-115000000D02*
X106995100Y-115000000D01*
X131567500Y-114358400D02*
X132209100Y-115000000D01*
X129330700Y-114358400D02*
X131567500Y-114358400D01*
X128689100Y-115000000D02*
X129330700Y-114358400D01*
X45302400Y-112655800D02*
X45302400Y-112642500D01*
X45040700Y-112917500D02*
X45302400Y-112655800D01*
X43802400Y-112917500D02*
X45040700Y-112917500D01*
X46720900Y-112655800D02*
X51297600Y-117232500D01*
X45302400Y-112655800D02*
X46720900Y-112655800D01*
X55643700Y-109228600D02*
X57147600Y-110732500D01*
X48716300Y-109228600D02*
X55643700Y-109228600D01*
X45302400Y-112642500D02*
X48716300Y-109228600D01*
X136625500Y-116832500D02*
X132209100Y-116832500D01*
X137027200Y-117234200D02*
X136625500Y-116832500D01*
X139840000Y-117234200D02*
X137027200Y-117234200D01*
X140482400Y-117876600D02*
X139840000Y-117234200D01*
X140482400Y-118242900D02*
X140482400Y-117876600D01*
X132209100Y-118242900D02*
X132209100Y-116832500D01*
X132209100Y-116832500D02*
X132209100Y-115000000D01*
X40324500Y-113750000D02*
X41214900Y-113750000D01*
X37317900Y-116756600D02*
X40324500Y-113750000D01*
X34311300Y-113750000D02*
X37317900Y-116756600D01*
X32889900Y-113750000D02*
X34311300Y-113750000D01*
X39802400Y-118990100D02*
X39802400Y-120662500D01*
X39263000Y-118450700D02*
X39802400Y-118990100D01*
X39263000Y-118386200D02*
X39263000Y-118450700D01*
X38299400Y-117422600D02*
X39263000Y-118386200D01*
X37983900Y-117422600D02*
X38299400Y-117422600D01*
X37317900Y-116756600D02*
X37983900Y-117422600D01*
X65477900Y-110403400D02*
X87138500Y-110403400D01*
X65178100Y-110703200D02*
X65477900Y-110403400D01*
X63593300Y-110703200D02*
X65178100Y-110703200D01*
X61447600Y-108557500D02*
X63593300Y-110703200D01*
X32922300Y-113717600D02*
X32922300Y-112192500D01*
X32889900Y-113750000D02*
X32922300Y-113717600D01*
X30709900Y-112192500D02*
X32922300Y-112192500D01*
X32922300Y-112192500D02*
X33842400Y-112192500D01*
X101174800Y-109179700D02*
X103947600Y-111952500D01*
X90673300Y-109179700D02*
X101174800Y-109179700D01*
%TD*%
M02*
