%TF.GenerationSoftware,KiCad,Pcbnew,10.0.2*%
%TF.CreationDate,2026-06-16T22:33:29-07:00*%
%TF.ProjectId,Lipo Discharger,4c69706f-2044-4697-9363-686172676572,rev?*%
%TF.SameCoordinates,Original*%
%TF.FileFunction,Paste,Top*%
%TF.FilePolarity,Positive*%
%FSLAX46Y46*%
G04 Gerber Fmt 4.6, Leading zero omitted, Abs format (unit mm)*
G04 Created by KiCad (PCBNEW 10.0.2) date 2026-06-16 22:33:29*
%MOMM*%
%LPD*%
G01*
G04 APERTURE LIST*
G04 Aperture macros list*
%AMRoundRect*
0 Rectangle with rounded corners*
0 $1 Rounding radius*
0 $2 $3 $4 $5 $6 $7 $8 $9 X,Y pos of 4 corners*
0 Add a 4 corners polygon primitive as box body*
4,1,4,$2,$3,$4,$5,$6,$7,$8,$9,$2,$3,0*
0 Add four circle primitives for the rounded corners*
1,1,$1+$1,$2,$3*
1,1,$1+$1,$4,$5*
1,1,$1+$1,$6,$7*
1,1,$1+$1,$8,$9*
0 Add four rect primitives between the rounded corners*
20,1,$1+$1,$2,$3,$4,$5,0*
20,1,$1+$1,$4,$5,$6,$7,0*
20,1,$1+$1,$6,$7,$8,$9,0*
20,1,$1+$1,$8,$9,$2,$3,0*%
G04 Aperture macros list end*
%ADD10RoundRect,0.250000X-0.337500X-0.475000X0.337500X-0.475000X0.337500X0.475000X-0.337500X0.475000X0*%
%ADD11RoundRect,0.250000X-0.450000X0.350000X-0.450000X-0.350000X0.450000X-0.350000X0.450000X0.350000X0*%
%ADD12RoundRect,0.250000X-0.350000X-0.450000X0.350000X-0.450000X0.350000X0.450000X-0.350000X0.450000X0*%
%ADD13RoundRect,0.140000X0.140000X0.170000X-0.140000X0.170000X-0.140000X-0.170000X0.140000X-0.170000X0*%
%ADD14RoundRect,0.075000X-0.662500X-0.075000X0.662500X-0.075000X0.662500X0.075000X-0.662500X0.075000X0*%
%ADD15RoundRect,0.075000X-0.075000X-0.662500X0.075000X-0.662500X0.075000X0.662500X-0.075000X0.662500X0*%
%ADD16RoundRect,0.135000X-0.135000X-0.185000X0.135000X-0.185000X0.135000X0.185000X-0.135000X0.185000X0*%
%ADD17RoundRect,0.250000X-1.500000X-0.900000X1.500000X-0.900000X1.500000X0.900000X-1.500000X0.900000X0*%
%ADD18R,1.500000X2.200000*%
%ADD19RoundRect,0.140000X-0.140000X-0.170000X0.140000X-0.170000X0.140000X0.170000X-0.140000X0.170000X0*%
%ADD20RoundRect,0.249999X1.075001X-0.512501X1.075001X0.512501X-1.075001X0.512501X-1.075001X-0.512501X0*%
%ADD21RoundRect,0.250000X-1.000000X-0.650000X1.000000X-0.650000X1.000000X0.650000X-1.000000X0.650000X0*%
%ADD22RoundRect,0.140000X-0.170000X0.140000X-0.170000X-0.140000X0.170000X-0.140000X0.170000X0.140000X0*%
%ADD23RoundRect,0.250000X-0.450000X-0.350000X0.450000X-0.350000X0.450000X0.350000X-0.450000X0.350000X0*%
%ADD24RoundRect,0.150000X-0.150000X-0.575000X0.150000X-0.575000X0.150000X0.575000X-0.150000X0.575000X0*%
%ADD25RoundRect,0.075000X-0.075000X-0.650000X0.075000X-0.650000X0.075000X0.650000X-0.075000X0.650000X0*%
%ADD26RoundRect,0.135000X-0.185000X0.135000X-0.185000X-0.135000X0.185000X-0.135000X0.185000X0.135000X0*%
%ADD27RoundRect,0.250000X0.350000X0.450000X-0.350000X0.450000X-0.350000X-0.450000X0.350000X-0.450000X0*%
%ADD28RoundRect,0.150000X-0.512500X-0.150000X0.512500X-0.150000X0.512500X0.150000X-0.512500X0.150000X0*%
%ADD29RoundRect,0.375000X0.625000X0.375000X-0.625000X0.375000X-0.625000X-0.375000X0.625000X-0.375000X0*%
%ADD30RoundRect,0.500000X0.500000X1.400000X-0.500000X1.400000X-0.500000X-1.400000X0.500000X-1.400000X0*%
%ADD31RoundRect,0.225000X-0.250000X0.225000X-0.250000X-0.225000X0.250000X-0.225000X0.250000X0.225000X0*%
%ADD32RoundRect,0.218750X-0.218750X-0.256250X0.218750X-0.256250X0.218750X0.256250X-0.218750X0.256250X0*%
G04 APERTURE END LIST*
D10*
%TO.C,C6*%
X60410100Y-120895000D03*
X62485100Y-120895000D03*
%TD*%
D11*
%TO.C,R54*%
X139500000Y-112000000D03*
X139500000Y-114000000D03*
%TD*%
D12*
%TO.C,R23*%
X78680800Y-49460500D03*
X80680800Y-49460500D03*
%TD*%
%TO.C,R8*%
X37643300Y-38460500D03*
X39643300Y-38460500D03*
%TD*%
D13*
%TO.C,C14*%
X30972400Y-113662500D03*
X30012400Y-113662500D03*
%TD*%
D14*
%TO.C,U3*%
X32889900Y-113750000D03*
X32889900Y-114250000D03*
X32889900Y-114750000D03*
X32889900Y-115250000D03*
X32889900Y-115750000D03*
X32889900Y-116250000D03*
X32889900Y-116750000D03*
X32889900Y-117250000D03*
X32889900Y-117750000D03*
X32889900Y-118250000D03*
X32889900Y-118750000D03*
X32889900Y-119250000D03*
D15*
X34302400Y-120662500D03*
X34802400Y-120662500D03*
X35302400Y-120662500D03*
X35802400Y-120662500D03*
X36302400Y-120662500D03*
X36802400Y-120662500D03*
X37302400Y-120662500D03*
X37802400Y-120662500D03*
X38302400Y-120662500D03*
X38802400Y-120662500D03*
X39302400Y-120662500D03*
X39802400Y-120662500D03*
D14*
X41214900Y-119250000D03*
X41214900Y-118750000D03*
X41214900Y-118250000D03*
X41214900Y-117750000D03*
X41214900Y-117250000D03*
X41214900Y-116750000D03*
X41214900Y-116250000D03*
X41214900Y-115750000D03*
X41214900Y-115250000D03*
X41214900Y-114750000D03*
X41214900Y-114250000D03*
X41214900Y-113750000D03*
D15*
X39802400Y-112337500D03*
X39302400Y-112337500D03*
X38802400Y-112337500D03*
X38302400Y-112337500D03*
X37802400Y-112337500D03*
X37302400Y-112337500D03*
X36802400Y-112337500D03*
X36302400Y-112337500D03*
X35802400Y-112337500D03*
X35302400Y-112337500D03*
X34802400Y-112337500D03*
X34302400Y-112337500D03*
%TD*%
D12*
%TO.C,R33*%
X141718300Y-41410500D03*
X143718300Y-41410500D03*
%TD*%
D16*
%TO.C,RP_SCL1*%
X128689100Y-115000000D03*
X129709100Y-115000000D03*
%TD*%
D12*
%TO.C,R11*%
X26643300Y-52410500D03*
X28643300Y-52410500D03*
%TD*%
D17*
%TO.C,D3*%
X28243300Y-39460500D03*
X33643300Y-39460500D03*
%TD*%
D18*
%TO.C,L1*%
X77110100Y-112232500D03*
X70710100Y-112232500D03*
%TD*%
D12*
%TO.C,R10*%
X26643300Y-49460500D03*
X28643300Y-49460500D03*
%TD*%
D17*
%TO.C,D1*%
X51747600Y-110732500D03*
X57147600Y-110732500D03*
%TD*%
D10*
%TO.C,C2*%
X77410100Y-117732500D03*
X79485100Y-117732500D03*
%TD*%
D19*
%TO.C,C10*%
X33842400Y-110192500D03*
X34802400Y-110192500D03*
%TD*%
D12*
%TO.C,R27*%
X115699500Y-41410500D03*
X117699500Y-41410500D03*
%TD*%
D16*
%TO.C,RP_SDA1*%
X131189100Y-115000000D03*
X132209100Y-115000000D03*
%TD*%
D10*
%TO.C,C21*%
X115699500Y-43960500D03*
X117774500Y-43960500D03*
%TD*%
D13*
%TO.C,C11*%
X39782400Y-124000000D03*
X38822400Y-124000000D03*
%TD*%
D17*
%TO.C,D7*%
X132318300Y-39460500D03*
X137718300Y-39460500D03*
%TD*%
D20*
%TO.C,D19*%
X61447600Y-113232500D03*
X61447600Y-108557500D03*
%TD*%
D13*
%TO.C,C8*%
X30972400Y-119692500D03*
X30012400Y-119692500D03*
%TD*%
D21*
%TO.C,D15*%
X53762000Y-44510500D03*
X57762000Y-44510500D03*
%TD*%
D12*
%TO.C,R16*%
X52662000Y-52410500D03*
X54662000Y-52410500D03*
%TD*%
D22*
%TO.C,C15*%
X45302400Y-112642500D03*
X45302400Y-113602500D03*
%TD*%
D17*
%TO.C,D5*%
X80280800Y-39460500D03*
X85680800Y-39460500D03*
%TD*%
D19*
%TO.C,C25*%
X25092400Y-116000000D03*
X26052400Y-116000000D03*
%TD*%
D23*
%TO.C,Y1*%
X28202400Y-118042500D03*
X30402400Y-118042500D03*
X30402400Y-116342500D03*
X28202400Y-116342500D03*
%TD*%
D24*
%TO.C,J2*%
X100250000Y-116955000D03*
X101050000Y-116955000D03*
D25*
X102250000Y-116955000D03*
X103250000Y-116955000D03*
X103750000Y-116955000D03*
X104750000Y-116955000D03*
D24*
X105950000Y-116955000D03*
X106750000Y-116955000D03*
X106750000Y-116955000D03*
X105950000Y-116955000D03*
D25*
X105250000Y-116955000D03*
X104250000Y-116955000D03*
X102750000Y-116955000D03*
X101750000Y-116955000D03*
D24*
X101050000Y-116955000D03*
X100250000Y-116955000D03*
%TD*%
D26*
%TO.C,R2*%
X99000000Y-111490000D03*
X99000000Y-112510000D03*
%TD*%
D13*
%TO.C,C13*%
X30972400Y-114662500D03*
X30012400Y-114662500D03*
%TD*%
D12*
%TO.C,R15*%
X63662000Y-41410500D03*
X65662000Y-41410500D03*
%TD*%
D27*
%TO.C,R4*%
X62447600Y-115828300D03*
X60447600Y-115828300D03*
%TD*%
D12*
%TO.C,R32*%
X141718300Y-38460500D03*
X143718300Y-38460500D03*
%TD*%
%TO.C,R20*%
X89680800Y-38460500D03*
X91680800Y-38460500D03*
%TD*%
D19*
%TO.C,C9*%
X33842400Y-109192500D03*
X34802400Y-109192500D03*
%TD*%
D10*
%TO.C,C22*%
X141718300Y-43960500D03*
X143793300Y-43960500D03*
%TD*%
D19*
%TO.C,C17*%
X25092400Y-118000000D03*
X26052400Y-118000000D03*
%TD*%
D10*
%TO.C,C19*%
X63662000Y-43960500D03*
X65737000Y-43960500D03*
%TD*%
D28*
%TO.C,U1*%
X72772600Y-117332500D03*
X72772600Y-118282500D03*
X72772600Y-119232500D03*
X75047600Y-119232500D03*
X75047600Y-118282500D03*
X75047600Y-117332500D03*
%TD*%
D21*
%TO.C,D14*%
X27743300Y-44510500D03*
X31743300Y-44510500D03*
%TD*%
D29*
%TO.C,U2*%
X57597600Y-119532500D03*
X57597600Y-117232500D03*
D30*
X51297600Y-117232500D03*
D29*
X57597600Y-114932500D03*
%TD*%
D12*
%TO.C,R29*%
X104699500Y-49460500D03*
X106699500Y-49460500D03*
%TD*%
D17*
%TO.C,D6*%
X106299500Y-39460500D03*
X111699500Y-39460500D03*
%TD*%
D12*
%TO.C,R14*%
X63662000Y-38460500D03*
X65662000Y-38460500D03*
%TD*%
D26*
%TO.C,R3*%
X103947600Y-111952500D03*
X103947600Y-112972500D03*
%TD*%
D12*
%TO.C,R34*%
X130718300Y-52410500D03*
X132718300Y-52410500D03*
%TD*%
D21*
%TO.C,D16*%
X79780800Y-44510500D03*
X83780800Y-44510500D03*
%TD*%
D12*
%TO.C,R17*%
X52662000Y-49460500D03*
X54662000Y-49460500D03*
%TD*%
D10*
%TO.C,C1*%
X72872600Y-122232500D03*
X74947600Y-122232500D03*
%TD*%
D12*
%TO.C,R22*%
X78680800Y-52410500D03*
X80680800Y-52410500D03*
%TD*%
%TO.C,R35*%
X130718300Y-49460500D03*
X132718300Y-49460500D03*
%TD*%
D10*
%TO.C,C4*%
X68410100Y-120232500D03*
X70485100Y-120232500D03*
%TD*%
D13*
%TO.C,C12*%
X39782400Y-122692500D03*
X38822400Y-122692500D03*
%TD*%
D12*
%TO.C,R28*%
X104699500Y-52410500D03*
X106699500Y-52410500D03*
%TD*%
D31*
%TO.C,C7*%
X43802400Y-112917500D03*
X43802400Y-114467500D03*
%TD*%
D32*
%TO.C,FB1*%
X29134900Y-112192500D03*
X30709900Y-112192500D03*
%TD*%
D17*
%TO.C,D4*%
X54262000Y-39460500D03*
X59662000Y-39460500D03*
%TD*%
D10*
%TO.C,C20*%
X89680800Y-43960500D03*
X91755800Y-43960500D03*
%TD*%
D12*
%TO.C,R9*%
X37643300Y-41410500D03*
X39643300Y-41410500D03*
%TD*%
%TO.C,R26*%
X115699500Y-38460500D03*
X117699500Y-38460500D03*
%TD*%
D10*
%TO.C,C5*%
X60410100Y-118346700D03*
X62485100Y-118346700D03*
%TD*%
%TO.C,C3*%
X68410100Y-117732500D03*
X70485100Y-117732500D03*
%TD*%
D21*
%TO.C,D17*%
X105799500Y-44510500D03*
X109799500Y-44510500D03*
%TD*%
D10*
%TO.C,C18*%
X37643300Y-43960500D03*
X39718300Y-43960500D03*
%TD*%
D12*
%TO.C,R21*%
X89680800Y-41410500D03*
X91680800Y-41410500D03*
%TD*%
D21*
%TO.C,D18*%
X131818300Y-44510500D03*
X135818300Y-44510500D03*
%TD*%
M02*
