%TF.GenerationSoftware,KiCad,Pcbnew,10.0.2*%
%TF.CreationDate,2026-06-16T22:33:29-07:00*%
%TF.ProjectId,Lipo Discharger,4c69706f-2044-4697-9363-686172676572,rev?*%
%TF.SameCoordinates,Original*%
%TF.FileFunction,Soldermask,Bot*%
%TF.FilePolarity,Negative*%
%FSLAX46Y46*%
G04 Gerber Fmt 4.6, Leading zero omitted, Abs format (unit mm)*
G04 Created by KiCad (PCBNEW 10.0.2) date 2026-06-16 22:33:29*
%MOMM*%
%LPD*%
G01*
G04 APERTURE LIST*
G04 Aperture macros list*
%AMRoundRect*
0 Rectangle with rounded corners*
0 $1 Rounding radius*
0 $2 $3 $4 $5 $6 $7 $8 $9 X,Y pos of 4 corners*
0 Add a 4 corners polygon primitive as box body*
4,1,4,$2,$3,$4,$5,$6,$7,$8,$9,$2,$3,0*
0 Add four circle primitives for the rounded corners*
1,1,$1+$1,$2,$3*
1,1,$1+$1,$4,$5*
1,1,$1+$1,$6,$7*
1,1,$1+$1,$8,$9*
0 Add four rect primitives between the rounded corners*
20,1,$1+$1,$2,$3,$4,$5,0*
20,1,$1+$1,$4,$5,$6,$7,0*
20,1,$1+$1,$6,$7,$8,$9,0*
20,1,$1+$1,$8,$9,$2,$3,0*%
G04 Aperture macros list end*
%ADD10C,4.100000*%
%ADD11RoundRect,1.025000X-1.025000X-1.025000X1.025000X-1.025000X1.025000X1.025000X-1.025000X1.025000X0*%
%ADD12R,1.100000X2.100000*%
%ADD13C,2.000000*%
%ADD14R,1.700000X1.700000*%
%ADD15C,1.700000*%
%ADD16RoundRect,0.250000X0.550000X0.550000X-0.550000X0.550000X-0.550000X-0.550000X0.550000X-0.550000X0*%
%ADD17C,1.600000*%
%ADD18C,2.400000*%
%ADD19R,1.905000X2.000000*%
%ADD20O,1.905000X2.000000*%
%ADD21R,1.350000X1.350000*%
%ADD22C,1.350000*%
%ADD23R,1.150000X1.500000*%
%ADD24O,1.150000X1.500000*%
%ADD25C,0.650000*%
%ADD26O,1.000000X2.100000*%
%ADD27O,1.000000X1.600000*%
G04 APERTURE END LIST*
D10*
%TO.C,J8*%
X142318300Y-33650000D03*
D11*
X135118300Y-33650000D03*
D12*
X145468300Y-27650000D03*
X131968300Y-27650000D03*
%TD*%
D13*
%TO.C,SW1*%
X93750000Y-115250000D03*
X93750000Y-121750000D03*
X89250000Y-115250000D03*
X89250000Y-121750000D03*
%TD*%
D14*
%TO.C,FAN*%
X149991500Y-113500000D03*
D15*
X149991500Y-110960000D03*
%TD*%
D16*
%TO.C,D13*%
X147111500Y-108500000D03*
D17*
X139491500Y-108500000D03*
%TD*%
D18*
%TO.C,R13*%
X34593300Y-103320500D03*
X34593300Y-57600500D03*
%TD*%
D19*
%TO.C,Q2*%
X58622000Y-51910500D03*
D20*
X61162000Y-51910500D03*
X63702000Y-51910500D03*
%TD*%
D18*
%TO.C,R56*%
X68562000Y-103320500D03*
X68562000Y-57600500D03*
%TD*%
D12*
%TO.C,J5*%
X53912000Y-27650000D03*
X67412000Y-27650000D03*
D11*
X57062000Y-33650000D03*
D10*
X64262000Y-33650000D03*
%TD*%
D19*
%TO.C,Q1*%
X32603300Y-51910500D03*
D20*
X35143300Y-51910500D03*
X37683300Y-51910500D03*
%TD*%
D21*
%TO.C,ST-Link*%
X150709100Y-118242900D03*
D22*
X148709100Y-118242900D03*
X146709100Y-118242900D03*
X144709100Y-118242900D03*
%TD*%
D18*
%TO.C,R25*%
X86630800Y-103320500D03*
X86630800Y-57600500D03*
%TD*%
D19*
%TO.C,Q3*%
X84640800Y-51910500D03*
D20*
X87180800Y-51910500D03*
X89720800Y-51910500D03*
%TD*%
D21*
%TO.C,I2C*%
X132209100Y-118242900D03*
D22*
X130209100Y-118242900D03*
X128209100Y-118242900D03*
X126209100Y-118242900D03*
%TD*%
D23*
%TO.C,Q6*%
X146361500Y-112640000D03*
D24*
X144961500Y-112640000D03*
X143561500Y-112640000D03*
%TD*%
D18*
%TO.C,R55*%
X42543300Y-103320500D03*
X42543300Y-57600500D03*
%TD*%
D12*
%TO.C,J4*%
X27893300Y-27650000D03*
X41393300Y-27650000D03*
D11*
X31043300Y-33650000D03*
D10*
X38243300Y-33650000D03*
%TD*%
D19*
%TO.C,Q5*%
X136678300Y-51910500D03*
D20*
X139218300Y-51910500D03*
X141758300Y-51910500D03*
%TD*%
D25*
%TO.C,J2*%
X100610000Y-118400000D03*
X106390000Y-118400000D03*
D26*
X99180000Y-117870000D03*
D27*
X99180000Y-122050000D03*
D26*
X107820000Y-117870000D03*
D27*
X107820000Y-122050000D03*
%TD*%
D18*
%TO.C,R36*%
X130718300Y-103320500D03*
X130718300Y-57600500D03*
%TD*%
D19*
%TO.C,Q4*%
X110659500Y-51910500D03*
D20*
X113199500Y-51910500D03*
X115739500Y-51910500D03*
%TD*%
D18*
%TO.C,R58*%
X120599500Y-103320500D03*
X120599500Y-57600500D03*
%TD*%
%TO.C,R18*%
X52662000Y-103320500D03*
X52662000Y-57600500D03*
%TD*%
%TO.C,R57*%
X94580800Y-103320500D03*
X94580800Y-57600500D03*
%TD*%
%TO.C,R37*%
X138668300Y-103320500D03*
X138668300Y-57600500D03*
%TD*%
D12*
%TO.C,J6*%
X79930800Y-27650000D03*
X93430800Y-27650000D03*
D11*
X83080800Y-33650000D03*
D10*
X90280800Y-33650000D03*
%TD*%
D18*
%TO.C,R19*%
X60612000Y-103320500D03*
X60612000Y-57600500D03*
%TD*%
D21*
%TO.C,UART*%
X141459100Y-118242900D03*
D22*
X139459100Y-118242900D03*
X137459100Y-118242900D03*
X135459100Y-118242900D03*
%TD*%
D18*
%TO.C,R31*%
X112649500Y-103320500D03*
X112649500Y-57600500D03*
%TD*%
%TO.C,R12*%
X26643300Y-103320500D03*
X26643300Y-57600500D03*
%TD*%
%TO.C,R59*%
X146618300Y-103320500D03*
X146618300Y-57600500D03*
%TD*%
%TO.C,R30*%
X104699500Y-103320500D03*
X104699500Y-57600500D03*
%TD*%
D12*
%TO.C,J7*%
X105949500Y-27650000D03*
X119449500Y-27650000D03*
D11*
X109099500Y-33650000D03*
D10*
X116299500Y-33650000D03*
%TD*%
D18*
%TO.C,R24*%
X78680800Y-103320500D03*
X78680800Y-57600500D03*
%TD*%
M02*
