%TF.GenerationSoftware,KiCad,Pcbnew,10.0.2*%
%TF.CreationDate,2026-05-21T22:17:08-07:00*%
%TF.ProjectId,Lipo Discharger,4c69706f-2044-4697-9363-686172676572,rev?*%
%TF.SameCoordinates,Original*%
%TF.FileFunction,Soldermask,Top*%
%TF.FilePolarity,Negative*%
%FSLAX46Y46*%
G04 Gerber Fmt 4.6, Leading zero omitted, Abs format (unit mm)*
G04 Created by KiCad (PCBNEW 10.0.2) date 2026-05-21 22:17:08*
%MOMM*%
%LPD*%
G01*
G04 APERTURE LIST*
G04 Aperture macros list*
%AMRoundRect*
0 Rectangle with rounded corners*
0 $1 Rounding radius*
0 $2 $3 $4 $5 $6 $7 $8 $9 X,Y pos of 4 corners*
0 Add a 4 corners polygon primitive as box body*
4,1,4,$2,$3,$4,$5,$6,$7,$8,$9,$2,$3,0*
0 Add four circle primitives for the rounded corners*
1,1,$1+$1,$2,$3*
1,1,$1+$1,$4,$5*
1,1,$1+$1,$6,$7*
1,1,$1+$1,$8,$9*
0 Add four rect primitives between the rounded corners*
20,1,$1+$1,$2,$3,$4,$5,0*
20,1,$1+$1,$4,$5,$6,$7,0*
20,1,$1+$1,$6,$7,$8,$9,0*
20,1,$1+$1,$8,$9,$2,$3,0*%
G04 Aperture macros list end*
%ADD10C,4.100000*%
%ADD11RoundRect,1.025000X-1.025000X-1.025000X1.025000X-1.025000X1.025000X1.025000X-1.025000X1.025000X0*%
%ADD12R,0.900000X2.000000*%
%ADD13C,0.650000*%
%ADD14RoundRect,0.150000X0.575000X-0.150000X0.575000X0.150000X-0.575000X0.150000X-0.575000X-0.150000X0*%
%ADD15RoundRect,0.075000X0.650000X-0.075000X0.650000X0.075000X-0.650000X0.075000X-0.650000X-0.075000X0*%
%ADD16O,2.100000X1.000000*%
%ADD17O,1.600000X1.000000*%
%ADD18RoundRect,0.250000X0.475000X-0.337500X0.475000X0.337500X-0.475000X0.337500X-0.475000X-0.337500X0*%
%ADD19C,2.400000*%
%ADD20R,1.070000X1.800000*%
%ADD21O,1.070000X1.800000*%
%ADD22RoundRect,0.250000X-0.350000X-0.450000X0.350000X-0.450000X0.350000X0.450000X-0.350000X0.450000X0*%
%ADD23RoundRect,0.250000X-1.500000X-0.900000X1.500000X-0.900000X1.500000X0.900000X-1.500000X0.900000X0*%
%ADD24RoundRect,0.250000X-1.000000X-0.650000X1.000000X-0.650000X1.000000X0.650000X-1.000000X0.650000X0*%
%ADD25RoundRect,0.250000X-0.337500X-0.475000X0.337500X-0.475000X0.337500X0.475000X-0.337500X0.475000X0*%
%ADD26RoundRect,0.375000X-0.625000X-0.375000X0.625000X-0.375000X0.625000X0.375000X-0.625000X0.375000X0*%
%ADD27RoundRect,0.500000X-0.500000X-1.400000X0.500000X-1.400000X0.500000X1.400000X-0.500000X1.400000X0*%
%ADD28RoundRect,0.250000X0.900000X-1.500000X0.900000X1.500000X-0.900000X1.500000X-0.900000X-1.500000X0*%
%ADD29R,1.905000X2.000000*%
%ADD30O,1.905000X2.000000*%
%ADD31C,2.000000*%
%ADD32R,1.050000X1.500000*%
%ADD33O,1.050000X1.500000*%
%ADD34RoundRect,0.250000X-0.800000X-0.650000X0.800000X-0.650000X0.800000X0.650000X-0.800000X0.650000X0*%
%ADD35RoundRect,0.250000X0.350000X0.450000X-0.350000X0.450000X-0.350000X-0.450000X0.350000X-0.450000X0*%
%ADD36R,1.700000X1.700000*%
%ADD37C,1.700000*%
%ADD38RoundRect,0.075000X-0.662500X-0.075000X0.662500X-0.075000X0.662500X0.075000X-0.662500X0.075000X0*%
%ADD39RoundRect,0.075000X-0.075000X-0.662500X0.075000X-0.662500X0.075000X0.662500X-0.075000X0.662500X0*%
%ADD40RoundRect,0.250001X-0.462499X-0.624999X0.462499X-0.624999X0.462499X0.624999X-0.462499X0.624999X0*%
%ADD41R,2.900000X5.400000*%
%ADD42RoundRect,0.162500X0.162500X-0.837500X0.162500X0.837500X-0.162500X0.837500X-0.162500X-0.837500X0*%
%ADD43RoundRect,0.100000X-0.637500X-0.100000X0.637500X-0.100000X0.637500X0.100000X-0.637500X0.100000X0*%
%ADD44RoundRect,0.250000X-0.550000X-0.550000X0.550000X-0.550000X0.550000X0.550000X-0.550000X0.550000X0*%
%ADD45C,1.600000*%
G04 APERTURE END LIST*
D10*
%TO.C,J7*%
X142100000Y-60650000D03*
D11*
X134900000Y-60650000D03*
D12*
X145250000Y-54650000D03*
X131750000Y-54650000D03*
%TD*%
%TO.C,J8*%
X101750000Y-54150000D03*
X115250000Y-54150000D03*
D11*
X104900000Y-60150000D03*
D10*
X112100000Y-60150000D03*
%TD*%
D12*
%TO.C,J6*%
X161750000Y-54150000D03*
X175250000Y-54150000D03*
D11*
X164900000Y-60150000D03*
D10*
X172100000Y-60150000D03*
%TD*%
D12*
%TO.C,J5*%
X191750000Y-54650000D03*
X205250000Y-54650000D03*
D11*
X194900000Y-60650000D03*
D10*
X202100000Y-60650000D03*
%TD*%
D12*
%TO.C,J4*%
X221750000Y-54150000D03*
X235250000Y-54150000D03*
D11*
X224900000Y-60150000D03*
D10*
X232100000Y-60150000D03*
%TD*%
D13*
%TO.C,J2*%
X232899000Y-103507900D03*
X232899000Y-97727900D03*
D14*
X231454000Y-103867900D03*
X231454000Y-103067900D03*
D15*
X231454000Y-101867900D03*
X231454000Y-100867900D03*
X231454000Y-100367900D03*
X231454000Y-99367900D03*
D14*
X231454000Y-98167900D03*
X231454000Y-97367900D03*
X231454000Y-97367900D03*
X231454000Y-98167900D03*
D15*
X231454000Y-98867900D03*
X231454000Y-99867900D03*
X231454000Y-101367900D03*
X231454000Y-102367900D03*
D14*
X231454000Y-103067900D03*
X231454000Y-103867900D03*
D16*
X232369000Y-104937900D03*
D17*
X236549000Y-104937900D03*
D16*
X232369000Y-96297900D03*
D17*
X236549000Y-96297900D03*
%TD*%
D18*
%TO.C,C15*%
X130499000Y-109155400D03*
X130499000Y-107080400D03*
%TD*%
D19*
%TO.C,R36*%
X107499000Y-150617900D03*
X107499000Y-122677900D03*
%TD*%
D20*
%TO.C,D4*%
X229499000Y-73117900D03*
D21*
X228229000Y-73117900D03*
X226959000Y-73117900D03*
X225689000Y-73117900D03*
%TD*%
D22*
%TO.C,R49*%
X141999000Y-73617900D03*
X143999000Y-73617900D03*
%TD*%
%TO.C,R44*%
X171999000Y-71117900D03*
X173999000Y-71117900D03*
%TD*%
D19*
%TO.C,R24*%
X167499000Y-150642900D03*
X167499000Y-122702900D03*
%TD*%
D22*
%TO.C,R1*%
X210461500Y-108117900D03*
X212461500Y-108117900D03*
%TD*%
D18*
%TO.C,C17*%
X127999000Y-109155400D03*
X127999000Y-107080400D03*
%TD*%
D23*
%TO.C,D5*%
X190799000Y-81617900D03*
X196199000Y-81617900D03*
%TD*%
D24*
%TO.C,D18*%
X110999000Y-81117900D03*
X114999000Y-81117900D03*
%TD*%
%TO.C,D16*%
X170799000Y-81117900D03*
X174799000Y-81117900D03*
%TD*%
D18*
%TO.C,C12*%
X105529000Y-118155400D03*
X105529000Y-116080400D03*
%TD*%
D25*
%TO.C,C3*%
X206424000Y-117117900D03*
X208499000Y-117117900D03*
%TD*%
D22*
%TO.C,R10*%
X205499000Y-91617900D03*
X207499000Y-91617900D03*
%TD*%
D26*
%TO.C,U2*%
X215849000Y-110317900D03*
X215849000Y-112617900D03*
D27*
X222149000Y-112617900D03*
D26*
X215849000Y-114917900D03*
%TD*%
D20*
%TO.C,D8*%
X169499000Y-73117900D03*
D21*
X168229000Y-73117900D03*
X166959000Y-73117900D03*
X165689000Y-73117900D03*
%TD*%
D18*
%TO.C,C16*%
X132999000Y-109155400D03*
X132999000Y-107080400D03*
%TD*%
D25*
%TO.C,C2*%
X187999000Y-103617900D03*
X190074000Y-103617900D03*
%TD*%
%TO.C,C7*%
X211424000Y-114117900D03*
X213499000Y-114117900D03*
%TD*%
D22*
%TO.C,R9*%
X220999000Y-73617900D03*
X222999000Y-73617900D03*
%TD*%
%TO.C,R48*%
X188499000Y-116117900D03*
X190499000Y-116117900D03*
%TD*%
D28*
%TO.C,D2*%
X188999000Y-112317900D03*
X188999000Y-106917900D03*
%TD*%
D22*
%TO.C,R46*%
X171999000Y-76117900D03*
X173999000Y-76117900D03*
%TD*%
%TO.C,R51*%
X111999000Y-71117900D03*
X113999000Y-71117900D03*
%TD*%
D19*
%TO.C,R31*%
X147499000Y-150642900D03*
X147499000Y-122702900D03*
%TD*%
D29*
%TO.C,Q5*%
X111579000Y-89117900D03*
D30*
X109039000Y-89117900D03*
X106499000Y-89117900D03*
%TD*%
D25*
%TO.C,C21*%
X130961500Y-76117900D03*
X133036500Y-76117900D03*
%TD*%
D22*
%TO.C,R14*%
X190999000Y-71117900D03*
X192999000Y-71117900D03*
%TD*%
D31*
%TO.C,SW1*%
X231249000Y-109867900D03*
X237749000Y-109867900D03*
X231249000Y-114367900D03*
X237749000Y-114367900D03*
%TD*%
D22*
%TO.C,R40*%
X231999000Y-76117900D03*
X233999000Y-76117900D03*
%TD*%
D25*
%TO.C,C4*%
X211424000Y-111117900D03*
X213499000Y-111117900D03*
%TD*%
D19*
%TO.C,R13*%
X237499000Y-150672900D03*
X237499000Y-122732900D03*
%TD*%
D22*
%TO.C,R50*%
X141999000Y-76117900D03*
X143999000Y-76117900D03*
%TD*%
D32*
%TO.C,Q6*%
X101689000Y-100147900D03*
D33*
X102959000Y-100147900D03*
X104229000Y-100147900D03*
%TD*%
D22*
%TO.C,R6*%
X235499000Y-90617900D03*
X237499000Y-90617900D03*
%TD*%
D34*
%TO.C,Y1*%
X130049000Y-104767900D03*
X132949000Y-104767900D03*
X132949000Y-102467900D03*
X130049000Y-102467900D03*
%TD*%
D22*
%TO.C,R52*%
X111999000Y-73617900D03*
X113999000Y-73617900D03*
%TD*%
D19*
%TO.C,R58*%
X127499000Y-150702900D03*
X127499000Y-122762900D03*
%TD*%
D22*
%TO.C,R17*%
X142499000Y-97617900D03*
X144499000Y-97617900D03*
%TD*%
D18*
%TO.C,C9*%
X96499000Y-118155400D03*
X96499000Y-116080400D03*
%TD*%
D25*
%TO.C,C23*%
X96461500Y-113617900D03*
X98536500Y-113617900D03*
%TD*%
%TO.C,C20*%
X160961500Y-76117900D03*
X163036500Y-76117900D03*
%TD*%
D22*
%TO.C,R22*%
X168499000Y-85617900D03*
X170499000Y-85617900D03*
%TD*%
D19*
%TO.C,R59*%
X97499000Y-150617900D03*
X97499000Y-122677900D03*
%TD*%
D24*
%TO.C,D17*%
X140499000Y-81117900D03*
X144499000Y-81117900D03*
%TD*%
D35*
%TO.C,R4*%
X139499000Y-97617900D03*
X137499000Y-97617900D03*
%TD*%
D25*
%TO.C,C22*%
X100961500Y-76117900D03*
X103036500Y-76117900D03*
%TD*%
D19*
%TO.C,R55*%
X217499000Y-150702900D03*
X217499000Y-122762900D03*
%TD*%
D23*
%TO.C,D9*%
X130299000Y-81617900D03*
X135699000Y-81617900D03*
%TD*%
D29*
%TO.C,Q4*%
X140999000Y-89117900D03*
D30*
X138459000Y-89117900D03*
X135919000Y-89117900D03*
%TD*%
D22*
%TO.C,R21*%
X160999000Y-73617900D03*
X162999000Y-73617900D03*
%TD*%
D19*
%TO.C,R18*%
X197499000Y-150672900D03*
X197499000Y-122732900D03*
%TD*%
D24*
%TO.C,D14*%
X230499000Y-81117900D03*
X234499000Y-81117900D03*
%TD*%
D22*
%TO.C,R43*%
X201999000Y-76117900D03*
X203999000Y-76117900D03*
%TD*%
D18*
%TO.C,C13*%
X108539000Y-118155400D03*
X108539000Y-116080400D03*
%TD*%
D22*
%TO.C,R8*%
X220999000Y-71117900D03*
X222999000Y-71117900D03*
%TD*%
%TO.C,R53*%
X111999000Y-76117900D03*
X113999000Y-76117900D03*
%TD*%
%TO.C,R38*%
X231999000Y-71117900D03*
X233999000Y-71117900D03*
%TD*%
D36*
%TO.C,J3*%
X103539000Y-107617900D03*
D37*
X100999000Y-107617900D03*
X98459000Y-107617900D03*
X95919000Y-107617900D03*
%TD*%
D18*
%TO.C,C11*%
X102519000Y-118155400D03*
X102519000Y-116080400D03*
%TD*%
D20*
%TO.C,D10*%
X139499000Y-73117900D03*
D21*
X138229000Y-73117900D03*
X136959000Y-73117900D03*
X135689000Y-73117900D03*
%TD*%
D22*
%TO.C,R27*%
X130999000Y-73617900D03*
X132999000Y-73617900D03*
%TD*%
%TO.C,R15*%
X190999000Y-73617900D03*
X192999000Y-73617900D03*
%TD*%
%TO.C,R7*%
X235499000Y-93617900D03*
X237499000Y-93617900D03*
%TD*%
%TO.C,R26*%
X130999000Y-71117900D03*
X132999000Y-71117900D03*
%TD*%
%TO.C,R23*%
X168499000Y-99117900D03*
X170499000Y-99117900D03*
%TD*%
D25*
%TO.C,C6*%
X102461500Y-113617900D03*
X104536500Y-113617900D03*
%TD*%
D24*
%TO.C,D15*%
X200999000Y-81117900D03*
X204999000Y-81117900D03*
%TD*%
D22*
%TO.C,R47*%
X141999000Y-71117900D03*
X143999000Y-71117900D03*
%TD*%
%TO.C,R45*%
X171999000Y-73617900D03*
X173999000Y-73617900D03*
%TD*%
%TO.C,R2*%
X192499000Y-113617900D03*
X194499000Y-113617900D03*
%TD*%
D19*
%TO.C,R37*%
X117499000Y-150672900D03*
X117499000Y-122732900D03*
%TD*%
D22*
%TO.C,R34*%
X109499000Y-85617900D03*
X111499000Y-85617900D03*
%TD*%
%TO.C,R42*%
X201999000Y-73617900D03*
X203999000Y-73617900D03*
%TD*%
D25*
%TO.C,C5*%
X211424000Y-117117900D03*
X213499000Y-117117900D03*
%TD*%
D35*
%TO.C,R5*%
X131499000Y-111617900D03*
X129499000Y-111617900D03*
%TD*%
D22*
%TO.C,R28*%
X138499000Y-85617900D03*
X140499000Y-85617900D03*
%TD*%
D19*
%TO.C,R30*%
X137499000Y-150672900D03*
X137499000Y-122732900D03*
%TD*%
D23*
%TO.C,D1*%
X213799000Y-90117900D03*
X219199000Y-90117900D03*
%TD*%
D22*
%TO.C,R33*%
X100999000Y-73617900D03*
X102999000Y-73617900D03*
%TD*%
D29*
%TO.C,Q2*%
X201079000Y-89117900D03*
D30*
X198539000Y-89117900D03*
X195999000Y-89117900D03*
%TD*%
D38*
%TO.C,U3*%
X135336500Y-102367900D03*
X135336500Y-102867900D03*
X135336500Y-103367900D03*
X135336500Y-103867900D03*
X135336500Y-104367900D03*
X135336500Y-104867900D03*
X135336500Y-105367900D03*
X135336500Y-105867900D03*
X135336500Y-106367900D03*
X135336500Y-106867900D03*
X135336500Y-107367900D03*
X135336500Y-107867900D03*
D39*
X136749000Y-109280400D03*
X137249000Y-109280400D03*
X137749000Y-109280400D03*
X138249000Y-109280400D03*
X138749000Y-109280400D03*
X139249000Y-109280400D03*
X139749000Y-109280400D03*
X140249000Y-109280400D03*
X140749000Y-109280400D03*
X141249000Y-109280400D03*
X141749000Y-109280400D03*
X142249000Y-109280400D03*
D38*
X143661500Y-107867900D03*
X143661500Y-107367900D03*
X143661500Y-106867900D03*
X143661500Y-106367900D03*
X143661500Y-105867900D03*
X143661500Y-105367900D03*
X143661500Y-104867900D03*
X143661500Y-104367900D03*
X143661500Y-103867900D03*
X143661500Y-103367900D03*
X143661500Y-102867900D03*
X143661500Y-102367900D03*
D39*
X142249000Y-100955400D03*
X141749000Y-100955400D03*
X141249000Y-100955400D03*
X140749000Y-100955400D03*
X140249000Y-100955400D03*
X139749000Y-100955400D03*
X139249000Y-100955400D03*
X138749000Y-100955400D03*
X138249000Y-100955400D03*
X137749000Y-100955400D03*
X137249000Y-100955400D03*
X136749000Y-100955400D03*
%TD*%
D40*
%TO.C,F1*%
X215511500Y-106117900D03*
X218486500Y-106117900D03*
%TD*%
D22*
%TO.C,R29*%
X140499000Y-94617900D03*
X142499000Y-94617900D03*
%TD*%
D25*
%TO.C,C19*%
X190961500Y-76117900D03*
X193036500Y-76117900D03*
%TD*%
%TO.C,C1*%
X192461500Y-104117900D03*
X194536500Y-104117900D03*
%TD*%
D35*
%TO.C,R3*%
X132499000Y-99617900D03*
X130499000Y-99617900D03*
%TD*%
D22*
%TO.C,R20*%
X160999000Y-71117900D03*
X162999000Y-71117900D03*
%TD*%
D20*
%TO.C,D12*%
X109499000Y-73117900D03*
D21*
X108229000Y-73117900D03*
X106959000Y-73117900D03*
X105689000Y-73117900D03*
%TD*%
D19*
%TO.C,R57*%
X157499000Y-150612900D03*
X157499000Y-122672900D03*
%TD*%
D22*
%TO.C,R32*%
X100999000Y-71117900D03*
X102999000Y-71117900D03*
%TD*%
D25*
%TO.C,C8*%
X132461500Y-96617900D03*
X134536500Y-96617900D03*
%TD*%
D29*
%TO.C,Q3*%
X170999000Y-89117900D03*
D30*
X168459000Y-89117900D03*
X165919000Y-89117900D03*
%TD*%
D22*
%TO.C,R54*%
X121499000Y-100617900D03*
X123499000Y-100617900D03*
%TD*%
D41*
%TO.C,L1*%
X197649000Y-108617900D03*
X207349000Y-108617900D03*
%TD*%
D23*
%TO.C,D11*%
X100799000Y-81617900D03*
X106199000Y-81617900D03*
%TD*%
D42*
%TO.C,U1*%
X192549000Y-110327900D03*
X193499000Y-110327900D03*
X194449000Y-110327900D03*
X194449000Y-106907900D03*
X193499000Y-106907900D03*
X192549000Y-106907900D03*
%TD*%
D22*
%TO.C,R11*%
X228499000Y-85617900D03*
X230499000Y-85617900D03*
%TD*%
%TO.C,R16*%
X198499000Y-85617900D03*
X200499000Y-85617900D03*
%TD*%
D23*
%TO.C,D7*%
X160599000Y-81617900D03*
X165999000Y-81617900D03*
%TD*%
D22*
%TO.C,R41*%
X201999000Y-71117900D03*
X203999000Y-71117900D03*
%TD*%
%TO.C,R35*%
X112499000Y-94617900D03*
X114499000Y-94617900D03*
%TD*%
D25*
%TO.C,C18*%
X220961500Y-76117900D03*
X223036500Y-76117900D03*
%TD*%
D20*
%TO.C,D6*%
X199499000Y-73117900D03*
D21*
X198229000Y-73117900D03*
X196959000Y-73117900D03*
X195689000Y-73117900D03*
%TD*%
D43*
%TO.C,U4*%
X165636500Y-100972900D03*
X165636500Y-101622900D03*
X165636500Y-102272900D03*
X165636500Y-102922900D03*
X165636500Y-103572900D03*
X165636500Y-104222900D03*
X165636500Y-104872900D03*
X165636500Y-105522900D03*
X165636500Y-106172900D03*
X165636500Y-106822900D03*
X165636500Y-107472900D03*
X165636500Y-108122900D03*
X165636500Y-108772900D03*
X165636500Y-109422900D03*
X171361500Y-109422900D03*
X171361500Y-108772900D03*
X171361500Y-108122900D03*
X171361500Y-107472900D03*
X171361500Y-106822900D03*
X171361500Y-106172900D03*
X171361500Y-105522900D03*
X171361500Y-104872900D03*
X171361500Y-104222900D03*
X171361500Y-103572900D03*
X171361500Y-102922900D03*
X171361500Y-102272900D03*
X171361500Y-101622900D03*
X171361500Y-100972900D03*
%TD*%
D18*
%TO.C,C14*%
X111549000Y-118155400D03*
X111549000Y-116080400D03*
%TD*%
D44*
%TO.C,D13*%
X96689000Y-95117900D03*
D45*
X104309000Y-95117900D03*
%TD*%
D19*
%TO.C,R56*%
X187499000Y-150672900D03*
X187499000Y-122732900D03*
%TD*%
%TO.C,R19*%
X207499000Y-150672900D03*
X207499000Y-122732900D03*
%TD*%
D23*
%TO.C,D3*%
X220799000Y-81617900D03*
X226199000Y-81617900D03*
%TD*%
D29*
%TO.C,Q1*%
X230499000Y-89117900D03*
D30*
X227959000Y-89117900D03*
X225419000Y-89117900D03*
%TD*%
D19*
%TO.C,R12*%
X227499000Y-150702900D03*
X227499000Y-122762900D03*
%TD*%
%TO.C,R25*%
X177499000Y-150612900D03*
X177499000Y-122672900D03*
%TD*%
D18*
%TO.C,C10*%
X99509000Y-118155400D03*
X99509000Y-116080400D03*
%TD*%
D22*
%TO.C,R39*%
X231999000Y-73617900D03*
X233999000Y-73617900D03*
%TD*%
D36*
%TO.C,J9*%
X97409000Y-99187900D03*
D37*
X97409000Y-101727900D03*
%TD*%
M02*
