M48
; DRILL file KiCad 10.0.2 date 2026-05-21T22:17:12
; FORMAT={-:-/ absolute / metric / decimal}
; #@! TF.CreationDate,2026-05-21T22:17:12-07:00
; #@! TF.GenerationSoftware,Kicad,Pcbnew,10.0.2
; #@! TF.FileFunction,Plated,1,2,PTH
FMAT,2
METRIC
; #@! TA.AperFunction,Plated,PTH,ViaDrill
T1C0.300
; #@! TA.AperFunction,Plated,PTH,ComponentDrill
T2C0.600
; #@! TA.AperFunction,Plated,PTH,ComponentDrill
T3C0.750
; #@! TA.AperFunction,Plated,PTH,ComponentDrill
T4C0.800
; #@! TA.AperFunction,Plated,PTH,ComponentDrill
T5C0.900
; #@! TA.AperFunction,Plated,PTH,ComponentDrill
T6C1.000
; #@! TA.AperFunction,Plated,PTH,ComponentDrill
T7C1.100
; #@! TA.AperFunction,Plated,PTH,ComponentDrill
T8C1.200
; #@! TA.AperFunction,Plated,PTH,ComponentDrill
T9C2.700
%
G90
G05
T1
X101.925Y-77.082
X104.024Y-117.118
X112.515Y-95.893
X114.433Y-72.339
X114.433Y-74.841
X116.506Y-108.37
X117.034Y-121.017
X123.412Y-118.444
X123.524Y-114.495
X123.655Y-108.972
X127.999Y-110.854
X131.466Y-106.136
X131.917Y-77.074
X133.364Y-83.645
X133.68Y-113.893
X134.308Y-108.841
X134.994Y-109.856
X135.6Y-111.881
X136.6Y-107.494
X136.706Y-104.755
X136.73Y-112.778
X137.264Y-94.938
X137.775Y-113.613
X138.1Y-107.295
X138.18Y-106.487
X138.389Y-111.723
X138.57Y-103.857
X138.707Y-105.241
X138.918Y-114.923
X139.257Y-99.714
X139.286Y-96.113
X139.684Y-108.016
X139.713Y-76.76
X140.276Y-102.905
X140.889Y-102.199
X140.942Y-105.596
X141.861Y-99.709
X142.786Y-90.433
X144.021Y-77.338
X144.336Y-101.694
X144.43Y-74.841
X144.498Y-72.336
X145.978Y-118.379
X146.643Y-106.828
X151.478Y-57.67
X151.912Y-113.695
X153.072Y-109.192
X153.571Y-118.999
X153.771Y-111.039
X153.932Y-105.6
X156.942Y-82.343
X157.261Y-84.133
X160.873Y-74.887
X163.234Y-109.977
X166.666Y-111.765
X166.877Y-108.123
X166.885Y-106.173
X167.011Y-103.253
X167.153Y-110.427
X167.39Y-105.302
X167.394Y-99.672
X167.419Y-106.823
X167.675Y-78.789
X168.806Y-102.182
X168.878Y-112.964
X169.182Y-100.968
X169.499Y-76.76
X170.58Y-94.497
X172.002Y-97.293
X172.445Y-96.452
X172.62Y-103.573
X172.761Y-102.769
X173.063Y-72.054
X173.077Y-104.765
X173.802Y-88.988
X174.059Y-99.768
X174.062Y-118.999
X174.124Y-74.835
X175.028Y-90.198
X175.452Y-95.485
X180.514Y-58.289
X186.526Y-115.114
X187.137Y-83.433
X188.349Y-99.335
X190.987Y-77.374
X191.454Y-88.988
X193.499Y-105.339
X195.073Y-91.638
X195.677Y-96.564
X195.823Y-78.657
X196.63Y-77.122
X198.891Y-74.939
X226.742Y-83.578
X230.206Y-98.168
X230.275Y-94.691
X232.735Y-102.415
X235.167Y-76.433
T3
X101.689Y-100.148
X102.959Y-100.148
X104.229Y-100.148
T4
X96.689Y-95.118
X104.309Y-95.118
T5
X105.689Y-73.118
X106.959Y-73.118
X108.229Y-73.118
X109.499Y-73.118
X135.689Y-73.118
X136.959Y-73.118
X138.229Y-73.118
X139.499Y-73.118
X165.689Y-73.118
X166.959Y-73.118
X168.229Y-73.118
X169.499Y-73.118
X195.689Y-73.118
X196.959Y-73.118
X198.229Y-73.118
X199.499Y-73.118
X225.689Y-73.118
X226.959Y-73.118
X228.229Y-73.118
X229.499Y-73.118
T6
X95.919Y-107.618
X97.409Y-99.188
X97.409Y-101.728
X98.459Y-107.618
X100.999Y-107.618
X103.539Y-107.618
T7
X106.499Y-89.118
X109.039Y-89.118
X111.579Y-89.118
X135.919Y-89.118
X138.459Y-89.118
X140.999Y-89.118
X165.919Y-89.118
X168.459Y-89.118
X170.999Y-89.118
X195.999Y-89.118
X198.539Y-89.118
X201.079Y-89.118
X225.419Y-89.118
X227.959Y-89.118
X230.499Y-89.118
X231.249Y-109.868
X231.249Y-114.368
X237.749Y-109.868
X237.749Y-114.368
T8
X97.499Y-122.678
X97.499Y-150.618
X107.499Y-122.678
X107.499Y-150.618
X117.499Y-122.733
X117.499Y-150.673
X127.499Y-122.763
X127.499Y-150.703
X137.499Y-122.733
X137.499Y-150.673
X147.499Y-122.703
X147.499Y-150.643
X157.499Y-122.673
X157.499Y-150.613
X167.499Y-122.703
X167.499Y-150.643
X177.499Y-122.673
X177.499Y-150.613
X187.499Y-122.733
X187.499Y-150.673
X197.499Y-122.733
X197.499Y-150.673
X207.499Y-122.733
X207.499Y-150.673
X217.499Y-122.763
X217.499Y-150.703
X227.499Y-122.763
X227.499Y-150.703
X237.499Y-122.733
X237.499Y-150.673
T9
X104.9Y-60.15
X112.1Y-60.15
X134.9Y-60.65
X142.1Y-60.65
X164.9Y-60.15
X172.1Y-60.15
X194.9Y-60.65
X202.1Y-60.65
X224.9Y-60.15
X232.1Y-60.15
T2
G00X101.75Y-53.6
M15
G01X101.75Y-54.7
M16
G05
G00X115.25Y-53.6
M15
G01X115.25Y-54.7
M16
G05
G00X131.75Y-54.1
M15
G01X131.75Y-55.2
M16
G05
G00X145.25Y-54.1
M15
G01X145.25Y-55.2
M16
G05
G00X161.75Y-53.6
M15
G01X161.75Y-54.7
M16
G05
G00X175.25Y-53.6
M15
G01X175.25Y-54.7
M16
G05
G00X191.75Y-54.1
M15
G01X191.75Y-55.2
M16
G05
G00X205.25Y-54.1
M15
G01X205.25Y-55.2
M16
G05
G00X221.75Y-53.6
M15
G01X221.75Y-54.7
M16
G05
G00X231.819Y-96.298
M15
G01X232.919Y-96.298
M16
G05
G00X231.819Y-104.938
M15
G01X232.919Y-104.938
M16
G05
G00X235.25Y-53.6
M15
G01X235.25Y-54.7
M16
G05
G00X236.249Y-96.298
M15
G01X236.849Y-96.298
M16
G05
G00X236.249Y-104.938
M15
G01X236.849Y-104.938
M16
G05
M30
